%FSLAX45Y45*%
G04 Gerber Fmt 4.5, Leading zero omitted, Abs format (unit mm)*
G04 Created by KiCad (PCBNEW 6.0.4-6f826c9f35~116~ubuntu20.04.1) date 2022-05-05 18:34:53*
%MOMM*%
%LPD*%
G01*
G04 APERTURE LIST*
%TA.AperFunction,Profile*%
%ADD10C,0.100000*%
%TD*%
%ADD11C,0.200000*%
%ADD12C,0.040000*%
%ADD13C,0.076200*%
%ADD14C,0.080000*%
%ADD15C,0.100000*%
%ADD16C,0.132000*%
%ADD17C,0.320000*%
G04 APERTURE END LIST*
D10*
X17627600Y-9499600D02*
X16408400Y-9499600D01*
X19464592Y-13699592D02*
G75*
G03*
X19845592Y-13318592I-2J381002D01*
G01*
X15748000Y-9347200D02*
X14528800Y-9347200D01*
X12065000Y-9931400D02*
X10845800Y-9931400D01*
X10947400Y-12877800D02*
G75*
G03*
X10947400Y-12623800I0J127000D01*
G01*
X10845800Y-9931400D02*
G75*
G03*
X10845800Y-10083800I0J-76200D01*
G01*
X17627600Y-9499600D02*
G75*
G03*
X17627600Y-9347200I0J76200D01*
G01*
X17627600Y-9347200D02*
X16408400Y-9347200D01*
X19845592Y-13318592D02*
X19844852Y-5080000D01*
X19507200Y-9499600D02*
X18288000Y-9499600D01*
X16408400Y-9347200D02*
G75*
G03*
X16408400Y-9499600I0J-76200D01*
G01*
X10226408Y-12623592D02*
X10947400Y-12623800D01*
X9844408Y-13259408D02*
X9845408Y-13317592D01*
X14528800Y-9347200D02*
G75*
G03*
X14528800Y-9499600I0J-76200D01*
G01*
X12065000Y-10083800D02*
X10845800Y-10083800D01*
X15748000Y-9499600D02*
X14528800Y-9499600D01*
X15748000Y-9499600D02*
G75*
G03*
X15748000Y-9347200I0J76200D01*
G01*
X9842500Y-5080000D02*
X9845408Y-12242592D01*
X18288000Y-9347200D02*
G75*
G03*
X18288000Y-9499600I0J-76200D01*
G01*
X10223500Y-4699000D02*
G75*
G03*
X9842500Y-5080000I0J-381000D01*
G01*
X10225408Y-12878408D02*
G75*
G03*
X9844408Y-13259408I2J-381002D01*
G01*
X10226408Y-13698592D02*
X19464592Y-13699592D01*
X12065000Y-10083800D02*
G75*
G03*
X12065000Y-9931400I0J76200D01*
G01*
X19463852Y-4699000D02*
X10223500Y-4699000D01*
X10947400Y-12877800D02*
X10225408Y-12878408D01*
X19507200Y-9499600D02*
G75*
G03*
X19507200Y-9347200I0J76200D01*
G01*
X19507200Y-9347200D02*
X18288000Y-9347200D01*
X9845408Y-13317592D02*
G75*
G03*
X10226408Y-13698592I381002J2D01*
G01*
X9845408Y-12242592D02*
G75*
G03*
X10226408Y-12623592I381002J2D01*
G01*
X19844850Y-5080000D02*
G75*
G03*
X19463852Y-4699000I-381000J0D01*
G01*
D11*
D12*
X10201400Y-7803200D02*
X10241400Y-7843200D01*
X10241400Y-7803200D02*
X10201400Y-7843200D01*
X10235190Y-13318390D02*
X10275190Y-13358390D01*
X10275190Y-13318390D02*
X10235190Y-13358390D01*
X10241400Y-13189000D02*
X10281400Y-13229000D01*
X10281400Y-13189000D02*
X10241400Y-13229000D01*
X10282600Y-13467400D02*
X10322600Y-13507400D01*
X10322600Y-13467400D02*
X10282600Y-13507400D01*
X10409600Y-13391200D02*
X10449600Y-13431200D01*
X10449600Y-13391200D02*
X10409600Y-13431200D01*
X10409600Y-13543600D02*
X10449600Y-13583600D01*
X10449600Y-13543600D02*
X10409600Y-13583600D01*
X10501400Y-8639000D02*
X10541400Y-8679000D01*
X10541400Y-8639000D02*
X10501400Y-8679000D01*
X10546400Y-11257600D02*
X10586400Y-11297600D01*
X10586400Y-11257600D02*
X10546400Y-11297600D01*
X10817333Y-11257600D02*
X10857333Y-11297600D01*
X10857333Y-11257600D02*
X10817333Y-11297600D01*
X10831400Y-13119000D02*
X10871400Y-13159000D01*
X10871400Y-13119000D02*
X10831400Y-13159000D01*
X10866800Y-13543600D02*
X10906800Y-13583600D01*
X10906800Y-13543600D02*
X10866800Y-13583600D01*
X11044600Y-13543600D02*
X11084600Y-13583600D01*
X11084600Y-13543600D02*
X11044600Y-13583600D01*
X11088267Y-11257600D02*
X11128267Y-11297600D01*
X11128267Y-11257600D02*
X11088267Y-11297600D01*
X11222400Y-13543600D02*
X11262400Y-13583600D01*
X11262400Y-13543600D02*
X11222400Y-13583600D01*
X11359200Y-11257600D02*
X11399200Y-11297600D01*
X11399200Y-11257600D02*
X11359200Y-11297600D01*
X11384600Y-12476800D02*
X11424600Y-12516800D01*
X11424600Y-12476800D02*
X11384600Y-12516800D01*
X11551400Y-12959000D02*
X11591400Y-12999000D01*
X11591400Y-12959000D02*
X11551400Y-12999000D01*
X12248200Y-12019600D02*
X12288200Y-12059600D01*
X12288200Y-12019600D02*
X12248200Y-12059600D01*
X12263800Y-12934000D02*
X12303800Y-12974000D01*
X12303800Y-12934000D02*
X12263800Y-12974000D01*
X12324400Y-11486200D02*
X12364400Y-11526200D01*
X12364400Y-11486200D02*
X12324400Y-11526200D01*
X12400600Y-7904800D02*
X12440600Y-7944800D01*
X12440600Y-7904800D02*
X12400600Y-7944800D01*
X12400600Y-8031800D02*
X12440600Y-8071800D01*
X12440600Y-8031800D02*
X12400600Y-8071800D01*
X12426000Y-8912333D02*
X12466000Y-8952333D01*
X12466000Y-8912333D02*
X12426000Y-8952333D01*
X12426000Y-9157867D02*
X12466000Y-9197867D01*
X12466000Y-9157867D02*
X12426000Y-9197867D01*
X12426000Y-9403400D02*
X12466000Y-9443400D01*
X12466000Y-9403400D02*
X12426000Y-9443400D01*
X12426000Y-9648933D02*
X12466000Y-9688933D01*
X12466000Y-9648933D02*
X12426000Y-9688933D01*
X12476800Y-8565200D02*
X12516800Y-8605200D01*
X12516800Y-8565200D02*
X12476800Y-8605200D01*
X12769000Y-11562400D02*
X12809000Y-11602400D01*
X12809000Y-11562400D02*
X12769000Y-11602400D01*
X12797200Y-8082600D02*
X12837200Y-8122600D01*
X12837200Y-8082600D02*
X12797200Y-8122600D01*
X12975000Y-8006400D02*
X13015000Y-8046400D01*
X13015000Y-8006400D02*
X12975000Y-8046400D01*
X12992000Y-11479000D02*
X13032000Y-11519000D01*
X13032000Y-11479000D02*
X12992000Y-11519000D01*
X13010200Y-11130600D02*
X13050200Y-11170600D01*
X13050200Y-11130600D02*
X13010200Y-11170600D01*
X13152800Y-7879400D02*
X13192800Y-7919400D01*
X13192800Y-7879400D02*
X13152800Y-7919400D01*
X13213400Y-11130600D02*
X13253400Y-11170600D01*
X13253400Y-11130600D02*
X13213400Y-11170600D01*
X13381400Y-8438200D02*
X13421400Y-8478200D01*
X13421400Y-8438200D02*
X13381400Y-8478200D01*
X13559200Y-8057200D02*
X13599200Y-8097200D01*
X13599200Y-8057200D02*
X13559200Y-8097200D01*
X13711600Y-7955600D02*
X13751600Y-7995600D01*
X13751600Y-7955600D02*
X13711600Y-7995600D01*
X13787800Y-9606600D02*
X13827800Y-9646600D01*
X13827800Y-9606600D02*
X13787800Y-9646600D01*
X13797600Y-12832400D02*
X13837600Y-12872400D01*
X13837600Y-12832400D02*
X13797600Y-12872400D01*
X13838600Y-8666800D02*
X13878600Y-8706800D01*
X13878600Y-8666800D02*
X13838600Y-8706800D01*
X13864000Y-12273600D02*
X13904000Y-12313600D01*
X13904000Y-12273600D02*
X13864000Y-12313600D01*
X13864000Y-12476800D02*
X13904000Y-12516800D01*
X13904000Y-12476800D02*
X13864000Y-12516800D01*
X13940200Y-12375200D02*
X13980200Y-12415200D01*
X13980200Y-12375200D02*
X13940200Y-12415200D01*
X13965600Y-8006400D02*
X14005600Y-8046400D01*
X14005600Y-8006400D02*
X13965600Y-8046400D01*
X14000800Y-13010200D02*
X14040800Y-13050200D01*
X14040800Y-13010200D02*
X14000800Y-13050200D01*
X14051600Y-12578400D02*
X14091600Y-12618400D01*
X14091600Y-12578400D02*
X14051600Y-12618400D01*
X14153200Y-8031800D02*
X14193200Y-8071800D01*
X14193200Y-8031800D02*
X14153200Y-8071800D01*
X14153200Y-8277333D02*
X14193200Y-8317333D01*
X14193200Y-8277333D02*
X14153200Y-8317333D01*
X14153200Y-8522867D02*
X14193200Y-8562867D01*
X14193200Y-8522867D02*
X14153200Y-8562867D01*
X14153200Y-8768400D02*
X14193200Y-8808400D01*
X14193200Y-8768400D02*
X14153200Y-8808400D01*
X14178600Y-12578400D02*
X14218600Y-12618400D01*
X14218600Y-12578400D02*
X14178600Y-12618400D01*
X14677230Y-12704970D02*
X14717230Y-12744970D01*
X14717230Y-12704970D02*
X14677230Y-12744970D01*
X14956200Y-13035600D02*
X14996200Y-13075600D01*
X14996200Y-13035600D02*
X14956200Y-13075600D01*
X15321600Y-12172000D02*
X15361600Y-12212000D01*
X15361600Y-12172000D02*
X15321600Y-12212000D01*
X15474000Y-12654600D02*
X15514000Y-12694600D01*
X15514000Y-12654600D02*
X15474000Y-12694600D01*
X15499400Y-12172000D02*
X15539400Y-12212000D01*
X15539400Y-12172000D02*
X15499400Y-12212000D01*
X15956600Y-12476800D02*
X15996600Y-12516800D01*
X15996600Y-12476800D02*
X15956600Y-12516800D01*
X15997600Y-10648000D02*
X16037600Y-10688000D01*
X16037600Y-10648000D02*
X15997600Y-10688000D01*
X16734200Y-11384600D02*
X16774200Y-11424600D01*
X16774200Y-11384600D02*
X16734200Y-11424600D01*
X16886600Y-10622600D02*
X16926600Y-10662600D01*
X16926600Y-10622600D02*
X16886600Y-10662600D01*
X17048800Y-10622600D02*
X17088800Y-10662600D01*
X17088800Y-10622600D02*
X17048800Y-10662600D01*
X17470800Y-11384600D02*
X17510800Y-11424600D01*
X17510800Y-11384600D02*
X17470800Y-11424600D01*
X17572400Y-11791000D02*
X17612400Y-11831000D01*
X17612400Y-11791000D02*
X17572400Y-11831000D01*
X17582200Y-11156000D02*
X17622200Y-11196000D01*
X17622200Y-11156000D02*
X17582200Y-11196000D01*
X17582200Y-11587800D02*
X17622200Y-11627800D01*
X17622200Y-11587800D02*
X17582200Y-11627800D01*
X17597800Y-10800400D02*
X17637800Y-10840400D01*
X17637800Y-10800400D02*
X17597800Y-10840400D01*
X17683800Y-10546400D02*
X17723800Y-10586400D01*
X17723800Y-10546400D02*
X17683800Y-10586400D01*
X17823500Y-10546400D02*
X17863500Y-10586400D01*
X17863500Y-10546400D02*
X17823500Y-10586400D01*
X17836200Y-12095800D02*
X17876200Y-12135800D01*
X17876200Y-12095800D02*
X17836200Y-12135800D01*
X17851800Y-11232200D02*
X17891800Y-11272200D01*
X17891800Y-11232200D02*
X17851800Y-11272200D01*
X17963200Y-10546400D02*
X18003200Y-10586400D01*
X18003200Y-10546400D02*
X17963200Y-10586400D01*
X18090200Y-11206800D02*
X18130200Y-11246800D01*
X18130200Y-11206800D02*
X18090200Y-11246800D01*
X18309000Y-11206800D02*
X18349000Y-11246800D01*
X18349000Y-11206800D02*
X18309000Y-11246800D01*
X18715400Y-11892600D02*
X18755400Y-11932600D01*
X18755400Y-11892600D02*
X18715400Y-11932600D01*
X18928400Y-11943400D02*
X18968400Y-11983400D01*
X18968400Y-11943400D02*
X18928400Y-11983400D01*
D13*
X11500000Y-8268500D02*
G75*
G03*
X11500000Y-8268500I-38100J0D01*
G01*
X11500000Y-8768500D02*
G75*
G03*
X11500000Y-8768500I-38100J0D01*
G01*
X11500000Y-10418500D02*
G75*
G03*
X11500000Y-10418500I-38100J0D01*
G01*
X11500000Y-10668500D02*
G75*
G03*
X11500000Y-10668500I-38100J0D01*
G01*
X14544500Y-8909000D02*
G75*
G03*
X14544500Y-8909000I-38100J0D01*
G01*
X14544500Y-9909000D02*
G75*
G03*
X14544500Y-9909000I-38100J0D01*
G01*
X15814500Y-8909000D02*
G75*
G03*
X15814500Y-8909000I-38100J0D01*
G01*
X15814500Y-9909000D02*
G75*
G03*
X15814500Y-9909000I-38100J0D01*
G01*
X16419500Y-8909000D02*
G75*
G03*
X16419500Y-8909000I-38100J0D01*
G01*
X16419500Y-9909000D02*
G75*
G03*
X16419500Y-9909000I-38100J0D01*
G01*
X17689500Y-8909000D02*
G75*
G03*
X17689500Y-8909000I-38100J0D01*
G01*
X17689500Y-9909000D02*
G75*
G03*
X17689500Y-9909000I-38100J0D01*
G01*
X18294500Y-8909000D02*
G75*
G03*
X18294500Y-8909000I-38100J0D01*
G01*
X18294500Y-9909000D02*
G75*
G03*
X18294500Y-9909000I-38100J0D01*
G01*
X19564500Y-8909000D02*
G75*
G03*
X19564500Y-8909000I-38100J0D01*
G01*
X19564500Y-9909000D02*
G75*
G03*
X19564500Y-9909000I-38100J0D01*
G01*
D14*
X10159600Y-9843600D02*
X10159600Y-9923600D01*
X10119600Y-9883600D02*
X10199600Y-9883600D01*
X10299600Y-9093600D02*
X10299600Y-9173600D01*
X10259600Y-9133600D02*
X10339600Y-9133600D01*
X13008500Y-9282200D02*
X13008500Y-9362200D01*
X12968500Y-9322200D02*
X13048500Y-9322200D01*
X13262500Y-9282200D02*
X13262500Y-9362200D01*
X13222500Y-9322200D02*
X13302500Y-9322200D01*
X13516500Y-9282200D02*
X13516500Y-9362200D01*
X13476500Y-9322200D02*
X13556500Y-9322200D01*
X14510200Y-8194000D02*
X14510200Y-8274000D01*
X14470200Y-8234000D02*
X14550200Y-8234000D01*
X15272200Y-8194000D02*
X15272200Y-8274000D01*
X15232200Y-8234000D02*
X15312200Y-8234000D01*
X16397800Y-8194000D02*
X16397800Y-8274000D01*
X16357800Y-8234000D02*
X16437800Y-8234000D01*
X16823200Y-12389300D02*
X16823200Y-12469300D01*
X16783200Y-12429300D02*
X16863200Y-12429300D01*
D11*
X16793200Y-12404300D02*
X16793200Y-12454300D01*
X16853200Y-12404300D02*
X16853200Y-12454300D01*
X16793200Y-12454300D02*
G75*
G03*
X16853200Y-12454300I30000J0D01*
G01*
X16853200Y-12404300D02*
G75*
G03*
X16793200Y-12404300I-30000J0D01*
G01*
D14*
X17159800Y-8194000D02*
X17159800Y-8274000D01*
X17119800Y-8234000D02*
X17199800Y-8234000D01*
X17263200Y-12389300D02*
X17263200Y-12469300D01*
X17223200Y-12429300D02*
X17303200Y-12429300D01*
D11*
X17233200Y-12404300D02*
X17233200Y-12454300D01*
X17293200Y-12404300D02*
X17293200Y-12454300D01*
X17233200Y-12454300D02*
G75*
G03*
X17293200Y-12454300I30000J0D01*
G01*
X17293200Y-12404300D02*
G75*
G03*
X17233200Y-12404300I-30000J0D01*
G01*
D14*
X17839200Y-12389300D02*
X17839200Y-12469300D01*
X17799200Y-12429300D02*
X17879200Y-12429300D01*
D11*
X17809200Y-12404300D02*
X17809200Y-12454300D01*
X17869200Y-12404300D02*
X17869200Y-12454300D01*
X17809200Y-12454300D02*
G75*
G03*
X17869200Y-12454300I30000J0D01*
G01*
X17869200Y-12404300D02*
G75*
G03*
X17809200Y-12404300I-30000J0D01*
G01*
D14*
X18279200Y-12389300D02*
X18279200Y-12469300D01*
X18239200Y-12429300D02*
X18319200Y-12429300D01*
D11*
X18249200Y-12404300D02*
X18249200Y-12454300D01*
X18309200Y-12404300D02*
X18309200Y-12454300D01*
X18249200Y-12454300D02*
G75*
G03*
X18309200Y-12454300I30000J0D01*
G01*
X18309200Y-12404300D02*
G75*
G03*
X18249200Y-12404300I-30000J0D01*
G01*
D14*
X18285400Y-8194000D02*
X18285400Y-8274000D01*
X18245400Y-8234000D02*
X18325400Y-8234000D01*
X18855200Y-12389300D02*
X18855200Y-12469300D01*
X18815200Y-12429300D02*
X18895200Y-12429300D01*
D11*
X18825200Y-12404300D02*
X18825200Y-12454300D01*
X18885200Y-12404300D02*
X18885200Y-12454300D01*
X18825200Y-12454300D02*
G75*
G03*
X18885200Y-12454300I30000J0D01*
G01*
X18885200Y-12404300D02*
G75*
G03*
X18825200Y-12404300I-30000J0D01*
G01*
D14*
X19047400Y-8194000D02*
X19047400Y-8274000D01*
X19007400Y-8234000D02*
X19087400Y-8234000D01*
X19295200Y-12389300D02*
X19295200Y-12469300D01*
X19255200Y-12429300D02*
X19335200Y-12429300D01*
D11*
X19265200Y-12404300D02*
X19265200Y-12454300D01*
X19325200Y-12404300D02*
X19325200Y-12454300D01*
X19265200Y-12454300D02*
G75*
G03*
X19325200Y-12454300I30000J0D01*
G01*
X19325200Y-12404300D02*
G75*
G03*
X19265200Y-12404300I-30000J0D01*
G01*
D15*
X13777756Y-11312956D02*
X13777756Y-11242244D01*
X13707044Y-11242244D01*
X13707044Y-11312956D01*
X13777756Y-11312956D01*
X14031756Y-11312956D02*
X14031756Y-11242244D01*
X13961044Y-11242244D01*
X13961044Y-11312956D01*
X14031756Y-11312956D01*
X14259356Y-13573556D02*
X14259356Y-13502844D01*
X14188644Y-13502844D01*
X14188644Y-13573556D01*
X14259356Y-13573556D01*
X14285756Y-11312956D02*
X14285756Y-11242244D01*
X14215044Y-11242244D01*
X14215044Y-11312956D01*
X14285756Y-11312956D01*
X14513356Y-13573556D02*
X14513356Y-13502844D01*
X14442644Y-13502844D01*
X14442644Y-13573556D01*
X14513356Y-13573556D01*
X14539756Y-11312956D02*
X14539756Y-11242244D01*
X14469044Y-11242244D01*
X14469044Y-11312956D01*
X14539756Y-11312956D01*
X15300756Y-12709956D02*
X15300756Y-12639244D01*
X15230044Y-12639244D01*
X15230044Y-12709956D01*
X15300756Y-12709956D01*
X15300756Y-12963956D02*
X15300756Y-12893244D01*
X15230044Y-12893244D01*
X15230044Y-12963956D01*
X15300756Y-12963956D01*
X15300756Y-13217956D02*
X15300756Y-13147244D01*
X15230044Y-13147244D01*
X15230044Y-13217956D01*
X15300756Y-13217956D01*
X15765756Y-12709956D02*
X15765756Y-12639244D01*
X15695044Y-12639244D01*
X15695044Y-12709956D01*
X15765756Y-12709956D01*
X15765756Y-12963956D02*
X15765756Y-12893244D01*
X15695044Y-12893244D01*
X15695044Y-12963956D01*
X15765756Y-12963956D01*
X15765756Y-13217956D02*
X15765756Y-13147244D01*
X15695044Y-13147244D01*
X15695044Y-13217956D01*
X15765756Y-13217956D01*
X16230756Y-12709956D02*
X16230756Y-12639244D01*
X16160044Y-12639244D01*
X16160044Y-12709956D01*
X16230756Y-12709956D01*
X16230756Y-12963956D02*
X16230756Y-12893244D01*
X16160044Y-12893244D01*
X16160044Y-12963956D01*
X16230756Y-12963956D01*
X16230756Y-13217956D02*
X16230756Y-13147244D01*
X16160044Y-13147244D01*
X16160044Y-13217956D01*
X16230756Y-13217956D01*
X16798556Y-13194656D02*
X16798556Y-13123944D01*
X16727844Y-13123944D01*
X16727844Y-13194656D01*
X16798556Y-13194656D01*
D11*
X16723200Y-13144300D02*
X16723200Y-13174300D01*
X16803200Y-13144300D02*
X16803200Y-13174300D01*
X16723200Y-13174300D02*
G75*
G03*
X16803200Y-13174300I40000J0D01*
G01*
X16803200Y-13144300D02*
G75*
G03*
X16723200Y-13144300I-40000J0D01*
G01*
D15*
X17358556Y-13194656D02*
X17358556Y-13123944D01*
X17287844Y-13123944D01*
X17287844Y-13194656D01*
X17358556Y-13194656D01*
D11*
X17283200Y-13144300D02*
X17283200Y-13174300D01*
X17363200Y-13144300D02*
X17363200Y-13174300D01*
X17283200Y-13174300D02*
G75*
G03*
X17363200Y-13174300I40000J0D01*
G01*
X17363200Y-13144300D02*
G75*
G03*
X17283200Y-13144300I-40000J0D01*
G01*
D15*
X17814556Y-13194656D02*
X17814556Y-13123944D01*
X17743844Y-13123944D01*
X17743844Y-13194656D01*
X17814556Y-13194656D01*
D11*
X17739200Y-13144300D02*
X17739200Y-13174300D01*
X17819200Y-13144300D02*
X17819200Y-13174300D01*
X17739200Y-13174300D02*
G75*
G03*
X17819200Y-13174300I40000J0D01*
G01*
X17819200Y-13144300D02*
G75*
G03*
X17739200Y-13144300I-40000J0D01*
G01*
D15*
X18374556Y-13194656D02*
X18374556Y-13123944D01*
X18303844Y-13123944D01*
X18303844Y-13194656D01*
X18374556Y-13194656D01*
D11*
X18299200Y-13144300D02*
X18299200Y-13174300D01*
X18379200Y-13144300D02*
X18379200Y-13174300D01*
X18299200Y-13174300D02*
G75*
G03*
X18379200Y-13174300I40000J0D01*
G01*
X18379200Y-13144300D02*
G75*
G03*
X18299200Y-13144300I-40000J0D01*
G01*
D15*
X18830556Y-13194656D02*
X18830556Y-13123944D01*
X18759844Y-13123944D01*
X18759844Y-13194656D01*
X18830556Y-13194656D01*
D11*
X18755200Y-13144300D02*
X18755200Y-13174300D01*
X18835200Y-13144300D02*
X18835200Y-13174300D01*
X18755200Y-13174300D02*
G75*
G03*
X18835200Y-13174300I40000J0D01*
G01*
X18835200Y-13144300D02*
G75*
G03*
X18755200Y-13144300I-40000J0D01*
G01*
D15*
X19390556Y-13194656D02*
X19390556Y-13123944D01*
X19319844Y-13123944D01*
X19319844Y-13194656D01*
X19390556Y-13194656D01*
D11*
X19315200Y-13144300D02*
X19315200Y-13174300D01*
X19395200Y-13144300D02*
X19395200Y-13174300D01*
X19315200Y-13174300D02*
G75*
G03*
X19395200Y-13174300I40000J0D01*
G01*
X19395200Y-13144300D02*
G75*
G03*
X19315200Y-13144300I-40000J0D01*
G01*
D16*
X10551400Y-5965000D02*
X10617400Y-5899000D01*
X10551400Y-5833000D01*
X10485400Y-5899000D01*
X10551400Y-5965000D01*
X10551400Y-6465000D02*
X10617400Y-6399000D01*
X10551400Y-6333000D01*
X10485400Y-6399000D01*
X10551400Y-6465000D01*
X10551400Y-6965000D02*
X10617400Y-6899000D01*
X10551400Y-6833000D01*
X10485400Y-6899000D01*
X10551400Y-6965000D01*
X10551400Y-7465000D02*
X10617400Y-7399000D01*
X10551400Y-7333000D01*
X10485400Y-7399000D01*
X10551400Y-7465000D01*
X19101400Y-5967500D02*
X19167400Y-5901500D01*
X19101400Y-5835500D01*
X19035400Y-5901500D01*
X19101400Y-5967500D01*
X19101400Y-6467500D02*
X19167400Y-6401500D01*
X19101400Y-6335500D01*
X19035400Y-6401500D01*
X19101400Y-6467500D01*
X19101400Y-6967500D02*
X19167400Y-6901500D01*
X19101400Y-6835500D01*
X19035400Y-6901500D01*
X19101400Y-6967500D01*
X19101400Y-7467500D02*
X19167400Y-7401500D01*
X19101400Y-7335500D01*
X19035400Y-7401500D01*
X19101400Y-7467500D01*
D17*
X10066400Y-4920000D02*
X10386400Y-5240000D01*
X10386400Y-4920000D02*
X10066400Y-5240000D01*
X10386400Y-5080000D02*
G75*
G03*
X10386400Y-5080000I-160000J0D01*
G01*
X10066400Y-10670000D02*
X10386400Y-10990000D01*
X10386400Y-10670000D02*
X10066400Y-10990000D01*
X10386400Y-10830000D02*
G75*
G03*
X10386400Y-10830000I-160000J0D01*
G01*
X19273900Y-4920000D02*
X19593900Y-5240000D01*
X19593900Y-4920000D02*
X19273900Y-5240000D01*
X19593900Y-5080000D02*
G75*
G03*
X19593900Y-5080000I-160000J0D01*
G01*
X19273900Y-10606500D02*
X19593900Y-10926500D01*
X19593900Y-10606500D02*
X19273900Y-10926500D01*
X19593900Y-10766500D02*
G75*
G03*
X19593900Y-10766500I-160000J0D01*
G01*
D11*
X10095119Y-14015068D02*
X10095119Y-13815068D01*
X10142738Y-13815068D01*
X10171310Y-13824592D01*
X10190357Y-13843640D01*
X10199881Y-13862687D01*
X10209405Y-13900783D01*
X10209405Y-13929354D01*
X10199881Y-13967449D01*
X10190357Y-13986497D01*
X10171310Y-14005545D01*
X10142738Y-14015068D01*
X10095119Y-14015068D01*
X10295119Y-14015068D02*
X10295119Y-13881735D01*
X10295119Y-13919830D02*
X10304643Y-13900783D01*
X10314167Y-13891259D01*
X10333214Y-13881735D01*
X10352262Y-13881735D01*
X10418929Y-14015068D02*
X10418929Y-13881735D01*
X10418929Y-13815068D02*
X10409405Y-13824592D01*
X10418929Y-13834116D01*
X10428452Y-13824592D01*
X10418929Y-13815068D01*
X10418929Y-13834116D01*
X10542738Y-14015068D02*
X10523690Y-14005545D01*
X10514167Y-13986497D01*
X10514167Y-13815068D01*
X10647500Y-14015068D02*
X10628452Y-14005545D01*
X10618929Y-13986497D01*
X10618929Y-13815068D01*
X10876071Y-14015068D02*
X10876071Y-13815068D01*
X10942738Y-13957926D01*
X11009405Y-13815068D01*
X11009405Y-14015068D01*
X11190357Y-14015068D02*
X11190357Y-13910306D01*
X11180833Y-13891259D01*
X11161786Y-13881735D01*
X11123690Y-13881735D01*
X11104643Y-13891259D01*
X11190357Y-14005545D02*
X11171310Y-14015068D01*
X11123690Y-14015068D01*
X11104643Y-14005545D01*
X11095119Y-13986497D01*
X11095119Y-13967449D01*
X11104643Y-13948402D01*
X11123690Y-13938878D01*
X11171310Y-13938878D01*
X11190357Y-13929354D01*
X11285595Y-13881735D02*
X11285595Y-14081735D01*
X11285595Y-13891259D02*
X11304643Y-13881735D01*
X11342738Y-13881735D01*
X11361786Y-13891259D01*
X11371309Y-13900783D01*
X11380833Y-13919830D01*
X11380833Y-13976973D01*
X11371309Y-13996021D01*
X11361786Y-14005545D01*
X11342738Y-14015068D01*
X11304643Y-14015068D01*
X11285595Y-14005545D01*
X11466548Y-13996021D02*
X11476071Y-14005545D01*
X11466548Y-14015068D01*
X11457024Y-14005545D01*
X11466548Y-13996021D01*
X11466548Y-14015068D01*
X11466548Y-13891259D02*
X11476071Y-13900783D01*
X11466548Y-13910306D01*
X11457024Y-13900783D01*
X11466548Y-13891259D01*
X11466548Y-13910306D01*
D12*
X9797500Y-14324592D02*
X9837500Y-14364592D01*
X9837500Y-14324592D02*
X9797500Y-14364592D01*
D11*
X10133214Y-14235068D02*
X10152262Y-14235068D01*
X10171310Y-14244592D01*
X10180833Y-14254116D01*
X10190357Y-14273164D01*
X10199881Y-14311259D01*
X10199881Y-14358878D01*
X10190357Y-14396973D01*
X10180833Y-14416021D01*
X10171310Y-14425545D01*
X10152262Y-14435068D01*
X10133214Y-14435068D01*
X10114167Y-14425545D01*
X10104643Y-14416021D01*
X10095119Y-14396973D01*
X10085595Y-14358878D01*
X10085595Y-14311259D01*
X10095119Y-14273164D01*
X10104643Y-14254116D01*
X10114167Y-14244592D01*
X10133214Y-14235068D01*
X10285595Y-14416021D02*
X10295119Y-14425545D01*
X10285595Y-14435068D01*
X10276071Y-14425545D01*
X10285595Y-14416021D01*
X10285595Y-14435068D01*
X10466548Y-14301735D02*
X10466548Y-14435068D01*
X10418929Y-14225545D02*
X10371310Y-14368402D01*
X10495119Y-14368402D01*
X10609405Y-14235068D02*
X10628452Y-14235068D01*
X10647500Y-14244592D01*
X10657024Y-14254116D01*
X10666548Y-14273164D01*
X10676071Y-14311259D01*
X10676071Y-14358878D01*
X10666548Y-14396973D01*
X10657024Y-14416021D01*
X10647500Y-14425545D01*
X10628452Y-14435068D01*
X10609405Y-14435068D01*
X10590357Y-14425545D01*
X10580833Y-14416021D01*
X10571310Y-14396973D01*
X10561786Y-14358878D01*
X10561786Y-14311259D01*
X10571310Y-14273164D01*
X10580833Y-14254116D01*
X10590357Y-14244592D01*
X10609405Y-14235068D01*
X10799881Y-14235068D02*
X10818929Y-14235068D01*
X10837976Y-14244592D01*
X10847500Y-14254116D01*
X10857024Y-14273164D01*
X10866548Y-14311259D01*
X10866548Y-14358878D01*
X10857024Y-14396973D01*
X10847500Y-14416021D01*
X10837976Y-14425545D01*
X10818929Y-14435068D01*
X10799881Y-14435068D01*
X10780833Y-14425545D01*
X10771310Y-14416021D01*
X10761786Y-14396973D01*
X10752262Y-14358878D01*
X10752262Y-14311259D01*
X10761786Y-14273164D01*
X10771310Y-14254116D01*
X10780833Y-14244592D01*
X10799881Y-14235068D01*
X10952262Y-14435068D02*
X10952262Y-14301735D01*
X10952262Y-14320783D02*
X10961786Y-14311259D01*
X10980833Y-14301735D01*
X11009405Y-14301735D01*
X11028452Y-14311259D01*
X11037976Y-14330306D01*
X11037976Y-14435068D01*
X11037976Y-14330306D02*
X11047500Y-14311259D01*
X11066548Y-14301735D01*
X11095119Y-14301735D01*
X11114167Y-14311259D01*
X11123690Y-14330306D01*
X11123690Y-14435068D01*
X11218928Y-14435068D02*
X11218928Y-14301735D01*
X11218928Y-14320783D02*
X11228452Y-14311259D01*
X11247500Y-14301735D01*
X11276071Y-14301735D01*
X11295119Y-14311259D01*
X11304643Y-14330306D01*
X11304643Y-14435068D01*
X11304643Y-14330306D02*
X11314167Y-14311259D01*
X11333214Y-14301735D01*
X11361786Y-14301735D01*
X11380833Y-14311259D01*
X11390357Y-14330306D01*
X11390357Y-14435068D01*
X11780833Y-14225545D02*
X11609405Y-14482687D01*
X12037976Y-14235068D02*
X12057024Y-14235068D01*
X12076071Y-14244592D01*
X12085595Y-14254116D01*
X12095119Y-14273164D01*
X12104643Y-14311259D01*
X12104643Y-14358878D01*
X12095119Y-14396973D01*
X12085595Y-14416021D01*
X12076071Y-14425545D01*
X12057024Y-14435068D01*
X12037976Y-14435068D01*
X12018928Y-14425545D01*
X12009405Y-14416021D01*
X11999881Y-14396973D01*
X11990357Y-14358878D01*
X11990357Y-14311259D01*
X11999881Y-14273164D01*
X12009405Y-14254116D01*
X12018928Y-14244592D01*
X12037976Y-14235068D01*
X12190357Y-14416021D02*
X12199881Y-14425545D01*
X12190357Y-14435068D01*
X12180833Y-14425545D01*
X12190357Y-14416021D01*
X12190357Y-14435068D01*
X12323690Y-14235068D02*
X12342738Y-14235068D01*
X12361786Y-14244592D01*
X12371309Y-14254116D01*
X12380833Y-14273164D01*
X12390357Y-14311259D01*
X12390357Y-14358878D01*
X12380833Y-14396973D01*
X12371309Y-14416021D01*
X12361786Y-14425545D01*
X12342738Y-14435068D01*
X12323690Y-14435068D01*
X12304643Y-14425545D01*
X12295119Y-14416021D01*
X12285595Y-14396973D01*
X12276071Y-14358878D01*
X12276071Y-14311259D01*
X12285595Y-14273164D01*
X12295119Y-14254116D01*
X12304643Y-14244592D01*
X12323690Y-14235068D01*
X12580833Y-14435068D02*
X12466548Y-14435068D01*
X12523690Y-14435068D02*
X12523690Y-14235068D01*
X12504643Y-14263640D01*
X12485595Y-14282687D01*
X12466548Y-14292211D01*
X12761786Y-14235068D02*
X12666548Y-14235068D01*
X12657024Y-14330306D01*
X12666548Y-14320783D01*
X12685595Y-14311259D01*
X12733214Y-14311259D01*
X12752262Y-14320783D01*
X12761786Y-14330306D01*
X12771309Y-14349354D01*
X12771309Y-14396973D01*
X12761786Y-14416021D01*
X12752262Y-14425545D01*
X12733214Y-14435068D01*
X12685595Y-14435068D01*
X12666548Y-14425545D01*
X12657024Y-14416021D01*
X12837976Y-14235068D02*
X12971309Y-14235068D01*
X12885595Y-14435068D01*
X13037976Y-14235068D02*
X13037976Y-14273164D01*
X13114167Y-14235068D02*
X13114167Y-14273164D01*
X13409405Y-14511259D02*
X13399881Y-14501735D01*
X13380833Y-14473164D01*
X13371309Y-14454116D01*
X13361786Y-14425545D01*
X13352262Y-14377926D01*
X13352262Y-14339830D01*
X13361786Y-14292211D01*
X13371309Y-14263640D01*
X13380833Y-14244592D01*
X13399881Y-14216021D01*
X13409405Y-14206497D01*
X13466548Y-14235068D02*
X13599881Y-14235068D01*
X13514167Y-14435068D01*
X13771309Y-14235068D02*
X13676071Y-14235068D01*
X13666548Y-14330306D01*
X13676071Y-14320783D01*
X13695119Y-14311259D01*
X13742738Y-14311259D01*
X13761786Y-14320783D01*
X13771309Y-14330306D01*
X13780833Y-14349354D01*
X13780833Y-14396973D01*
X13771309Y-14416021D01*
X13761786Y-14425545D01*
X13742738Y-14435068D01*
X13695119Y-14435068D01*
X13676071Y-14425545D01*
X13666548Y-14416021D01*
X14018928Y-14435068D02*
X14018928Y-14235068D01*
X14104643Y-14435068D02*
X14104643Y-14330306D01*
X14095119Y-14311259D01*
X14076071Y-14301735D01*
X14047500Y-14301735D01*
X14028452Y-14311259D01*
X14018928Y-14320783D01*
X14228452Y-14435068D02*
X14209405Y-14425545D01*
X14199881Y-14416021D01*
X14190357Y-14396973D01*
X14190357Y-14339830D01*
X14199881Y-14320783D01*
X14209405Y-14311259D01*
X14228452Y-14301735D01*
X14257024Y-14301735D01*
X14276071Y-14311259D01*
X14285595Y-14320783D01*
X14295119Y-14339830D01*
X14295119Y-14396973D01*
X14285595Y-14416021D01*
X14276071Y-14425545D01*
X14257024Y-14435068D01*
X14228452Y-14435068D01*
X14409405Y-14435068D02*
X14390357Y-14425545D01*
X14380833Y-14406497D01*
X14380833Y-14235068D01*
X14561786Y-14425545D02*
X14542738Y-14435068D01*
X14504643Y-14435068D01*
X14485595Y-14425545D01*
X14476071Y-14406497D01*
X14476071Y-14330306D01*
X14485595Y-14311259D01*
X14504643Y-14301735D01*
X14542738Y-14301735D01*
X14561786Y-14311259D01*
X14571309Y-14330306D01*
X14571309Y-14349354D01*
X14476071Y-14368402D01*
X14647500Y-14425545D02*
X14666548Y-14435068D01*
X14704643Y-14435068D01*
X14723690Y-14425545D01*
X14733214Y-14406497D01*
X14733214Y-14396973D01*
X14723690Y-14377926D01*
X14704643Y-14368402D01*
X14676071Y-14368402D01*
X14657024Y-14358878D01*
X14647500Y-14339830D01*
X14647500Y-14330306D01*
X14657024Y-14311259D01*
X14676071Y-14301735D01*
X14704643Y-14301735D01*
X14723690Y-14311259D01*
X14799881Y-14511259D02*
X14809405Y-14501735D01*
X14828452Y-14473164D01*
X14837976Y-14454116D01*
X14847500Y-14425545D01*
X14857024Y-14377926D01*
X14857024Y-14339830D01*
X14847500Y-14292211D01*
X14837976Y-14263640D01*
X14828452Y-14244592D01*
X14809405Y-14216021D01*
X14799881Y-14206497D01*
D13*
X9837500Y-14608592D02*
G75*
G03*
X9837500Y-14608592I-38100J0D01*
G01*
D11*
X10133214Y-14499068D02*
X10152262Y-14499068D01*
X10171310Y-14508592D01*
X10180833Y-14518116D01*
X10190357Y-14537164D01*
X10199881Y-14575259D01*
X10199881Y-14622878D01*
X10190357Y-14660973D01*
X10180833Y-14680021D01*
X10171310Y-14689545D01*
X10152262Y-14699068D01*
X10133214Y-14699068D01*
X10114167Y-14689545D01*
X10104643Y-14680021D01*
X10095119Y-14660973D01*
X10085595Y-14622878D01*
X10085595Y-14575259D01*
X10095119Y-14537164D01*
X10104643Y-14518116D01*
X10114167Y-14508592D01*
X10133214Y-14499068D01*
X10285595Y-14680021D02*
X10295119Y-14689545D01*
X10285595Y-14699068D01*
X10276071Y-14689545D01*
X10285595Y-14680021D01*
X10285595Y-14699068D01*
X10361786Y-14499068D02*
X10495119Y-14499068D01*
X10409405Y-14699068D01*
X10657024Y-14499068D02*
X10618929Y-14499068D01*
X10599881Y-14508592D01*
X10590357Y-14518116D01*
X10571310Y-14546687D01*
X10561786Y-14584783D01*
X10561786Y-14660973D01*
X10571310Y-14680021D01*
X10580833Y-14689545D01*
X10599881Y-14699068D01*
X10637976Y-14699068D01*
X10657024Y-14689545D01*
X10666548Y-14680021D01*
X10676071Y-14660973D01*
X10676071Y-14613354D01*
X10666548Y-14594306D01*
X10657024Y-14584783D01*
X10637976Y-14575259D01*
X10599881Y-14575259D01*
X10580833Y-14584783D01*
X10571310Y-14594306D01*
X10561786Y-14613354D01*
X10752262Y-14518116D02*
X10761786Y-14508592D01*
X10780833Y-14499068D01*
X10828452Y-14499068D01*
X10847500Y-14508592D01*
X10857024Y-14518116D01*
X10866548Y-14537164D01*
X10866548Y-14556211D01*
X10857024Y-14584783D01*
X10742738Y-14699068D01*
X10866548Y-14699068D01*
X10952262Y-14699068D02*
X10952262Y-14565735D01*
X10952262Y-14584783D02*
X10961786Y-14575259D01*
X10980833Y-14565735D01*
X11009405Y-14565735D01*
X11028452Y-14575259D01*
X11037976Y-14594306D01*
X11037976Y-14699068D01*
X11037976Y-14594306D02*
X11047500Y-14575259D01*
X11066548Y-14565735D01*
X11095119Y-14565735D01*
X11114167Y-14575259D01*
X11123690Y-14594306D01*
X11123690Y-14699068D01*
X11218928Y-14699068D02*
X11218928Y-14565735D01*
X11218928Y-14584783D02*
X11228452Y-14575259D01*
X11247500Y-14565735D01*
X11276071Y-14565735D01*
X11295119Y-14575259D01*
X11304643Y-14594306D01*
X11304643Y-14699068D01*
X11304643Y-14594306D02*
X11314167Y-14575259D01*
X11333214Y-14565735D01*
X11361786Y-14565735D01*
X11380833Y-14575259D01*
X11390357Y-14594306D01*
X11390357Y-14699068D01*
X11780833Y-14489545D02*
X11609405Y-14746687D01*
X12037976Y-14499068D02*
X12057024Y-14499068D01*
X12076071Y-14508592D01*
X12085595Y-14518116D01*
X12095119Y-14537164D01*
X12104643Y-14575259D01*
X12104643Y-14622878D01*
X12095119Y-14660973D01*
X12085595Y-14680021D01*
X12076071Y-14689545D01*
X12057024Y-14699068D01*
X12037976Y-14699068D01*
X12018928Y-14689545D01*
X12009405Y-14680021D01*
X11999881Y-14660973D01*
X11990357Y-14622878D01*
X11990357Y-14575259D01*
X11999881Y-14537164D01*
X12009405Y-14518116D01*
X12018928Y-14508592D01*
X12037976Y-14499068D01*
X12190357Y-14680021D02*
X12199881Y-14689545D01*
X12190357Y-14699068D01*
X12180833Y-14689545D01*
X12190357Y-14680021D01*
X12190357Y-14699068D01*
X12323690Y-14499068D02*
X12342738Y-14499068D01*
X12361786Y-14508592D01*
X12371309Y-14518116D01*
X12380833Y-14537164D01*
X12390357Y-14575259D01*
X12390357Y-14622878D01*
X12380833Y-14660973D01*
X12371309Y-14680021D01*
X12361786Y-14689545D01*
X12342738Y-14699068D01*
X12323690Y-14699068D01*
X12304643Y-14689545D01*
X12295119Y-14680021D01*
X12285595Y-14660973D01*
X12276071Y-14622878D01*
X12276071Y-14575259D01*
X12285595Y-14537164D01*
X12295119Y-14518116D01*
X12304643Y-14508592D01*
X12323690Y-14499068D01*
X12457024Y-14499068D02*
X12580833Y-14499068D01*
X12514167Y-14575259D01*
X12542738Y-14575259D01*
X12561786Y-14584783D01*
X12571309Y-14594306D01*
X12580833Y-14613354D01*
X12580833Y-14660973D01*
X12571309Y-14680021D01*
X12561786Y-14689545D01*
X12542738Y-14699068D01*
X12485595Y-14699068D01*
X12466548Y-14689545D01*
X12457024Y-14680021D01*
X12704643Y-14499068D02*
X12723690Y-14499068D01*
X12742738Y-14508592D01*
X12752262Y-14518116D01*
X12761786Y-14537164D01*
X12771309Y-14575259D01*
X12771309Y-14622878D01*
X12761786Y-14660973D01*
X12752262Y-14680021D01*
X12742738Y-14689545D01*
X12723690Y-14699068D01*
X12704643Y-14699068D01*
X12685595Y-14689545D01*
X12676071Y-14680021D01*
X12666548Y-14660973D01*
X12657024Y-14622878D01*
X12657024Y-14575259D01*
X12666548Y-14537164D01*
X12676071Y-14518116D01*
X12685595Y-14508592D01*
X12704643Y-14499068D01*
X12895119Y-14499068D02*
X12914167Y-14499068D01*
X12933214Y-14508592D01*
X12942738Y-14518116D01*
X12952262Y-14537164D01*
X12961786Y-14575259D01*
X12961786Y-14622878D01*
X12952262Y-14660973D01*
X12942738Y-14680021D01*
X12933214Y-14689545D01*
X12914167Y-14699068D01*
X12895119Y-14699068D01*
X12876071Y-14689545D01*
X12866548Y-14680021D01*
X12857024Y-14660973D01*
X12847500Y-14622878D01*
X12847500Y-14575259D01*
X12857024Y-14537164D01*
X12866548Y-14518116D01*
X12876071Y-14508592D01*
X12895119Y-14499068D01*
X13037976Y-14499068D02*
X13037976Y-14537164D01*
X13114167Y-14499068D02*
X13114167Y-14537164D01*
X13409405Y-14775259D02*
X13399881Y-14765735D01*
X13380833Y-14737164D01*
X13371309Y-14718116D01*
X13361786Y-14689545D01*
X13352262Y-14641926D01*
X13352262Y-14603830D01*
X13361786Y-14556211D01*
X13371309Y-14527640D01*
X13380833Y-14508592D01*
X13399881Y-14480021D01*
X13409405Y-14470497D01*
X13590357Y-14699068D02*
X13476071Y-14699068D01*
X13533214Y-14699068D02*
X13533214Y-14499068D01*
X13514167Y-14527640D01*
X13495119Y-14546687D01*
X13476071Y-14556211D01*
X13761786Y-14499068D02*
X13723690Y-14499068D01*
X13704643Y-14508592D01*
X13695119Y-14518116D01*
X13676071Y-14546687D01*
X13666548Y-14584783D01*
X13666548Y-14660973D01*
X13676071Y-14680021D01*
X13685595Y-14689545D01*
X13704643Y-14699068D01*
X13742738Y-14699068D01*
X13761786Y-14689545D01*
X13771309Y-14680021D01*
X13780833Y-14660973D01*
X13780833Y-14613354D01*
X13771309Y-14594306D01*
X13761786Y-14584783D01*
X13742738Y-14575259D01*
X13704643Y-14575259D01*
X13685595Y-14584783D01*
X13676071Y-14594306D01*
X13666548Y-14613354D01*
X14018928Y-14699068D02*
X14018928Y-14499068D01*
X14104643Y-14699068D02*
X14104643Y-14594306D01*
X14095119Y-14575259D01*
X14076071Y-14565735D01*
X14047500Y-14565735D01*
X14028452Y-14575259D01*
X14018928Y-14584783D01*
X14228452Y-14699068D02*
X14209405Y-14689545D01*
X14199881Y-14680021D01*
X14190357Y-14660973D01*
X14190357Y-14603830D01*
X14199881Y-14584783D01*
X14209405Y-14575259D01*
X14228452Y-14565735D01*
X14257024Y-14565735D01*
X14276071Y-14575259D01*
X14285595Y-14584783D01*
X14295119Y-14603830D01*
X14295119Y-14660973D01*
X14285595Y-14680021D01*
X14276071Y-14689545D01*
X14257024Y-14699068D01*
X14228452Y-14699068D01*
X14409405Y-14699068D02*
X14390357Y-14689545D01*
X14380833Y-14670497D01*
X14380833Y-14499068D01*
X14561786Y-14689545D02*
X14542738Y-14699068D01*
X14504643Y-14699068D01*
X14485595Y-14689545D01*
X14476071Y-14670497D01*
X14476071Y-14594306D01*
X14485595Y-14575259D01*
X14504643Y-14565735D01*
X14542738Y-14565735D01*
X14561786Y-14575259D01*
X14571309Y-14594306D01*
X14571309Y-14613354D01*
X14476071Y-14632402D01*
X14647500Y-14689545D02*
X14666548Y-14699068D01*
X14704643Y-14699068D01*
X14723690Y-14689545D01*
X14733214Y-14670497D01*
X14733214Y-14660973D01*
X14723690Y-14641926D01*
X14704643Y-14632402D01*
X14676071Y-14632402D01*
X14657024Y-14622878D01*
X14647500Y-14603830D01*
X14647500Y-14594306D01*
X14657024Y-14575259D01*
X14676071Y-14565735D01*
X14704643Y-14565735D01*
X14723690Y-14575259D01*
X14799881Y-14775259D02*
X14809405Y-14765735D01*
X14828452Y-14737164D01*
X14837976Y-14718116D01*
X14847500Y-14689545D01*
X14857024Y-14641926D01*
X14857024Y-14603830D01*
X14847500Y-14556211D01*
X14837976Y-14527640D01*
X14828452Y-14508592D01*
X14809405Y-14480021D01*
X14799881Y-14470497D01*
D14*
X9797500Y-14832592D02*
X9797500Y-14912592D01*
X9757500Y-14872592D02*
X9837500Y-14872592D01*
D11*
X10133214Y-14763068D02*
X10152262Y-14763068D01*
X10171310Y-14772592D01*
X10180833Y-14782116D01*
X10190357Y-14801164D01*
X10199881Y-14839259D01*
X10199881Y-14886878D01*
X10190357Y-14924973D01*
X10180833Y-14944021D01*
X10171310Y-14953545D01*
X10152262Y-14963068D01*
X10133214Y-14963068D01*
X10114167Y-14953545D01*
X10104643Y-14944021D01*
X10095119Y-14924973D01*
X10085595Y-14886878D01*
X10085595Y-14839259D01*
X10095119Y-14801164D01*
X10104643Y-14782116D01*
X10114167Y-14772592D01*
X10133214Y-14763068D01*
X10285595Y-14944021D02*
X10295119Y-14953545D01*
X10285595Y-14963068D01*
X10276071Y-14953545D01*
X10285595Y-14944021D01*
X10285595Y-14963068D01*
X10409405Y-14848783D02*
X10390357Y-14839259D01*
X10380833Y-14829735D01*
X10371310Y-14810687D01*
X10371310Y-14801164D01*
X10380833Y-14782116D01*
X10390357Y-14772592D01*
X10409405Y-14763068D01*
X10447500Y-14763068D01*
X10466548Y-14772592D01*
X10476071Y-14782116D01*
X10485595Y-14801164D01*
X10485595Y-14810687D01*
X10476071Y-14829735D01*
X10466548Y-14839259D01*
X10447500Y-14848783D01*
X10409405Y-14848783D01*
X10390357Y-14858306D01*
X10380833Y-14867830D01*
X10371310Y-14886878D01*
X10371310Y-14924973D01*
X10380833Y-14944021D01*
X10390357Y-14953545D01*
X10409405Y-14963068D01*
X10447500Y-14963068D01*
X10466548Y-14953545D01*
X10476071Y-14944021D01*
X10485595Y-14924973D01*
X10485595Y-14886878D01*
X10476071Y-14867830D01*
X10466548Y-14858306D01*
X10447500Y-14848783D01*
X10609405Y-14763068D02*
X10628452Y-14763068D01*
X10647500Y-14772592D01*
X10657024Y-14782116D01*
X10666548Y-14801164D01*
X10676071Y-14839259D01*
X10676071Y-14886878D01*
X10666548Y-14924973D01*
X10657024Y-14944021D01*
X10647500Y-14953545D01*
X10628452Y-14963068D01*
X10609405Y-14963068D01*
X10590357Y-14953545D01*
X10580833Y-14944021D01*
X10571310Y-14924973D01*
X10561786Y-14886878D01*
X10561786Y-14839259D01*
X10571310Y-14801164D01*
X10580833Y-14782116D01*
X10590357Y-14772592D01*
X10609405Y-14763068D01*
X10799881Y-14763068D02*
X10818929Y-14763068D01*
X10837976Y-14772592D01*
X10847500Y-14782116D01*
X10857024Y-14801164D01*
X10866548Y-14839259D01*
X10866548Y-14886878D01*
X10857024Y-14924973D01*
X10847500Y-14944021D01*
X10837976Y-14953545D01*
X10818929Y-14963068D01*
X10799881Y-14963068D01*
X10780833Y-14953545D01*
X10771310Y-14944021D01*
X10761786Y-14924973D01*
X10752262Y-14886878D01*
X10752262Y-14839259D01*
X10761786Y-14801164D01*
X10771310Y-14782116D01*
X10780833Y-14772592D01*
X10799881Y-14763068D01*
X10952262Y-14963068D02*
X10952262Y-14829735D01*
X10952262Y-14848783D02*
X10961786Y-14839259D01*
X10980833Y-14829735D01*
X11009405Y-14829735D01*
X11028452Y-14839259D01*
X11037976Y-14858306D01*
X11037976Y-14963068D01*
X11037976Y-14858306D02*
X11047500Y-14839259D01*
X11066548Y-14829735D01*
X11095119Y-14829735D01*
X11114167Y-14839259D01*
X11123690Y-14858306D01*
X11123690Y-14963068D01*
X11218928Y-14963068D02*
X11218928Y-14829735D01*
X11218928Y-14848783D02*
X11228452Y-14839259D01*
X11247500Y-14829735D01*
X11276071Y-14829735D01*
X11295119Y-14839259D01*
X11304643Y-14858306D01*
X11304643Y-14963068D01*
X11304643Y-14858306D02*
X11314167Y-14839259D01*
X11333214Y-14829735D01*
X11361786Y-14829735D01*
X11380833Y-14839259D01*
X11390357Y-14858306D01*
X11390357Y-14963068D01*
X11780833Y-14753545D02*
X11609405Y-15010687D01*
X12037976Y-14763068D02*
X12057024Y-14763068D01*
X12076071Y-14772592D01*
X12085595Y-14782116D01*
X12095119Y-14801164D01*
X12104643Y-14839259D01*
X12104643Y-14886878D01*
X12095119Y-14924973D01*
X12085595Y-14944021D01*
X12076071Y-14953545D01*
X12057024Y-14963068D01*
X12037976Y-14963068D01*
X12018928Y-14953545D01*
X12009405Y-14944021D01*
X11999881Y-14924973D01*
X11990357Y-14886878D01*
X11990357Y-14839259D01*
X11999881Y-14801164D01*
X12009405Y-14782116D01*
X12018928Y-14772592D01*
X12037976Y-14763068D01*
X12190357Y-14944021D02*
X12199881Y-14953545D01*
X12190357Y-14963068D01*
X12180833Y-14953545D01*
X12190357Y-14944021D01*
X12190357Y-14963068D01*
X12323690Y-14763068D02*
X12342738Y-14763068D01*
X12361786Y-14772592D01*
X12371309Y-14782116D01*
X12380833Y-14801164D01*
X12390357Y-14839259D01*
X12390357Y-14886878D01*
X12380833Y-14924973D01*
X12371309Y-14944021D01*
X12361786Y-14953545D01*
X12342738Y-14963068D01*
X12323690Y-14963068D01*
X12304643Y-14953545D01*
X12295119Y-14944021D01*
X12285595Y-14924973D01*
X12276071Y-14886878D01*
X12276071Y-14839259D01*
X12285595Y-14801164D01*
X12295119Y-14782116D01*
X12304643Y-14772592D01*
X12323690Y-14763068D01*
X12457024Y-14763068D02*
X12580833Y-14763068D01*
X12514167Y-14839259D01*
X12542738Y-14839259D01*
X12561786Y-14848783D01*
X12571309Y-14858306D01*
X12580833Y-14877354D01*
X12580833Y-14924973D01*
X12571309Y-14944021D01*
X12561786Y-14953545D01*
X12542738Y-14963068D01*
X12485595Y-14963068D01*
X12466548Y-14953545D01*
X12457024Y-14944021D01*
X12771309Y-14963068D02*
X12657024Y-14963068D01*
X12714167Y-14963068D02*
X12714167Y-14763068D01*
X12695119Y-14791640D01*
X12676071Y-14810687D01*
X12657024Y-14820211D01*
X12952262Y-14763068D02*
X12857024Y-14763068D01*
X12847500Y-14858306D01*
X12857024Y-14848783D01*
X12876071Y-14839259D01*
X12923690Y-14839259D01*
X12942738Y-14848783D01*
X12952262Y-14858306D01*
X12961786Y-14877354D01*
X12961786Y-14924973D01*
X12952262Y-14944021D01*
X12942738Y-14953545D01*
X12923690Y-14963068D01*
X12876071Y-14963068D01*
X12857024Y-14953545D01*
X12847500Y-14944021D01*
X13037976Y-14763068D02*
X13037976Y-14801164D01*
X13114167Y-14763068D02*
X13114167Y-14801164D01*
X13409405Y-15039259D02*
X13399881Y-15029735D01*
X13380833Y-15001164D01*
X13371309Y-14982116D01*
X13361786Y-14953545D01*
X13352262Y-14905926D01*
X13352262Y-14867830D01*
X13361786Y-14820211D01*
X13371309Y-14791640D01*
X13380833Y-14772592D01*
X13399881Y-14744021D01*
X13409405Y-14734497D01*
X13590357Y-14963068D02*
X13476071Y-14963068D01*
X13533214Y-14963068D02*
X13533214Y-14763068D01*
X13514167Y-14791640D01*
X13495119Y-14810687D01*
X13476071Y-14820211D01*
X13780833Y-14963068D02*
X13666548Y-14963068D01*
X13723690Y-14963068D02*
X13723690Y-14763068D01*
X13704643Y-14791640D01*
X13685595Y-14810687D01*
X13666548Y-14820211D01*
X14018928Y-14963068D02*
X14018928Y-14763068D01*
X14104643Y-14963068D02*
X14104643Y-14858306D01*
X14095119Y-14839259D01*
X14076071Y-14829735D01*
X14047500Y-14829735D01*
X14028452Y-14839259D01*
X14018928Y-14848783D01*
X14228452Y-14963068D02*
X14209405Y-14953545D01*
X14199881Y-14944021D01*
X14190357Y-14924973D01*
X14190357Y-14867830D01*
X14199881Y-14848783D01*
X14209405Y-14839259D01*
X14228452Y-14829735D01*
X14257024Y-14829735D01*
X14276071Y-14839259D01*
X14285595Y-14848783D01*
X14295119Y-14867830D01*
X14295119Y-14924973D01*
X14285595Y-14944021D01*
X14276071Y-14953545D01*
X14257024Y-14963068D01*
X14228452Y-14963068D01*
X14409405Y-14963068D02*
X14390357Y-14953545D01*
X14380833Y-14934497D01*
X14380833Y-14763068D01*
X14561786Y-14953545D02*
X14542738Y-14963068D01*
X14504643Y-14963068D01*
X14485595Y-14953545D01*
X14476071Y-14934497D01*
X14476071Y-14858306D01*
X14485595Y-14839259D01*
X14504643Y-14829735D01*
X14542738Y-14829735D01*
X14561786Y-14839259D01*
X14571309Y-14858306D01*
X14571309Y-14877354D01*
X14476071Y-14896402D01*
X14647500Y-14953545D02*
X14666548Y-14963068D01*
X14704643Y-14963068D01*
X14723690Y-14953545D01*
X14733214Y-14934497D01*
X14733214Y-14924973D01*
X14723690Y-14905926D01*
X14704643Y-14896402D01*
X14676071Y-14896402D01*
X14657024Y-14886878D01*
X14647500Y-14867830D01*
X14647500Y-14858306D01*
X14657024Y-14839259D01*
X14676071Y-14829735D01*
X14704643Y-14829735D01*
X14723690Y-14839259D01*
X14971309Y-14886878D02*
X15123690Y-14886878D01*
X15047500Y-14963068D02*
X15047500Y-14810687D01*
X15457024Y-14763068D02*
X15418928Y-14763068D01*
X15399881Y-14772592D01*
X15390357Y-14782116D01*
X15371309Y-14810687D01*
X15361786Y-14848783D01*
X15361786Y-14924973D01*
X15371309Y-14944021D01*
X15380833Y-14953545D01*
X15399881Y-14963068D01*
X15437976Y-14963068D01*
X15457024Y-14953545D01*
X15466548Y-14944021D01*
X15476071Y-14924973D01*
X15476071Y-14877354D01*
X15466548Y-14858306D01*
X15457024Y-14848783D01*
X15437976Y-14839259D01*
X15399881Y-14839259D01*
X15380833Y-14848783D01*
X15371309Y-14858306D01*
X15361786Y-14877354D01*
X15704643Y-14953545D02*
X15723690Y-14963068D01*
X15761786Y-14963068D01*
X15780833Y-14953545D01*
X15790357Y-14934497D01*
X15790357Y-14924973D01*
X15780833Y-14905926D01*
X15761786Y-14896402D01*
X15733214Y-14896402D01*
X15714167Y-14886878D01*
X15704643Y-14867830D01*
X15704643Y-14858306D01*
X15714167Y-14839259D01*
X15733214Y-14829735D01*
X15761786Y-14829735D01*
X15780833Y-14839259D01*
X15904643Y-14963068D02*
X15885595Y-14953545D01*
X15876071Y-14934497D01*
X15876071Y-14763068D01*
X16009405Y-14963068D02*
X15990357Y-14953545D01*
X15980833Y-14944021D01*
X15971309Y-14924973D01*
X15971309Y-14867830D01*
X15980833Y-14848783D01*
X15990357Y-14839259D01*
X16009405Y-14829735D01*
X16037976Y-14829735D01*
X16057024Y-14839259D01*
X16066548Y-14848783D01*
X16076071Y-14867830D01*
X16076071Y-14924973D01*
X16066548Y-14944021D01*
X16057024Y-14953545D01*
X16037976Y-14963068D01*
X16009405Y-14963068D01*
X16133214Y-14829735D02*
X16209405Y-14829735D01*
X16161786Y-14763068D02*
X16161786Y-14934497D01*
X16171309Y-14953545D01*
X16190357Y-14963068D01*
X16209405Y-14963068D01*
X16266548Y-14953545D02*
X16285595Y-14963068D01*
X16323690Y-14963068D01*
X16342738Y-14953545D01*
X16352262Y-14934497D01*
X16352262Y-14924973D01*
X16342738Y-14905926D01*
X16323690Y-14896402D01*
X16295119Y-14896402D01*
X16276071Y-14886878D01*
X16266548Y-14867830D01*
X16266548Y-14858306D01*
X16276071Y-14839259D01*
X16295119Y-14829735D01*
X16323690Y-14829735D01*
X16342738Y-14839259D01*
X16418928Y-15039259D02*
X16428452Y-15029735D01*
X16447500Y-15001164D01*
X16457024Y-14982116D01*
X16466548Y-14953545D01*
X16476071Y-14905926D01*
X16476071Y-14867830D01*
X16466548Y-14820211D01*
X16457024Y-14791640D01*
X16447500Y-14772592D01*
X16428452Y-14744021D01*
X16418928Y-14734497D01*
D15*
X9822856Y-15171948D02*
X9822856Y-15101237D01*
X9752144Y-15101237D01*
X9752144Y-15171948D01*
X9822856Y-15171948D01*
D11*
X10199881Y-15227068D02*
X10085595Y-15227068D01*
X10142738Y-15227068D02*
X10142738Y-15027068D01*
X10123690Y-15055640D01*
X10104643Y-15074687D01*
X10085595Y-15084211D01*
X10285595Y-15208021D02*
X10295119Y-15217545D01*
X10285595Y-15227068D01*
X10276071Y-15217545D01*
X10285595Y-15208021D01*
X10285595Y-15227068D01*
X10418929Y-15027068D02*
X10437976Y-15027068D01*
X10457024Y-15036592D01*
X10466548Y-15046116D01*
X10476071Y-15065164D01*
X10485595Y-15103259D01*
X10485595Y-15150878D01*
X10476071Y-15188973D01*
X10466548Y-15208021D01*
X10457024Y-15217545D01*
X10437976Y-15227068D01*
X10418929Y-15227068D01*
X10399881Y-15217545D01*
X10390357Y-15208021D01*
X10380833Y-15188973D01*
X10371310Y-15150878D01*
X10371310Y-15103259D01*
X10380833Y-15065164D01*
X10390357Y-15046116D01*
X10399881Y-15036592D01*
X10418929Y-15027068D01*
X10609405Y-15027068D02*
X10628452Y-15027068D01*
X10647500Y-15036592D01*
X10657024Y-15046116D01*
X10666548Y-15065164D01*
X10676071Y-15103259D01*
X10676071Y-15150878D01*
X10666548Y-15188973D01*
X10657024Y-15208021D01*
X10647500Y-15217545D01*
X10628452Y-15227068D01*
X10609405Y-15227068D01*
X10590357Y-15217545D01*
X10580833Y-15208021D01*
X10571310Y-15188973D01*
X10561786Y-15150878D01*
X10561786Y-15103259D01*
X10571310Y-15065164D01*
X10580833Y-15046116D01*
X10590357Y-15036592D01*
X10609405Y-15027068D01*
X10799881Y-15027068D02*
X10818929Y-15027068D01*
X10837976Y-15036592D01*
X10847500Y-15046116D01*
X10857024Y-15065164D01*
X10866548Y-15103259D01*
X10866548Y-15150878D01*
X10857024Y-15188973D01*
X10847500Y-15208021D01*
X10837976Y-15217545D01*
X10818929Y-15227068D01*
X10799881Y-15227068D01*
X10780833Y-15217545D01*
X10771310Y-15208021D01*
X10761786Y-15188973D01*
X10752262Y-15150878D01*
X10752262Y-15103259D01*
X10761786Y-15065164D01*
X10771310Y-15046116D01*
X10780833Y-15036592D01*
X10799881Y-15027068D01*
X10952262Y-15227068D02*
X10952262Y-15093735D01*
X10952262Y-15112783D02*
X10961786Y-15103259D01*
X10980833Y-15093735D01*
X11009405Y-15093735D01*
X11028452Y-15103259D01*
X11037976Y-15122306D01*
X11037976Y-15227068D01*
X11037976Y-15122306D02*
X11047500Y-15103259D01*
X11066548Y-15093735D01*
X11095119Y-15093735D01*
X11114167Y-15103259D01*
X11123690Y-15122306D01*
X11123690Y-15227068D01*
X11218928Y-15227068D02*
X11218928Y-15093735D01*
X11218928Y-15112783D02*
X11228452Y-15103259D01*
X11247500Y-15093735D01*
X11276071Y-15093735D01*
X11295119Y-15103259D01*
X11304643Y-15122306D01*
X11304643Y-15227068D01*
X11304643Y-15122306D02*
X11314167Y-15103259D01*
X11333214Y-15093735D01*
X11361786Y-15093735D01*
X11380833Y-15103259D01*
X11390357Y-15122306D01*
X11390357Y-15227068D01*
X11780833Y-15017545D02*
X11609405Y-15274687D01*
X12037976Y-15027068D02*
X12057024Y-15027068D01*
X12076071Y-15036592D01*
X12085595Y-15046116D01*
X12095119Y-15065164D01*
X12104643Y-15103259D01*
X12104643Y-15150878D01*
X12095119Y-15188973D01*
X12085595Y-15208021D01*
X12076071Y-15217545D01*
X12057024Y-15227068D01*
X12037976Y-15227068D01*
X12018928Y-15217545D01*
X12009405Y-15208021D01*
X11999881Y-15188973D01*
X11990357Y-15150878D01*
X11990357Y-15103259D01*
X11999881Y-15065164D01*
X12009405Y-15046116D01*
X12018928Y-15036592D01*
X12037976Y-15027068D01*
X12190357Y-15208021D02*
X12199881Y-15217545D01*
X12190357Y-15227068D01*
X12180833Y-15217545D01*
X12190357Y-15208021D01*
X12190357Y-15227068D01*
X12323690Y-15027068D02*
X12342738Y-15027068D01*
X12361786Y-15036592D01*
X12371309Y-15046116D01*
X12380833Y-15065164D01*
X12390357Y-15103259D01*
X12390357Y-15150878D01*
X12380833Y-15188973D01*
X12371309Y-15208021D01*
X12361786Y-15217545D01*
X12342738Y-15227068D01*
X12323690Y-15227068D01*
X12304643Y-15217545D01*
X12295119Y-15208021D01*
X12285595Y-15188973D01*
X12276071Y-15150878D01*
X12276071Y-15103259D01*
X12285595Y-15065164D01*
X12295119Y-15046116D01*
X12304643Y-15036592D01*
X12323690Y-15027068D01*
X12457024Y-15027068D02*
X12580833Y-15027068D01*
X12514167Y-15103259D01*
X12542738Y-15103259D01*
X12561786Y-15112783D01*
X12571309Y-15122306D01*
X12580833Y-15141354D01*
X12580833Y-15188973D01*
X12571309Y-15208021D01*
X12561786Y-15217545D01*
X12542738Y-15227068D01*
X12485595Y-15227068D01*
X12466548Y-15217545D01*
X12457024Y-15208021D01*
X12676071Y-15227068D02*
X12714167Y-15227068D01*
X12733214Y-15217545D01*
X12742738Y-15208021D01*
X12761786Y-15179449D01*
X12771309Y-15141354D01*
X12771309Y-15065164D01*
X12761786Y-15046116D01*
X12752262Y-15036592D01*
X12733214Y-15027068D01*
X12695119Y-15027068D01*
X12676071Y-15036592D01*
X12666548Y-15046116D01*
X12657024Y-15065164D01*
X12657024Y-15112783D01*
X12666548Y-15131830D01*
X12676071Y-15141354D01*
X12695119Y-15150878D01*
X12733214Y-15150878D01*
X12752262Y-15141354D01*
X12761786Y-15131830D01*
X12771309Y-15112783D01*
X12942738Y-15093735D02*
X12942738Y-15227068D01*
X12895119Y-15017545D02*
X12847500Y-15160402D01*
X12971309Y-15160402D01*
X13037976Y-15027068D02*
X13037976Y-15065164D01*
X13114167Y-15027068D02*
X13114167Y-15065164D01*
X13409405Y-15303259D02*
X13399881Y-15293735D01*
X13380833Y-15265164D01*
X13371309Y-15246116D01*
X13361786Y-15217545D01*
X13352262Y-15169926D01*
X13352262Y-15131830D01*
X13361786Y-15084211D01*
X13371309Y-15055640D01*
X13380833Y-15036592D01*
X13399881Y-15008021D01*
X13409405Y-14998497D01*
X13590357Y-15227068D02*
X13476071Y-15227068D01*
X13533214Y-15227068D02*
X13533214Y-15027068D01*
X13514167Y-15055640D01*
X13495119Y-15074687D01*
X13476071Y-15084211D01*
X13771309Y-15027068D02*
X13676071Y-15027068D01*
X13666548Y-15122306D01*
X13676071Y-15112783D01*
X13695119Y-15103259D01*
X13742738Y-15103259D01*
X13761786Y-15112783D01*
X13771309Y-15122306D01*
X13780833Y-15141354D01*
X13780833Y-15188973D01*
X13771309Y-15208021D01*
X13761786Y-15217545D01*
X13742738Y-15227068D01*
X13695119Y-15227068D01*
X13676071Y-15217545D01*
X13666548Y-15208021D01*
X14018928Y-15227068D02*
X14018928Y-15027068D01*
X14104643Y-15227068D02*
X14104643Y-15122306D01*
X14095119Y-15103259D01*
X14076071Y-15093735D01*
X14047500Y-15093735D01*
X14028452Y-15103259D01*
X14018928Y-15112783D01*
X14228452Y-15227068D02*
X14209405Y-15217545D01*
X14199881Y-15208021D01*
X14190357Y-15188973D01*
X14190357Y-15131830D01*
X14199881Y-15112783D01*
X14209405Y-15103259D01*
X14228452Y-15093735D01*
X14257024Y-15093735D01*
X14276071Y-15103259D01*
X14285595Y-15112783D01*
X14295119Y-15131830D01*
X14295119Y-15188973D01*
X14285595Y-15208021D01*
X14276071Y-15217545D01*
X14257024Y-15227068D01*
X14228452Y-15227068D01*
X14409405Y-15227068D02*
X14390357Y-15217545D01*
X14380833Y-15198497D01*
X14380833Y-15027068D01*
X14561786Y-15217545D02*
X14542738Y-15227068D01*
X14504643Y-15227068D01*
X14485595Y-15217545D01*
X14476071Y-15198497D01*
X14476071Y-15122306D01*
X14485595Y-15103259D01*
X14504643Y-15093735D01*
X14542738Y-15093735D01*
X14561786Y-15103259D01*
X14571309Y-15122306D01*
X14571309Y-15141354D01*
X14476071Y-15160402D01*
X14647500Y-15217545D02*
X14666548Y-15227068D01*
X14704643Y-15227068D01*
X14723690Y-15217545D01*
X14733214Y-15198497D01*
X14733214Y-15188973D01*
X14723690Y-15169926D01*
X14704643Y-15160402D01*
X14676071Y-15160402D01*
X14657024Y-15150878D01*
X14647500Y-15131830D01*
X14647500Y-15122306D01*
X14657024Y-15103259D01*
X14676071Y-15093735D01*
X14704643Y-15093735D01*
X14723690Y-15103259D01*
X14971309Y-15150878D02*
X15123690Y-15150878D01*
X15047500Y-15227068D02*
X15047500Y-15074687D01*
X15457024Y-15027068D02*
X15418928Y-15027068D01*
X15399881Y-15036592D01*
X15390357Y-15046116D01*
X15371309Y-15074687D01*
X15361786Y-15112783D01*
X15361786Y-15188973D01*
X15371309Y-15208021D01*
X15380833Y-15217545D01*
X15399881Y-15227068D01*
X15437976Y-15227068D01*
X15457024Y-15217545D01*
X15466548Y-15208021D01*
X15476071Y-15188973D01*
X15476071Y-15141354D01*
X15466548Y-15122306D01*
X15457024Y-15112783D01*
X15437976Y-15103259D01*
X15399881Y-15103259D01*
X15380833Y-15112783D01*
X15371309Y-15122306D01*
X15361786Y-15141354D01*
X15704643Y-15217545D02*
X15723690Y-15227068D01*
X15761786Y-15227068D01*
X15780833Y-15217545D01*
X15790357Y-15198497D01*
X15790357Y-15188973D01*
X15780833Y-15169926D01*
X15761786Y-15160402D01*
X15733214Y-15160402D01*
X15714167Y-15150878D01*
X15704643Y-15131830D01*
X15704643Y-15122306D01*
X15714167Y-15103259D01*
X15733214Y-15093735D01*
X15761786Y-15093735D01*
X15780833Y-15103259D01*
X15904643Y-15227068D02*
X15885595Y-15217545D01*
X15876071Y-15198497D01*
X15876071Y-15027068D01*
X16009405Y-15227068D02*
X15990357Y-15217545D01*
X15980833Y-15208021D01*
X15971309Y-15188973D01*
X15971309Y-15131830D01*
X15980833Y-15112783D01*
X15990357Y-15103259D01*
X16009405Y-15093735D01*
X16037976Y-15093735D01*
X16057024Y-15103259D01*
X16066548Y-15112783D01*
X16076071Y-15131830D01*
X16076071Y-15188973D01*
X16066548Y-15208021D01*
X16057024Y-15217545D01*
X16037976Y-15227068D01*
X16009405Y-15227068D01*
X16133214Y-15093735D02*
X16209405Y-15093735D01*
X16161786Y-15027068D02*
X16161786Y-15198497D01*
X16171309Y-15217545D01*
X16190357Y-15227068D01*
X16209405Y-15227068D01*
X16266548Y-15217545D02*
X16285595Y-15227068D01*
X16323690Y-15227068D01*
X16342738Y-15217545D01*
X16352262Y-15198497D01*
X16352262Y-15188973D01*
X16342738Y-15169926D01*
X16323690Y-15160402D01*
X16295119Y-15160402D01*
X16276071Y-15150878D01*
X16266548Y-15131830D01*
X16266548Y-15122306D01*
X16276071Y-15103259D01*
X16295119Y-15093735D01*
X16323690Y-15093735D01*
X16342738Y-15103259D01*
X16418928Y-15303259D02*
X16428452Y-15293735D01*
X16447500Y-15265164D01*
X16457024Y-15246116D01*
X16466548Y-15217545D01*
X16476071Y-15169926D01*
X16476071Y-15131830D01*
X16466548Y-15084211D01*
X16457024Y-15055640D01*
X16447500Y-15036592D01*
X16428452Y-15008021D01*
X16418928Y-14998497D01*
D16*
X9771500Y-15466592D02*
X9837500Y-15400592D01*
X9771500Y-15334592D01*
X9705500Y-15400592D01*
X9771500Y-15466592D01*
D11*
X10199881Y-15491068D02*
X10085595Y-15491068D01*
X10142738Y-15491068D02*
X10142738Y-15291068D01*
X10123690Y-15319640D01*
X10104643Y-15338687D01*
X10085595Y-15348211D01*
X10285595Y-15472021D02*
X10295119Y-15481545D01*
X10285595Y-15491068D01*
X10276071Y-15481545D01*
X10285595Y-15472021D01*
X10285595Y-15491068D01*
X10361786Y-15291068D02*
X10485595Y-15291068D01*
X10418929Y-15367259D01*
X10447500Y-15367259D01*
X10466548Y-15376783D01*
X10476071Y-15386306D01*
X10485595Y-15405354D01*
X10485595Y-15452973D01*
X10476071Y-15472021D01*
X10466548Y-15481545D01*
X10447500Y-15491068D01*
X10390357Y-15491068D01*
X10371310Y-15481545D01*
X10361786Y-15472021D01*
X10561786Y-15310116D02*
X10571310Y-15300592D01*
X10590357Y-15291068D01*
X10637976Y-15291068D01*
X10657024Y-15300592D01*
X10666548Y-15310116D01*
X10676071Y-15329164D01*
X10676071Y-15348211D01*
X10666548Y-15376783D01*
X10552262Y-15491068D01*
X10676071Y-15491068D01*
X10799881Y-15291068D02*
X10818929Y-15291068D01*
X10837976Y-15300592D01*
X10847500Y-15310116D01*
X10857024Y-15329164D01*
X10866548Y-15367259D01*
X10866548Y-15414878D01*
X10857024Y-15452973D01*
X10847500Y-15472021D01*
X10837976Y-15481545D01*
X10818929Y-15491068D01*
X10799881Y-15491068D01*
X10780833Y-15481545D01*
X10771310Y-15472021D01*
X10761786Y-15452973D01*
X10752262Y-15414878D01*
X10752262Y-15367259D01*
X10761786Y-15329164D01*
X10771310Y-15310116D01*
X10780833Y-15300592D01*
X10799881Y-15291068D01*
X10952262Y-15491068D02*
X10952262Y-15357735D01*
X10952262Y-15376783D02*
X10961786Y-15367259D01*
X10980833Y-15357735D01*
X11009405Y-15357735D01*
X11028452Y-15367259D01*
X11037976Y-15386306D01*
X11037976Y-15491068D01*
X11037976Y-15386306D02*
X11047500Y-15367259D01*
X11066548Y-15357735D01*
X11095119Y-15357735D01*
X11114167Y-15367259D01*
X11123690Y-15386306D01*
X11123690Y-15491068D01*
X11218928Y-15491068D02*
X11218928Y-15357735D01*
X11218928Y-15376783D02*
X11228452Y-15367259D01*
X11247500Y-15357735D01*
X11276071Y-15357735D01*
X11295119Y-15367259D01*
X11304643Y-15386306D01*
X11304643Y-15491068D01*
X11304643Y-15386306D02*
X11314167Y-15367259D01*
X11333214Y-15357735D01*
X11361786Y-15357735D01*
X11380833Y-15367259D01*
X11390357Y-15386306D01*
X11390357Y-15491068D01*
X11780833Y-15281545D02*
X11609405Y-15538687D01*
X12037976Y-15291068D02*
X12057024Y-15291068D01*
X12076071Y-15300592D01*
X12085595Y-15310116D01*
X12095119Y-15329164D01*
X12104643Y-15367259D01*
X12104643Y-15414878D01*
X12095119Y-15452973D01*
X12085595Y-15472021D01*
X12076071Y-15481545D01*
X12057024Y-15491068D01*
X12037976Y-15491068D01*
X12018928Y-15481545D01*
X12009405Y-15472021D01*
X11999881Y-15452973D01*
X11990357Y-15414878D01*
X11990357Y-15367259D01*
X11999881Y-15329164D01*
X12009405Y-15310116D01*
X12018928Y-15300592D01*
X12037976Y-15291068D01*
X12190357Y-15472021D02*
X12199881Y-15481545D01*
X12190357Y-15491068D01*
X12180833Y-15481545D01*
X12190357Y-15472021D01*
X12190357Y-15491068D01*
X12323690Y-15291068D02*
X12342738Y-15291068D01*
X12361786Y-15300592D01*
X12371309Y-15310116D01*
X12380833Y-15329164D01*
X12390357Y-15367259D01*
X12390357Y-15414878D01*
X12380833Y-15452973D01*
X12371309Y-15472021D01*
X12361786Y-15481545D01*
X12342738Y-15491068D01*
X12323690Y-15491068D01*
X12304643Y-15481545D01*
X12295119Y-15472021D01*
X12285595Y-15452973D01*
X12276071Y-15414878D01*
X12276071Y-15367259D01*
X12285595Y-15329164D01*
X12295119Y-15310116D01*
X12304643Y-15300592D01*
X12323690Y-15291068D01*
X12571309Y-15291068D02*
X12476071Y-15291068D01*
X12466548Y-15386306D01*
X12476071Y-15376783D01*
X12495119Y-15367259D01*
X12542738Y-15367259D01*
X12561786Y-15376783D01*
X12571309Y-15386306D01*
X12580833Y-15405354D01*
X12580833Y-15452973D01*
X12571309Y-15472021D01*
X12561786Y-15481545D01*
X12542738Y-15491068D01*
X12495119Y-15491068D01*
X12476071Y-15481545D01*
X12466548Y-15472021D01*
X12657024Y-15310116D02*
X12666548Y-15300592D01*
X12685595Y-15291068D01*
X12733214Y-15291068D01*
X12752262Y-15300592D01*
X12761786Y-15310116D01*
X12771309Y-15329164D01*
X12771309Y-15348211D01*
X12761786Y-15376783D01*
X12647500Y-15491068D01*
X12771309Y-15491068D01*
X12895119Y-15291068D02*
X12914167Y-15291068D01*
X12933214Y-15300592D01*
X12942738Y-15310116D01*
X12952262Y-15329164D01*
X12961786Y-15367259D01*
X12961786Y-15414878D01*
X12952262Y-15452973D01*
X12942738Y-15472021D01*
X12933214Y-15481545D01*
X12914167Y-15491068D01*
X12895119Y-15491068D01*
X12876071Y-15481545D01*
X12866548Y-15472021D01*
X12857024Y-15452973D01*
X12847500Y-15414878D01*
X12847500Y-15367259D01*
X12857024Y-15329164D01*
X12866548Y-15310116D01*
X12876071Y-15300592D01*
X12895119Y-15291068D01*
X13037976Y-15291068D02*
X13037976Y-15329164D01*
X13114167Y-15291068D02*
X13114167Y-15329164D01*
X13409405Y-15567259D02*
X13399881Y-15557735D01*
X13380833Y-15529164D01*
X13371309Y-15510116D01*
X13361786Y-15481545D01*
X13352262Y-15433926D01*
X13352262Y-15395830D01*
X13361786Y-15348211D01*
X13371309Y-15319640D01*
X13380833Y-15300592D01*
X13399881Y-15272021D01*
X13409405Y-15262497D01*
X13514167Y-15376783D02*
X13495119Y-15367259D01*
X13485595Y-15357735D01*
X13476071Y-15338687D01*
X13476071Y-15329164D01*
X13485595Y-15310116D01*
X13495119Y-15300592D01*
X13514167Y-15291068D01*
X13552262Y-15291068D01*
X13571309Y-15300592D01*
X13580833Y-15310116D01*
X13590357Y-15329164D01*
X13590357Y-15338687D01*
X13580833Y-15357735D01*
X13571309Y-15367259D01*
X13552262Y-15376783D01*
X13514167Y-15376783D01*
X13495119Y-15386306D01*
X13485595Y-15395830D01*
X13476071Y-15414878D01*
X13476071Y-15452973D01*
X13485595Y-15472021D01*
X13495119Y-15481545D01*
X13514167Y-15491068D01*
X13552262Y-15491068D01*
X13571309Y-15481545D01*
X13580833Y-15472021D01*
X13590357Y-15452973D01*
X13590357Y-15414878D01*
X13580833Y-15395830D01*
X13571309Y-15386306D01*
X13552262Y-15376783D01*
X13828452Y-15491068D02*
X13828452Y-15291068D01*
X13914167Y-15491068D02*
X13914167Y-15386306D01*
X13904643Y-15367259D01*
X13885595Y-15357735D01*
X13857024Y-15357735D01*
X13837976Y-15367259D01*
X13828452Y-15376783D01*
X14037976Y-15491068D02*
X14018928Y-15481545D01*
X14009405Y-15472021D01*
X13999881Y-15452973D01*
X13999881Y-15395830D01*
X14009405Y-15376783D01*
X14018928Y-15367259D01*
X14037976Y-15357735D01*
X14066548Y-15357735D01*
X14085595Y-15367259D01*
X14095119Y-15376783D01*
X14104643Y-15395830D01*
X14104643Y-15452973D01*
X14095119Y-15472021D01*
X14085595Y-15481545D01*
X14066548Y-15491068D01*
X14037976Y-15491068D01*
X14218928Y-15491068D02*
X14199881Y-15481545D01*
X14190357Y-15462497D01*
X14190357Y-15291068D01*
X14371309Y-15481545D02*
X14352262Y-15491068D01*
X14314167Y-15491068D01*
X14295119Y-15481545D01*
X14285595Y-15462497D01*
X14285595Y-15386306D01*
X14295119Y-15367259D01*
X14314167Y-15357735D01*
X14352262Y-15357735D01*
X14371309Y-15367259D01*
X14380833Y-15386306D01*
X14380833Y-15405354D01*
X14285595Y-15424402D01*
X14457024Y-15481545D02*
X14476071Y-15491068D01*
X14514167Y-15491068D01*
X14533214Y-15481545D01*
X14542738Y-15462497D01*
X14542738Y-15452973D01*
X14533214Y-15433926D01*
X14514167Y-15424402D01*
X14485595Y-15424402D01*
X14466548Y-15414878D01*
X14457024Y-15395830D01*
X14457024Y-15386306D01*
X14466548Y-15367259D01*
X14485595Y-15357735D01*
X14514167Y-15357735D01*
X14533214Y-15367259D01*
X14609405Y-15567259D02*
X14618928Y-15557735D01*
X14637976Y-15529164D01*
X14647500Y-15510116D01*
X14657024Y-15481545D01*
X14666548Y-15433926D01*
X14666548Y-15395830D01*
X14657024Y-15348211D01*
X14647500Y-15319640D01*
X14637976Y-15300592D01*
X14618928Y-15272021D01*
X14609405Y-15262497D01*
X9637500Y-15564592D02*
X9837500Y-15764592D01*
X9837500Y-15564592D02*
X9637500Y-15764592D01*
X9837500Y-15664592D02*
G75*
G03*
X9837500Y-15664592I-100000J0D01*
G01*
X10076071Y-15555068D02*
X10199881Y-15555068D01*
X10133214Y-15631259D01*
X10161786Y-15631259D01*
X10180833Y-15640783D01*
X10190357Y-15650306D01*
X10199881Y-15669354D01*
X10199881Y-15716973D01*
X10190357Y-15736021D01*
X10180833Y-15745545D01*
X10161786Y-15755068D01*
X10104643Y-15755068D01*
X10085595Y-15745545D01*
X10076071Y-15736021D01*
X10285595Y-15736021D02*
X10295119Y-15745545D01*
X10285595Y-15755068D01*
X10276071Y-15745545D01*
X10285595Y-15736021D01*
X10285595Y-15755068D01*
X10371310Y-15574116D02*
X10380833Y-15564592D01*
X10399881Y-15555068D01*
X10447500Y-15555068D01*
X10466548Y-15564592D01*
X10476071Y-15574116D01*
X10485595Y-15593164D01*
X10485595Y-15612211D01*
X10476071Y-15640783D01*
X10361786Y-15755068D01*
X10485595Y-15755068D01*
X10609405Y-15555068D02*
X10628452Y-15555068D01*
X10647500Y-15564592D01*
X10657024Y-15574116D01*
X10666548Y-15593164D01*
X10676071Y-15631259D01*
X10676071Y-15678878D01*
X10666548Y-15716973D01*
X10657024Y-15736021D01*
X10647500Y-15745545D01*
X10628452Y-15755068D01*
X10609405Y-15755068D01*
X10590357Y-15745545D01*
X10580833Y-15736021D01*
X10571310Y-15716973D01*
X10561786Y-15678878D01*
X10561786Y-15631259D01*
X10571310Y-15593164D01*
X10580833Y-15574116D01*
X10590357Y-15564592D01*
X10609405Y-15555068D01*
X10799881Y-15555068D02*
X10818929Y-15555068D01*
X10837976Y-15564592D01*
X10847500Y-15574116D01*
X10857024Y-15593164D01*
X10866548Y-15631259D01*
X10866548Y-15678878D01*
X10857024Y-15716973D01*
X10847500Y-15736021D01*
X10837976Y-15745545D01*
X10818929Y-15755068D01*
X10799881Y-15755068D01*
X10780833Y-15745545D01*
X10771310Y-15736021D01*
X10761786Y-15716973D01*
X10752262Y-15678878D01*
X10752262Y-15631259D01*
X10761786Y-15593164D01*
X10771310Y-15574116D01*
X10780833Y-15564592D01*
X10799881Y-15555068D01*
X10952262Y-15755068D02*
X10952262Y-15621735D01*
X10952262Y-15640783D02*
X10961786Y-15631259D01*
X10980833Y-15621735D01*
X11009405Y-15621735D01*
X11028452Y-15631259D01*
X11037976Y-15650306D01*
X11037976Y-15755068D01*
X11037976Y-15650306D02*
X11047500Y-15631259D01*
X11066548Y-15621735D01*
X11095119Y-15621735D01*
X11114167Y-15631259D01*
X11123690Y-15650306D01*
X11123690Y-15755068D01*
X11218928Y-15755068D02*
X11218928Y-15621735D01*
X11218928Y-15640783D02*
X11228452Y-15631259D01*
X11247500Y-15621735D01*
X11276071Y-15621735D01*
X11295119Y-15631259D01*
X11304643Y-15650306D01*
X11304643Y-15755068D01*
X11304643Y-15650306D02*
X11314167Y-15631259D01*
X11333214Y-15621735D01*
X11361786Y-15621735D01*
X11380833Y-15631259D01*
X11390357Y-15650306D01*
X11390357Y-15755068D01*
X11780833Y-15545545D02*
X11609405Y-15802687D01*
X12037976Y-15555068D02*
X12057024Y-15555068D01*
X12076071Y-15564592D01*
X12085595Y-15574116D01*
X12095119Y-15593164D01*
X12104643Y-15631259D01*
X12104643Y-15678878D01*
X12095119Y-15716973D01*
X12085595Y-15736021D01*
X12076071Y-15745545D01*
X12057024Y-15755068D01*
X12037976Y-15755068D01*
X12018928Y-15745545D01*
X12009405Y-15736021D01*
X11999881Y-15716973D01*
X11990357Y-15678878D01*
X11990357Y-15631259D01*
X11999881Y-15593164D01*
X12009405Y-15574116D01*
X12018928Y-15564592D01*
X12037976Y-15555068D01*
X12190357Y-15736021D02*
X12199881Y-15745545D01*
X12190357Y-15755068D01*
X12180833Y-15745545D01*
X12190357Y-15736021D01*
X12190357Y-15755068D01*
X12390357Y-15755068D02*
X12276071Y-15755068D01*
X12333214Y-15755068D02*
X12333214Y-15555068D01*
X12314167Y-15583640D01*
X12295119Y-15602687D01*
X12276071Y-15612211D01*
X12466548Y-15574116D02*
X12476071Y-15564592D01*
X12495119Y-15555068D01*
X12542738Y-15555068D01*
X12561786Y-15564592D01*
X12571309Y-15574116D01*
X12580833Y-15593164D01*
X12580833Y-15612211D01*
X12571309Y-15640783D01*
X12457024Y-15755068D01*
X12580833Y-15755068D01*
X12752262Y-15555068D02*
X12714167Y-15555068D01*
X12695119Y-15564592D01*
X12685595Y-15574116D01*
X12666548Y-15602687D01*
X12657024Y-15640783D01*
X12657024Y-15716973D01*
X12666548Y-15736021D01*
X12676071Y-15745545D01*
X12695119Y-15755068D01*
X12733214Y-15755068D01*
X12752262Y-15745545D01*
X12761786Y-15736021D01*
X12771309Y-15716973D01*
X12771309Y-15669354D01*
X12761786Y-15650306D01*
X12752262Y-15640783D01*
X12733214Y-15631259D01*
X12695119Y-15631259D01*
X12676071Y-15640783D01*
X12666548Y-15650306D01*
X12657024Y-15669354D01*
X12895119Y-15555068D02*
X12914167Y-15555068D01*
X12933214Y-15564592D01*
X12942738Y-15574116D01*
X12952262Y-15593164D01*
X12961786Y-15631259D01*
X12961786Y-15678878D01*
X12952262Y-15716973D01*
X12942738Y-15736021D01*
X12933214Y-15745545D01*
X12914167Y-15755068D01*
X12895119Y-15755068D01*
X12876071Y-15745545D01*
X12866548Y-15736021D01*
X12857024Y-15716973D01*
X12847500Y-15678878D01*
X12847500Y-15631259D01*
X12857024Y-15593164D01*
X12866548Y-15574116D01*
X12876071Y-15564592D01*
X12895119Y-15555068D01*
X13037976Y-15555068D02*
X13037976Y-15593164D01*
X13114167Y-15555068D02*
X13114167Y-15593164D01*
X13409405Y-15831259D02*
X13399881Y-15821735D01*
X13380833Y-15793164D01*
X13371309Y-15774116D01*
X13361786Y-15745545D01*
X13352262Y-15697926D01*
X13352262Y-15659830D01*
X13361786Y-15612211D01*
X13371309Y-15583640D01*
X13380833Y-15564592D01*
X13399881Y-15536021D01*
X13409405Y-15526497D01*
X13571309Y-15621735D02*
X13571309Y-15755068D01*
X13523690Y-15545545D02*
X13476071Y-15688402D01*
X13599881Y-15688402D01*
X13828452Y-15755068D02*
X13828452Y-15555068D01*
X13914167Y-15755068D02*
X13914167Y-15650306D01*
X13904643Y-15631259D01*
X13885595Y-15621735D01*
X13857024Y-15621735D01*
X13837976Y-15631259D01*
X13828452Y-15640783D01*
X14037976Y-15755068D02*
X14018928Y-15745545D01*
X14009405Y-15736021D01*
X13999881Y-15716973D01*
X13999881Y-15659830D01*
X14009405Y-15640783D01*
X14018928Y-15631259D01*
X14037976Y-15621735D01*
X14066548Y-15621735D01*
X14085595Y-15631259D01*
X14095119Y-15640783D01*
X14104643Y-15659830D01*
X14104643Y-15716973D01*
X14095119Y-15736021D01*
X14085595Y-15745545D01*
X14066548Y-15755068D01*
X14037976Y-15755068D01*
X14218928Y-15755068D02*
X14199881Y-15745545D01*
X14190357Y-15726497D01*
X14190357Y-15555068D01*
X14371309Y-15745545D02*
X14352262Y-15755068D01*
X14314167Y-15755068D01*
X14295119Y-15745545D01*
X14285595Y-15726497D01*
X14285595Y-15650306D01*
X14295119Y-15631259D01*
X14314167Y-15621735D01*
X14352262Y-15621735D01*
X14371309Y-15631259D01*
X14380833Y-15650306D01*
X14380833Y-15669354D01*
X14285595Y-15688402D01*
X14457024Y-15745545D02*
X14476071Y-15755068D01*
X14514167Y-15755068D01*
X14533214Y-15745545D01*
X14542738Y-15726497D01*
X14542738Y-15716973D01*
X14533214Y-15697926D01*
X14514167Y-15688402D01*
X14485595Y-15688402D01*
X14466548Y-15678878D01*
X14457024Y-15659830D01*
X14457024Y-15650306D01*
X14466548Y-15631259D01*
X14485595Y-15621735D01*
X14514167Y-15621735D01*
X14533214Y-15631259D01*
X14609405Y-15831259D02*
X14618928Y-15821735D01*
X14637976Y-15793164D01*
X14647500Y-15774116D01*
X14657024Y-15745545D01*
X14666548Y-15697926D01*
X14666548Y-15659830D01*
X14657024Y-15612211D01*
X14647500Y-15583640D01*
X14637976Y-15564592D01*
X14618928Y-15536021D01*
X14609405Y-15526497D01*
M02*
