%TF.GenerationSoftware,KiCad,Pcbnew,6.0.4-6f826c9f35~116~ubuntu20.04.1*%
%TF.CreationDate,2022-05-05T18:32:33+02:00*%
%TF.ProjectId,tfm,74666d2e-6b69-4636-9164-5f7063625858,1.0*%
%TF.SameCoordinates,Original*%
%TF.FileFunction,Legend,Top*%
%TF.FilePolarity,Positive*%
%FSLAX46Y46*%
G04 Gerber Fmt 4.6, Leading zero omitted, Abs format (unit mm)*
G04 Created by KiCad (PCBNEW 6.0.4-6f826c9f35~116~ubuntu20.04.1) date 2022-05-05 18:32:33*
%MOMM*%
%LPD*%
G01*
G04 APERTURE LIST*
G04 Aperture macros list*
%AMRoundRect*
0 Rectangle with rounded corners*
0 $1 Rounding radius*
0 $2 $3 $4 $5 $6 $7 $8 $9 X,Y pos of 4 corners*
0 Add a 4 corners polygon primitive as box body*
4,1,4,$2,$3,$4,$5,$6,$7,$8,$9,$2,$3,0*
0 Add four circle primitives for the rounded corners*
1,1,$1+$1,$2,$3*
1,1,$1+$1,$4,$5*
1,1,$1+$1,$6,$7*
1,1,$1+$1,$8,$9*
0 Add four rect primitives between the rounded corners*
20,1,$1+$1,$2,$3,$4,$5,0*
20,1,$1+$1,$4,$5,$6,$7,0*
20,1,$1+$1,$6,$7,$8,$9,0*
20,1,$1+$1,$8,$9,$2,$3,0*%
G04 Aperture macros list end*
%ADD10C,0.150000*%
%ADD11C,0.300000*%
%ADD12C,0.500000*%
%ADD13C,0.120000*%
%ADD14C,0.100000*%
%ADD15C,0.127000*%
%ADD16C,0.160000*%
%ADD17C,0.200000*%
%ADD18C,1.500000*%
%ADD19C,2.000000*%
%ADD20RoundRect,0.135000X0.135000X0.185000X-0.135000X0.185000X-0.135000X-0.185000X0.135000X-0.185000X0*%
%ADD21R,2.000000X1.500000*%
%ADD22R,2.000000X3.800000*%
%ADD23RoundRect,0.135000X-0.135000X-0.185000X0.135000X-0.185000X0.135000X0.185000X-0.135000X0.185000X0*%
%ADD24RoundRect,0.140000X-0.170000X0.140000X-0.170000X-0.140000X0.170000X-0.140000X0.170000X0.140000X0*%
%ADD25RoundRect,0.135000X-0.185000X0.135000X-0.185000X-0.135000X0.185000X-0.135000X0.185000X0.135000X0*%
%ADD26R,1.700000X1.700000*%
%ADD27O,1.700000X1.700000*%
%ADD28RoundRect,0.140000X0.140000X0.170000X-0.140000X0.170000X-0.140000X-0.170000X0.140000X-0.170000X0*%
%ADD29R,0.750000X2.100000*%
%ADD30RoundRect,0.750000X6.750000X0.000000X6.750000X0.000000X-6.750000X0.000000X-6.750000X0.000000X0*%
%ADD31RoundRect,0.150000X0.150000X-0.825000X0.150000X0.825000X-0.150000X0.825000X-0.150000X-0.825000X0*%
%ADD32R,1.524000X1.524000*%
%ADD33C,1.524000*%
%ADD34RoundRect,0.147500X0.147500X0.172500X-0.147500X0.172500X-0.147500X-0.172500X0.147500X-0.172500X0*%
%ADD35RoundRect,0.135000X0.185000X-0.135000X0.185000X0.135000X-0.185000X0.135000X-0.185000X-0.135000X0*%
%ADD36R,0.500000X0.300000*%
%ADD37RoundRect,0.100000X-0.637500X-0.100000X0.637500X-0.100000X0.637500X0.100000X-0.637500X0.100000X0*%
%ADD38RoundRect,0.100000X0.637500X0.100000X-0.637500X0.100000X-0.637500X-0.100000X0.637500X-0.100000X0*%
%ADD39RoundRect,0.250000X-1.425000X0.425000X-1.425000X-0.425000X1.425000X-0.425000X1.425000X0.425000X0*%
%ADD40RoundRect,0.100000X-0.100000X0.175000X-0.100000X-0.175000X0.100000X-0.175000X0.100000X0.175000X0*%
%ADD41RoundRect,0.100000X-0.175000X0.100000X-0.175000X-0.100000X0.175000X-0.100000X0.175000X0.100000X0*%
%ADD42C,1.800000*%
%ADD43C,6.400000*%
%ADD44C,3.600000*%
%ADD45C,1.600000*%
%ADD46O,1.600000X1.600000*%
%ADD47RoundRect,0.250000X-0.650000X0.325000X-0.650000X-0.325000X0.650000X-0.325000X0.650000X0.325000X0*%
%ADD48RoundRect,0.250000X0.650000X-0.325000X0.650000X0.325000X-0.650000X0.325000X-0.650000X-0.325000X0*%
%ADD49R,0.500000X0.400000*%
%ADD50RoundRect,0.140000X-0.140000X-0.170000X0.140000X-0.170000X0.140000X0.170000X-0.140000X0.170000X0*%
%ADD51R,3.960000X1.980000*%
%ADD52O,3.960000X1.980000*%
%ADD53RoundRect,0.087500X0.312500X0.087500X-0.312500X0.087500X-0.312500X-0.087500X0.312500X-0.087500X0*%
%ADD54RoundRect,0.087500X0.087500X0.312500X-0.087500X0.312500X-0.087500X-0.312500X0.087500X-0.312500X0*%
%ADD55RoundRect,0.100000X0.400000X0.650000X-0.400000X0.650000X-0.400000X-0.650000X0.400000X-0.650000X0*%
%ADD56C,1.440000*%
G04 APERTURE END LIST*
D10*
X150622000Y-128778000D02*
X149606000Y-128778000D01*
D11*
X160176000Y-95758000D02*
X161446000Y-95758000D01*
D10*
X149606000Y-129794000D02*
X150622000Y-129794000D01*
X165002000Y-129794000D02*
X165002000Y-131826000D01*
X149606000Y-128778000D02*
X149606000Y-126746000D01*
X165002000Y-131826000D02*
X163986000Y-131826000D01*
X150622000Y-131826000D02*
X149606000Y-131826000D01*
X163986000Y-126746000D02*
X165002000Y-126746000D01*
D11*
X123346000Y-78232000D02*
X142650000Y-78232000D01*
D10*
X163986000Y-129794000D02*
X165002000Y-129794000D01*
X149606000Y-131826000D02*
X149606000Y-129794000D01*
D11*
X178845000Y-95758000D02*
X180115000Y-95758000D01*
X98708000Y-102362000D02*
X106328000Y-102362000D01*
X123346000Y-102362000D02*
X123346000Y-78232000D01*
D10*
X149606000Y-126746000D02*
X150622000Y-126746000D01*
D11*
X142650000Y-78232000D02*
X142650000Y-95758000D01*
D10*
X165002000Y-126746000D02*
X165002000Y-128778000D01*
X165002000Y-128778000D02*
X163986000Y-128778000D01*
D11*
X197514000Y-95758000D02*
X198276000Y-95758000D01*
D10*
X188013333Y-122626380D02*
X187537142Y-122626380D01*
X187537142Y-121626380D01*
X188251428Y-121626380D02*
X188870476Y-121626380D01*
X188537142Y-122007333D01*
X188680000Y-122007333D01*
X188775238Y-122054952D01*
X188822857Y-122102571D01*
X188870476Y-122197809D01*
X188870476Y-122435904D01*
X188822857Y-122531142D01*
X188775238Y-122578761D01*
X188680000Y-122626380D01*
X188394285Y-122626380D01*
X188299047Y-122578761D01*
X188251428Y-122531142D01*
D11*
X184010952Y-64170666D02*
X184010952Y-65361142D01*
X181510952Y-65361142D01*
X184010952Y-62027809D02*
X184010952Y-63456380D01*
X184010952Y-62742095D02*
X181510952Y-62742095D01*
X181868095Y-62980190D01*
X182106190Y-63218285D01*
X182225238Y-63456380D01*
X184010952Y-69250666D02*
X184010952Y-70441142D01*
X181510952Y-70441142D01*
X181749047Y-68536380D02*
X181630000Y-68417333D01*
X181510952Y-68179238D01*
X181510952Y-67584000D01*
X181630000Y-67345904D01*
X181749047Y-67226857D01*
X181987142Y-67107809D01*
X182225238Y-67107809D01*
X182582380Y-67226857D01*
X184010952Y-68655428D01*
X184010952Y-67107809D01*
D10*
X165528666Y-128214380D02*
X165528666Y-127214380D01*
X165862000Y-127928666D01*
X166195333Y-127214380D01*
X166195333Y-128214380D01*
D11*
X147177428Y-136540761D02*
X147177428Y-134540761D01*
X148320285Y-136540761D01*
X148320285Y-134540761D01*
X149939333Y-135493142D02*
X149272666Y-135493142D01*
X149272666Y-136540761D02*
X149272666Y-134540761D01*
X150225047Y-134540761D01*
X152129809Y-136350285D02*
X152034571Y-136445523D01*
X151748857Y-136540761D01*
X151558380Y-136540761D01*
X151272666Y-136445523D01*
X151082190Y-136255047D01*
X150986952Y-136064571D01*
X150891714Y-135683619D01*
X150891714Y-135397904D01*
X150986952Y-135016952D01*
X151082190Y-134826476D01*
X151272666Y-134636000D01*
X151558380Y-134540761D01*
X151748857Y-134540761D01*
X152034571Y-134636000D01*
X152129809Y-134731238D01*
D10*
X136105714Y-108647714D02*
X136405714Y-108647714D01*
X136534285Y-109119142D02*
X136105714Y-109119142D01*
X136105714Y-108219142D01*
X136534285Y-108219142D01*
X136834285Y-109119142D02*
X137305714Y-108519142D01*
X136834285Y-108519142D02*
X137305714Y-109119142D01*
X137648571Y-108519142D02*
X137648571Y-109419142D01*
X137648571Y-108562000D02*
X137734285Y-108519142D01*
X137905714Y-108519142D01*
X137991428Y-108562000D01*
X138034285Y-108604857D01*
X138077142Y-108690571D01*
X138077142Y-108947714D01*
X138034285Y-109033428D01*
X137991428Y-109076285D01*
X137905714Y-109119142D01*
X137734285Y-109119142D01*
X137648571Y-109076285D01*
X138848571Y-109119142D02*
X138848571Y-108647714D01*
X138805714Y-108562000D01*
X138720000Y-108519142D01*
X138548571Y-108519142D01*
X138462857Y-108562000D01*
X138848571Y-109076285D02*
X138762857Y-109119142D01*
X138548571Y-109119142D01*
X138462857Y-109076285D01*
X138420000Y-108990571D01*
X138420000Y-108904857D01*
X138462857Y-108819142D01*
X138548571Y-108776285D01*
X138762857Y-108776285D01*
X138848571Y-108733428D01*
X139277142Y-108519142D02*
X139277142Y-109119142D01*
X139277142Y-108604857D02*
X139320000Y-108562000D01*
X139405714Y-108519142D01*
X139534285Y-108519142D01*
X139620000Y-108562000D01*
X139662857Y-108647714D01*
X139662857Y-109119142D01*
X140048571Y-109076285D02*
X140134285Y-109119142D01*
X140305714Y-109119142D01*
X140391428Y-109076285D01*
X140434285Y-108990571D01*
X140434285Y-108947714D01*
X140391428Y-108862000D01*
X140305714Y-108819142D01*
X140177142Y-108819142D01*
X140091428Y-108776285D01*
X140048571Y-108690571D01*
X140048571Y-108647714D01*
X140091428Y-108562000D01*
X140177142Y-108519142D01*
X140305714Y-108519142D01*
X140391428Y-108562000D01*
X140820000Y-109119142D02*
X140820000Y-108519142D01*
X140820000Y-108219142D02*
X140777142Y-108262000D01*
X140820000Y-108304857D01*
X140862857Y-108262000D01*
X140820000Y-108219142D01*
X140820000Y-108304857D01*
X141377142Y-109119142D02*
X141291428Y-109076285D01*
X141248571Y-109033428D01*
X141205714Y-108947714D01*
X141205714Y-108690571D01*
X141248571Y-108604857D01*
X141291428Y-108562000D01*
X141377142Y-108519142D01*
X141505714Y-108519142D01*
X141591428Y-108562000D01*
X141634285Y-108604857D01*
X141677142Y-108690571D01*
X141677142Y-108947714D01*
X141634285Y-109033428D01*
X141591428Y-109076285D01*
X141505714Y-109119142D01*
X141377142Y-109119142D01*
X142062857Y-108519142D02*
X142062857Y-109119142D01*
X142062857Y-108604857D02*
X142105714Y-108562000D01*
X142191428Y-108519142D01*
X142320000Y-108519142D01*
X142405714Y-108562000D01*
X142448571Y-108647714D01*
X142448571Y-109119142D01*
X143562857Y-108519142D02*
X143562857Y-109419142D01*
X143562857Y-108562000D02*
X143648571Y-108519142D01*
X143820000Y-108519142D01*
X143905714Y-108562000D01*
X143948571Y-108604857D01*
X143991428Y-108690571D01*
X143991428Y-108947714D01*
X143948571Y-109033428D01*
X143905714Y-109076285D01*
X143820000Y-109119142D01*
X143648571Y-109119142D01*
X143562857Y-109076285D01*
X144505714Y-109119142D02*
X144420000Y-109076285D01*
X144377142Y-109033428D01*
X144334285Y-108947714D01*
X144334285Y-108690571D01*
X144377142Y-108604857D01*
X144420000Y-108562000D01*
X144505714Y-108519142D01*
X144634285Y-108519142D01*
X144720000Y-108562000D01*
X144762857Y-108604857D01*
X144805714Y-108690571D01*
X144805714Y-108947714D01*
X144762857Y-109033428D01*
X144720000Y-109076285D01*
X144634285Y-109119142D01*
X144505714Y-109119142D01*
X145191428Y-109119142D02*
X145191428Y-108519142D01*
X145191428Y-108690571D02*
X145234285Y-108604857D01*
X145277142Y-108562000D01*
X145362857Y-108519142D01*
X145448571Y-108519142D01*
X145620000Y-108519142D02*
X145962857Y-108519142D01*
X145748571Y-108219142D02*
X145748571Y-108990571D01*
X145791428Y-109076285D01*
X145877142Y-109119142D01*
X145962857Y-109119142D01*
X117544000Y-127865142D02*
X117496380Y-127912761D01*
X117353523Y-127960380D01*
X117258285Y-127960380D01*
X117115428Y-127912761D01*
X117020190Y-127817523D01*
X116972571Y-127722285D01*
X116924952Y-127531809D01*
X116924952Y-127388952D01*
X116972571Y-127198476D01*
X117020190Y-127103238D01*
X117115428Y-127008000D01*
X117258285Y-126960380D01*
X117353523Y-126960380D01*
X117496380Y-127008000D01*
X117544000Y-127055619D01*
X118448761Y-127960380D02*
X117972571Y-127960380D01*
X117972571Y-126960380D01*
X118782095Y-127960380D02*
X118782095Y-126960380D01*
X119353523Y-127960380D02*
X118924952Y-127388952D01*
X119353523Y-126960380D02*
X118782095Y-127531809D01*
X121067809Y-127008000D02*
X120972571Y-126960380D01*
X120829714Y-126960380D01*
X120686857Y-127008000D01*
X120591619Y-127103238D01*
X120544000Y-127198476D01*
X120496380Y-127388952D01*
X120496380Y-127531809D01*
X120544000Y-127722285D01*
X120591619Y-127817523D01*
X120686857Y-127912761D01*
X120829714Y-127960380D01*
X120924952Y-127960380D01*
X121067809Y-127912761D01*
X121115428Y-127865142D01*
X121115428Y-127531809D01*
X120924952Y-127531809D01*
X121544000Y-127960380D02*
X121544000Y-126960380D01*
X122115428Y-127960380D01*
X122115428Y-126960380D01*
X122591619Y-127960380D02*
X122591619Y-126960380D01*
X122829714Y-126960380D01*
X122972571Y-127008000D01*
X123067809Y-127103238D01*
X123115428Y-127198476D01*
X123163047Y-127388952D01*
X123163047Y-127531809D01*
X123115428Y-127722285D01*
X123067809Y-127817523D01*
X122972571Y-127912761D01*
X122829714Y-127960380D01*
X122591619Y-127960380D01*
X115768571Y-116950285D02*
X115897142Y-116993142D01*
X116111428Y-116993142D01*
X116197142Y-116950285D01*
X116240000Y-116907428D01*
X116282857Y-116821714D01*
X116282857Y-116736000D01*
X116240000Y-116650285D01*
X116197142Y-116607428D01*
X116111428Y-116564571D01*
X115940000Y-116521714D01*
X115854285Y-116478857D01*
X115811428Y-116436000D01*
X115768571Y-116350285D01*
X115768571Y-116264571D01*
X115811428Y-116178857D01*
X115854285Y-116136000D01*
X115940000Y-116093142D01*
X116154285Y-116093142D01*
X116282857Y-116136000D01*
X117182857Y-116907428D02*
X117140000Y-116950285D01*
X117011428Y-116993142D01*
X116925714Y-116993142D01*
X116797142Y-116950285D01*
X116711428Y-116864571D01*
X116668571Y-116778857D01*
X116625714Y-116607428D01*
X116625714Y-116478857D01*
X116668571Y-116307428D01*
X116711428Y-116221714D01*
X116797142Y-116136000D01*
X116925714Y-116093142D01*
X117011428Y-116093142D01*
X117140000Y-116136000D01*
X117182857Y-116178857D01*
X117997142Y-116993142D02*
X117568571Y-116993142D01*
X117568571Y-116093142D01*
X148645523Y-131167142D02*
X148597904Y-131214761D01*
X148455047Y-131262380D01*
X148359809Y-131262380D01*
X148216952Y-131214761D01*
X148121714Y-131119523D01*
X148074095Y-131024285D01*
X148026476Y-130833809D01*
X148026476Y-130690952D01*
X148074095Y-130500476D01*
X148121714Y-130405238D01*
X148216952Y-130310000D01*
X148359809Y-130262380D01*
X148455047Y-130262380D01*
X148597904Y-130310000D01*
X148645523Y-130357619D01*
D11*
X114922952Y-69504666D02*
X114922952Y-70695142D01*
X112422952Y-70695142D01*
X112661047Y-68790380D02*
X112542000Y-68671333D01*
X112422952Y-68433238D01*
X112422952Y-67838000D01*
X112542000Y-67599904D01*
X112661047Y-67480857D01*
X112899142Y-67361809D01*
X113137238Y-67361809D01*
X113494380Y-67480857D01*
X114922952Y-68909428D01*
X114922952Y-67361809D01*
X139714761Y-119142000D02*
X139524285Y-119046761D01*
X139238571Y-119046761D01*
X138952857Y-119142000D01*
X138762380Y-119332476D01*
X138667142Y-119522952D01*
X138571904Y-119903904D01*
X138571904Y-120189619D01*
X138667142Y-120570571D01*
X138762380Y-120761047D01*
X138952857Y-120951523D01*
X139238571Y-121046761D01*
X139429047Y-121046761D01*
X139714761Y-120951523D01*
X139810000Y-120856285D01*
X139810000Y-120189619D01*
X139429047Y-120189619D01*
X141524285Y-119713428D02*
X141524285Y-121046761D01*
X140667142Y-119713428D02*
X140667142Y-120761047D01*
X140762380Y-120951523D01*
X140952857Y-121046761D01*
X141238571Y-121046761D01*
X141429047Y-120951523D01*
X141524285Y-120856285D01*
X142476666Y-121046761D02*
X142476666Y-119713428D01*
X142476666Y-119046761D02*
X142381428Y-119142000D01*
X142476666Y-119237238D01*
X142571904Y-119142000D01*
X142476666Y-119046761D01*
X142476666Y-119237238D01*
X143714761Y-121046761D02*
X143524285Y-120951523D01*
X143429047Y-120761047D01*
X143429047Y-119046761D01*
X144762380Y-121046761D02*
X144571904Y-120951523D01*
X144476666Y-120761047D01*
X144476666Y-119046761D01*
X146286190Y-120951523D02*
X146095714Y-121046761D01*
X145714761Y-121046761D01*
X145524285Y-120951523D01*
X145429047Y-120761047D01*
X145429047Y-119999142D01*
X145524285Y-119808666D01*
X145714761Y-119713428D01*
X146095714Y-119713428D01*
X146286190Y-119808666D01*
X146381428Y-119999142D01*
X146381428Y-120189619D01*
X145429047Y-120380095D01*
X147238571Y-121046761D02*
X147238571Y-119713428D01*
X147238571Y-120094380D02*
X147333809Y-119903904D01*
X147429047Y-119808666D01*
X147619523Y-119713428D01*
X147810000Y-119713428D01*
X148476666Y-121046761D02*
X148476666Y-119713428D01*
X148476666Y-119903904D02*
X148571904Y-119808666D01*
X148762380Y-119713428D01*
X149048095Y-119713428D01*
X149238571Y-119808666D01*
X149333809Y-119999142D01*
X149333809Y-121046761D01*
X149333809Y-119999142D02*
X149429047Y-119808666D01*
X149619523Y-119713428D01*
X149905238Y-119713428D01*
X150095714Y-119808666D01*
X150190952Y-119999142D01*
X150190952Y-121046761D01*
X151429047Y-121046761D02*
X151238571Y-120951523D01*
X151143333Y-120856285D01*
X151048095Y-120665809D01*
X151048095Y-120094380D01*
X151143333Y-119903904D01*
X151238571Y-119808666D01*
X151429047Y-119713428D01*
X151714761Y-119713428D01*
X151905238Y-119808666D01*
X152000476Y-119903904D01*
X152095714Y-120094380D01*
X152095714Y-120665809D01*
X152000476Y-120856285D01*
X151905238Y-120951523D01*
X151714761Y-121046761D01*
X151429047Y-121046761D01*
X155524285Y-119142000D02*
X155333809Y-119046761D01*
X155048095Y-119046761D01*
X154762380Y-119142000D01*
X154571904Y-119332476D01*
X154476666Y-119522952D01*
X154381428Y-119903904D01*
X154381428Y-120189619D01*
X154476666Y-120570571D01*
X154571904Y-120761047D01*
X154762380Y-120951523D01*
X155048095Y-121046761D01*
X155238571Y-121046761D01*
X155524285Y-120951523D01*
X155619523Y-120856285D01*
X155619523Y-120189619D01*
X155238571Y-120189619D01*
X156762380Y-121046761D02*
X156571904Y-120951523D01*
X156476666Y-120856285D01*
X156381428Y-120665809D01*
X156381428Y-120094380D01*
X156476666Y-119903904D01*
X156571904Y-119808666D01*
X156762380Y-119713428D01*
X157048095Y-119713428D01*
X157238571Y-119808666D01*
X157333809Y-119903904D01*
X157429047Y-120094380D01*
X157429047Y-120665809D01*
X157333809Y-120856285D01*
X157238571Y-120951523D01*
X157048095Y-121046761D01*
X156762380Y-121046761D01*
X158286190Y-119713428D02*
X158286190Y-121046761D01*
X158286190Y-119903904D02*
X158381428Y-119808666D01*
X158571904Y-119713428D01*
X158857619Y-119713428D01*
X159048095Y-119808666D01*
X159143333Y-119999142D01*
X159143333Y-121046761D01*
X159905238Y-119713428D02*
X160952857Y-119713428D01*
X159905238Y-121046761D01*
X160952857Y-121046761D01*
X162571904Y-121046761D02*
X162571904Y-119999142D01*
X162476666Y-119808666D01*
X162286190Y-119713428D01*
X161905238Y-119713428D01*
X161714761Y-119808666D01*
X162571904Y-120951523D02*
X162381428Y-121046761D01*
X161905238Y-121046761D01*
X161714761Y-120951523D01*
X161619523Y-120761047D01*
X161619523Y-120570571D01*
X161714761Y-120380095D01*
X161905238Y-120284857D01*
X162381428Y-120284857D01*
X162571904Y-120189619D01*
X162286190Y-118951523D02*
X162000476Y-119237238D01*
X163810000Y-121046761D02*
X163619523Y-120951523D01*
X163524285Y-120761047D01*
X163524285Y-119046761D01*
X165333809Y-120951523D02*
X165143333Y-121046761D01*
X164762380Y-121046761D01*
X164571904Y-120951523D01*
X164476666Y-120761047D01*
X164476666Y-119999142D01*
X164571904Y-119808666D01*
X164762380Y-119713428D01*
X165143333Y-119713428D01*
X165333809Y-119808666D01*
X165429047Y-119999142D01*
X165429047Y-120189619D01*
X164476666Y-120380095D01*
X166095714Y-119713428D02*
X167143333Y-119713428D01*
X166095714Y-121046761D01*
X167143333Y-121046761D01*
D10*
X148002666Y-128214380D02*
X148002666Y-127214380D01*
X148336000Y-127928666D01*
X148669333Y-127214380D01*
X148669333Y-128214380D01*
X119557142Y-116950285D02*
X119685714Y-116993142D01*
X119900000Y-116993142D01*
X119985714Y-116950285D01*
X120028571Y-116907428D01*
X120071428Y-116821714D01*
X120071428Y-116736000D01*
X120028571Y-116650285D01*
X119985714Y-116607428D01*
X119900000Y-116564571D01*
X119728571Y-116521714D01*
X119642857Y-116478857D01*
X119600000Y-116436000D01*
X119557142Y-116350285D01*
X119557142Y-116264571D01*
X119600000Y-116178857D01*
X119642857Y-116136000D01*
X119728571Y-116093142D01*
X119942857Y-116093142D01*
X120071428Y-116136000D01*
X120457142Y-116993142D02*
X120457142Y-116093142D01*
X120671428Y-116093142D01*
X120800000Y-116136000D01*
X120885714Y-116221714D01*
X120928571Y-116307428D01*
X120971428Y-116478857D01*
X120971428Y-116607428D01*
X120928571Y-116778857D01*
X120885714Y-116864571D01*
X120800000Y-116950285D01*
X120671428Y-116993142D01*
X120457142Y-116993142D01*
X121314285Y-116736000D02*
X121742857Y-116736000D01*
X121228571Y-116993142D02*
X121528571Y-116093142D01*
X121828571Y-116993142D01*
X167727333Y-122626380D02*
X167251142Y-122626380D01*
X167251142Y-121626380D01*
X168584476Y-122626380D02*
X168013047Y-122626380D01*
X168298761Y-122626380D02*
X168298761Y-121626380D01*
X168203523Y-121769238D01*
X168108285Y-121864476D01*
X168013047Y-121912095D01*
X133062500Y-96437380D02*
X133252976Y-96437380D01*
X133348214Y-96485000D01*
X133443452Y-96580238D01*
X133491071Y-96770714D01*
X133491071Y-97104047D01*
X133443452Y-97294523D01*
X133348214Y-97389761D01*
X133252976Y-97437380D01*
X133062500Y-97437380D01*
X132967261Y-97389761D01*
X132872023Y-97294523D01*
X132824404Y-97104047D01*
X132824404Y-96770714D01*
X132872023Y-96580238D01*
X132967261Y-96485000D01*
X133062500Y-96437380D01*
X133776785Y-96770714D02*
X134157738Y-96770714D01*
X133919642Y-97437380D02*
X133919642Y-96580238D01*
X133967261Y-96485000D01*
X134062500Y-96437380D01*
X134157738Y-96437380D01*
X134348214Y-96770714D02*
X134729166Y-96770714D01*
X134491071Y-97437380D02*
X134491071Y-96580238D01*
X134538690Y-96485000D01*
X134633928Y-96437380D01*
X134729166Y-96437380D01*
X135014880Y-97389761D02*
X135110119Y-97437380D01*
X135300595Y-97437380D01*
X135395833Y-97389761D01*
X135443452Y-97294523D01*
X135443452Y-97246904D01*
X135395833Y-97151666D01*
X135300595Y-97104047D01*
X135157738Y-97104047D01*
X135062500Y-97056428D01*
X135014880Y-96961190D01*
X135014880Y-96913571D01*
X135062500Y-96818333D01*
X135157738Y-96770714D01*
X135300595Y-96770714D01*
X135395833Y-96818333D01*
X136252976Y-97389761D02*
X136157738Y-97437380D01*
X135967261Y-97437380D01*
X135872023Y-97389761D01*
X135824404Y-97294523D01*
X135824404Y-96913571D01*
X135872023Y-96818333D01*
X135967261Y-96770714D01*
X136157738Y-96770714D01*
X136252976Y-96818333D01*
X136300595Y-96913571D01*
X136300595Y-97008809D01*
X135824404Y-97104047D01*
X136586309Y-96770714D02*
X136967261Y-96770714D01*
X136729166Y-96437380D02*
X136729166Y-97294523D01*
X136776785Y-97389761D01*
X136872023Y-97437380D01*
X136967261Y-97437380D01*
X130491071Y-99047380D02*
X130491071Y-98380714D01*
X130491071Y-98571190D02*
X130538690Y-98475952D01*
X130586309Y-98428333D01*
X130681547Y-98380714D01*
X130776785Y-98380714D01*
X131491071Y-98999761D02*
X131395833Y-99047380D01*
X131205357Y-99047380D01*
X131110119Y-98999761D01*
X131062500Y-98904523D01*
X131062500Y-98523571D01*
X131110119Y-98428333D01*
X131205357Y-98380714D01*
X131395833Y-98380714D01*
X131491071Y-98428333D01*
X131538690Y-98523571D01*
X131538690Y-98618809D01*
X131062500Y-98714047D01*
X132395833Y-98380714D02*
X132395833Y-99190238D01*
X132348214Y-99285476D01*
X132300595Y-99333095D01*
X132205357Y-99380714D01*
X132062500Y-99380714D01*
X131967261Y-99333095D01*
X132395833Y-98999761D02*
X132300595Y-99047380D01*
X132110119Y-99047380D01*
X132014880Y-98999761D01*
X131967261Y-98952142D01*
X131919642Y-98856904D01*
X131919642Y-98571190D01*
X131967261Y-98475952D01*
X132014880Y-98428333D01*
X132110119Y-98380714D01*
X132300595Y-98380714D01*
X132395833Y-98428333D01*
X133300595Y-98380714D02*
X133300595Y-99047380D01*
X132872023Y-98380714D02*
X132872023Y-98904523D01*
X132919642Y-98999761D01*
X133014880Y-99047380D01*
X133157738Y-99047380D01*
X133252976Y-98999761D01*
X133300595Y-98952142D01*
X133919642Y-99047380D02*
X133824404Y-98999761D01*
X133776785Y-98904523D01*
X133776785Y-98047380D01*
X134729166Y-99047380D02*
X134729166Y-98523571D01*
X134681547Y-98428333D01*
X134586309Y-98380714D01*
X134395833Y-98380714D01*
X134300595Y-98428333D01*
X134729166Y-98999761D02*
X134633928Y-99047380D01*
X134395833Y-99047380D01*
X134300595Y-98999761D01*
X134252976Y-98904523D01*
X134252976Y-98809285D01*
X134300595Y-98714047D01*
X134395833Y-98666428D01*
X134633928Y-98666428D01*
X134729166Y-98618809D01*
X135062500Y-98380714D02*
X135443452Y-98380714D01*
X135205357Y-98047380D02*
X135205357Y-98904523D01*
X135252976Y-98999761D01*
X135348214Y-99047380D01*
X135443452Y-99047380D01*
X135919642Y-99047380D02*
X135824404Y-98999761D01*
X135776785Y-98952142D01*
X135729166Y-98856904D01*
X135729166Y-98571190D01*
X135776785Y-98475952D01*
X135824404Y-98428333D01*
X135919642Y-98380714D01*
X136062500Y-98380714D01*
X136157738Y-98428333D01*
X136205357Y-98475952D01*
X136252976Y-98571190D01*
X136252976Y-98856904D01*
X136205357Y-98952142D01*
X136157738Y-98999761D01*
X136062500Y-99047380D01*
X135919642Y-99047380D01*
X136681547Y-99047380D02*
X136681547Y-98380714D01*
X136681547Y-98571190D02*
X136729166Y-98475952D01*
X136776785Y-98428333D01*
X136872023Y-98380714D01*
X136967261Y-98380714D01*
X136038285Y-109997142D02*
X136595428Y-109997142D01*
X136295428Y-110340000D01*
X136424000Y-110340000D01*
X136509714Y-110382857D01*
X136552571Y-110425714D01*
X136595428Y-110511428D01*
X136595428Y-110725714D01*
X136552571Y-110811428D01*
X136509714Y-110854285D01*
X136424000Y-110897142D01*
X136166857Y-110897142D01*
X136081142Y-110854285D01*
X136038285Y-110811428D01*
X136852571Y-109997142D02*
X137152571Y-110897142D01*
X137452571Y-109997142D01*
X137666857Y-109997142D02*
X138224000Y-109997142D01*
X137924000Y-110340000D01*
X138052571Y-110340000D01*
X138138285Y-110382857D01*
X138181142Y-110425714D01*
X138224000Y-110511428D01*
X138224000Y-110725714D01*
X138181142Y-110811428D01*
X138138285Y-110854285D01*
X138052571Y-110897142D01*
X137795428Y-110897142D01*
X137709714Y-110854285D01*
X137666857Y-110811428D01*
X139295428Y-110425714D02*
X139595428Y-110425714D01*
X139724000Y-110897142D02*
X139295428Y-110897142D01*
X139295428Y-109997142D01*
X139724000Y-109997142D01*
X140581142Y-110897142D02*
X140066857Y-110897142D01*
X140324000Y-110897142D02*
X140324000Y-109997142D01*
X140238285Y-110125714D01*
X140152571Y-110211428D01*
X140066857Y-110254285D01*
X141652571Y-110425714D02*
X141952571Y-110425714D01*
X142081142Y-110897142D02*
X141652571Y-110897142D01*
X141652571Y-109997142D01*
X142081142Y-109997142D01*
X142424000Y-110082857D02*
X142466857Y-110040000D01*
X142552571Y-109997142D01*
X142766857Y-109997142D01*
X142852571Y-110040000D01*
X142895428Y-110082857D01*
X142938285Y-110168571D01*
X142938285Y-110254285D01*
X142895428Y-110382857D01*
X142381142Y-110897142D01*
X142938285Y-110897142D01*
X144481142Y-110040000D02*
X144395428Y-109997142D01*
X144266857Y-109997142D01*
X144138285Y-110040000D01*
X144052571Y-110125714D01*
X144009714Y-110211428D01*
X143966857Y-110382857D01*
X143966857Y-110511428D01*
X144009714Y-110682857D01*
X144052571Y-110768571D01*
X144138285Y-110854285D01*
X144266857Y-110897142D01*
X144352571Y-110897142D01*
X144481142Y-110854285D01*
X144524000Y-110811428D01*
X144524000Y-110511428D01*
X144352571Y-110511428D01*
X144909714Y-110897142D02*
X144909714Y-109997142D01*
X145424000Y-110897142D01*
X145424000Y-109997142D01*
X145852571Y-110897142D02*
X145852571Y-109997142D01*
X146066857Y-109997142D01*
X146195428Y-110040000D01*
X146281142Y-110125714D01*
X146324000Y-110211428D01*
X146366857Y-110382857D01*
X146366857Y-110511428D01*
X146324000Y-110682857D01*
X146281142Y-110768571D01*
X146195428Y-110854285D01*
X146066857Y-110897142D01*
X145852571Y-110897142D01*
X115543809Y-125182380D02*
X115877142Y-126182380D01*
X116210476Y-125182380D01*
X117115238Y-126087142D02*
X117067619Y-126134761D01*
X116924761Y-126182380D01*
X116829523Y-126182380D01*
X116686666Y-126134761D01*
X116591428Y-126039523D01*
X116543809Y-125944285D01*
X116496190Y-125753809D01*
X116496190Y-125610952D01*
X116543809Y-125420476D01*
X116591428Y-125325238D01*
X116686666Y-125230000D01*
X116829523Y-125182380D01*
X116924761Y-125182380D01*
X117067619Y-125230000D01*
X117115238Y-125277619D01*
X118115238Y-126087142D02*
X118067619Y-126134761D01*
X117924761Y-126182380D01*
X117829523Y-126182380D01*
X117686666Y-126134761D01*
X117591428Y-126039523D01*
X117543809Y-125944285D01*
X117496190Y-125753809D01*
X117496190Y-125610952D01*
X117543809Y-125420476D01*
X117591428Y-125325238D01*
X117686666Y-125230000D01*
X117829523Y-125182380D01*
X117924761Y-125182380D01*
X118067619Y-125230000D01*
X118115238Y-125277619D01*
X119305714Y-126182380D02*
X119305714Y-125182380D01*
X119543809Y-125182380D01*
X119686666Y-125230000D01*
X119781904Y-125325238D01*
X119829523Y-125420476D01*
X119877142Y-125610952D01*
X119877142Y-125753809D01*
X119829523Y-125944285D01*
X119781904Y-126039523D01*
X119686666Y-126134761D01*
X119543809Y-126182380D01*
X119305714Y-126182380D01*
X120305714Y-126182380D02*
X120305714Y-125182380D01*
X120972380Y-125182380D02*
X121162857Y-125182380D01*
X121258095Y-125230000D01*
X121353333Y-125325238D01*
X121400952Y-125515714D01*
X121400952Y-125849047D01*
X121353333Y-126039523D01*
X121258095Y-126134761D01*
X121162857Y-126182380D01*
X120972380Y-126182380D01*
X120877142Y-126134761D01*
X120781904Y-126039523D01*
X120734285Y-125849047D01*
X120734285Y-125515714D01*
X120781904Y-125325238D01*
X120877142Y-125230000D01*
X120972380Y-125182380D01*
X166171523Y-131167142D02*
X166123904Y-131214761D01*
X165981047Y-131262380D01*
X165885809Y-131262380D01*
X165742952Y-131214761D01*
X165647714Y-131119523D01*
X165600095Y-131024285D01*
X165552476Y-130833809D01*
X165552476Y-130690952D01*
X165600095Y-130500476D01*
X165647714Y-130405238D01*
X165742952Y-130310000D01*
X165885809Y-130262380D01*
X165981047Y-130262380D01*
X166123904Y-130310000D01*
X166171523Y-130357619D01*
D11*
X114922952Y-74584666D02*
X114922952Y-75775142D01*
X112422952Y-75775142D01*
X112422952Y-73989428D02*
X112422952Y-72441809D01*
X113375333Y-73275142D01*
X113375333Y-72918000D01*
X113494380Y-72679904D01*
X113613428Y-72560857D01*
X113851523Y-72441809D01*
X114446761Y-72441809D01*
X114684857Y-72560857D01*
X114803904Y-72679904D01*
X114922952Y-72918000D01*
X114922952Y-73632285D01*
X114803904Y-73870380D01*
X114684857Y-73989428D01*
D12*
X137944952Y-117462952D02*
X137944952Y-114962952D01*
X138897333Y-114962952D01*
X139135428Y-115082000D01*
X139254476Y-115201047D01*
X139373523Y-115439142D01*
X139373523Y-115796285D01*
X139254476Y-116034380D01*
X139135428Y-116153428D01*
X138897333Y-116272476D01*
X137944952Y-116272476D01*
X140802095Y-117462952D02*
X140564000Y-117343904D01*
X140444952Y-117224857D01*
X140325904Y-116986761D01*
X140325904Y-116272476D01*
X140444952Y-116034380D01*
X140564000Y-115915333D01*
X140802095Y-115796285D01*
X141159238Y-115796285D01*
X141397333Y-115915333D01*
X141516380Y-116034380D01*
X141635428Y-116272476D01*
X141635428Y-116986761D01*
X141516380Y-117224857D01*
X141397333Y-117343904D01*
X141159238Y-117462952D01*
X140802095Y-117462952D01*
X142468761Y-115796285D02*
X142944952Y-117462952D01*
X143421142Y-116272476D01*
X143897333Y-117462952D01*
X144373523Y-115796285D01*
X146278285Y-117343904D02*
X146040190Y-117462952D01*
X145564000Y-117462952D01*
X145325904Y-117343904D01*
X145206857Y-117105809D01*
X145206857Y-116153428D01*
X145325904Y-115915333D01*
X145564000Y-115796285D01*
X146040190Y-115796285D01*
X146278285Y-115915333D01*
X146397333Y-116153428D01*
X146397333Y-116391523D01*
X145206857Y-116629619D01*
X147468761Y-117462952D02*
X147468761Y-115796285D01*
X147468761Y-116272476D02*
X147587809Y-116034380D01*
X147706857Y-115915333D01*
X147944952Y-115796285D01*
X148183047Y-115796285D01*
X150921142Y-117462952D02*
X150921142Y-115796285D01*
X150921142Y-116034380D02*
X151040190Y-115915333D01*
X151278285Y-115796285D01*
X151635428Y-115796285D01*
X151873523Y-115915333D01*
X151992571Y-116153428D01*
X151992571Y-117462952D01*
X151992571Y-116153428D02*
X152111619Y-115915333D01*
X152349714Y-115796285D01*
X152706857Y-115796285D01*
X152944952Y-115915333D01*
X153064000Y-116153428D01*
X153064000Y-117462952D01*
X155206857Y-117343904D02*
X154968761Y-117462952D01*
X154492571Y-117462952D01*
X154254476Y-117343904D01*
X154135428Y-117105809D01*
X154135428Y-116153428D01*
X154254476Y-115915333D01*
X154492571Y-115796285D01*
X154968761Y-115796285D01*
X155206857Y-115915333D01*
X155325904Y-116153428D01*
X155325904Y-116391523D01*
X154135428Y-116629619D01*
X156040190Y-115796285D02*
X156992571Y-115796285D01*
X156397333Y-114962952D02*
X156397333Y-117105809D01*
X156516380Y-117343904D01*
X156754476Y-117462952D01*
X156992571Y-117462952D01*
X158778285Y-117343904D02*
X158540190Y-117462952D01*
X158064000Y-117462952D01*
X157825904Y-117343904D01*
X157706857Y-117105809D01*
X157706857Y-116153428D01*
X157825904Y-115915333D01*
X158064000Y-115796285D01*
X158540190Y-115796285D01*
X158778285Y-115915333D01*
X158897333Y-116153428D01*
X158897333Y-116391523D01*
X157706857Y-116629619D01*
X159968761Y-117462952D02*
X159968761Y-115796285D01*
X159968761Y-116272476D02*
X160087809Y-116034380D01*
X160206857Y-115915333D01*
X160444952Y-115796285D01*
X160683047Y-115796285D01*
X164730666Y-117462952D02*
X163302095Y-117462952D01*
X164016380Y-117462952D02*
X164016380Y-114962952D01*
X163778285Y-115320095D01*
X163540190Y-115558190D01*
X163302095Y-115677238D01*
X165802095Y-117224857D02*
X165921142Y-117343904D01*
X165802095Y-117462952D01*
X165683047Y-117343904D01*
X165802095Y-117224857D01*
X165802095Y-117462952D01*
X167468761Y-114962952D02*
X167706857Y-114962952D01*
X167944952Y-115082000D01*
X168064000Y-115201047D01*
X168183047Y-115439142D01*
X168302095Y-115915333D01*
X168302095Y-116510571D01*
X168183047Y-116986761D01*
X168064000Y-117224857D01*
X167944952Y-117343904D01*
X167706857Y-117462952D01*
X167468761Y-117462952D01*
X167230666Y-117343904D01*
X167111619Y-117224857D01*
X166992571Y-116986761D01*
X166873523Y-116510571D01*
X166873523Y-115915333D01*
X166992571Y-115439142D01*
X167111619Y-115201047D01*
X167230666Y-115082000D01*
X167468761Y-114962952D01*
D11*
X114922952Y-59642285D02*
X112422952Y-59642285D01*
X114922952Y-58213714D01*
X112422952Y-58213714D01*
D10*
X177887333Y-122626380D02*
X177411142Y-122626380D01*
X177411142Y-121626380D01*
X178173047Y-121721619D02*
X178220666Y-121674000D01*
X178315904Y-121626380D01*
X178554000Y-121626380D01*
X178649238Y-121674000D01*
X178696857Y-121721619D01*
X178744476Y-121816857D01*
X178744476Y-121912095D01*
X178696857Y-122054952D01*
X178125428Y-122626380D01*
X178744476Y-122626380D01*
D11*
X184010952Y-74330666D02*
X184010952Y-75521142D01*
X181510952Y-75521142D01*
X181510952Y-73735428D02*
X181510952Y-72187809D01*
X182463333Y-73021142D01*
X182463333Y-72664000D01*
X182582380Y-72425904D01*
X182701428Y-72306857D01*
X182939523Y-72187809D01*
X183534761Y-72187809D01*
X183772857Y-72306857D01*
X183891904Y-72425904D01*
X184010952Y-72664000D01*
X184010952Y-73378285D01*
X183891904Y-73616380D01*
X183772857Y-73735428D01*
X184010952Y-59388285D02*
X181510952Y-59388285D01*
X184010952Y-57959714D01*
X181510952Y-57959714D01*
X114922952Y-64424666D02*
X114922952Y-65615142D01*
X112422952Y-65615142D01*
X114922952Y-62281809D02*
X114922952Y-63710380D01*
X114922952Y-62996095D02*
X112422952Y-62996095D01*
X112780095Y-63234190D01*
X113018190Y-63472285D01*
X113137238Y-63710380D01*
D10*
X185205619Y-134166904D02*
X184396095Y-134166904D01*
X184300857Y-134214523D01*
X184253238Y-134262142D01*
X184205619Y-134357380D01*
X184205619Y-134547857D01*
X184253238Y-134643095D01*
X184300857Y-134690714D01*
X184396095Y-134738333D01*
X185205619Y-134738333D01*
X184205619Y-135738333D02*
X184205619Y-135166904D01*
X184205619Y-135452619D02*
X185205619Y-135452619D01*
X185062761Y-135357380D01*
X184967523Y-135262142D01*
X184919904Y-135166904D01*
X185205619Y-136595476D02*
X185205619Y-136405000D01*
X185158000Y-136309761D01*
X185110380Y-136262142D01*
X184967523Y-136166904D01*
X184777047Y-136119285D01*
X184396095Y-136119285D01*
X184300857Y-136166904D01*
X184253238Y-136214523D01*
X184205619Y-136309761D01*
X184205619Y-136500238D01*
X184253238Y-136595476D01*
X184300857Y-136643095D01*
X184396095Y-136690714D01*
X184634190Y-136690714D01*
X184729428Y-136643095D01*
X184777047Y-136595476D01*
X184824666Y-136500238D01*
X184824666Y-136309761D01*
X184777047Y-136214523D01*
X184729428Y-136166904D01*
X184634190Y-136119285D01*
X190109142Y-121536380D02*
X189775809Y-121060190D01*
X189537714Y-121536380D02*
X189537714Y-120536380D01*
X189918666Y-120536380D01*
X190013904Y-120584000D01*
X190061523Y-120631619D01*
X190109142Y-120726857D01*
X190109142Y-120869714D01*
X190061523Y-120964952D01*
X190013904Y-121012571D01*
X189918666Y-121060190D01*
X189537714Y-121060190D01*
X190442476Y-120536380D02*
X191061523Y-120536380D01*
X190728190Y-120917333D01*
X190871047Y-120917333D01*
X190966285Y-120964952D01*
X191013904Y-121012571D01*
X191061523Y-121107809D01*
X191061523Y-121345904D01*
X191013904Y-121441142D01*
X190966285Y-121488761D01*
X190871047Y-121536380D01*
X190585333Y-121536380D01*
X190490095Y-121488761D01*
X190442476Y-121441142D01*
X191680571Y-120536380D02*
X191775809Y-120536380D01*
X191871047Y-120584000D01*
X191918666Y-120631619D01*
X191966285Y-120726857D01*
X192013904Y-120917333D01*
X192013904Y-121155428D01*
X191966285Y-121345904D01*
X191918666Y-121441142D01*
X191871047Y-121488761D01*
X191775809Y-121536380D01*
X191680571Y-121536380D01*
X191585333Y-121488761D01*
X191537714Y-121441142D01*
X191490095Y-121345904D01*
X191442476Y-121155428D01*
X191442476Y-120917333D01*
X191490095Y-120726857D01*
X191537714Y-120631619D01*
X191585333Y-120584000D01*
X191680571Y-120536380D01*
X131474095Y-100290380D02*
X131474095Y-101099904D01*
X131521714Y-101195142D01*
X131569333Y-101242761D01*
X131664571Y-101290380D01*
X131855047Y-101290380D01*
X131950285Y-101242761D01*
X131997904Y-101195142D01*
X132045523Y-101099904D01*
X132045523Y-100290380D01*
X132426476Y-100290380D02*
X133045523Y-100290380D01*
X132712190Y-100671333D01*
X132855047Y-100671333D01*
X132950285Y-100718952D01*
X132997904Y-100766571D01*
X133045523Y-100861809D01*
X133045523Y-101099904D01*
X132997904Y-101195142D01*
X132950285Y-101242761D01*
X132855047Y-101290380D01*
X132569333Y-101290380D01*
X132474095Y-101242761D01*
X132426476Y-101195142D01*
X119388095Y-112358380D02*
X119959523Y-112358380D01*
X119673809Y-113358380D02*
X119673809Y-112358380D01*
X120292857Y-113358380D02*
X120292857Y-112358380D01*
X120673809Y-112358380D01*
X120769047Y-112406000D01*
X120816666Y-112453619D01*
X120864285Y-112548857D01*
X120864285Y-112691714D01*
X120816666Y-112786952D01*
X120769047Y-112834571D01*
X120673809Y-112882190D01*
X120292857Y-112882190D01*
X121245238Y-112453619D02*
X121292857Y-112406000D01*
X121388095Y-112358380D01*
X121626190Y-112358380D01*
X121721428Y-112406000D01*
X121769047Y-112453619D01*
X121816666Y-112548857D01*
X121816666Y-112644095D01*
X121769047Y-112786952D01*
X121197619Y-113358380D01*
X121816666Y-113358380D01*
X126259142Y-90484380D02*
X125925809Y-90008190D01*
X125687714Y-90484380D02*
X125687714Y-89484380D01*
X126068666Y-89484380D01*
X126163904Y-89532000D01*
X126211523Y-89579619D01*
X126259142Y-89674857D01*
X126259142Y-89817714D01*
X126211523Y-89912952D01*
X126163904Y-89960571D01*
X126068666Y-90008190D01*
X125687714Y-90008190D01*
X127211523Y-90484380D02*
X126640095Y-90484380D01*
X126925809Y-90484380D02*
X126925809Y-89484380D01*
X126830571Y-89627238D01*
X126735333Y-89722476D01*
X126640095Y-89770095D01*
X127592476Y-89579619D02*
X127640095Y-89532000D01*
X127735333Y-89484380D01*
X127973428Y-89484380D01*
X128068666Y-89532000D01*
X128116285Y-89579619D01*
X128163904Y-89674857D01*
X128163904Y-89770095D01*
X128116285Y-89912952D01*
X127544857Y-90484380D01*
X128163904Y-90484380D01*
X176379142Y-116974857D02*
X176426761Y-117022476D01*
X176474380Y-117165333D01*
X176474380Y-117260571D01*
X176426761Y-117403428D01*
X176331523Y-117498666D01*
X176236285Y-117546285D01*
X176045809Y-117593904D01*
X175902952Y-117593904D01*
X175712476Y-117546285D01*
X175617238Y-117498666D01*
X175522000Y-117403428D01*
X175474380Y-117260571D01*
X175474380Y-117165333D01*
X175522000Y-117022476D01*
X175569619Y-116974857D01*
X175569619Y-116593904D02*
X175522000Y-116546285D01*
X175474380Y-116451047D01*
X175474380Y-116212952D01*
X175522000Y-116117714D01*
X175569619Y-116070095D01*
X175664857Y-116022476D01*
X175760095Y-116022476D01*
X175902952Y-116070095D01*
X176474380Y-116641523D01*
X176474380Y-116022476D01*
X175569619Y-115641523D02*
X175522000Y-115593904D01*
X175474380Y-115498666D01*
X175474380Y-115260571D01*
X175522000Y-115165333D01*
X175569619Y-115117714D01*
X175664857Y-115070095D01*
X175760095Y-115070095D01*
X175902952Y-115117714D01*
X176474380Y-115689142D01*
X176474380Y-115070095D01*
X174188380Y-108592857D02*
X173712190Y-108926190D01*
X174188380Y-109164285D02*
X173188380Y-109164285D01*
X173188380Y-108783333D01*
X173236000Y-108688095D01*
X173283619Y-108640476D01*
X173378857Y-108592857D01*
X173521714Y-108592857D01*
X173616952Y-108640476D01*
X173664571Y-108688095D01*
X173712190Y-108783333D01*
X173712190Y-109164285D01*
X173283619Y-108211904D02*
X173236000Y-108164285D01*
X173188380Y-108069047D01*
X173188380Y-107830952D01*
X173236000Y-107735714D01*
X173283619Y-107688095D01*
X173378857Y-107640476D01*
X173474095Y-107640476D01*
X173616952Y-107688095D01*
X174188380Y-108259523D01*
X174188380Y-107640476D01*
X173188380Y-106783333D02*
X173188380Y-106973809D01*
X173236000Y-107069047D01*
X173283619Y-107116666D01*
X173426476Y-107211904D01*
X173616952Y-107259523D01*
X173997904Y-107259523D01*
X174093142Y-107211904D01*
X174140761Y-107164285D01*
X174188380Y-107069047D01*
X174188380Y-106878571D01*
X174140761Y-106783333D01*
X174093142Y-106735714D01*
X173997904Y-106688095D01*
X173759809Y-106688095D01*
X173664571Y-106735714D01*
X173616952Y-106783333D01*
X173569333Y-106878571D01*
X173569333Y-107069047D01*
X173616952Y-107164285D01*
X173664571Y-107211904D01*
X173759809Y-107259523D01*
X169791142Y-121536380D02*
X169457809Y-121060190D01*
X169219714Y-121536380D02*
X169219714Y-120536380D01*
X169600666Y-120536380D01*
X169695904Y-120584000D01*
X169743523Y-120631619D01*
X169791142Y-120726857D01*
X169791142Y-120869714D01*
X169743523Y-120964952D01*
X169695904Y-121012571D01*
X169600666Y-121060190D01*
X169219714Y-121060190D01*
X170172095Y-120631619D02*
X170219714Y-120584000D01*
X170314952Y-120536380D01*
X170553047Y-120536380D01*
X170648285Y-120584000D01*
X170695904Y-120631619D01*
X170743523Y-120726857D01*
X170743523Y-120822095D01*
X170695904Y-120964952D01*
X170124476Y-121536380D01*
X170743523Y-121536380D01*
X171314952Y-120964952D02*
X171219714Y-120917333D01*
X171172095Y-120869714D01*
X171124476Y-120774476D01*
X171124476Y-120726857D01*
X171172095Y-120631619D01*
X171219714Y-120584000D01*
X171314952Y-120536380D01*
X171505428Y-120536380D01*
X171600666Y-120584000D01*
X171648285Y-120631619D01*
X171695904Y-120726857D01*
X171695904Y-120774476D01*
X171648285Y-120869714D01*
X171600666Y-120917333D01*
X171505428Y-120964952D01*
X171314952Y-120964952D01*
X171219714Y-121012571D01*
X171172095Y-121060190D01*
X171124476Y-121155428D01*
X171124476Y-121345904D01*
X171172095Y-121441142D01*
X171219714Y-121488761D01*
X171314952Y-121536380D01*
X171505428Y-121536380D01*
X171600666Y-121488761D01*
X171648285Y-121441142D01*
X171695904Y-121345904D01*
X171695904Y-121155428D01*
X171648285Y-121060190D01*
X171600666Y-121012571D01*
X171505428Y-120964952D01*
X171963142Y-69730857D02*
X172010761Y-69778476D01*
X172058380Y-69921333D01*
X172058380Y-70016571D01*
X172010761Y-70159428D01*
X171915523Y-70254666D01*
X171820285Y-70302285D01*
X171629809Y-70349904D01*
X171486952Y-70349904D01*
X171296476Y-70302285D01*
X171201238Y-70254666D01*
X171106000Y-70159428D01*
X171058380Y-70016571D01*
X171058380Y-69921333D01*
X171106000Y-69778476D01*
X171153619Y-69730857D01*
X172058380Y-68778476D02*
X172058380Y-69349904D01*
X172058380Y-69064190D02*
X171058380Y-69064190D01*
X171201238Y-69159428D01*
X171296476Y-69254666D01*
X171344095Y-69349904D01*
X171058380Y-68445142D02*
X171058380Y-67826095D01*
X171439333Y-68159428D01*
X171439333Y-68016571D01*
X171486952Y-67921333D01*
X171534571Y-67873714D01*
X171629809Y-67826095D01*
X171867904Y-67826095D01*
X171963142Y-67873714D01*
X172010761Y-67921333D01*
X172058380Y-68016571D01*
X172058380Y-68302285D01*
X172010761Y-68397523D01*
X171963142Y-68445142D01*
X150741142Y-106878380D02*
X150407809Y-106402190D01*
X150169714Y-106878380D02*
X150169714Y-105878380D01*
X150550666Y-105878380D01*
X150645904Y-105926000D01*
X150693523Y-105973619D01*
X150741142Y-106068857D01*
X150741142Y-106211714D01*
X150693523Y-106306952D01*
X150645904Y-106354571D01*
X150550666Y-106402190D01*
X150169714Y-106402190D01*
X151122095Y-105973619D02*
X151169714Y-105926000D01*
X151264952Y-105878380D01*
X151503047Y-105878380D01*
X151598285Y-105926000D01*
X151645904Y-105973619D01*
X151693523Y-106068857D01*
X151693523Y-106164095D01*
X151645904Y-106306952D01*
X151074476Y-106878380D01*
X151693523Y-106878380D01*
X152645904Y-106878380D02*
X152074476Y-106878380D01*
X152360190Y-106878380D02*
X152360190Y-105878380D01*
X152264952Y-106021238D01*
X152169714Y-106116476D01*
X152074476Y-106164095D01*
X151643142Y-64904857D02*
X151690761Y-64952476D01*
X151738380Y-65095333D01*
X151738380Y-65190571D01*
X151690761Y-65333428D01*
X151595523Y-65428666D01*
X151500285Y-65476285D01*
X151309809Y-65523904D01*
X151166952Y-65523904D01*
X150976476Y-65476285D01*
X150881238Y-65428666D01*
X150786000Y-65333428D01*
X150738380Y-65190571D01*
X150738380Y-65095333D01*
X150786000Y-64952476D01*
X150833619Y-64904857D01*
X151738380Y-63952476D02*
X151738380Y-64523904D01*
X151738380Y-64238190D02*
X150738380Y-64238190D01*
X150881238Y-64333428D01*
X150976476Y-64428666D01*
X151024095Y-64523904D01*
X150833619Y-63571523D02*
X150786000Y-63523904D01*
X150738380Y-63428666D01*
X150738380Y-63190571D01*
X150786000Y-63095333D01*
X150833619Y-63047714D01*
X150928857Y-63000095D01*
X151024095Y-63000095D01*
X151166952Y-63047714D01*
X151738380Y-63619142D01*
X151738380Y-63000095D01*
X162822095Y-103976380D02*
X163393523Y-103976380D01*
X163107809Y-104976380D02*
X163107809Y-103976380D01*
X163726857Y-104976380D02*
X163726857Y-103976380D01*
X164107809Y-103976380D01*
X164203047Y-104024000D01*
X164250666Y-104071619D01*
X164298285Y-104166857D01*
X164298285Y-104309714D01*
X164250666Y-104404952D01*
X164203047Y-104452571D01*
X164107809Y-104500190D01*
X163726857Y-104500190D01*
X164631619Y-103976380D02*
X165298285Y-103976380D01*
X164869714Y-104976380D01*
X147240666Y-112228380D02*
X147240666Y-112942666D01*
X147193047Y-113085523D01*
X147097809Y-113180761D01*
X146954952Y-113228380D01*
X146859714Y-113228380D01*
X148145428Y-112228380D02*
X147954952Y-112228380D01*
X147859714Y-112276000D01*
X147812095Y-112323619D01*
X147716857Y-112466476D01*
X147669238Y-112656952D01*
X147669238Y-113037904D01*
X147716857Y-113133142D01*
X147764476Y-113180761D01*
X147859714Y-113228380D01*
X148050190Y-113228380D01*
X148145428Y-113180761D01*
X148193047Y-113133142D01*
X148240666Y-113037904D01*
X148240666Y-112799809D01*
X148193047Y-112704571D01*
X148145428Y-112656952D01*
X148050190Y-112609333D01*
X147859714Y-112609333D01*
X147764476Y-112656952D01*
X147716857Y-112704571D01*
X147669238Y-112799809D01*
X149865142Y-64904857D02*
X149912761Y-64952476D01*
X149960380Y-65095333D01*
X149960380Y-65190571D01*
X149912761Y-65333428D01*
X149817523Y-65428666D01*
X149722285Y-65476285D01*
X149531809Y-65523904D01*
X149388952Y-65523904D01*
X149198476Y-65476285D01*
X149103238Y-65428666D01*
X149008000Y-65333428D01*
X148960380Y-65190571D01*
X148960380Y-65095333D01*
X149008000Y-64952476D01*
X149055619Y-64904857D01*
X149960380Y-63952476D02*
X149960380Y-64523904D01*
X149960380Y-64238190D02*
X148960380Y-64238190D01*
X149103238Y-64333428D01*
X149198476Y-64428666D01*
X149246095Y-64523904D01*
X148960380Y-63047714D02*
X148960380Y-63523904D01*
X149436571Y-63571523D01*
X149388952Y-63523904D01*
X149341333Y-63428666D01*
X149341333Y-63190571D01*
X149388952Y-63095333D01*
X149436571Y-63047714D01*
X149531809Y-63000095D01*
X149769904Y-63000095D01*
X149865142Y-63047714D01*
X149912761Y-63095333D01*
X149960380Y-63190571D01*
X149960380Y-63428666D01*
X149912761Y-63523904D01*
X149865142Y-63571523D01*
X130514692Y-88082380D02*
X130181359Y-87606190D01*
X129943263Y-88082380D02*
X129943263Y-87082380D01*
X130324216Y-87082380D01*
X130419454Y-87130000D01*
X130467073Y-87177619D01*
X130514692Y-87272857D01*
X130514692Y-87415714D01*
X130467073Y-87510952D01*
X130419454Y-87558571D01*
X130324216Y-87606190D01*
X129943263Y-87606190D01*
X130990882Y-88082380D02*
X131181359Y-88082380D01*
X131276597Y-88034761D01*
X131324216Y-87987142D01*
X131419454Y-87844285D01*
X131467073Y-87653809D01*
X131467073Y-87272857D01*
X131419454Y-87177619D01*
X131371835Y-87130000D01*
X131276597Y-87082380D01*
X131086120Y-87082380D01*
X130990882Y-87130000D01*
X130943263Y-87177619D01*
X130895644Y-87272857D01*
X130895644Y-87510952D01*
X130943263Y-87606190D01*
X130990882Y-87653809D01*
X131086120Y-87701428D01*
X131276597Y-87701428D01*
X131371835Y-87653809D01*
X131419454Y-87606190D01*
X131467073Y-87510952D01*
X174093142Y-111640857D02*
X174140761Y-111688476D01*
X174188380Y-111831333D01*
X174188380Y-111926571D01*
X174140761Y-112069428D01*
X174045523Y-112164666D01*
X173950285Y-112212285D01*
X173759809Y-112259904D01*
X173616952Y-112259904D01*
X173426476Y-112212285D01*
X173331238Y-112164666D01*
X173236000Y-112069428D01*
X173188380Y-111926571D01*
X173188380Y-111831333D01*
X173236000Y-111688476D01*
X173283619Y-111640857D01*
X173283619Y-111259904D02*
X173236000Y-111212285D01*
X173188380Y-111117047D01*
X173188380Y-110878952D01*
X173236000Y-110783714D01*
X173283619Y-110736095D01*
X173378857Y-110688476D01*
X173474095Y-110688476D01*
X173616952Y-110736095D01*
X174188380Y-111307523D01*
X174188380Y-110688476D01*
X173188380Y-110069428D02*
X173188380Y-109974190D01*
X173236000Y-109878952D01*
X173283619Y-109831333D01*
X173378857Y-109783714D01*
X173569333Y-109736095D01*
X173807428Y-109736095D01*
X173997904Y-109783714D01*
X174093142Y-109831333D01*
X174140761Y-109878952D01*
X174188380Y-109974190D01*
X174188380Y-110069428D01*
X174140761Y-110164666D01*
X174093142Y-110212285D01*
X173997904Y-110259904D01*
X173807428Y-110307523D01*
X173569333Y-110307523D01*
X173378857Y-110259904D01*
X173283619Y-110212285D01*
X173236000Y-110164666D01*
X173188380Y-110069428D01*
X187206095Y-108040380D02*
X187777523Y-108040380D01*
X187491809Y-109040380D02*
X187491809Y-108040380D01*
X188110857Y-109040380D02*
X188110857Y-108040380D01*
X188491809Y-108040380D01*
X188587047Y-108088000D01*
X188634666Y-108135619D01*
X188682285Y-108230857D01*
X188682285Y-108373714D01*
X188634666Y-108468952D01*
X188587047Y-108516571D01*
X188491809Y-108564190D01*
X188110857Y-108564190D01*
X189587047Y-108040380D02*
X189110857Y-108040380D01*
X189063238Y-108516571D01*
X189110857Y-108468952D01*
X189206095Y-108421333D01*
X189444190Y-108421333D01*
X189539428Y-108468952D01*
X189587047Y-108516571D01*
X189634666Y-108611809D01*
X189634666Y-108849904D01*
X189587047Y-108945142D01*
X189539428Y-108992761D01*
X189444190Y-109040380D01*
X189206095Y-109040380D01*
X189110857Y-108992761D01*
X189063238Y-108945142D01*
X100925333Y-130659142D02*
X100877714Y-130706761D01*
X100734857Y-130754380D01*
X100639619Y-130754380D01*
X100496761Y-130706761D01*
X100401523Y-130611523D01*
X100353904Y-130516285D01*
X100306285Y-130325809D01*
X100306285Y-130182952D01*
X100353904Y-129992476D01*
X100401523Y-129897238D01*
X100496761Y-129802000D01*
X100639619Y-129754380D01*
X100734857Y-129754380D01*
X100877714Y-129802000D01*
X100925333Y-129849619D01*
X101877714Y-130754380D02*
X101306285Y-130754380D01*
X101592000Y-130754380D02*
X101592000Y-129754380D01*
X101496761Y-129897238D01*
X101401523Y-129992476D01*
X101306285Y-130040095D01*
X152222666Y-123912380D02*
X152222666Y-124626666D01*
X152175047Y-124769523D01*
X152079809Y-124864761D01*
X151936952Y-124912380D01*
X151841714Y-124912380D01*
X152603619Y-123912380D02*
X153222666Y-123912380D01*
X152889333Y-124293333D01*
X153032190Y-124293333D01*
X153127428Y-124340952D01*
X153175047Y-124388571D01*
X153222666Y-124483809D01*
X153222666Y-124721904D01*
X153175047Y-124817142D01*
X153127428Y-124864761D01*
X153032190Y-124912380D01*
X152746476Y-124912380D01*
X152651238Y-124864761D01*
X152603619Y-124817142D01*
X179170380Y-111640857D02*
X178694190Y-111974190D01*
X179170380Y-112212285D02*
X178170380Y-112212285D01*
X178170380Y-111831333D01*
X178218000Y-111736095D01*
X178265619Y-111688476D01*
X178360857Y-111640857D01*
X178503714Y-111640857D01*
X178598952Y-111688476D01*
X178646571Y-111736095D01*
X178694190Y-111831333D01*
X178694190Y-112212285D01*
X178170380Y-111307523D02*
X178170380Y-110688476D01*
X178551333Y-111021809D01*
X178551333Y-110878952D01*
X178598952Y-110783714D01*
X178646571Y-110736095D01*
X178741809Y-110688476D01*
X178979904Y-110688476D01*
X179075142Y-110736095D01*
X179122761Y-110783714D01*
X179170380Y-110878952D01*
X179170380Y-111164666D01*
X179122761Y-111259904D01*
X179075142Y-111307523D01*
X178503714Y-109831333D02*
X179170380Y-109831333D01*
X178122761Y-110069428D02*
X178837047Y-110307523D01*
X178837047Y-109688476D01*
X114840666Y-131042380D02*
X114840666Y-131756666D01*
X114793047Y-131899523D01*
X114697809Y-131994761D01*
X114554952Y-132042380D01*
X114459714Y-132042380D01*
X115221619Y-131042380D02*
X115888285Y-131042380D01*
X115459714Y-132042380D01*
X137661142Y-87828380D02*
X137327809Y-87352190D01*
X137089714Y-87828380D02*
X137089714Y-86828380D01*
X137470666Y-86828380D01*
X137565904Y-86876000D01*
X137613523Y-86923619D01*
X137661142Y-87018857D01*
X137661142Y-87161714D01*
X137613523Y-87256952D01*
X137565904Y-87304571D01*
X137470666Y-87352190D01*
X137089714Y-87352190D01*
X138613523Y-87828380D02*
X138042095Y-87828380D01*
X138327809Y-87828380D02*
X138327809Y-86828380D01*
X138232571Y-86971238D01*
X138137333Y-87066476D01*
X138042095Y-87114095D01*
X139470666Y-87161714D02*
X139470666Y-87828380D01*
X139232571Y-86780761D02*
X138994476Y-87495047D01*
X139613523Y-87495047D01*
X141666380Y-64751904D02*
X142475904Y-64751904D01*
X142571142Y-64704285D01*
X142618761Y-64656666D01*
X142666380Y-64561428D01*
X142666380Y-64370952D01*
X142618761Y-64275714D01*
X142571142Y-64228095D01*
X142475904Y-64180476D01*
X141666380Y-64180476D01*
X141666380Y-63799523D02*
X141666380Y-63132857D01*
X142666380Y-63561428D01*
X139620666Y-134834380D02*
X139620666Y-135548666D01*
X139573047Y-135691523D01*
X139477809Y-135786761D01*
X139334952Y-135834380D01*
X139239714Y-135834380D01*
X140239714Y-135262952D02*
X140144476Y-135215333D01*
X140096857Y-135167714D01*
X140049238Y-135072476D01*
X140049238Y-135024857D01*
X140096857Y-134929619D01*
X140144476Y-134882000D01*
X140239714Y-134834380D01*
X140430190Y-134834380D01*
X140525428Y-134882000D01*
X140573047Y-134929619D01*
X140620666Y-135024857D01*
X140620666Y-135072476D01*
X140573047Y-135167714D01*
X140525428Y-135215333D01*
X140430190Y-135262952D01*
X140239714Y-135262952D01*
X140144476Y-135310571D01*
X140096857Y-135358190D01*
X140049238Y-135453428D01*
X140049238Y-135643904D01*
X140096857Y-135739142D01*
X140144476Y-135786761D01*
X140239714Y-135834380D01*
X140430190Y-135834380D01*
X140525428Y-135786761D01*
X140573047Y-135739142D01*
X140620666Y-135643904D01*
X140620666Y-135453428D01*
X140573047Y-135358190D01*
X140525428Y-135310571D01*
X140430190Y-135262952D01*
X160882380Y-106306857D02*
X160406190Y-106640190D01*
X160882380Y-106878285D02*
X159882380Y-106878285D01*
X159882380Y-106497333D01*
X159930000Y-106402095D01*
X159977619Y-106354476D01*
X160072857Y-106306857D01*
X160215714Y-106306857D01*
X160310952Y-106354476D01*
X160358571Y-106402095D01*
X160406190Y-106497333D01*
X160406190Y-106878285D01*
X159977619Y-105925904D02*
X159930000Y-105878285D01*
X159882380Y-105783047D01*
X159882380Y-105544952D01*
X159930000Y-105449714D01*
X159977619Y-105402095D01*
X160072857Y-105354476D01*
X160168095Y-105354476D01*
X160310952Y-105402095D01*
X160882380Y-105973523D01*
X160882380Y-105354476D01*
X159882380Y-105021142D02*
X159882380Y-104354476D01*
X160882380Y-104783047D01*
X179166380Y-103028095D02*
X179975904Y-103028095D01*
X180071142Y-102980476D01*
X180118761Y-102932857D01*
X180166380Y-102837619D01*
X180166380Y-102647142D01*
X180118761Y-102551904D01*
X180071142Y-102504285D01*
X179975904Y-102456666D01*
X179166380Y-102456666D01*
X180166380Y-101456666D02*
X180166380Y-102028095D01*
X180166380Y-101742380D02*
X179166380Y-101742380D01*
X179309238Y-101837619D01*
X179404476Y-101932857D01*
X179452095Y-102028095D01*
X180166380Y-100504285D02*
X180166380Y-101075714D01*
X180166380Y-100790000D02*
X179166380Y-100790000D01*
X179309238Y-100885238D01*
X179404476Y-100980476D01*
X179452095Y-101075714D01*
X195365619Y-134166904D02*
X194556095Y-134166904D01*
X194460857Y-134214523D01*
X194413238Y-134262142D01*
X194365619Y-134357380D01*
X194365619Y-134547857D01*
X194413238Y-134643095D01*
X194460857Y-134690714D01*
X194556095Y-134738333D01*
X195365619Y-134738333D01*
X194365619Y-135738333D02*
X194365619Y-135166904D01*
X194365619Y-135452619D02*
X195365619Y-135452619D01*
X195222761Y-135357380D01*
X195127523Y-135262142D01*
X195079904Y-135166904D01*
X195365619Y-136071666D02*
X195365619Y-136738333D01*
X194365619Y-136309761D01*
X100365619Y-119669523D02*
X100365619Y-119029523D01*
X100518000Y-119029523D01*
X100609428Y-119060000D01*
X100670380Y-119120952D01*
X100700857Y-119181904D01*
X100731333Y-119303809D01*
X100731333Y-119395238D01*
X100700857Y-119517142D01*
X100670380Y-119578095D01*
X100609428Y-119639047D01*
X100518000Y-119669523D01*
X100365619Y-119669523D01*
X100975142Y-119090476D02*
X101005619Y-119060000D01*
X101066571Y-119029523D01*
X101218952Y-119029523D01*
X101279904Y-119060000D01*
X101310380Y-119090476D01*
X101340857Y-119151428D01*
X101340857Y-119212380D01*
X101310380Y-119303809D01*
X100944666Y-119669523D01*
X101340857Y-119669523D01*
X172964380Y-117976857D02*
X172488190Y-118310190D01*
X172964380Y-118548285D02*
X171964380Y-118548285D01*
X171964380Y-118167333D01*
X172012000Y-118072095D01*
X172059619Y-118024476D01*
X172154857Y-117976857D01*
X172297714Y-117976857D01*
X172392952Y-118024476D01*
X172440571Y-118072095D01*
X172488190Y-118167333D01*
X172488190Y-118548285D01*
X172059619Y-117595904D02*
X172012000Y-117548285D01*
X171964380Y-117453047D01*
X171964380Y-117214952D01*
X172012000Y-117119714D01*
X172059619Y-117072095D01*
X172154857Y-117024476D01*
X172250095Y-117024476D01*
X172392952Y-117072095D01*
X172964380Y-117643523D01*
X172964380Y-117024476D01*
X172059619Y-116643523D02*
X172012000Y-116595904D01*
X171964380Y-116500666D01*
X171964380Y-116262571D01*
X172012000Y-116167333D01*
X172059619Y-116119714D01*
X172154857Y-116072095D01*
X172250095Y-116072095D01*
X172392952Y-116119714D01*
X172964380Y-116691142D01*
X172964380Y-116072095D01*
X109307333Y-119994380D02*
X108974000Y-119518190D01*
X108735904Y-119994380D02*
X108735904Y-118994380D01*
X109116857Y-118994380D01*
X109212095Y-119042000D01*
X109259714Y-119089619D01*
X109307333Y-119184857D01*
X109307333Y-119327714D01*
X109259714Y-119422952D01*
X109212095Y-119470571D01*
X109116857Y-119518190D01*
X108735904Y-119518190D01*
X109688285Y-119089619D02*
X109735904Y-119042000D01*
X109831142Y-118994380D01*
X110069238Y-118994380D01*
X110164476Y-119042000D01*
X110212095Y-119089619D01*
X110259714Y-119184857D01*
X110259714Y-119280095D01*
X110212095Y-119422952D01*
X109640666Y-119994380D01*
X110259714Y-119994380D01*
X175964380Y-119768857D02*
X175488190Y-120102190D01*
X175964380Y-120340285D02*
X174964380Y-120340285D01*
X174964380Y-119959333D01*
X175012000Y-119864095D01*
X175059619Y-119816476D01*
X175154857Y-119768857D01*
X175297714Y-119768857D01*
X175392952Y-119816476D01*
X175440571Y-119864095D01*
X175488190Y-119959333D01*
X175488190Y-120340285D01*
X174964380Y-119435523D02*
X174964380Y-118816476D01*
X175345333Y-119149809D01*
X175345333Y-119006952D01*
X175392952Y-118911714D01*
X175440571Y-118864095D01*
X175535809Y-118816476D01*
X175773904Y-118816476D01*
X175869142Y-118864095D01*
X175916761Y-118911714D01*
X175964380Y-119006952D01*
X175964380Y-119292666D01*
X175916761Y-119387904D01*
X175869142Y-119435523D01*
X174964380Y-117911714D02*
X174964380Y-118387904D01*
X175440571Y-118435523D01*
X175392952Y-118387904D01*
X175345333Y-118292666D01*
X175345333Y-118054571D01*
X175392952Y-117959333D01*
X175440571Y-117911714D01*
X175535809Y-117864095D01*
X175773904Y-117864095D01*
X175869142Y-117911714D01*
X175916761Y-117959333D01*
X175964380Y-118054571D01*
X175964380Y-118292666D01*
X175916761Y-118387904D01*
X175869142Y-118435523D01*
X174440380Y-119768857D02*
X173964190Y-120102190D01*
X174440380Y-120340285D02*
X173440380Y-120340285D01*
X173440380Y-119959333D01*
X173488000Y-119864095D01*
X173535619Y-119816476D01*
X173630857Y-119768857D01*
X173773714Y-119768857D01*
X173868952Y-119816476D01*
X173916571Y-119864095D01*
X173964190Y-119959333D01*
X173964190Y-120340285D01*
X173440380Y-119435523D02*
X173440380Y-118816476D01*
X173821333Y-119149809D01*
X173821333Y-119006952D01*
X173868952Y-118911714D01*
X173916571Y-118864095D01*
X174011809Y-118816476D01*
X174249904Y-118816476D01*
X174345142Y-118864095D01*
X174392761Y-118911714D01*
X174440380Y-119006952D01*
X174440380Y-119292666D01*
X174392761Y-119387904D01*
X174345142Y-119435523D01*
X173535619Y-118435523D02*
X173488000Y-118387904D01*
X173440380Y-118292666D01*
X173440380Y-118054571D01*
X173488000Y-117959333D01*
X173535619Y-117911714D01*
X173630857Y-117864095D01*
X173726095Y-117864095D01*
X173868952Y-117911714D01*
X174440380Y-118483142D01*
X174440380Y-117864095D01*
X115578095Y-112358380D02*
X116149523Y-112358380D01*
X115863809Y-113358380D02*
X115863809Y-112358380D01*
X116482857Y-113358380D02*
X116482857Y-112358380D01*
X116863809Y-112358380D01*
X116959047Y-112406000D01*
X117006666Y-112453619D01*
X117054285Y-112548857D01*
X117054285Y-112691714D01*
X117006666Y-112786952D01*
X116959047Y-112834571D01*
X116863809Y-112882190D01*
X116482857Y-112882190D01*
X118006666Y-113358380D02*
X117435238Y-113358380D01*
X117720952Y-113358380D02*
X117720952Y-112358380D01*
X117625714Y-112501238D01*
X117530476Y-112596476D01*
X117435238Y-112644095D01*
X109307333Y-121318380D02*
X108974000Y-120842190D01*
X108735904Y-121318380D02*
X108735904Y-120318380D01*
X109116857Y-120318380D01*
X109212095Y-120366000D01*
X109259714Y-120413619D01*
X109307333Y-120508857D01*
X109307333Y-120651714D01*
X109259714Y-120746952D01*
X109212095Y-120794571D01*
X109116857Y-120842190D01*
X108735904Y-120842190D01*
X110259714Y-121318380D02*
X109688285Y-121318380D01*
X109974000Y-121318380D02*
X109974000Y-120318380D01*
X109878761Y-120461238D01*
X109783523Y-120556476D01*
X109688285Y-120604095D01*
X102870095Y-134072380D02*
X102870095Y-134881904D01*
X102917714Y-134977142D01*
X102965333Y-135024761D01*
X103060571Y-135072380D01*
X103251047Y-135072380D01*
X103346285Y-135024761D01*
X103393904Y-134977142D01*
X103441523Y-134881904D01*
X103441523Y-134072380D01*
X103870095Y-134167619D02*
X103917714Y-134120000D01*
X104012952Y-134072380D01*
X104251047Y-134072380D01*
X104346285Y-134120000D01*
X104393904Y-134167619D01*
X104441523Y-134262857D01*
X104441523Y-134358095D01*
X104393904Y-134500952D01*
X103822476Y-135072380D01*
X104441523Y-135072380D01*
X131952095Y-79592380D02*
X131952095Y-80401904D01*
X131999714Y-80497142D01*
X132047333Y-80544761D01*
X132142571Y-80592380D01*
X132333047Y-80592380D01*
X132428285Y-80544761D01*
X132475904Y-80497142D01*
X132523523Y-80401904D01*
X132523523Y-79592380D01*
X133047333Y-80592380D02*
X133237809Y-80592380D01*
X133333047Y-80544761D01*
X133380666Y-80497142D01*
X133475904Y-80354285D01*
X133523523Y-80163809D01*
X133523523Y-79782857D01*
X133475904Y-79687619D01*
X133428285Y-79640000D01*
X133333047Y-79592380D01*
X133142571Y-79592380D01*
X133047333Y-79640000D01*
X132999714Y-79687619D01*
X132952095Y-79782857D01*
X132952095Y-80020952D01*
X132999714Y-80116190D01*
X133047333Y-80163809D01*
X133142571Y-80211428D01*
X133333047Y-80211428D01*
X133428285Y-80163809D01*
X133475904Y-80116190D01*
X133523523Y-80020952D01*
X163838095Y-123912380D02*
X164409523Y-123912380D01*
X164123809Y-124912380D02*
X164123809Y-123912380D01*
X164742857Y-124912380D02*
X164742857Y-123912380D01*
X165123809Y-123912380D01*
X165219047Y-123960000D01*
X165266666Y-124007619D01*
X165314285Y-124102857D01*
X165314285Y-124245714D01*
X165266666Y-124340952D01*
X165219047Y-124388571D01*
X165123809Y-124436190D01*
X164742857Y-124436190D01*
X165790476Y-124912380D02*
X165980952Y-124912380D01*
X166076190Y-124864761D01*
X166123809Y-124817142D01*
X166219047Y-124674285D01*
X166266666Y-124483809D01*
X166266666Y-124102857D01*
X166219047Y-124007619D01*
X166171428Y-123960000D01*
X166076190Y-123912380D01*
X165885714Y-123912380D01*
X165790476Y-123960000D01*
X165742857Y-124007619D01*
X165695238Y-124102857D01*
X165695238Y-124340952D01*
X165742857Y-124436190D01*
X165790476Y-124483809D01*
X165885714Y-124531428D01*
X166076190Y-124531428D01*
X166171428Y-124483809D01*
X166219047Y-124436190D01*
X166266666Y-124340952D01*
X134101333Y-113990380D02*
X133768000Y-113514190D01*
X133529904Y-113990380D02*
X133529904Y-112990380D01*
X133910857Y-112990380D01*
X134006095Y-113038000D01*
X134053714Y-113085619D01*
X134101333Y-113180857D01*
X134101333Y-113323714D01*
X134053714Y-113418952D01*
X134006095Y-113466571D01*
X133910857Y-113514190D01*
X133529904Y-113514190D01*
X134958476Y-112990380D02*
X134768000Y-112990380D01*
X134672761Y-113038000D01*
X134625142Y-113085619D01*
X134529904Y-113228476D01*
X134482285Y-113418952D01*
X134482285Y-113799904D01*
X134529904Y-113895142D01*
X134577523Y-113942761D01*
X134672761Y-113990380D01*
X134863238Y-113990380D01*
X134958476Y-113942761D01*
X135006095Y-113895142D01*
X135053714Y-113799904D01*
X135053714Y-113561809D01*
X135006095Y-113466571D01*
X134958476Y-113418952D01*
X134863238Y-113371333D01*
X134672761Y-113371333D01*
X134577523Y-113418952D01*
X134529904Y-113466571D01*
X134482285Y-113561809D01*
X170185142Y-69730857D02*
X170232761Y-69778476D01*
X170280380Y-69921333D01*
X170280380Y-70016571D01*
X170232761Y-70159428D01*
X170137523Y-70254666D01*
X170042285Y-70302285D01*
X169851809Y-70349904D01*
X169708952Y-70349904D01*
X169518476Y-70302285D01*
X169423238Y-70254666D01*
X169328000Y-70159428D01*
X169280380Y-70016571D01*
X169280380Y-69921333D01*
X169328000Y-69778476D01*
X169375619Y-69730857D01*
X170280380Y-68778476D02*
X170280380Y-69349904D01*
X170280380Y-69064190D02*
X169280380Y-69064190D01*
X169423238Y-69159428D01*
X169518476Y-69254666D01*
X169566095Y-69349904D01*
X169280380Y-67921333D02*
X169280380Y-68111809D01*
X169328000Y-68207047D01*
X169375619Y-68254666D01*
X169518476Y-68349904D01*
X169708952Y-68397523D01*
X170089904Y-68397523D01*
X170185142Y-68349904D01*
X170232761Y-68302285D01*
X170280380Y-68207047D01*
X170280380Y-68016571D01*
X170232761Y-67921333D01*
X170185142Y-67873714D01*
X170089904Y-67826095D01*
X169851809Y-67826095D01*
X169756571Y-67873714D01*
X169708952Y-67921333D01*
X169661333Y-68016571D01*
X169661333Y-68207047D01*
X169708952Y-68302285D01*
X169756571Y-68349904D01*
X169851809Y-68397523D01*
X173775904Y-123912380D02*
X174347333Y-123912380D01*
X174061619Y-124912380D02*
X174061619Y-123912380D01*
X174680666Y-124912380D02*
X174680666Y-123912380D01*
X175061619Y-123912380D01*
X175156857Y-123960000D01*
X175204476Y-124007619D01*
X175252095Y-124102857D01*
X175252095Y-124245714D01*
X175204476Y-124340952D01*
X175156857Y-124388571D01*
X175061619Y-124436190D01*
X174680666Y-124436190D01*
X176204476Y-124912380D02*
X175633047Y-124912380D01*
X175918761Y-124912380D02*
X175918761Y-123912380D01*
X175823523Y-124055238D01*
X175728285Y-124150476D01*
X175633047Y-124198095D01*
X176823523Y-123912380D02*
X176918761Y-123912380D01*
X177014000Y-123960000D01*
X177061619Y-124007619D01*
X177109238Y-124102857D01*
X177156857Y-124293333D01*
X177156857Y-124531428D01*
X177109238Y-124721904D01*
X177061619Y-124817142D01*
X177014000Y-124864761D01*
X176918761Y-124912380D01*
X176823523Y-124912380D01*
X176728285Y-124864761D01*
X176680666Y-124817142D01*
X176633047Y-124721904D01*
X176585428Y-124531428D01*
X176585428Y-124293333D01*
X176633047Y-124102857D01*
X176680666Y-124007619D01*
X176728285Y-123960000D01*
X176823523Y-123912380D01*
X165639904Y-106132380D02*
X165639904Y-106941904D01*
X165687523Y-107037142D01*
X165735142Y-107084761D01*
X165830380Y-107132380D01*
X166020857Y-107132380D01*
X166116095Y-107084761D01*
X166163714Y-107037142D01*
X166211333Y-106941904D01*
X166211333Y-106132380D01*
X167211333Y-107132380D02*
X166639904Y-107132380D01*
X166925619Y-107132380D02*
X166925619Y-106132380D01*
X166830380Y-106275238D01*
X166735142Y-106370476D01*
X166639904Y-106418095D01*
X167830380Y-106132380D02*
X167925619Y-106132380D01*
X168020857Y-106180000D01*
X168068476Y-106227619D01*
X168116095Y-106322857D01*
X168163714Y-106513333D01*
X168163714Y-106751428D01*
X168116095Y-106941904D01*
X168068476Y-107037142D01*
X168020857Y-107084761D01*
X167925619Y-107132380D01*
X167830380Y-107132380D01*
X167735142Y-107084761D01*
X167687523Y-107037142D01*
X167639904Y-106941904D01*
X167592285Y-106751428D01*
X167592285Y-106513333D01*
X167639904Y-106322857D01*
X167687523Y-106227619D01*
X167735142Y-106180000D01*
X167830380Y-106132380D01*
X126259142Y-88960380D02*
X125925809Y-88484190D01*
X125687714Y-88960380D02*
X125687714Y-87960380D01*
X126068666Y-87960380D01*
X126163904Y-88008000D01*
X126211523Y-88055619D01*
X126259142Y-88150857D01*
X126259142Y-88293714D01*
X126211523Y-88388952D01*
X126163904Y-88436571D01*
X126068666Y-88484190D01*
X125687714Y-88484190D01*
X127211523Y-88960380D02*
X126640095Y-88960380D01*
X126925809Y-88960380D02*
X126925809Y-87960380D01*
X126830571Y-88103238D01*
X126735333Y-88198476D01*
X126640095Y-88246095D01*
X127544857Y-87960380D02*
X128163904Y-87960380D01*
X127830571Y-88341333D01*
X127973428Y-88341333D01*
X128068666Y-88388952D01*
X128116285Y-88436571D01*
X128163904Y-88531809D01*
X128163904Y-88769904D01*
X128116285Y-88865142D01*
X128068666Y-88912761D01*
X127973428Y-88960380D01*
X127687714Y-88960380D01*
X127592476Y-88912761D01*
X127544857Y-88865142D01*
X104844571Y-83989333D02*
X104844571Y-84322666D01*
X105368380Y-84322666D02*
X104368380Y-84322666D01*
X104368380Y-83846476D01*
X105368380Y-82941714D02*
X105368380Y-83513142D01*
X105368380Y-83227428D02*
X104368380Y-83227428D01*
X104511238Y-83322666D01*
X104606476Y-83417904D01*
X104654095Y-83513142D01*
X109307333Y-115514380D02*
X108974000Y-115038190D01*
X108735904Y-115514380D02*
X108735904Y-114514380D01*
X109116857Y-114514380D01*
X109212095Y-114562000D01*
X109259714Y-114609619D01*
X109307333Y-114704857D01*
X109307333Y-114847714D01*
X109259714Y-114942952D01*
X109212095Y-114990571D01*
X109116857Y-115038190D01*
X108735904Y-115038190D01*
X110212095Y-114514380D02*
X109735904Y-114514380D01*
X109688285Y-114990571D01*
X109735904Y-114942952D01*
X109831142Y-114895333D01*
X110069238Y-114895333D01*
X110164476Y-114942952D01*
X110212095Y-114990571D01*
X110259714Y-115085809D01*
X110259714Y-115323904D01*
X110212095Y-115419142D01*
X110164476Y-115466761D01*
X110069238Y-115514380D01*
X109831142Y-115514380D01*
X109735904Y-115466761D01*
X109688285Y-115419142D01*
X108712095Y-134072380D02*
X108712095Y-134881904D01*
X108759714Y-134977142D01*
X108807333Y-135024761D01*
X108902571Y-135072380D01*
X109093047Y-135072380D01*
X109188285Y-135024761D01*
X109235904Y-134977142D01*
X109283523Y-134881904D01*
X109283523Y-134072380D01*
X110283523Y-135072380D02*
X109712095Y-135072380D01*
X109997809Y-135072380D02*
X109997809Y-134072380D01*
X109902571Y-134215238D01*
X109807333Y-134310476D01*
X109712095Y-134358095D01*
X188822380Y-115704857D02*
X188346190Y-116038190D01*
X188822380Y-116276285D02*
X187822380Y-116276285D01*
X187822380Y-115895333D01*
X187870000Y-115800095D01*
X187917619Y-115752476D01*
X188012857Y-115704857D01*
X188155714Y-115704857D01*
X188250952Y-115752476D01*
X188298571Y-115800095D01*
X188346190Y-115895333D01*
X188346190Y-116276285D01*
X187822380Y-115371523D02*
X187822380Y-114752476D01*
X188203333Y-115085809D01*
X188203333Y-114942952D01*
X188250952Y-114847714D01*
X188298571Y-114800095D01*
X188393809Y-114752476D01*
X188631904Y-114752476D01*
X188727142Y-114800095D01*
X188774761Y-114847714D01*
X188822380Y-114942952D01*
X188822380Y-115228666D01*
X188774761Y-115323904D01*
X188727142Y-115371523D01*
X187822380Y-113895333D02*
X187822380Y-114085809D01*
X187870000Y-114181047D01*
X187917619Y-114228666D01*
X188060476Y-114323904D01*
X188250952Y-114371523D01*
X188631904Y-114371523D01*
X188727142Y-114323904D01*
X188774761Y-114276285D01*
X188822380Y-114181047D01*
X188822380Y-113990571D01*
X188774761Y-113895333D01*
X188727142Y-113847714D01*
X188631904Y-113800095D01*
X188393809Y-113800095D01*
X188298571Y-113847714D01*
X188250952Y-113895333D01*
X188203333Y-113990571D01*
X188203333Y-114181047D01*
X188250952Y-114276285D01*
X188298571Y-114323904D01*
X188393809Y-114371523D01*
X188333142Y-106878380D02*
X187999809Y-106402190D01*
X187761714Y-106878380D02*
X187761714Y-105878380D01*
X188142666Y-105878380D01*
X188237904Y-105926000D01*
X188285523Y-105973619D01*
X188333142Y-106068857D01*
X188333142Y-106211714D01*
X188285523Y-106306952D01*
X188237904Y-106354571D01*
X188142666Y-106402190D01*
X187761714Y-106402190D01*
X189285523Y-106878380D02*
X188714095Y-106878380D01*
X188999809Y-106878380D02*
X188999809Y-105878380D01*
X188904571Y-106021238D01*
X188809333Y-106116476D01*
X188714095Y-106164095D01*
X189761714Y-106878380D02*
X189952190Y-106878380D01*
X190047428Y-106830761D01*
X190095047Y-106783142D01*
X190190285Y-106640285D01*
X190237904Y-106449809D01*
X190237904Y-106068857D01*
X190190285Y-105973619D01*
X190142666Y-105926000D01*
X190047428Y-105878380D01*
X189856952Y-105878380D01*
X189761714Y-105926000D01*
X189714095Y-105973619D01*
X189666476Y-106068857D01*
X189666476Y-106306952D01*
X189714095Y-106402190D01*
X189761714Y-106449809D01*
X189856952Y-106497428D01*
X190047428Y-106497428D01*
X190142666Y-106449809D01*
X190190285Y-106402190D01*
X190237904Y-106306952D01*
X99922380Y-95083238D02*
X99446190Y-95416571D01*
X99922380Y-95654666D02*
X98922380Y-95654666D01*
X98922380Y-95273714D01*
X98970000Y-95178476D01*
X99017619Y-95130857D01*
X99112857Y-95083238D01*
X99255714Y-95083238D01*
X99350952Y-95130857D01*
X99398571Y-95178476D01*
X99446190Y-95273714D01*
X99446190Y-95654666D01*
X98922380Y-94797523D02*
X99922380Y-94464190D01*
X98922380Y-94130857D01*
X99922380Y-93273714D02*
X99922380Y-93845142D01*
X99922380Y-93559428D02*
X98922380Y-93559428D01*
X99065238Y-93654666D01*
X99160476Y-93749904D01*
X99208095Y-93845142D01*
X109307333Y-117038380D02*
X108974000Y-116562190D01*
X108735904Y-117038380D02*
X108735904Y-116038380D01*
X109116857Y-116038380D01*
X109212095Y-116086000D01*
X109259714Y-116133619D01*
X109307333Y-116228857D01*
X109307333Y-116371714D01*
X109259714Y-116466952D01*
X109212095Y-116514571D01*
X109116857Y-116562190D01*
X108735904Y-116562190D01*
X110164476Y-116371714D02*
X110164476Y-117038380D01*
X109926380Y-115990761D02*
X109688285Y-116705047D01*
X110307333Y-116705047D01*
X119651380Y-59656904D02*
X120460904Y-59656904D01*
X120556142Y-59609285D01*
X120603761Y-59561666D01*
X120651380Y-59466428D01*
X120651380Y-59275952D01*
X120603761Y-59180714D01*
X120556142Y-59133095D01*
X120460904Y-59085476D01*
X119651380Y-59085476D01*
X119651380Y-58180714D02*
X119651380Y-58371190D01*
X119699000Y-58466428D01*
X119746619Y-58514047D01*
X119889476Y-58609285D01*
X120079952Y-58656904D01*
X120460904Y-58656904D01*
X120556142Y-58609285D01*
X120603761Y-58561666D01*
X120651380Y-58466428D01*
X120651380Y-58275952D01*
X120603761Y-58180714D01*
X120556142Y-58133095D01*
X120460904Y-58085476D01*
X120222809Y-58085476D01*
X120127571Y-58133095D01*
X120079952Y-58180714D01*
X120032333Y-58275952D01*
X120032333Y-58466428D01*
X120079952Y-58561666D01*
X120127571Y-58609285D01*
X120222809Y-58656904D01*
X159104380Y-106306857D02*
X158628190Y-106640190D01*
X159104380Y-106878285D02*
X158104380Y-106878285D01*
X158104380Y-106497333D01*
X158152000Y-106402095D01*
X158199619Y-106354476D01*
X158294857Y-106306857D01*
X158437714Y-106306857D01*
X158532952Y-106354476D01*
X158580571Y-106402095D01*
X158628190Y-106497333D01*
X158628190Y-106878285D01*
X158199619Y-105925904D02*
X158152000Y-105878285D01*
X158104380Y-105783047D01*
X158104380Y-105544952D01*
X158152000Y-105449714D01*
X158199619Y-105402095D01*
X158294857Y-105354476D01*
X158390095Y-105354476D01*
X158532952Y-105402095D01*
X159104380Y-105973523D01*
X159104380Y-105354476D01*
X158437714Y-104497333D02*
X159104380Y-104497333D01*
X158056761Y-104735428D02*
X158771047Y-104973523D01*
X158771047Y-104354476D01*
X190346380Y-115704857D02*
X189870190Y-116038190D01*
X190346380Y-116276285D02*
X189346380Y-116276285D01*
X189346380Y-115895333D01*
X189394000Y-115800095D01*
X189441619Y-115752476D01*
X189536857Y-115704857D01*
X189679714Y-115704857D01*
X189774952Y-115752476D01*
X189822571Y-115800095D01*
X189870190Y-115895333D01*
X189870190Y-116276285D01*
X189346380Y-115371523D02*
X189346380Y-114752476D01*
X189727333Y-115085809D01*
X189727333Y-114942952D01*
X189774952Y-114847714D01*
X189822571Y-114800095D01*
X189917809Y-114752476D01*
X190155904Y-114752476D01*
X190251142Y-114800095D01*
X190298761Y-114847714D01*
X190346380Y-114942952D01*
X190346380Y-115228666D01*
X190298761Y-115323904D01*
X190251142Y-115371523D01*
X189346380Y-114419142D02*
X189346380Y-113800095D01*
X189727333Y-114133428D01*
X189727333Y-113990571D01*
X189774952Y-113895333D01*
X189822571Y-113847714D01*
X189917809Y-113800095D01*
X190155904Y-113800095D01*
X190251142Y-113847714D01*
X190298761Y-113895333D01*
X190346380Y-113990571D01*
X190346380Y-114276285D01*
X190298761Y-114371523D01*
X190251142Y-114419142D01*
X124817142Y-84462857D02*
X124864761Y-84510476D01*
X124912380Y-84653333D01*
X124912380Y-84748571D01*
X124864761Y-84891428D01*
X124769523Y-84986666D01*
X124674285Y-85034285D01*
X124483809Y-85081904D01*
X124340952Y-85081904D01*
X124150476Y-85034285D01*
X124055238Y-84986666D01*
X123960000Y-84891428D01*
X123912380Y-84748571D01*
X123912380Y-84653333D01*
X123960000Y-84510476D01*
X124007619Y-84462857D01*
X124912380Y-83510476D02*
X124912380Y-84081904D01*
X124912380Y-83796190D02*
X123912380Y-83796190D01*
X124055238Y-83891428D01*
X124150476Y-83986666D01*
X124198095Y-84081904D01*
X123912380Y-83177142D02*
X123912380Y-82510476D01*
X124912380Y-82939047D01*
X162168380Y-69595904D02*
X162977904Y-69595904D01*
X163073142Y-69548285D01*
X163120761Y-69500666D01*
X163168380Y-69405428D01*
X163168380Y-69214952D01*
X163120761Y-69119714D01*
X163073142Y-69072095D01*
X162977904Y-69024476D01*
X162168380Y-69024476D01*
X162596952Y-68405428D02*
X162549333Y-68500666D01*
X162501714Y-68548285D01*
X162406476Y-68595904D01*
X162358857Y-68595904D01*
X162263619Y-68548285D01*
X162216000Y-68500666D01*
X162168380Y-68405428D01*
X162168380Y-68214952D01*
X162216000Y-68119714D01*
X162263619Y-68072095D01*
X162358857Y-68024476D01*
X162406476Y-68024476D01*
X162501714Y-68072095D01*
X162549333Y-68119714D01*
X162596952Y-68214952D01*
X162596952Y-68405428D01*
X162644571Y-68500666D01*
X162692190Y-68548285D01*
X162787428Y-68595904D01*
X162977904Y-68595904D01*
X163073142Y-68548285D01*
X163120761Y-68500666D01*
X163168380Y-68405428D01*
X163168380Y-68214952D01*
X163120761Y-68119714D01*
X163073142Y-68072095D01*
X162977904Y-68024476D01*
X162787428Y-68024476D01*
X162692190Y-68072095D01*
X162644571Y-68119714D01*
X162596952Y-68214952D01*
X186021142Y-80422380D02*
X185687809Y-79946190D01*
X185449714Y-80422380D02*
X185449714Y-79422380D01*
X185830666Y-79422380D01*
X185925904Y-79470000D01*
X185973523Y-79517619D01*
X186021142Y-79612857D01*
X186021142Y-79755714D01*
X185973523Y-79850952D01*
X185925904Y-79898571D01*
X185830666Y-79946190D01*
X185449714Y-79946190D01*
X186973523Y-80422380D02*
X186402095Y-80422380D01*
X186687809Y-80422380D02*
X186687809Y-79422380D01*
X186592571Y-79565238D01*
X186497333Y-79660476D01*
X186402095Y-79708095D01*
X187830666Y-79422380D02*
X187640190Y-79422380D01*
X187544952Y-79470000D01*
X187497333Y-79517619D01*
X187402095Y-79660476D01*
X187354476Y-79850952D01*
X187354476Y-80231904D01*
X187402095Y-80327142D01*
X187449714Y-80374761D01*
X187544952Y-80422380D01*
X187735428Y-80422380D01*
X187830666Y-80374761D01*
X187878285Y-80327142D01*
X187925904Y-80231904D01*
X187925904Y-79993809D01*
X187878285Y-79898571D01*
X187830666Y-79850952D01*
X187735428Y-79803333D01*
X187544952Y-79803333D01*
X187449714Y-79850952D01*
X187402095Y-79898571D01*
X187354476Y-79993809D01*
X161620666Y-123912380D02*
X161620666Y-124626666D01*
X161573047Y-124769523D01*
X161477809Y-124864761D01*
X161334952Y-124912380D01*
X161239714Y-124912380D01*
X162573047Y-123912380D02*
X162096857Y-123912380D01*
X162049238Y-124388571D01*
X162096857Y-124340952D01*
X162192095Y-124293333D01*
X162430190Y-124293333D01*
X162525428Y-124340952D01*
X162573047Y-124388571D01*
X162620666Y-124483809D01*
X162620666Y-124721904D01*
X162573047Y-124817142D01*
X162525428Y-124864761D01*
X162430190Y-124912380D01*
X162192095Y-124912380D01*
X162096857Y-124864761D01*
X162049238Y-124817142D01*
X148269142Y-80422380D02*
X147935809Y-79946190D01*
X147697714Y-80422380D02*
X147697714Y-79422380D01*
X148078666Y-79422380D01*
X148173904Y-79470000D01*
X148221523Y-79517619D01*
X148269142Y-79612857D01*
X148269142Y-79755714D01*
X148221523Y-79850952D01*
X148173904Y-79898571D01*
X148078666Y-79946190D01*
X147697714Y-79946190D01*
X149221523Y-80422380D02*
X148650095Y-80422380D01*
X148935809Y-80422380D02*
X148935809Y-79422380D01*
X148840571Y-79565238D01*
X148745333Y-79660476D01*
X148650095Y-79708095D01*
X149792952Y-79850952D02*
X149697714Y-79803333D01*
X149650095Y-79755714D01*
X149602476Y-79660476D01*
X149602476Y-79612857D01*
X149650095Y-79517619D01*
X149697714Y-79470000D01*
X149792952Y-79422380D01*
X149983428Y-79422380D01*
X150078666Y-79470000D01*
X150126285Y-79517619D01*
X150173904Y-79612857D01*
X150173904Y-79660476D01*
X150126285Y-79755714D01*
X150078666Y-79803333D01*
X149983428Y-79850952D01*
X149792952Y-79850952D01*
X149697714Y-79898571D01*
X149650095Y-79946190D01*
X149602476Y-80041428D01*
X149602476Y-80231904D01*
X149650095Y-80327142D01*
X149697714Y-80374761D01*
X149792952Y-80422380D01*
X149983428Y-80422380D01*
X150078666Y-80374761D01*
X150126285Y-80327142D01*
X150173904Y-80231904D01*
X150173904Y-80041428D01*
X150126285Y-79946190D01*
X150078666Y-79898571D01*
X149983428Y-79850952D01*
X128771142Y-84688857D02*
X128818761Y-84736476D01*
X128866380Y-84879333D01*
X128866380Y-84974571D01*
X128818761Y-85117428D01*
X128723523Y-85212666D01*
X128628285Y-85260285D01*
X128437809Y-85307904D01*
X128294952Y-85307904D01*
X128104476Y-85260285D01*
X128009238Y-85212666D01*
X127914000Y-85117428D01*
X127866380Y-84974571D01*
X127866380Y-84879333D01*
X127914000Y-84736476D01*
X127961619Y-84688857D01*
X128866380Y-83736476D02*
X128866380Y-84307904D01*
X128866380Y-84022190D02*
X127866380Y-84022190D01*
X128009238Y-84117428D01*
X128104476Y-84212666D01*
X128152095Y-84307904D01*
X128294952Y-83165047D02*
X128247333Y-83260285D01*
X128199714Y-83307904D01*
X128104476Y-83355523D01*
X128056857Y-83355523D01*
X127961619Y-83307904D01*
X127914000Y-83260285D01*
X127866380Y-83165047D01*
X127866380Y-82974571D01*
X127914000Y-82879333D01*
X127961619Y-82831714D01*
X128056857Y-82784095D01*
X128104476Y-82784095D01*
X128199714Y-82831714D01*
X128247333Y-82879333D01*
X128294952Y-82974571D01*
X128294952Y-83165047D01*
X128342571Y-83260285D01*
X128390190Y-83307904D01*
X128485428Y-83355523D01*
X128675904Y-83355523D01*
X128771142Y-83307904D01*
X128818761Y-83260285D01*
X128866380Y-83165047D01*
X128866380Y-82974571D01*
X128818761Y-82879333D01*
X128771142Y-82831714D01*
X128675904Y-82784095D01*
X128485428Y-82784095D01*
X128390190Y-82831714D01*
X128342571Y-82879333D01*
X128294952Y-82974571D01*
X172077142Y-105608380D02*
X171743809Y-105132190D01*
X171505714Y-105608380D02*
X171505714Y-104608380D01*
X171886666Y-104608380D01*
X171981904Y-104656000D01*
X172029523Y-104703619D01*
X172077142Y-104798857D01*
X172077142Y-104941714D01*
X172029523Y-105036952D01*
X171981904Y-105084571D01*
X171886666Y-105132190D01*
X171505714Y-105132190D01*
X172458095Y-104703619D02*
X172505714Y-104656000D01*
X172600952Y-104608380D01*
X172839047Y-104608380D01*
X172934285Y-104656000D01*
X172981904Y-104703619D01*
X173029523Y-104798857D01*
X173029523Y-104894095D01*
X172981904Y-105036952D01*
X172410476Y-105608380D01*
X173029523Y-105608380D01*
X173648571Y-104608380D02*
X173743809Y-104608380D01*
X173839047Y-104656000D01*
X173886666Y-104703619D01*
X173934285Y-104798857D01*
X173981904Y-104989333D01*
X173981904Y-105227428D01*
X173934285Y-105417904D01*
X173886666Y-105513142D01*
X173839047Y-105560761D01*
X173743809Y-105608380D01*
X173648571Y-105608380D01*
X173553333Y-105560761D01*
X173505714Y-105513142D01*
X173458095Y-105417904D01*
X173410476Y-105227428D01*
X173410476Y-104989333D01*
X173458095Y-104798857D01*
X173505714Y-104703619D01*
X173553333Y-104656000D01*
X173648571Y-104608380D01*
X127611142Y-110402666D02*
X127658761Y-110450285D01*
X127706380Y-110593142D01*
X127706380Y-110688380D01*
X127658761Y-110831238D01*
X127563523Y-110926476D01*
X127468285Y-110974095D01*
X127277809Y-111021714D01*
X127134952Y-111021714D01*
X126944476Y-110974095D01*
X126849238Y-110926476D01*
X126754000Y-110831238D01*
X126706380Y-110688380D01*
X126706380Y-110593142D01*
X126754000Y-110450285D01*
X126801619Y-110402666D01*
X126801619Y-110021714D02*
X126754000Y-109974095D01*
X126706380Y-109878857D01*
X126706380Y-109640761D01*
X126754000Y-109545523D01*
X126801619Y-109497904D01*
X126896857Y-109450285D01*
X126992095Y-109450285D01*
X127134952Y-109497904D01*
X127706380Y-110069333D01*
X127706380Y-109450285D01*
X183935904Y-124166380D02*
X184507333Y-124166380D01*
X184221619Y-125166380D02*
X184221619Y-124166380D01*
X184840666Y-125166380D02*
X184840666Y-124166380D01*
X185221619Y-124166380D01*
X185316857Y-124214000D01*
X185364476Y-124261619D01*
X185412095Y-124356857D01*
X185412095Y-124499714D01*
X185364476Y-124594952D01*
X185316857Y-124642571D01*
X185221619Y-124690190D01*
X184840666Y-124690190D01*
X186364476Y-125166380D02*
X185793047Y-125166380D01*
X186078761Y-125166380D02*
X186078761Y-124166380D01*
X185983523Y-124309238D01*
X185888285Y-124404476D01*
X185793047Y-124452095D01*
X187316857Y-125166380D02*
X186745428Y-125166380D01*
X187031142Y-125166380D02*
X187031142Y-124166380D01*
X186935904Y-124309238D01*
X186840666Y-124404476D01*
X186745428Y-124452095D01*
X113948095Y-78192380D02*
X113948095Y-79001904D01*
X113995714Y-79097142D01*
X114043333Y-79144761D01*
X114138571Y-79192380D01*
X114329047Y-79192380D01*
X114424285Y-79144761D01*
X114471904Y-79097142D01*
X114519523Y-79001904D01*
X114519523Y-78192380D01*
X115424285Y-78525714D02*
X115424285Y-79192380D01*
X115186190Y-78144761D02*
X114948095Y-78859047D01*
X115567142Y-78859047D01*
X140721142Y-66922830D02*
X140768761Y-66970449D01*
X140816380Y-67113306D01*
X140816380Y-67208544D01*
X140768761Y-67351402D01*
X140673523Y-67446640D01*
X140578285Y-67494259D01*
X140387809Y-67541878D01*
X140244952Y-67541878D01*
X140054476Y-67494259D01*
X139959238Y-67446640D01*
X139864000Y-67351402D01*
X139816380Y-67208544D01*
X139816380Y-67113306D01*
X139864000Y-66970449D01*
X139911619Y-66922830D01*
X140816380Y-66446640D02*
X140816380Y-66256164D01*
X140768761Y-66160925D01*
X140721142Y-66113306D01*
X140578285Y-66018068D01*
X140387809Y-65970449D01*
X140006857Y-65970449D01*
X139911619Y-66018068D01*
X139864000Y-66065687D01*
X139816380Y-66160925D01*
X139816380Y-66351402D01*
X139864000Y-66446640D01*
X139911619Y-66494259D01*
X140006857Y-66541878D01*
X140244952Y-66541878D01*
X140340190Y-66494259D01*
X140387809Y-66446640D01*
X140435428Y-66351402D01*
X140435428Y-66160925D01*
X140387809Y-66065687D01*
X140340190Y-66018068D01*
X140244952Y-65970449D01*
X127611142Y-100496666D02*
X127658761Y-100544285D01*
X127706380Y-100687142D01*
X127706380Y-100782380D01*
X127658761Y-100925238D01*
X127563523Y-101020476D01*
X127468285Y-101068095D01*
X127277809Y-101115714D01*
X127134952Y-101115714D01*
X126944476Y-101068095D01*
X126849238Y-101020476D01*
X126754000Y-100925238D01*
X126706380Y-100782380D01*
X126706380Y-100687142D01*
X126754000Y-100544285D01*
X126801619Y-100496666D01*
X127039714Y-99639523D02*
X127706380Y-99639523D01*
X126658761Y-99877619D02*
X127373047Y-100115714D01*
X127373047Y-99496666D01*
X175079619Y-134166904D02*
X174270095Y-134166904D01*
X174174857Y-134214523D01*
X174127238Y-134262142D01*
X174079619Y-134357380D01*
X174079619Y-134547857D01*
X174127238Y-134643095D01*
X174174857Y-134690714D01*
X174270095Y-134738333D01*
X175079619Y-134738333D01*
X174079619Y-135738333D02*
X174079619Y-135166904D01*
X174079619Y-135452619D02*
X175079619Y-135452619D01*
X174936761Y-135357380D01*
X174841523Y-135262142D01*
X174793904Y-135166904D01*
X175079619Y-136643095D02*
X175079619Y-136166904D01*
X174603428Y-136119285D01*
X174651047Y-136166904D01*
X174698666Y-136262142D01*
X174698666Y-136500238D01*
X174651047Y-136595476D01*
X174603428Y-136643095D01*
X174508190Y-136690714D01*
X174270095Y-136690714D01*
X174174857Y-136643095D01*
X174127238Y-136595476D01*
X174079619Y-136500238D01*
X174079619Y-136262142D01*
X174127238Y-136166904D01*
X174174857Y-136119285D01*
X142073333Y-129389142D02*
X142025714Y-129436761D01*
X141882857Y-129484380D01*
X141787619Y-129484380D01*
X141644761Y-129436761D01*
X141549523Y-129341523D01*
X141501904Y-129246285D01*
X141454285Y-129055809D01*
X141454285Y-128912952D01*
X141501904Y-128722476D01*
X141549523Y-128627238D01*
X141644761Y-128532000D01*
X141787619Y-128484380D01*
X141882857Y-128484380D01*
X142025714Y-128532000D01*
X142073333Y-128579619D01*
X142930476Y-128484380D02*
X142740000Y-128484380D01*
X142644761Y-128532000D01*
X142597142Y-128579619D01*
X142501904Y-128722476D01*
X142454285Y-128912952D01*
X142454285Y-129293904D01*
X142501904Y-129389142D01*
X142549523Y-129436761D01*
X142644761Y-129484380D01*
X142835238Y-129484380D01*
X142930476Y-129436761D01*
X142978095Y-129389142D01*
X143025714Y-129293904D01*
X143025714Y-129055809D01*
X142978095Y-128960571D01*
X142930476Y-128912952D01*
X142835238Y-128865333D01*
X142644761Y-128865333D01*
X142549523Y-128912952D01*
X142501904Y-128960571D01*
X142454285Y-129055809D01*
X160416380Y-103028095D02*
X161225904Y-103028095D01*
X161321142Y-102980476D01*
X161368761Y-102932857D01*
X161416380Y-102837619D01*
X161416380Y-102647142D01*
X161368761Y-102551904D01*
X161321142Y-102504285D01*
X161225904Y-102456666D01*
X160416380Y-102456666D01*
X161416380Y-101456666D02*
X161416380Y-102028095D01*
X161416380Y-101742380D02*
X160416380Y-101742380D01*
X160559238Y-101837619D01*
X160654476Y-101932857D01*
X160702095Y-102028095D01*
X160511619Y-101075714D02*
X160464000Y-101028095D01*
X160416380Y-100932857D01*
X160416380Y-100694761D01*
X160464000Y-100599523D01*
X160511619Y-100551904D01*
X160606857Y-100504285D01*
X160702095Y-100504285D01*
X160844952Y-100551904D01*
X161416380Y-101123333D01*
X161416380Y-100504285D01*
X134101333Y-115514380D02*
X133768000Y-115038190D01*
X133529904Y-115514380D02*
X133529904Y-114514380D01*
X133910857Y-114514380D01*
X134006095Y-114562000D01*
X134053714Y-114609619D01*
X134101333Y-114704857D01*
X134101333Y-114847714D01*
X134053714Y-114942952D01*
X134006095Y-114990571D01*
X133910857Y-115038190D01*
X133529904Y-115038190D01*
X134434666Y-114514380D02*
X135101333Y-114514380D01*
X134672761Y-115514380D01*
X156794666Y-123912380D02*
X156794666Y-124626666D01*
X156747047Y-124769523D01*
X156651809Y-124864761D01*
X156508952Y-124912380D01*
X156413714Y-124912380D01*
X157699428Y-124245714D02*
X157699428Y-124912380D01*
X157461333Y-123864761D02*
X157223238Y-124579047D01*
X157842285Y-124579047D01*
X100365619Y-116621523D02*
X100365619Y-115981523D01*
X100518000Y-115981523D01*
X100609428Y-116012000D01*
X100670380Y-116072952D01*
X100700857Y-116133904D01*
X100731333Y-116255809D01*
X100731333Y-116347238D01*
X100700857Y-116469142D01*
X100670380Y-116530095D01*
X100609428Y-116591047D01*
X100518000Y-116621523D01*
X100365619Y-116621523D01*
X100944666Y-115981523D02*
X101340857Y-115981523D01*
X101127523Y-116225333D01*
X101218952Y-116225333D01*
X101279904Y-116255809D01*
X101310380Y-116286285D01*
X101340857Y-116347238D01*
X101340857Y-116499619D01*
X101310380Y-116560571D01*
X101279904Y-116591047D01*
X101218952Y-116621523D01*
X101036095Y-116621523D01*
X100975142Y-116591047D01*
X100944666Y-116560571D01*
X109307333Y-118562380D02*
X108974000Y-118086190D01*
X108735904Y-118562380D02*
X108735904Y-117562380D01*
X109116857Y-117562380D01*
X109212095Y-117610000D01*
X109259714Y-117657619D01*
X109307333Y-117752857D01*
X109307333Y-117895714D01*
X109259714Y-117990952D01*
X109212095Y-118038571D01*
X109116857Y-118086190D01*
X108735904Y-118086190D01*
X109640666Y-117562380D02*
X110259714Y-117562380D01*
X109926380Y-117943333D01*
X110069238Y-117943333D01*
X110164476Y-117990952D01*
X110212095Y-118038571D01*
X110259714Y-118133809D01*
X110259714Y-118371904D01*
X110212095Y-118467142D01*
X110164476Y-118514761D01*
X110069238Y-118562380D01*
X109783523Y-118562380D01*
X109688285Y-118514761D01*
X109640666Y-118467142D01*
X100365619Y-121193523D02*
X100365619Y-120553523D01*
X100518000Y-120553523D01*
X100609428Y-120584000D01*
X100670380Y-120644952D01*
X100700857Y-120705904D01*
X100731333Y-120827809D01*
X100731333Y-120919238D01*
X100700857Y-121041142D01*
X100670380Y-121102095D01*
X100609428Y-121163047D01*
X100518000Y-121193523D01*
X100365619Y-121193523D01*
X101340857Y-121193523D02*
X100975142Y-121193523D01*
X101158000Y-121193523D02*
X101158000Y-120553523D01*
X101097047Y-120644952D01*
X101036095Y-120705904D01*
X100975142Y-120736380D01*
X171186380Y-117976857D02*
X170710190Y-118310190D01*
X171186380Y-118548285D02*
X170186380Y-118548285D01*
X170186380Y-118167333D01*
X170234000Y-118072095D01*
X170281619Y-118024476D01*
X170376857Y-117976857D01*
X170519714Y-117976857D01*
X170614952Y-118024476D01*
X170662571Y-118072095D01*
X170710190Y-118167333D01*
X170710190Y-118548285D01*
X170281619Y-117595904D02*
X170234000Y-117548285D01*
X170186380Y-117453047D01*
X170186380Y-117214952D01*
X170234000Y-117119714D01*
X170281619Y-117072095D01*
X170376857Y-117024476D01*
X170472095Y-117024476D01*
X170614952Y-117072095D01*
X171186380Y-117643523D01*
X171186380Y-117024476D01*
X170186380Y-116119714D02*
X170186380Y-116595904D01*
X170662571Y-116643523D01*
X170614952Y-116595904D01*
X170567333Y-116500666D01*
X170567333Y-116262571D01*
X170614952Y-116167333D01*
X170662571Y-116119714D01*
X170757809Y-116072095D01*
X170995904Y-116072095D01*
X171091142Y-116119714D01*
X171138761Y-116167333D01*
X171186380Y-116262571D01*
X171186380Y-116500666D01*
X171138761Y-116595904D01*
X171091142Y-116643523D01*
X144534095Y-103976380D02*
X145105523Y-103976380D01*
X144819809Y-104976380D02*
X144819809Y-103976380D01*
X145438857Y-104976380D02*
X145438857Y-103976380D01*
X145819809Y-103976380D01*
X145915047Y-104024000D01*
X145962666Y-104071619D01*
X146010285Y-104166857D01*
X146010285Y-104309714D01*
X145962666Y-104404952D01*
X145915047Y-104452571D01*
X145819809Y-104500190D01*
X145438857Y-104500190D01*
X146581714Y-104404952D02*
X146486476Y-104357333D01*
X146438857Y-104309714D01*
X146391238Y-104214476D01*
X146391238Y-104166857D01*
X146438857Y-104071619D01*
X146486476Y-104024000D01*
X146581714Y-103976380D01*
X146772190Y-103976380D01*
X146867428Y-104024000D01*
X146915047Y-104071619D01*
X146962666Y-104166857D01*
X146962666Y-104214476D01*
X146915047Y-104309714D01*
X146867428Y-104357333D01*
X146772190Y-104404952D01*
X146581714Y-104404952D01*
X146486476Y-104452571D01*
X146438857Y-104500190D01*
X146391238Y-104595428D01*
X146391238Y-104785904D01*
X146438857Y-104881142D01*
X146486476Y-104928761D01*
X146581714Y-104976380D01*
X146772190Y-104976380D01*
X146867428Y-104928761D01*
X146915047Y-104881142D01*
X146962666Y-104785904D01*
X146962666Y-104595428D01*
X146915047Y-104500190D01*
X146867428Y-104452571D01*
X146772190Y-104404952D01*
X134355333Y-88082380D02*
X134022000Y-87606190D01*
X133783904Y-88082380D02*
X133783904Y-87082380D01*
X134164857Y-87082380D01*
X134260095Y-87130000D01*
X134307714Y-87177619D01*
X134355333Y-87272857D01*
X134355333Y-87415714D01*
X134307714Y-87510952D01*
X134260095Y-87558571D01*
X134164857Y-87606190D01*
X133783904Y-87606190D01*
X134926761Y-87510952D02*
X134831523Y-87463333D01*
X134783904Y-87415714D01*
X134736285Y-87320476D01*
X134736285Y-87272857D01*
X134783904Y-87177619D01*
X134831523Y-87130000D01*
X134926761Y-87082380D01*
X135117238Y-87082380D01*
X135212476Y-87130000D01*
X135260095Y-87177619D01*
X135307714Y-87272857D01*
X135307714Y-87320476D01*
X135260095Y-87415714D01*
X135212476Y-87463333D01*
X135117238Y-87510952D01*
X134926761Y-87510952D01*
X134831523Y-87558571D01*
X134783904Y-87606190D01*
X134736285Y-87701428D01*
X134736285Y-87891904D01*
X134783904Y-87987142D01*
X134831523Y-88034761D01*
X134926761Y-88082380D01*
X135117238Y-88082380D01*
X135212476Y-88034761D01*
X135260095Y-87987142D01*
X135307714Y-87891904D01*
X135307714Y-87701428D01*
X135260095Y-87606190D01*
X135212476Y-87558571D01*
X135117238Y-87510952D01*
X106542333Y-130597142D02*
X106494714Y-130644761D01*
X106351857Y-130692380D01*
X106256619Y-130692380D01*
X106113761Y-130644761D01*
X106018523Y-130549523D01*
X105970904Y-130454285D01*
X105923285Y-130263809D01*
X105923285Y-130120952D01*
X105970904Y-129930476D01*
X106018523Y-129835238D01*
X106113761Y-129740000D01*
X106256619Y-129692380D01*
X106351857Y-129692380D01*
X106494714Y-129740000D01*
X106542333Y-129787619D01*
X106875666Y-129692380D02*
X107494714Y-129692380D01*
X107161380Y-130073333D01*
X107304238Y-130073333D01*
X107399476Y-130120952D01*
X107447095Y-130168571D01*
X107494714Y-130263809D01*
X107494714Y-130501904D01*
X107447095Y-130597142D01*
X107399476Y-130644761D01*
X107304238Y-130692380D01*
X107018523Y-130692380D01*
X106923285Y-130644761D01*
X106875666Y-130597142D01*
X128021142Y-59824857D02*
X128068761Y-59872476D01*
X128116380Y-60015333D01*
X128116380Y-60110571D01*
X128068761Y-60253428D01*
X127973523Y-60348666D01*
X127878285Y-60396285D01*
X127687809Y-60443904D01*
X127544952Y-60443904D01*
X127354476Y-60396285D01*
X127259238Y-60348666D01*
X127164000Y-60253428D01*
X127116380Y-60110571D01*
X127116380Y-60015333D01*
X127164000Y-59872476D01*
X127211619Y-59824857D01*
X128116380Y-58872476D02*
X128116380Y-59443904D01*
X128116380Y-59158190D02*
X127116380Y-59158190D01*
X127259238Y-59253428D01*
X127354476Y-59348666D01*
X127402095Y-59443904D01*
X127449714Y-58015333D02*
X128116380Y-58015333D01*
X127068761Y-58253428D02*
X127783047Y-58491523D01*
X127783047Y-57872476D01*
X110410666Y-55078380D02*
X110410666Y-55792666D01*
X110363047Y-55935523D01*
X110267809Y-56030761D01*
X110124952Y-56078380D01*
X110029714Y-56078380D01*
X111410666Y-56078380D02*
X110839238Y-56078380D01*
X111124952Y-56078380D02*
X111124952Y-55078380D01*
X111029714Y-55221238D01*
X110934476Y-55316476D01*
X110839238Y-55364095D01*
X174855142Y-116974857D02*
X174902761Y-117022476D01*
X174950380Y-117165333D01*
X174950380Y-117260571D01*
X174902761Y-117403428D01*
X174807523Y-117498666D01*
X174712285Y-117546285D01*
X174521809Y-117593904D01*
X174378952Y-117593904D01*
X174188476Y-117546285D01*
X174093238Y-117498666D01*
X173998000Y-117403428D01*
X173950380Y-117260571D01*
X173950380Y-117165333D01*
X173998000Y-117022476D01*
X174045619Y-116974857D01*
X174045619Y-116593904D02*
X173998000Y-116546285D01*
X173950380Y-116451047D01*
X173950380Y-116212952D01*
X173998000Y-116117714D01*
X174045619Y-116070095D01*
X174140857Y-116022476D01*
X174236095Y-116022476D01*
X174378952Y-116070095D01*
X174950380Y-116641523D01*
X174950380Y-116022476D01*
X174950380Y-115070095D02*
X174950380Y-115641523D01*
X174950380Y-115355809D02*
X173950380Y-115355809D01*
X174093238Y-115451047D01*
X174188476Y-115546285D01*
X174236095Y-115641523D01*
X184337904Y-111757380D02*
X184337904Y-112566904D01*
X184385523Y-112662142D01*
X184433142Y-112709761D01*
X184528380Y-112757380D01*
X184718857Y-112757380D01*
X184814095Y-112709761D01*
X184861714Y-112662142D01*
X184909333Y-112566904D01*
X184909333Y-111757380D01*
X185909333Y-112757380D02*
X185337904Y-112757380D01*
X185623619Y-112757380D02*
X185623619Y-111757380D01*
X185528380Y-111900238D01*
X185433142Y-111995476D01*
X185337904Y-112043095D01*
X186766476Y-112090714D02*
X186766476Y-112757380D01*
X186528380Y-111709761D02*
X186290285Y-112424047D01*
X186909333Y-112424047D01*
X125595142Y-77922380D02*
X125261809Y-77446190D01*
X125023714Y-77922380D02*
X125023714Y-76922380D01*
X125404666Y-76922380D01*
X125499904Y-76970000D01*
X125547523Y-77017619D01*
X125595142Y-77112857D01*
X125595142Y-77255714D01*
X125547523Y-77350952D01*
X125499904Y-77398571D01*
X125404666Y-77446190D01*
X125023714Y-77446190D01*
X126547523Y-77922380D02*
X125976095Y-77922380D01*
X126261809Y-77922380D02*
X126261809Y-76922380D01*
X126166571Y-77065238D01*
X126071333Y-77160476D01*
X125976095Y-77208095D01*
X127499904Y-77922380D02*
X126928476Y-77922380D01*
X127214190Y-77922380D02*
X127214190Y-76922380D01*
X127118952Y-77065238D01*
X127023714Y-77160476D01*
X126928476Y-77208095D01*
X167145142Y-80422380D02*
X166811809Y-79946190D01*
X166573714Y-80422380D02*
X166573714Y-79422380D01*
X166954666Y-79422380D01*
X167049904Y-79470000D01*
X167097523Y-79517619D01*
X167145142Y-79612857D01*
X167145142Y-79755714D01*
X167097523Y-79850952D01*
X167049904Y-79898571D01*
X166954666Y-79946190D01*
X166573714Y-79946190D01*
X168097523Y-80422380D02*
X167526095Y-80422380D01*
X167811809Y-80422380D02*
X167811809Y-79422380D01*
X167716571Y-79565238D01*
X167621333Y-79660476D01*
X167526095Y-79708095D01*
X168430857Y-79422380D02*
X169097523Y-79422380D01*
X168668952Y-80422380D01*
X129545142Y-59824857D02*
X129592761Y-59872476D01*
X129640380Y-60015333D01*
X129640380Y-60110571D01*
X129592761Y-60253428D01*
X129497523Y-60348666D01*
X129402285Y-60396285D01*
X129211809Y-60443904D01*
X129068952Y-60443904D01*
X128878476Y-60396285D01*
X128783238Y-60348666D01*
X128688000Y-60253428D01*
X128640380Y-60110571D01*
X128640380Y-60015333D01*
X128688000Y-59872476D01*
X128735619Y-59824857D01*
X129640380Y-58872476D02*
X129640380Y-59443904D01*
X129640380Y-59158190D02*
X128640380Y-59158190D01*
X128783238Y-59253428D01*
X128878476Y-59348666D01*
X128926095Y-59443904D01*
X129640380Y-57920095D02*
X129640380Y-58491523D01*
X129640380Y-58205809D02*
X128640380Y-58205809D01*
X128783238Y-58301047D01*
X128878476Y-58396285D01*
X128926095Y-58491523D01*
X161041142Y-72253021D02*
X161088761Y-72300640D01*
X161136380Y-72443497D01*
X161136380Y-72538735D01*
X161088761Y-72681592D01*
X160993523Y-72776830D01*
X160898285Y-72824449D01*
X160707809Y-72872068D01*
X160564952Y-72872068D01*
X160374476Y-72824449D01*
X160279238Y-72776830D01*
X160184000Y-72681592D01*
X160136380Y-72538735D01*
X160136380Y-72443497D01*
X160184000Y-72300640D01*
X160231619Y-72253021D01*
X161136380Y-71300640D02*
X161136380Y-71872068D01*
X161136380Y-71586354D02*
X160136380Y-71586354D01*
X160279238Y-71681592D01*
X160374476Y-71776830D01*
X160422095Y-71872068D01*
X160136380Y-70681592D02*
X160136380Y-70586354D01*
X160184000Y-70491116D01*
X160231619Y-70443497D01*
X160326857Y-70395878D01*
X160517333Y-70348259D01*
X160755428Y-70348259D01*
X160945904Y-70395878D01*
X161041142Y-70443497D01*
X161088761Y-70491116D01*
X161136380Y-70586354D01*
X161136380Y-70681592D01*
X161088761Y-70776830D01*
X161041142Y-70824449D01*
X160945904Y-70872068D01*
X160755428Y-70919687D01*
X160517333Y-70919687D01*
X160326857Y-70872068D01*
X160231619Y-70824449D01*
X160184000Y-70776830D01*
X160136380Y-70681592D01*
X123854095Y-116292380D02*
X123854095Y-117101904D01*
X123901714Y-117197142D01*
X123949333Y-117244761D01*
X124044571Y-117292380D01*
X124235047Y-117292380D01*
X124330285Y-117244761D01*
X124377904Y-117197142D01*
X124425523Y-117101904D01*
X124425523Y-116292380D01*
X125377904Y-116292380D02*
X124901714Y-116292380D01*
X124854095Y-116768571D01*
X124901714Y-116720952D01*
X124996952Y-116673333D01*
X125235047Y-116673333D01*
X125330285Y-116720952D01*
X125377904Y-116768571D01*
X125425523Y-116863809D01*
X125425523Y-117101904D01*
X125377904Y-117197142D01*
X125330285Y-117244761D01*
X125235047Y-117292380D01*
X124996952Y-117292380D01*
X124901714Y-117244761D01*
X124854095Y-117197142D01*
X128338761Y-96972380D02*
X128005428Y-96496190D01*
X127767333Y-96972380D02*
X127767333Y-95972380D01*
X128148285Y-95972380D01*
X128243523Y-96020000D01*
X128291142Y-96067619D01*
X128338761Y-96162857D01*
X128338761Y-96305714D01*
X128291142Y-96400952D01*
X128243523Y-96448571D01*
X128148285Y-96496190D01*
X127767333Y-96496190D01*
X128624476Y-95972380D02*
X128957809Y-96972380D01*
X129291142Y-95972380D01*
X129576857Y-96067619D02*
X129624476Y-96020000D01*
X129719714Y-95972380D01*
X129957809Y-95972380D01*
X130053047Y-96020000D01*
X130100666Y-96067619D01*
X130148285Y-96162857D01*
X130148285Y-96258095D01*
X130100666Y-96400952D01*
X129529238Y-96972380D01*
X130148285Y-96972380D01*
X141666380Y-103028095D02*
X142475904Y-103028095D01*
X142571142Y-102980476D01*
X142618761Y-102932857D01*
X142666380Y-102837619D01*
X142666380Y-102647142D01*
X142618761Y-102551904D01*
X142571142Y-102504285D01*
X142475904Y-102456666D01*
X141666380Y-102456666D01*
X142666380Y-101456666D02*
X142666380Y-102028095D01*
X142666380Y-101742380D02*
X141666380Y-101742380D01*
X141809238Y-101837619D01*
X141904476Y-101932857D01*
X141952095Y-102028095D01*
X141666380Y-101123333D02*
X141666380Y-100504285D01*
X142047333Y-100837619D01*
X142047333Y-100694761D01*
X142094952Y-100599523D01*
X142142571Y-100551904D01*
X142237809Y-100504285D01*
X142475904Y-100504285D01*
X142571142Y-100551904D01*
X142618761Y-100599523D01*
X142666380Y-100694761D01*
X142666380Y-100980476D01*
X142618761Y-101075714D01*
X142571142Y-101123333D01*
X179951142Y-121536380D02*
X179617809Y-121060190D01*
X179379714Y-121536380D02*
X179379714Y-120536380D01*
X179760666Y-120536380D01*
X179855904Y-120584000D01*
X179903523Y-120631619D01*
X179951142Y-120726857D01*
X179951142Y-120869714D01*
X179903523Y-120964952D01*
X179855904Y-121012571D01*
X179760666Y-121060190D01*
X179379714Y-121060190D01*
X180332095Y-120631619D02*
X180379714Y-120584000D01*
X180474952Y-120536380D01*
X180713047Y-120536380D01*
X180808285Y-120584000D01*
X180855904Y-120631619D01*
X180903523Y-120726857D01*
X180903523Y-120822095D01*
X180855904Y-120964952D01*
X180284476Y-121536380D01*
X180903523Y-121536380D01*
X181379714Y-121536380D02*
X181570190Y-121536380D01*
X181665428Y-121488761D01*
X181713047Y-121441142D01*
X181808285Y-121298285D01*
X181855904Y-121107809D01*
X181855904Y-120726857D01*
X181808285Y-120631619D01*
X181760666Y-120584000D01*
X181665428Y-120536380D01*
X181474952Y-120536380D01*
X181379714Y-120584000D01*
X181332095Y-120631619D01*
X181284476Y-120726857D01*
X181284476Y-120964952D01*
X181332095Y-121060190D01*
X181379714Y-121107809D01*
X181474952Y-121155428D01*
X181665428Y-121155428D01*
X181760666Y-121107809D01*
X181808285Y-121060190D01*
X181855904Y-120964952D01*
X181364095Y-103976380D02*
X181935523Y-103976380D01*
X181649809Y-104976380D02*
X181649809Y-103976380D01*
X182268857Y-104976380D02*
X182268857Y-103976380D01*
X182649809Y-103976380D01*
X182745047Y-104024000D01*
X182792666Y-104071619D01*
X182840285Y-104166857D01*
X182840285Y-104309714D01*
X182792666Y-104404952D01*
X182745047Y-104452571D01*
X182649809Y-104500190D01*
X182268857Y-104500190D01*
X183697428Y-103976380D02*
X183506952Y-103976380D01*
X183411714Y-104024000D01*
X183364095Y-104071619D01*
X183268857Y-104214476D01*
X183221238Y-104404952D01*
X183221238Y-104785904D01*
X183268857Y-104881142D01*
X183316476Y-104928761D01*
X183411714Y-104976380D01*
X183602190Y-104976380D01*
X183697428Y-104928761D01*
X183745047Y-104881142D01*
X183792666Y-104785904D01*
X183792666Y-104547809D01*
X183745047Y-104452571D01*
X183697428Y-104404952D01*
X183602190Y-104357333D01*
X183411714Y-104357333D01*
X183316476Y-104404952D01*
X183268857Y-104452571D01*
X183221238Y-104547809D01*
X119131142Y-61888666D02*
X119178761Y-61936285D01*
X119226380Y-62079142D01*
X119226380Y-62174380D01*
X119178761Y-62317238D01*
X119083523Y-62412476D01*
X118988285Y-62460095D01*
X118797809Y-62507714D01*
X118654952Y-62507714D01*
X118464476Y-62460095D01*
X118369238Y-62412476D01*
X118274000Y-62317238D01*
X118226380Y-62174380D01*
X118226380Y-62079142D01*
X118274000Y-61936285D01*
X118321619Y-61888666D01*
X118654952Y-61317238D02*
X118607333Y-61412476D01*
X118559714Y-61460095D01*
X118464476Y-61507714D01*
X118416857Y-61507714D01*
X118321619Y-61460095D01*
X118274000Y-61412476D01*
X118226380Y-61317238D01*
X118226380Y-61126761D01*
X118274000Y-61031523D01*
X118321619Y-60983904D01*
X118416857Y-60936285D01*
X118464476Y-60936285D01*
X118559714Y-60983904D01*
X118607333Y-61031523D01*
X118654952Y-61126761D01*
X118654952Y-61317238D01*
X118702571Y-61412476D01*
X118750190Y-61460095D01*
X118845428Y-61507714D01*
X119035904Y-61507714D01*
X119131142Y-61460095D01*
X119178761Y-61412476D01*
X119226380Y-61317238D01*
X119226380Y-61126761D01*
X119178761Y-61031523D01*
X119131142Y-60983904D01*
X119035904Y-60936285D01*
X118845428Y-60936285D01*
X118750190Y-60983904D01*
X118702571Y-61031523D01*
X118654952Y-61126761D01*
X125595142Y-79954380D02*
X125261809Y-79478190D01*
X125023714Y-79954380D02*
X125023714Y-78954380D01*
X125404666Y-78954380D01*
X125499904Y-79002000D01*
X125547523Y-79049619D01*
X125595142Y-79144857D01*
X125595142Y-79287714D01*
X125547523Y-79382952D01*
X125499904Y-79430571D01*
X125404666Y-79478190D01*
X125023714Y-79478190D01*
X126547523Y-79954380D02*
X125976095Y-79954380D01*
X126261809Y-79954380D02*
X126261809Y-78954380D01*
X126166571Y-79097238D01*
X126071333Y-79192476D01*
X125976095Y-79240095D01*
X127166571Y-78954380D02*
X127261809Y-78954380D01*
X127357047Y-79002000D01*
X127404666Y-79049619D01*
X127452285Y-79144857D01*
X127499904Y-79335333D01*
X127499904Y-79573428D01*
X127452285Y-79763904D01*
X127404666Y-79859142D01*
X127357047Y-79906761D01*
X127261809Y-79954380D01*
X127166571Y-79954380D01*
X127071333Y-79906761D01*
X127023714Y-79859142D01*
X126976095Y-79763904D01*
X126928476Y-79573428D01*
X126928476Y-79335333D01*
X126976095Y-79144857D01*
X127023714Y-79049619D01*
X127071333Y-79002000D01*
X127166571Y-78954380D01*
X145750380Y-132999523D02*
X146116095Y-132999523D01*
X145933238Y-133639523D02*
X145933238Y-132999523D01*
X146329428Y-133639523D02*
X146329428Y-132999523D01*
X146573238Y-132999523D01*
X146634190Y-133030000D01*
X146664666Y-133060476D01*
X146695142Y-133121428D01*
X146695142Y-133212857D01*
X146664666Y-133273809D01*
X146634190Y-133304285D01*
X146573238Y-133334761D01*
X146329428Y-133334761D01*
X147243714Y-133212857D02*
X147243714Y-133639523D01*
X147091333Y-132969047D02*
X146938952Y-133426190D01*
X147335142Y-133426190D01*
X144613333Y-129245142D02*
X144565714Y-129292761D01*
X144422857Y-129340380D01*
X144327619Y-129340380D01*
X144184761Y-129292761D01*
X144089523Y-129197523D01*
X144041904Y-129102285D01*
X143994285Y-128911809D01*
X143994285Y-128768952D01*
X144041904Y-128578476D01*
X144089523Y-128483238D01*
X144184761Y-128388000D01*
X144327619Y-128340380D01*
X144422857Y-128340380D01*
X144565714Y-128388000D01*
X144613333Y-128435619D01*
X144946666Y-128340380D02*
X145613333Y-128340380D01*
X145184761Y-129340380D01*
X139654380Y-132999523D02*
X140020095Y-132999523D01*
X139837238Y-133639523D02*
X139837238Y-132999523D01*
X140233428Y-133639523D02*
X140233428Y-132999523D01*
X140477238Y-132999523D01*
X140538190Y-133030000D01*
X140568666Y-133060476D01*
X140599142Y-133121428D01*
X140599142Y-133212857D01*
X140568666Y-133273809D01*
X140538190Y-133304285D01*
X140477238Y-133334761D01*
X140233428Y-133334761D01*
X140812476Y-132999523D02*
X141208666Y-132999523D01*
X140995333Y-133243333D01*
X141086761Y-133243333D01*
X141147714Y-133273809D01*
X141178190Y-133304285D01*
X141208666Y-133365238D01*
X141208666Y-133517619D01*
X141178190Y-133578571D01*
X141147714Y-133609047D01*
X141086761Y-133639523D01*
X140903904Y-133639523D01*
X140842952Y-133609047D01*
X140812476Y-133578571D01*
X177392380Y-111640857D02*
X176916190Y-111974190D01*
X177392380Y-112212285D02*
X176392380Y-112212285D01*
X176392380Y-111831333D01*
X176440000Y-111736095D01*
X176487619Y-111688476D01*
X176582857Y-111640857D01*
X176725714Y-111640857D01*
X176820952Y-111688476D01*
X176868571Y-111736095D01*
X176916190Y-111831333D01*
X176916190Y-112212285D01*
X176392380Y-111307523D02*
X176392380Y-110688476D01*
X176773333Y-111021809D01*
X176773333Y-110878952D01*
X176820952Y-110783714D01*
X176868571Y-110736095D01*
X176963809Y-110688476D01*
X177201904Y-110688476D01*
X177297142Y-110736095D01*
X177344761Y-110783714D01*
X177392380Y-110878952D01*
X177392380Y-111164666D01*
X177344761Y-111259904D01*
X177297142Y-111307523D01*
X177392380Y-109736095D02*
X177392380Y-110307523D01*
X177392380Y-110021809D02*
X176392380Y-110021809D01*
X176535238Y-110117047D01*
X176630476Y-110212285D01*
X176678095Y-110307523D01*
X137661142Y-89352380D02*
X137327809Y-88876190D01*
X137089714Y-89352380D02*
X137089714Y-88352380D01*
X137470666Y-88352380D01*
X137565904Y-88400000D01*
X137613523Y-88447619D01*
X137661142Y-88542857D01*
X137661142Y-88685714D01*
X137613523Y-88780952D01*
X137565904Y-88828571D01*
X137470666Y-88876190D01*
X137089714Y-88876190D01*
X138613523Y-89352380D02*
X138042095Y-89352380D01*
X138327809Y-89352380D02*
X138327809Y-88352380D01*
X138232571Y-88495238D01*
X138137333Y-88590476D01*
X138042095Y-88638095D01*
X139518285Y-88352380D02*
X139042095Y-88352380D01*
X138994476Y-88828571D01*
X139042095Y-88780952D01*
X139137333Y-88733333D01*
X139375428Y-88733333D01*
X139470666Y-88780952D01*
X139518285Y-88828571D01*
X139565904Y-88923809D01*
X139565904Y-89161904D01*
X139518285Y-89257142D01*
X139470666Y-89304761D01*
X139375428Y-89352380D01*
X139137333Y-89352380D01*
X139042095Y-89304761D01*
X138994476Y-89257142D01*
X185340666Y-54316380D02*
X185340666Y-55030666D01*
X185293047Y-55173523D01*
X185197809Y-55268761D01*
X185054952Y-55316380D01*
X184959714Y-55316380D01*
X185769238Y-54411619D02*
X185816857Y-54364000D01*
X185912095Y-54316380D01*
X186150190Y-54316380D01*
X186245428Y-54364000D01*
X186293047Y-54411619D01*
X186340666Y-54506857D01*
X186340666Y-54602095D01*
X186293047Y-54744952D01*
X185721619Y-55316380D01*
X186340666Y-55316380D01*
X175617142Y-111640857D02*
X175664761Y-111688476D01*
X175712380Y-111831333D01*
X175712380Y-111926571D01*
X175664761Y-112069428D01*
X175569523Y-112164666D01*
X175474285Y-112212285D01*
X175283809Y-112259904D01*
X175140952Y-112259904D01*
X174950476Y-112212285D01*
X174855238Y-112164666D01*
X174760000Y-112069428D01*
X174712380Y-111926571D01*
X174712380Y-111831333D01*
X174760000Y-111688476D01*
X174807619Y-111640857D01*
X175712380Y-110688476D02*
X175712380Y-111259904D01*
X175712380Y-110974190D02*
X174712380Y-110974190D01*
X174855238Y-111069428D01*
X174950476Y-111164666D01*
X174998095Y-111259904D01*
X175712380Y-110212285D02*
X175712380Y-110021809D01*
X175664761Y-109926571D01*
X175617142Y-109878952D01*
X175474285Y-109783714D01*
X175283809Y-109736095D01*
X174902857Y-109736095D01*
X174807619Y-109783714D01*
X174760000Y-109831333D01*
X174712380Y-109926571D01*
X174712380Y-110117047D01*
X174760000Y-110212285D01*
X174807619Y-110259904D01*
X174902857Y-110307523D01*
X175140952Y-110307523D01*
X175236190Y-110259904D01*
X175283809Y-110212285D01*
X175331428Y-110117047D01*
X175331428Y-109926571D01*
X175283809Y-109831333D01*
X175236190Y-109783714D01*
X175140952Y-109736095D01*
X175712380Y-108592857D02*
X175236190Y-108926190D01*
X175712380Y-109164285D02*
X174712380Y-109164285D01*
X174712380Y-108783333D01*
X174760000Y-108688095D01*
X174807619Y-108640476D01*
X174902857Y-108592857D01*
X175045714Y-108592857D01*
X175140952Y-108640476D01*
X175188571Y-108688095D01*
X175236190Y-108783333D01*
X175236190Y-109164285D01*
X174807619Y-108211904D02*
X174760000Y-108164285D01*
X174712380Y-108069047D01*
X174712380Y-107830952D01*
X174760000Y-107735714D01*
X174807619Y-107688095D01*
X174902857Y-107640476D01*
X174998095Y-107640476D01*
X175140952Y-107688095D01*
X175712380Y-108259523D01*
X175712380Y-107640476D01*
X174712380Y-107307142D02*
X174712380Y-106688095D01*
X175093333Y-107021428D01*
X175093333Y-106878571D01*
X175140952Y-106783333D01*
X175188571Y-106735714D01*
X175283809Y-106688095D01*
X175521904Y-106688095D01*
X175617142Y-106735714D01*
X175664761Y-106783333D01*
X175712380Y-106878571D01*
X175712380Y-107164285D01*
X175664761Y-107259523D01*
X175617142Y-107307142D01*
X134101333Y-116943142D02*
X134053714Y-116990761D01*
X133910857Y-117038380D01*
X133815619Y-117038380D01*
X133672761Y-116990761D01*
X133577523Y-116895523D01*
X133529904Y-116800285D01*
X133482285Y-116609809D01*
X133482285Y-116466952D01*
X133529904Y-116276476D01*
X133577523Y-116181238D01*
X133672761Y-116086000D01*
X133815619Y-116038380D01*
X133910857Y-116038380D01*
X134053714Y-116086000D01*
X134101333Y-116133619D01*
X135006095Y-116038380D02*
X134529904Y-116038380D01*
X134482285Y-116514571D01*
X134529904Y-116466952D01*
X134625142Y-116419333D01*
X134863238Y-116419333D01*
X134958476Y-116466952D01*
X135006095Y-116514571D01*
X135053714Y-116609809D01*
X135053714Y-116847904D01*
X135006095Y-116943142D01*
X134958476Y-116990761D01*
X134863238Y-117038380D01*
X134625142Y-117038380D01*
X134529904Y-116990761D01*
X134482285Y-116943142D01*
D13*
X183842000Y-133175000D02*
X183842000Y-136675000D01*
X183842000Y-136675000D02*
X177342000Y-136675000D01*
X183842000Y-123213000D02*
X183842000Y-122913000D01*
X183842000Y-125535000D02*
X183842000Y-130035000D01*
X177342000Y-122913000D02*
X177342000Y-123213000D01*
X177342000Y-125535000D02*
X177342000Y-130035000D01*
X177342000Y-136675000D02*
X177342000Y-133175000D01*
X183842000Y-122913000D02*
X177342000Y-122913000D01*
X190905641Y-121794000D02*
X190598359Y-121794000D01*
X190905641Y-122554000D02*
X190598359Y-122554000D01*
X133162000Y-108656000D02*
X133162000Y-107396000D01*
X129402000Y-108656000D02*
X133162000Y-108656000D01*
X127152000Y-101836000D02*
X133162000Y-101836000D01*
X133162000Y-101836000D02*
X133162000Y-103096000D01*
X121600000Y-114554000D02*
G75*
G03*
X121600000Y-114554000I-950000J0D01*
G01*
X126650359Y-86742000D02*
X126957641Y-86742000D01*
X126650359Y-87502000D02*
X126957641Y-87502000D01*
X178456000Y-116252164D02*
X178456000Y-116467836D01*
X179176000Y-116252164D02*
X179176000Y-116467836D01*
X170924000Y-108174359D02*
X170924000Y-108481641D01*
X170164000Y-108174359D02*
X170164000Y-108481641D01*
X170585641Y-122554000D02*
X170278359Y-122554000D01*
X170585641Y-121794000D02*
X170278359Y-121794000D01*
X170948000Y-66261164D02*
X170948000Y-66476836D01*
X171668000Y-66261164D02*
X171668000Y-66476836D01*
X151567641Y-104610000D02*
X151260359Y-104610000D01*
X151567641Y-105370000D02*
X151260359Y-105370000D01*
X150728000Y-61482164D02*
X150728000Y-61697836D01*
X151448000Y-61482164D02*
X151448000Y-61697836D01*
X165034000Y-106172000D02*
G75*
G03*
X165034000Y-106172000I-950000J0D01*
G01*
X146374000Y-114106000D02*
X146374000Y-111446000D01*
X136094000Y-114106000D02*
X136094000Y-112776000D01*
X138694000Y-114106000D02*
X138694000Y-111446000D01*
X138694000Y-111446000D02*
X146374000Y-111446000D01*
X138694000Y-114106000D02*
X146374000Y-114106000D01*
X137424000Y-114106000D02*
X136094000Y-114106000D01*
X149924000Y-61482164D02*
X149924000Y-61697836D01*
X149204000Y-61482164D02*
X149204000Y-61697836D01*
X130988641Y-88397000D02*
X130681359Y-88397000D01*
X130988641Y-89157000D02*
X130681359Y-89157000D01*
X171048000Y-110608164D02*
X171048000Y-110823836D01*
X170328000Y-110608164D02*
X170328000Y-110823836D01*
X189418000Y-110236000D02*
G75*
G03*
X189418000Y-110236000I-950000J0D01*
G01*
X101101836Y-132395000D02*
X100886164Y-132395000D01*
X101101836Y-131675000D02*
X100886164Y-131675000D01*
X153984000Y-128016000D02*
X153984000Y-133156000D01*
X151324000Y-125416000D02*
X152654000Y-125416000D01*
X151324000Y-128016000D02*
X153984000Y-128016000D01*
X151324000Y-128016000D02*
X151324000Y-133156000D01*
X151324000Y-126746000D02*
X151324000Y-125416000D01*
X151324000Y-133156000D02*
X153984000Y-133156000D01*
X178184000Y-113736359D02*
X178184000Y-114043641D01*
X178944000Y-113736359D02*
X178944000Y-114043641D01*
X121754000Y-132920000D02*
X121814000Y-132920000D01*
X116614000Y-130260000D02*
X116674000Y-130260000D01*
X116614000Y-132920000D02*
X116614000Y-130260000D01*
X121814000Y-132920000D02*
X121814000Y-130260000D01*
X116614000Y-132920000D02*
X116674000Y-132920000D01*
X121754000Y-130260000D02*
X121814000Y-130260000D01*
X116674000Y-130260000D02*
X116674000Y-128800000D01*
X138457641Y-84605000D02*
X138150359Y-84605000D01*
X138457641Y-83845000D02*
X138150359Y-83845000D01*
X148274000Y-64200000D02*
X148274000Y-66150000D01*
X143154000Y-64200000D02*
X143154000Y-62250000D01*
X143154000Y-64200000D02*
X143154000Y-67650000D01*
X148274000Y-64200000D02*
X148274000Y-62250000D01*
X143510000Y-136712000D02*
X143510000Y-134052000D01*
X142240000Y-136712000D02*
X140910000Y-136712000D01*
X143510000Y-134052000D02*
X146110000Y-134052000D01*
X143510000Y-136712000D02*
X146110000Y-136712000D01*
X140910000Y-136712000D02*
X140910000Y-135382000D01*
X146110000Y-136712000D02*
X146110000Y-134052000D01*
X160694000Y-108256359D02*
X160694000Y-108563641D01*
X159934000Y-108256359D02*
X159934000Y-108563641D01*
X180564000Y-103690000D02*
X197264000Y-103690000D01*
X197264000Y-103690000D02*
X197264000Y-84490000D01*
X197264000Y-84490000D02*
X180564000Y-84490000D01*
X180564000Y-84490000D02*
X180564000Y-103690000D01*
X187502000Y-122913000D02*
X187502000Y-123213000D01*
X194002000Y-125535000D02*
X194002000Y-130035000D01*
X187502000Y-136675000D02*
X187502000Y-133175000D01*
X194002000Y-123213000D02*
X194002000Y-122913000D01*
X194002000Y-122913000D02*
X187502000Y-122913000D01*
X194002000Y-133175000D02*
X194002000Y-136675000D01*
X187502000Y-125535000D02*
X187502000Y-130035000D01*
X194002000Y-136675000D02*
X187502000Y-136675000D01*
D14*
X104090000Y-119550000D02*
G75*
G03*
X104090000Y-119550000I-50000J0D01*
G01*
D13*
X172078000Y-114400359D02*
X172078000Y-114707641D01*
X172838000Y-114400359D02*
X172838000Y-114707641D01*
X106272359Y-119170000D02*
X106579641Y-119170000D01*
X106272359Y-119930000D02*
X106579641Y-119930000D01*
X178942000Y-119531641D02*
X178942000Y-119224359D01*
X178182000Y-119531641D02*
X178182000Y-119224359D01*
G36*
X167030832Y-53242715D02*
G01*
X167177630Y-53243875D01*
X167306944Y-53245692D01*
X167414375Y-53248070D01*
X167495523Y-53250914D01*
X167545989Y-53254129D01*
X167561538Y-53257287D01*
X167548867Y-53274406D01*
X167512559Y-53317610D01*
X167455176Y-53383991D01*
X167379277Y-53470637D01*
X167287422Y-53574639D01*
X167182172Y-53693087D01*
X167066087Y-53823071D01*
X166947025Y-53955787D01*
X166332512Y-54639307D01*
X166863331Y-54644514D01*
X167003718Y-54646412D01*
X167131260Y-54649133D01*
X167240749Y-54652486D01*
X167326978Y-54656280D01*
X167384739Y-54660322D01*
X167408825Y-54664421D01*
X167409003Y-54664573D01*
X167397823Y-54680337D01*
X167360939Y-54721541D01*
X167300385Y-54786099D01*
X167218197Y-54871928D01*
X167116408Y-54976940D01*
X166997052Y-55099050D01*
X166862162Y-55236174D01*
X166713774Y-55386226D01*
X166553921Y-55547120D01*
X166384638Y-55716771D01*
X166308748Y-55792597D01*
X166136434Y-55964252D01*
X165972561Y-56126798D01*
X165819151Y-56278271D01*
X165678226Y-56416707D01*
X165551808Y-56540144D01*
X165441918Y-56646616D01*
X165350580Y-56734162D01*
X165279814Y-56800816D01*
X165231642Y-56844617D01*
X165208087Y-56863599D01*
X165206080Y-56863440D01*
X165210220Y-56850904D01*
X165217266Y-56832620D01*
X165228523Y-56805712D01*
X165245296Y-56767305D01*
X165268890Y-56714523D01*
X165300609Y-56644487D01*
X165341757Y-56554324D01*
X165393640Y-56441156D01*
X165457563Y-56302107D01*
X165534830Y-56134301D01*
X165626745Y-55934862D01*
X165661046Y-55860461D01*
X165744517Y-55679336D01*
X165813039Y-55530399D01*
X165868070Y-55410375D01*
X165911069Y-55315988D01*
X165943496Y-55243961D01*
X165966810Y-55191019D01*
X165982471Y-55153886D01*
X165991937Y-55129285D01*
X165996668Y-55113940D01*
X165998123Y-55104577D01*
X165998147Y-55103687D01*
X165988659Y-55095665D01*
X165957702Y-55089199D01*
X165901883Y-55084083D01*
X165817809Y-55080107D01*
X165702090Y-55077067D01*
X165551331Y-55074753D01*
X165518557Y-55074379D01*
X165038652Y-55069154D01*
X165120905Y-54942154D01*
X165167529Y-54868842D01*
X165225019Y-54776519D01*
X165284321Y-54679792D01*
X165314711Y-54629538D01*
X165364581Y-54547059D01*
X165428418Y-54442223D01*
X165499592Y-54325879D01*
X165571471Y-54208877D01*
X165607254Y-54150846D01*
X165683507Y-54027086D01*
X165768903Y-53888029D01*
X165854552Y-53748173D01*
X165931569Y-53622016D01*
X165954568Y-53584230D01*
X166012698Y-53489503D01*
X166065769Y-53404638D01*
X166109631Y-53336147D01*
X166140137Y-53290544D01*
X166150627Y-53276500D01*
X166161104Y-53267416D01*
X166177718Y-53260089D01*
X166204399Y-53254333D01*
X166245073Y-53249960D01*
X166303670Y-53246784D01*
X166384117Y-53244619D01*
X166490343Y-53243278D01*
X166626276Y-53242575D01*
X166795844Y-53242323D01*
X166870951Y-53242307D01*
X167030832Y-53242715D01*
G37*
G36*
X161852908Y-57074958D02*
G01*
X161951891Y-56904736D01*
X162013916Y-56798307D01*
X162051700Y-56733303D01*
X162106213Y-56639227D01*
X162174685Y-56520871D01*
X162254347Y-56383029D01*
X162342429Y-56230494D01*
X162436163Y-56068059D01*
X162532779Y-55900516D01*
X162589648Y-55801846D01*
X162687458Y-55632117D01*
X162784655Y-55463485D01*
X162878355Y-55300947D01*
X162965674Y-55149506D01*
X163043730Y-55014161D01*
X163109638Y-54899913D01*
X163160517Y-54811762D01*
X163181129Y-54776077D01*
X163243758Y-54667613D01*
X163309829Y-54553061D01*
X163372017Y-54445125D01*
X163423001Y-54356507D01*
X163428906Y-54346230D01*
X163510581Y-54204301D01*
X163610220Y-54031624D01*
X163728242Y-53827475D01*
X163865067Y-53591129D01*
X164021113Y-53321862D01*
X164044581Y-53281384D01*
X164123594Y-53144979D01*
X164210001Y-52995577D01*
X164297028Y-52844906D01*
X164377901Y-52704695D01*
X164445215Y-52587769D01*
X164517346Y-52462366D01*
X164596806Y-52324336D01*
X164675937Y-52186974D01*
X164747082Y-52063572D01*
X164777196Y-52011384D01*
X164845796Y-51892539D01*
X164922685Y-51759321D01*
X164998852Y-51627343D01*
X165065288Y-51512217D01*
X165070384Y-51503384D01*
X165181716Y-51310444D01*
X165275972Y-51147107D01*
X165355602Y-51009130D01*
X165423057Y-50892266D01*
X165480787Y-50792272D01*
X165531244Y-50704903D01*
X165576876Y-50625914D01*
X165620136Y-50551061D01*
X165651300Y-50497154D01*
X165711942Y-50391841D01*
X165783790Y-50266411D01*
X165858881Y-50134797D01*
X165929254Y-50010935D01*
X165946389Y-49980670D01*
X166035907Y-49828160D01*
X166114427Y-49708136D01*
X166185436Y-49616790D01*
X166252420Y-49550315D01*
X166318865Y-49504903D01*
X166388259Y-49476745D01*
X166413654Y-49470314D01*
X166496987Y-49456612D01*
X166569518Y-49458173D01*
X166635439Y-49470119D01*
X166713430Y-49496123D01*
X166785989Y-49540138D01*
X166857013Y-49606220D01*
X166930401Y-49698429D01*
X167010051Y-49820823D01*
X167068315Y-49920769D01*
X167131096Y-50031649D01*
X167201844Y-50155864D01*
X167282502Y-50296800D01*
X167375018Y-50457845D01*
X167481338Y-50642383D01*
X167603405Y-50853803D01*
X167743167Y-51095490D01*
X167747423Y-51102846D01*
X167814905Y-51219532D01*
X167895956Y-51359789D01*
X167984638Y-51513330D01*
X168075008Y-51669869D01*
X168161126Y-51819119D01*
X168193133Y-51874615D01*
X168275368Y-52017177D01*
X168363764Y-52170345D01*
X168452510Y-52324055D01*
X168535793Y-52468240D01*
X168607801Y-52592833D01*
X168633120Y-52636615D01*
X168763839Y-52862688D01*
X168903050Y-53103599D01*
X169046288Y-53351612D01*
X169189087Y-53598992D01*
X169326984Y-53838004D01*
X169455513Y-54060913D01*
X169570210Y-54259984D01*
X169600182Y-54312038D01*
X169777215Y-54619269D01*
X169948978Y-54916740D01*
X170124715Y-55220451D01*
X170257846Y-55450154D01*
X170407168Y-55707796D01*
X170537424Y-55932869D01*
X170648471Y-56125124D01*
X170740164Y-56284312D01*
X170812362Y-56410188D01*
X170849847Y-56475923D01*
X170891044Y-56547936D01*
X170944842Y-56641299D01*
X171004097Y-56743643D01*
X171058624Y-56837384D01*
X171117280Y-56938037D01*
X171187816Y-57059204D01*
X171262501Y-57187600D01*
X171333605Y-57309938D01*
X171353876Y-57344839D01*
X171518077Y-57627601D01*
X171518077Y-57776127D01*
X171516156Y-57858162D01*
X171507947Y-57916368D01*
X171489781Y-57965907D01*
X171458945Y-58020387D01*
X171383032Y-58113238D01*
X171304171Y-58175252D01*
X171208529Y-58234384D01*
X166556841Y-58237976D01*
X166046096Y-58238346D01*
X165573010Y-58238633D01*
X165136165Y-58238828D01*
X164734143Y-58238926D01*
X164365525Y-58238918D01*
X164028895Y-58238797D01*
X163722833Y-58238556D01*
X163445922Y-58238187D01*
X163196744Y-58237683D01*
X162973881Y-58237037D01*
X162775915Y-58236242D01*
X162601428Y-58235289D01*
X162449001Y-58234173D01*
X162317218Y-58232885D01*
X162204659Y-58231417D01*
X162109908Y-58229764D01*
X162031545Y-58227917D01*
X161968153Y-58225869D01*
X161918314Y-58223612D01*
X161880611Y-58221140D01*
X161853624Y-58218445D01*
X161835936Y-58215520D01*
X161828772Y-58213499D01*
X161713162Y-58151610D01*
X161622277Y-58063395D01*
X161559245Y-57955093D01*
X161527190Y-57832941D01*
X161529238Y-57703177D01*
X161542595Y-57642286D01*
X161550138Y-57620726D01*
X161563272Y-57591039D01*
X161583665Y-57550237D01*
X161612985Y-57495335D01*
X161652901Y-57423343D01*
X161705082Y-57331274D01*
X161733443Y-57281884D01*
X162808968Y-57281884D01*
X162813307Y-57284917D01*
X162832319Y-57287703D01*
X162867395Y-57290252D01*
X162919926Y-57292574D01*
X162991304Y-57294677D01*
X163082919Y-57296571D01*
X163196163Y-57298265D01*
X163332427Y-57299767D01*
X163493101Y-57301088D01*
X163679576Y-57302236D01*
X163893244Y-57303220D01*
X164135496Y-57304049D01*
X164407723Y-57304734D01*
X164711315Y-57305282D01*
X165047664Y-57305703D01*
X165418161Y-57306006D01*
X165824197Y-57306200D01*
X166267163Y-57306294D01*
X166523852Y-57306307D01*
X170258336Y-57306307D01*
X170209381Y-57228758D01*
X170181762Y-57183475D01*
X170139857Y-57112894D01*
X170088750Y-57025653D01*
X170033521Y-56930395D01*
X170016877Y-56901489D01*
X169949201Y-56783878D01*
X169871608Y-56649215D01*
X169793761Y-56514265D01*
X169726470Y-56397769D01*
X169658678Y-56280470D01*
X169580708Y-56145489D01*
X169501901Y-56008997D01*
X169431595Y-55887165D01*
X169427461Y-55880000D01*
X169358068Y-55759718D01*
X169279582Y-55623704D01*
X169201336Y-55488128D01*
X169132659Y-55369158D01*
X169128659Y-55362230D01*
X169067551Y-55256371D01*
X168994072Y-55129050D01*
X168915372Y-54992657D01*
X168838600Y-54859584D01*
X168796066Y-54785846D01*
X168721246Y-54656158D01*
X168637606Y-54511238D01*
X168553174Y-54364992D01*
X168475978Y-54231327D01*
X168440769Y-54170384D01*
X168299861Y-53926517D01*
X168177319Y-53714391D01*
X168071939Y-53531922D01*
X167982518Y-53377027D01*
X167907853Y-53247623D01*
X167846743Y-53141626D01*
X167797984Y-53056952D01*
X167786595Y-53037154D01*
X167738167Y-52953068D01*
X167677309Y-52847588D01*
X167611187Y-52733125D01*
X167546967Y-52622091D01*
X167535582Y-52602423D01*
X167342854Y-52269135D01*
X167140163Y-51917844D01*
X166943702Y-51576654D01*
X166839715Y-51396080D01*
X166749466Y-51239795D01*
X166674108Y-51109780D01*
X166614793Y-51008021D01*
X166572672Y-50936500D01*
X166550899Y-50900396D01*
X166536287Y-50879341D01*
X166523038Y-50874018D01*
X166505967Y-50888975D01*
X166479891Y-50928758D01*
X166439624Y-50997914D01*
X166439524Y-50998088D01*
X166378762Y-51103618D01*
X166299751Y-51240634D01*
X166203833Y-51406810D01*
X166092350Y-51599821D01*
X165966646Y-51817343D01*
X165871412Y-51982077D01*
X165799314Y-52106871D01*
X165722021Y-52240823D01*
X165646210Y-52372348D01*
X165578560Y-52489865D01*
X165539134Y-52558461D01*
X165472978Y-52673540D01*
X165396703Y-52806005D01*
X165319775Y-52939427D01*
X165252056Y-53056692D01*
X165182954Y-53176295D01*
X165104224Y-53312687D01*
X165025693Y-53448835D01*
X164958926Y-53564692D01*
X164902689Y-53662208D01*
X164832672Y-53783418D01*
X164754714Y-53918225D01*
X164674655Y-54056529D01*
X164598337Y-54188232D01*
X164591692Y-54199692D01*
X164516010Y-54330278D01*
X164436045Y-54468397D01*
X164357639Y-54603950D01*
X164286631Y-54726838D01*
X164228865Y-54826962D01*
X164224411Y-54834692D01*
X164155464Y-54954295D01*
X164076773Y-55090687D01*
X163998168Y-55226835D01*
X163931222Y-55342692D01*
X163862973Y-55460809D01*
X163785917Y-55594291D01*
X163709534Y-55726705D01*
X163643710Y-55840923D01*
X163578674Y-55953791D01*
X163503082Y-56084886D01*
X163425934Y-56218603D01*
X163356232Y-56339338D01*
X163350695Y-56348923D01*
X163287356Y-56458717D01*
X163211959Y-56589633D01*
X163131862Y-56728881D01*
X163054425Y-56863670D01*
X163013451Y-56935077D01*
X162954403Y-57037545D01*
X162901050Y-57129200D01*
X162856786Y-57204283D01*
X162825006Y-57257040D01*
X162809103Y-57281715D01*
X162808968Y-57281884D01*
X161733443Y-57281884D01*
X161771194Y-57216142D01*
X161852908Y-57074958D01*
G37*
X177342000Y-119224359D02*
X177342000Y-119531641D01*
X176582000Y-119224359D02*
X176582000Y-119531641D01*
X117790000Y-114554000D02*
G75*
G03*
X117790000Y-114554000I-950000J0D01*
G01*
X106272359Y-120524000D02*
X106579641Y-120524000D01*
X106272359Y-121284000D02*
X106579641Y-121284000D01*
D15*
X101744000Y-135445000D02*
X100244000Y-135445000D01*
X100244000Y-133705000D02*
X101744000Y-133705000D01*
D16*
X102624000Y-135000000D02*
G75*
G03*
X102624000Y-135000000I-80000J0D01*
G01*
D13*
X132714000Y-86200000D02*
X134914000Y-86200000D01*
X132714000Y-80980000D02*
X129114000Y-80980000D01*
X132714000Y-80980000D02*
X134914000Y-80980000D01*
X132714000Y-86200000D02*
X130514000Y-86200000D01*
X166050000Y-122428000D02*
G75*
G03*
X166050000Y-122428000I-950000J0D01*
G01*
X132047641Y-113210000D02*
X131740359Y-113210000D01*
X132047641Y-113970000D02*
X131740359Y-113970000D01*
X169484000Y-66288164D02*
X169484000Y-66503836D01*
X170204000Y-66288164D02*
X170204000Y-66503836D01*
X176464000Y-122428000D02*
G75*
G03*
X176464000Y-122428000I-950000J0D01*
G01*
X165464000Y-107580000D02*
X163264000Y-107580000D01*
X165464000Y-112800000D02*
X163264000Y-112800000D01*
X165464000Y-107580000D02*
X167664000Y-107580000D01*
X165464000Y-112800000D02*
X169064000Y-112800000D01*
X126957641Y-86232000D02*
X126650359Y-86232000D01*
X126957641Y-85472000D02*
X126650359Y-85472000D01*
X100586000Y-81603936D02*
X100586000Y-85708064D01*
X104006000Y-81603936D02*
X104006000Y-85708064D01*
X106272359Y-115696000D02*
X106579641Y-115696000D01*
X106272359Y-114936000D02*
X106579641Y-114936000D01*
X108069000Y-133515000D02*
X108069000Y-133215000D01*
X105349000Y-135935000D02*
X105949000Y-135935000D01*
X108069000Y-135635000D02*
X108069000Y-135935000D01*
X108069000Y-135935000D02*
X107469000Y-135935000D01*
X105349000Y-133215000D02*
X105949000Y-133215000D01*
X105349000Y-135635000D02*
X105349000Y-135935000D01*
X105349000Y-133515000D02*
X105349000Y-133215000D01*
X188844000Y-117743641D02*
X188844000Y-117436359D01*
X188084000Y-117743641D02*
X188084000Y-117436359D01*
X189067641Y-104610000D02*
X188760359Y-104610000D01*
X189067641Y-105370000D02*
X188760359Y-105370000D01*
D10*
X100346000Y-89086000D02*
X100346000Y-101086000D01*
X104246000Y-101086000D02*
X100346000Y-101086000D01*
X104246000Y-89086000D02*
X104246000Y-101086000D01*
X104246000Y-89086000D02*
X100346000Y-89086000D01*
D13*
X106272359Y-116206000D02*
X106579641Y-116206000D01*
X106272359Y-116966000D02*
X106579641Y-116966000D01*
X126259000Y-59105000D02*
X126259000Y-57155000D01*
X121139000Y-59105000D02*
X121139000Y-62555000D01*
X121139000Y-59105000D02*
X121139000Y-57155000D01*
X126259000Y-59105000D02*
X126259000Y-61055000D01*
X158134000Y-108563641D02*
X158134000Y-108256359D01*
X158894000Y-108563641D02*
X158894000Y-108256359D01*
X190344000Y-117436359D02*
X190344000Y-117743641D01*
X189584000Y-117436359D02*
X189584000Y-117743641D01*
X126090000Y-83938164D02*
X126090000Y-84153836D01*
X125370000Y-83938164D02*
X125370000Y-84153836D01*
X163639000Y-69105000D02*
X163639000Y-72555000D01*
X163639000Y-69105000D02*
X163639000Y-67155000D01*
X168759000Y-69105000D02*
X168759000Y-71055000D01*
X168759000Y-69105000D02*
X168759000Y-67155000D01*
X189934000Y-83710000D02*
X189934000Y-83380000D01*
X183394000Y-80970000D02*
X189934000Y-80970000D01*
X189934000Y-80970000D02*
X189934000Y-81300000D01*
X183394000Y-83380000D02*
X183394000Y-83710000D01*
X183394000Y-83710000D02*
X189934000Y-83710000D01*
X183394000Y-81300000D02*
X183394000Y-80970000D01*
X160624000Y-126746000D02*
X160624000Y-125416000D01*
X163284000Y-128016000D02*
X163284000Y-133156000D01*
X160624000Y-128016000D02*
X160624000Y-133156000D01*
X160624000Y-128016000D02*
X163284000Y-128016000D01*
X160624000Y-133156000D02*
X163284000Y-133156000D01*
X160624000Y-125416000D02*
X161954000Y-125416000D01*
X145642000Y-80970000D02*
X152182000Y-80970000D01*
X152182000Y-83710000D02*
X152182000Y-83380000D01*
X145642000Y-83710000D02*
X152182000Y-83710000D01*
X152182000Y-80970000D02*
X152182000Y-81300000D01*
X145642000Y-83380000D02*
X145642000Y-83710000D01*
X145642000Y-81300000D02*
X145642000Y-80970000D01*
X126894000Y-83938164D02*
X126894000Y-84153836D01*
X127614000Y-83938164D02*
X127614000Y-84153836D01*
X170317641Y-104610000D02*
X170010359Y-104610000D01*
X170317641Y-105370000D02*
X170010359Y-105370000D01*
X124058000Y-108205748D02*
X124058000Y-109628252D01*
X125878000Y-108205748D02*
X125878000Y-109628252D01*
X186624000Y-122682000D02*
G75*
G03*
X186624000Y-122682000I-950000J0D01*
G01*
X122619000Y-79685000D02*
X106619000Y-79685000D01*
X106619000Y-79685000D02*
X106619000Y-109685000D01*
X106619000Y-109685000D02*
X122619000Y-109685000D01*
X122619000Y-109685000D02*
X122619000Y-79685000D01*
X141560000Y-66756164D02*
X141560000Y-66971836D01*
X142280000Y-66756164D02*
X142280000Y-66971836D01*
X124058000Y-103278252D02*
X124058000Y-101855748D01*
X125878000Y-103278252D02*
X125878000Y-101855748D01*
X167182000Y-122913000D02*
X167182000Y-123213000D01*
X173682000Y-136675000D02*
X167182000Y-136675000D01*
X173682000Y-125535000D02*
X173682000Y-130035000D01*
X173682000Y-123213000D02*
X173682000Y-122913000D01*
X167182000Y-125535000D02*
X167182000Y-130035000D01*
X173682000Y-133175000D02*
X173682000Y-136675000D01*
X167182000Y-136675000D02*
X167182000Y-133175000D01*
X173682000Y-122913000D02*
X167182000Y-122913000D01*
X142347836Y-129688000D02*
X142132164Y-129688000D01*
X142347836Y-130408000D02*
X142132164Y-130408000D01*
X161814000Y-103690000D02*
X178514000Y-103690000D01*
X178514000Y-103690000D02*
X178514000Y-84490000D01*
X178514000Y-84490000D02*
X161814000Y-84490000D01*
X161814000Y-84490000D02*
X161814000Y-103690000D01*
X132037641Y-114610000D02*
X131730359Y-114610000D01*
X132037641Y-115370000D02*
X131730359Y-115370000D01*
X155974000Y-128016000D02*
X158634000Y-128016000D01*
X155974000Y-126746000D02*
X155974000Y-125416000D01*
X158634000Y-128016000D02*
X158634000Y-133156000D01*
X155974000Y-128016000D02*
X155974000Y-133156000D01*
X155974000Y-125416000D02*
X157304000Y-125416000D01*
X155974000Y-133156000D02*
X158634000Y-133156000D01*
D15*
X103207500Y-116461000D02*
X103480500Y-116461000D01*
X103207500Y-115511000D02*
X103480500Y-115511000D01*
D17*
X101944000Y-115586000D02*
G75*
G03*
X101944000Y-115586000I-100000J0D01*
G01*
G36*
X118672908Y-74092958D02*
G01*
X118771891Y-73922736D01*
X118833916Y-73816307D01*
X118871700Y-73751303D01*
X118926213Y-73657227D01*
X118994685Y-73538871D01*
X119074347Y-73401029D01*
X119162429Y-73248494D01*
X119256163Y-73086059D01*
X119352779Y-72918516D01*
X119409648Y-72819846D01*
X119507458Y-72650117D01*
X119604655Y-72481485D01*
X119698355Y-72318947D01*
X119785674Y-72167506D01*
X119863730Y-72032161D01*
X119929638Y-71917913D01*
X119980517Y-71829762D01*
X120001129Y-71794077D01*
X120063758Y-71685613D01*
X120129829Y-71571061D01*
X120192017Y-71463125D01*
X120243001Y-71374507D01*
X120248906Y-71364230D01*
X120330581Y-71222301D01*
X120430220Y-71049624D01*
X120548242Y-70845475D01*
X120685067Y-70609129D01*
X120841113Y-70339862D01*
X120864581Y-70299384D01*
X120943594Y-70162979D01*
X121030001Y-70013577D01*
X121117028Y-69862906D01*
X121197901Y-69722695D01*
X121265215Y-69605769D01*
X121337346Y-69480366D01*
X121416806Y-69342336D01*
X121495937Y-69204974D01*
X121567082Y-69081572D01*
X121597196Y-69029384D01*
X121665796Y-68910539D01*
X121742685Y-68777321D01*
X121818852Y-68645343D01*
X121885288Y-68530217D01*
X121890384Y-68521384D01*
X122001716Y-68328444D01*
X122095972Y-68165107D01*
X122175602Y-68027130D01*
X122243057Y-67910266D01*
X122300787Y-67810272D01*
X122351244Y-67722903D01*
X122396876Y-67643914D01*
X122440136Y-67569061D01*
X122471300Y-67515154D01*
X122531942Y-67409841D01*
X122603790Y-67284411D01*
X122678881Y-67152797D01*
X122749254Y-67028935D01*
X122766389Y-66998670D01*
X122855907Y-66846160D01*
X122934427Y-66726136D01*
X123005436Y-66634790D01*
X123072420Y-66568315D01*
X123138865Y-66522903D01*
X123208259Y-66494745D01*
X123233654Y-66488314D01*
X123316987Y-66474612D01*
X123389518Y-66476173D01*
X123455439Y-66488119D01*
X123533430Y-66514123D01*
X123605989Y-66558138D01*
X123677013Y-66624220D01*
X123750401Y-66716429D01*
X123830051Y-66838823D01*
X123888315Y-66938769D01*
X123951096Y-67049649D01*
X124021844Y-67173864D01*
X124102502Y-67314800D01*
X124195018Y-67475845D01*
X124301338Y-67660383D01*
X124423405Y-67871803D01*
X124563167Y-68113490D01*
X124567423Y-68120846D01*
X124634905Y-68237532D01*
X124715956Y-68377789D01*
X124804638Y-68531330D01*
X124895008Y-68687869D01*
X124981126Y-68837119D01*
X125013133Y-68892615D01*
X125095368Y-69035177D01*
X125183764Y-69188345D01*
X125272510Y-69342055D01*
X125355793Y-69486240D01*
X125427801Y-69610833D01*
X125453120Y-69654615D01*
X125583839Y-69880688D01*
X125723050Y-70121599D01*
X125866288Y-70369612D01*
X126009087Y-70616992D01*
X126146984Y-70856004D01*
X126275513Y-71078913D01*
X126390210Y-71277984D01*
X126420182Y-71330038D01*
X126597215Y-71637269D01*
X126768978Y-71934740D01*
X126944715Y-72238451D01*
X127077846Y-72468154D01*
X127227168Y-72725796D01*
X127357424Y-72950869D01*
X127468471Y-73143124D01*
X127560164Y-73302312D01*
X127632362Y-73428188D01*
X127669847Y-73493923D01*
X127711044Y-73565936D01*
X127764842Y-73659299D01*
X127824097Y-73761643D01*
X127878624Y-73855384D01*
X127937280Y-73956037D01*
X128007816Y-74077204D01*
X128082501Y-74205600D01*
X128153605Y-74327938D01*
X128173876Y-74362839D01*
X128338077Y-74645601D01*
X128338077Y-74794127D01*
X128336156Y-74876162D01*
X128327947Y-74934368D01*
X128309781Y-74983907D01*
X128278945Y-75038387D01*
X128203032Y-75131238D01*
X128124171Y-75193252D01*
X128028529Y-75252384D01*
X123376841Y-75255976D01*
X122866096Y-75256346D01*
X122393010Y-75256633D01*
X121956165Y-75256828D01*
X121554143Y-75256926D01*
X121185525Y-75256918D01*
X120848895Y-75256797D01*
X120542833Y-75256556D01*
X120265922Y-75256187D01*
X120016744Y-75255683D01*
X119793881Y-75255037D01*
X119595915Y-75254242D01*
X119421428Y-75253289D01*
X119269001Y-75252173D01*
X119137218Y-75250885D01*
X119024659Y-75249417D01*
X118929908Y-75247764D01*
X118851545Y-75245917D01*
X118788153Y-75243869D01*
X118738314Y-75241612D01*
X118700611Y-75239140D01*
X118673624Y-75236445D01*
X118655936Y-75233520D01*
X118648772Y-75231499D01*
X118533162Y-75169610D01*
X118442277Y-75081395D01*
X118379245Y-74973093D01*
X118347190Y-74850941D01*
X118349238Y-74721177D01*
X118362595Y-74660286D01*
X118370138Y-74638726D01*
X118383272Y-74609039D01*
X118403665Y-74568237D01*
X118432985Y-74513335D01*
X118472901Y-74441343D01*
X118525082Y-74349274D01*
X118553443Y-74299884D01*
X119628968Y-74299884D01*
X119633307Y-74302917D01*
X119652319Y-74305703D01*
X119687395Y-74308252D01*
X119739926Y-74310574D01*
X119811304Y-74312677D01*
X119902919Y-74314571D01*
X120016163Y-74316265D01*
X120152427Y-74317767D01*
X120313101Y-74319088D01*
X120499576Y-74320236D01*
X120713244Y-74321220D01*
X120955496Y-74322049D01*
X121227723Y-74322734D01*
X121531315Y-74323282D01*
X121867664Y-74323703D01*
X122238161Y-74324006D01*
X122644197Y-74324200D01*
X123087163Y-74324294D01*
X123343852Y-74324307D01*
X127078336Y-74324307D01*
X127029381Y-74246758D01*
X127001762Y-74201475D01*
X126959857Y-74130894D01*
X126908750Y-74043653D01*
X126853521Y-73948395D01*
X126836877Y-73919489D01*
X126769201Y-73801878D01*
X126691608Y-73667215D01*
X126613761Y-73532265D01*
X126546470Y-73415769D01*
X126478678Y-73298470D01*
X126400708Y-73163489D01*
X126321901Y-73026997D01*
X126251595Y-72905165D01*
X126247461Y-72898000D01*
X126178068Y-72777718D01*
X126099582Y-72641704D01*
X126021336Y-72506128D01*
X125952659Y-72387158D01*
X125948659Y-72380230D01*
X125887551Y-72274371D01*
X125814072Y-72147050D01*
X125735372Y-72010657D01*
X125658600Y-71877584D01*
X125616066Y-71803846D01*
X125541246Y-71674158D01*
X125457606Y-71529238D01*
X125373174Y-71382992D01*
X125295978Y-71249327D01*
X125260769Y-71188384D01*
X125119861Y-70944517D01*
X124997319Y-70732391D01*
X124891939Y-70549922D01*
X124802518Y-70395027D01*
X124727853Y-70265623D01*
X124666743Y-70159626D01*
X124617984Y-70074952D01*
X124606595Y-70055154D01*
X124558167Y-69971068D01*
X124497309Y-69865588D01*
X124431187Y-69751125D01*
X124366967Y-69640091D01*
X124355582Y-69620423D01*
X124162854Y-69287135D01*
X123960163Y-68935844D01*
X123763702Y-68594654D01*
X123659715Y-68414080D01*
X123569466Y-68257795D01*
X123494108Y-68127780D01*
X123434793Y-68026021D01*
X123392672Y-67954500D01*
X123370899Y-67918396D01*
X123356287Y-67897341D01*
X123343038Y-67892018D01*
X123325967Y-67906975D01*
X123299891Y-67946758D01*
X123259624Y-68015914D01*
X123259524Y-68016088D01*
X123198762Y-68121618D01*
X123119751Y-68258634D01*
X123023833Y-68424810D01*
X122912350Y-68617821D01*
X122786646Y-68835343D01*
X122691412Y-69000077D01*
X122619314Y-69124871D01*
X122542021Y-69258823D01*
X122466210Y-69390348D01*
X122398560Y-69507865D01*
X122359134Y-69576461D01*
X122292978Y-69691540D01*
X122216703Y-69824005D01*
X122139775Y-69957427D01*
X122072056Y-70074692D01*
X122002954Y-70194295D01*
X121924224Y-70330687D01*
X121845693Y-70466835D01*
X121778926Y-70582692D01*
X121722689Y-70680208D01*
X121652672Y-70801418D01*
X121574714Y-70936225D01*
X121494655Y-71074529D01*
X121418337Y-71206232D01*
X121411692Y-71217692D01*
X121336010Y-71348278D01*
X121256045Y-71486397D01*
X121177639Y-71621950D01*
X121106631Y-71744838D01*
X121048865Y-71844962D01*
X121044411Y-71852692D01*
X120975464Y-71972295D01*
X120896773Y-72108687D01*
X120818168Y-72244835D01*
X120751222Y-72360692D01*
X120682973Y-72478809D01*
X120605917Y-72612291D01*
X120529534Y-72744705D01*
X120463710Y-72858923D01*
X120398674Y-72971791D01*
X120323082Y-73102886D01*
X120245934Y-73236603D01*
X120176232Y-73357338D01*
X120170695Y-73366923D01*
X120107356Y-73476717D01*
X120031959Y-73607633D01*
X119951862Y-73746881D01*
X119874425Y-73881670D01*
X119833451Y-73953077D01*
X119774403Y-74055545D01*
X119721050Y-74147200D01*
X119676786Y-74222283D01*
X119645006Y-74275040D01*
X119629103Y-74299715D01*
X119628968Y-74299884D01*
X118553443Y-74299884D01*
X118591194Y-74234142D01*
X118672908Y-74092958D01*
G37*
G36*
X123850832Y-70260715D02*
G01*
X123997630Y-70261875D01*
X124126944Y-70263692D01*
X124234375Y-70266070D01*
X124315523Y-70268914D01*
X124365989Y-70272129D01*
X124381538Y-70275287D01*
X124368867Y-70292406D01*
X124332559Y-70335610D01*
X124275176Y-70401991D01*
X124199277Y-70488637D01*
X124107422Y-70592639D01*
X124002172Y-70711087D01*
X123886087Y-70841071D01*
X123767025Y-70973787D01*
X123152512Y-71657307D01*
X123683331Y-71662514D01*
X123823718Y-71664412D01*
X123951260Y-71667133D01*
X124060749Y-71670486D01*
X124146978Y-71674280D01*
X124204739Y-71678322D01*
X124228825Y-71682421D01*
X124229003Y-71682573D01*
X124217823Y-71698337D01*
X124180939Y-71739541D01*
X124120385Y-71804099D01*
X124038197Y-71889928D01*
X123936408Y-71994940D01*
X123817052Y-72117050D01*
X123682162Y-72254174D01*
X123533774Y-72404226D01*
X123373921Y-72565120D01*
X123204638Y-72734771D01*
X123128748Y-72810597D01*
X122956434Y-72982252D01*
X122792561Y-73144798D01*
X122639151Y-73296271D01*
X122498226Y-73434707D01*
X122371808Y-73558144D01*
X122261918Y-73664616D01*
X122170580Y-73752162D01*
X122099814Y-73818816D01*
X122051642Y-73862617D01*
X122028087Y-73881599D01*
X122026080Y-73881440D01*
X122030220Y-73868904D01*
X122037266Y-73850620D01*
X122048523Y-73823712D01*
X122065296Y-73785305D01*
X122088890Y-73732523D01*
X122120609Y-73662487D01*
X122161757Y-73572324D01*
X122213640Y-73459156D01*
X122277563Y-73320107D01*
X122354830Y-73152301D01*
X122446745Y-72952862D01*
X122481046Y-72878461D01*
X122564517Y-72697336D01*
X122633039Y-72548399D01*
X122688070Y-72428375D01*
X122731069Y-72333988D01*
X122763496Y-72261961D01*
X122786810Y-72209019D01*
X122802471Y-72171886D01*
X122811937Y-72147285D01*
X122816668Y-72131940D01*
X122818123Y-72122577D01*
X122818147Y-72121687D01*
X122808659Y-72113665D01*
X122777702Y-72107199D01*
X122721883Y-72102083D01*
X122637809Y-72098107D01*
X122522090Y-72095067D01*
X122371331Y-72092753D01*
X122338557Y-72092379D01*
X121858652Y-72087154D01*
X121940905Y-71960154D01*
X121987529Y-71886842D01*
X122045019Y-71794519D01*
X122104321Y-71697792D01*
X122134711Y-71647538D01*
X122184581Y-71565059D01*
X122248418Y-71460223D01*
X122319592Y-71343879D01*
X122391471Y-71226877D01*
X122427254Y-71168846D01*
X122503507Y-71045086D01*
X122588903Y-70906029D01*
X122674552Y-70766173D01*
X122751569Y-70640016D01*
X122774568Y-70602230D01*
X122832698Y-70507503D01*
X122885769Y-70422638D01*
X122929631Y-70354147D01*
X122960137Y-70308544D01*
X122970627Y-70294500D01*
X122981104Y-70285416D01*
X122997718Y-70278089D01*
X123024399Y-70272333D01*
X123065073Y-70267960D01*
X123123670Y-70264784D01*
X123204117Y-70262619D01*
X123310343Y-70261278D01*
X123446276Y-70260575D01*
X123615844Y-70260323D01*
X123690951Y-70260307D01*
X123850832Y-70260715D01*
G37*
D13*
X106272359Y-118230000D02*
X106579641Y-118230000D01*
X106272359Y-117470000D02*
X106579641Y-117470000D01*
D14*
X104055000Y-120850000D02*
G75*
G03*
X104055000Y-120850000I-50000J0D01*
G01*
D13*
X171068000Y-114707641D02*
X171068000Y-114400359D01*
X170308000Y-114707641D02*
X170308000Y-114400359D01*
X146746000Y-106172000D02*
G75*
G03*
X146746000Y-106172000I-950000J0D01*
G01*
X134673641Y-89157000D02*
X134366359Y-89157000D01*
X134673641Y-88397000D02*
X134366359Y-88397000D01*
X106601164Y-131040000D02*
X106816836Y-131040000D01*
X106601164Y-131760000D02*
X106816836Y-131760000D01*
X127248000Y-56422164D02*
X127248000Y-56637836D01*
X127968000Y-56422164D02*
X127968000Y-56637836D01*
X99214000Y-56340000D02*
X111814000Y-56340000D01*
X101614000Y-76640000D02*
X101914000Y-77190000D01*
X107014000Y-76640000D02*
X101614000Y-76640000D01*
X101914000Y-77190000D02*
X99864000Y-77190000D01*
X106764000Y-77140000D02*
X107014000Y-76640000D01*
X111814000Y-77140000D02*
X106764000Y-77140000D01*
X99864000Y-77190000D02*
X100164000Y-76640000D01*
X100164000Y-76640000D02*
X99214000Y-76640000D01*
X111814000Y-56340000D02*
X111814000Y-77140000D01*
X99214000Y-76640000D02*
X99214000Y-56340000D01*
X176932000Y-116252164D02*
X176932000Y-116467836D01*
X177652000Y-116252164D02*
X177652000Y-116467836D01*
X183494000Y-113145000D02*
X179894000Y-113145000D01*
X183494000Y-118365000D02*
X181294000Y-118365000D01*
X183494000Y-118365000D02*
X185694000Y-118365000D01*
X183494000Y-113145000D02*
X185694000Y-113145000D01*
X126291641Y-80392000D02*
X125984359Y-80392000D01*
X126291641Y-81152000D02*
X125984359Y-81152000D01*
X164518000Y-81300000D02*
X164518000Y-80970000D01*
X164518000Y-80970000D02*
X171058000Y-80970000D01*
X171058000Y-83710000D02*
X171058000Y-83380000D01*
X171058000Y-80970000D02*
X171058000Y-81300000D01*
X164518000Y-83380000D02*
X164518000Y-83710000D01*
X164518000Y-83710000D02*
X171058000Y-83710000D01*
X129492000Y-56422164D02*
X129492000Y-56637836D01*
X128772000Y-56422164D02*
X128772000Y-56637836D01*
X161880000Y-71610164D02*
X161880000Y-71825836D01*
X162600000Y-71610164D02*
X162600000Y-71825836D01*
X136990000Y-136844000D02*
X123990000Y-136844000D01*
X123990000Y-136844000D02*
X123990000Y-117844000D01*
X123990000Y-117844000D02*
X136990000Y-117844000D01*
X136990000Y-117844000D02*
X136990000Y-136844000D01*
X127740000Y-90692000D02*
X127740000Y-95762000D01*
X137510000Y-90692000D02*
X137510000Y-95762000D01*
X127740000Y-95762000D02*
X137510000Y-95762000D01*
X127740000Y-90692000D02*
X137510000Y-90692000D01*
X143064000Y-103690000D02*
X159764000Y-103690000D01*
X159764000Y-103690000D02*
X159764000Y-84490000D01*
X159764000Y-84490000D02*
X143064000Y-84490000D01*
X143064000Y-84490000D02*
X143064000Y-103690000D01*
X180745641Y-122554000D02*
X180438359Y-122554000D01*
X180745641Y-121794000D02*
X180438359Y-121794000D01*
X183576000Y-106172000D02*
G75*
G03*
X183576000Y-106172000I-950000J0D01*
G01*
X120436000Y-61732164D02*
X120436000Y-61947836D01*
X119716000Y-61732164D02*
X119716000Y-61947836D01*
X125984359Y-81662000D02*
X126291641Y-81662000D01*
X125984359Y-82422000D02*
X126291641Y-82422000D01*
X145730000Y-132334000D02*
G75*
G03*
X145730000Y-132334000I-950000J0D01*
G01*
X144672164Y-129688000D02*
X144887836Y-129688000D01*
X144672164Y-130408000D02*
X144887836Y-130408000D01*
X143190000Y-132334000D02*
G75*
G03*
X143190000Y-132334000I-950000J0D01*
G01*
X177344000Y-114043641D02*
X177344000Y-113736359D01*
X176584000Y-114043641D02*
X176584000Y-113736359D01*
X138150359Y-85115000D02*
X138457641Y-85115000D01*
X138150359Y-85875000D02*
X138457641Y-85875000D01*
X197314000Y-76665000D02*
X184714000Y-76665000D01*
X194914000Y-56365000D02*
X194614000Y-55815000D01*
X184714000Y-76665000D02*
X184714000Y-55865000D01*
X194614000Y-55815000D02*
X196664000Y-55815000D01*
X196364000Y-56365000D02*
X197314000Y-56365000D01*
X189764000Y-55865000D02*
X189514000Y-56365000D01*
X196664000Y-55815000D02*
X196364000Y-56365000D01*
X184714000Y-55865000D02*
X189764000Y-55865000D01*
X197314000Y-56365000D02*
X197314000Y-76665000D01*
X189514000Y-56365000D02*
X194914000Y-56365000D01*
X171852000Y-110608164D02*
X171852000Y-110823836D01*
X172572000Y-110608164D02*
X172572000Y-110823836D01*
X171934000Y-108481641D02*
X171934000Y-108174359D01*
X172694000Y-108481641D02*
X172694000Y-108174359D01*
X132021836Y-116130000D02*
X131806164Y-116130000D01*
X132021836Y-116850000D02*
X131806164Y-116850000D01*
%LPC*%
D18*
X182992000Y-128293000D03*
X178192000Y-128293000D03*
D19*
X183392000Y-131593000D03*
X177792000Y-131593000D03*
X178392000Y-124293000D03*
X182792000Y-124293000D03*
D20*
X191262000Y-122174000D03*
X190242000Y-122174000D03*
D21*
X128102000Y-102946000D03*
D22*
X134402000Y-105246000D03*
D21*
X128102000Y-105246000D03*
X128102000Y-107546000D03*
D18*
X120650000Y-114554000D03*
D23*
X126294000Y-87122000D03*
X127314000Y-87122000D03*
D24*
X178816000Y-115880000D03*
X178816000Y-116840000D03*
D25*
X170544000Y-107818000D03*
X170544000Y-108838000D03*
D20*
X170942000Y-122174000D03*
X169922000Y-122174000D03*
D24*
X171308000Y-65889000D03*
X171308000Y-66849000D03*
D20*
X151924000Y-104990000D03*
X150904000Y-104990000D03*
D24*
X151088000Y-61110000D03*
X151088000Y-62070000D03*
D18*
X164084000Y-106172000D03*
D26*
X137424000Y-112776000D03*
D27*
X139964000Y-112776000D03*
X142504000Y-112776000D03*
X145044000Y-112776000D03*
D24*
X149564000Y-61110000D03*
X149564000Y-62070000D03*
D20*
X131345000Y-88777000D03*
X130325000Y-88777000D03*
D24*
X170688000Y-110236000D03*
X170688000Y-111196000D03*
D18*
X188468000Y-110236000D03*
D28*
X101474000Y-132035000D03*
X100514000Y-132035000D03*
D26*
X152654000Y-126746000D03*
D27*
X152654000Y-129286000D03*
X152654000Y-131826000D03*
D25*
X178564000Y-113380000D03*
X178564000Y-114400000D03*
D29*
X117309000Y-129790000D03*
X117309000Y-133390000D03*
X118579000Y-129790000D03*
X118579000Y-133390000D03*
X119849000Y-129790000D03*
X119849000Y-133390000D03*
X121119000Y-129790000D03*
X121119000Y-133390000D03*
D20*
X138814000Y-84225000D03*
X137794000Y-84225000D03*
D30*
X145714000Y-70090000D03*
X145714000Y-58090000D03*
D31*
X143809000Y-66675000D03*
X145079000Y-66675000D03*
X146349000Y-66675000D03*
X147619000Y-66675000D03*
X147619000Y-61725000D03*
X146349000Y-61725000D03*
X145079000Y-61725000D03*
X143809000Y-61725000D03*
D26*
X142240000Y-135382000D03*
D27*
X144780000Y-135382000D03*
D25*
X160314000Y-107900000D03*
X160314000Y-108920000D03*
D32*
X182564000Y-89090000D03*
D33*
X195264000Y-89090000D03*
X195264000Y-99090000D03*
X182564000Y-99090000D03*
D18*
X193152000Y-128293000D03*
X188352000Y-128293000D03*
D19*
X193552000Y-131593000D03*
X187952000Y-131593000D03*
X188552000Y-124293000D03*
X192952000Y-124293000D03*
D34*
X103435000Y-119550000D03*
X102465000Y-119550000D03*
D25*
X172458000Y-114044000D03*
X172458000Y-115064000D03*
D23*
X105916000Y-119550000D03*
X106936000Y-119550000D03*
D35*
X178562000Y-119888000D03*
X178562000Y-118868000D03*
D25*
X176962000Y-118868000D03*
X176962000Y-119888000D03*
D18*
X116840000Y-114554000D03*
D23*
X105916000Y-120904000D03*
X106936000Y-120904000D03*
D36*
X101694000Y-134975000D03*
X101694000Y-134175000D03*
X100294000Y-134175000D03*
X100294000Y-134975000D03*
D37*
X129851500Y-81640000D03*
X129851500Y-82290000D03*
X129851500Y-82940000D03*
X129851500Y-83590000D03*
X129851500Y-84240000D03*
X129851500Y-84890000D03*
X129851500Y-85540000D03*
X135576500Y-85540000D03*
X135576500Y-84890000D03*
X135576500Y-84240000D03*
X135576500Y-83590000D03*
X135576500Y-82940000D03*
X135576500Y-82290000D03*
X135576500Y-81640000D03*
D18*
X165100000Y-122428000D03*
D20*
X132404000Y-113590000D03*
X131384000Y-113590000D03*
D24*
X169844000Y-65916000D03*
X169844000Y-66876000D03*
D18*
X175514000Y-122428000D03*
D38*
X168326500Y-112140000D03*
X168326500Y-111490000D03*
X168326500Y-110840000D03*
X168326500Y-110190000D03*
X168326500Y-109540000D03*
X168326500Y-108890000D03*
X168326500Y-108240000D03*
X162601500Y-108240000D03*
X162601500Y-108890000D03*
X162601500Y-109540000D03*
X162601500Y-110190000D03*
X162601500Y-110840000D03*
X162601500Y-111490000D03*
X162601500Y-112140000D03*
D20*
X127314000Y-85852000D03*
X126294000Y-85852000D03*
D39*
X102296000Y-80756000D03*
X102296000Y-86556000D03*
D23*
X105916000Y-115316000D03*
X106936000Y-115316000D03*
D40*
X107009000Y-133650000D03*
X106409000Y-133650000D03*
D41*
X105784000Y-133975000D03*
X105784000Y-134575000D03*
X105784000Y-135175000D03*
D40*
X106409000Y-135500000D03*
X107009000Y-135500000D03*
D41*
X107634000Y-135175000D03*
X107634000Y-134575000D03*
X107634000Y-133975000D03*
D35*
X188464000Y-118100000D03*
X188464000Y-117080000D03*
D20*
X189424000Y-104990000D03*
X188404000Y-104990000D03*
D42*
X102996000Y-91336000D03*
X101596000Y-98836000D03*
D23*
X105916000Y-116586000D03*
X106936000Y-116586000D03*
D30*
X123699000Y-52995000D03*
X123699000Y-64995000D03*
D31*
X121794000Y-61580000D03*
X123064000Y-61580000D03*
X124334000Y-61580000D03*
X125604000Y-61580000D03*
X125604000Y-56630000D03*
X124334000Y-56630000D03*
X123064000Y-56630000D03*
X121794000Y-56630000D03*
D35*
X158514000Y-108920000D03*
X158514000Y-107900000D03*
D43*
X194339000Y-107665000D03*
D44*
X194339000Y-107665000D03*
D25*
X189964000Y-117080000D03*
X189964000Y-118100000D03*
D24*
X125730000Y-83566000D03*
X125730000Y-84526000D03*
D30*
X166199000Y-62995000D03*
X166199000Y-74995000D03*
D31*
X164294000Y-71580000D03*
X165564000Y-71580000D03*
X166834000Y-71580000D03*
X168104000Y-71580000D03*
X168104000Y-66630000D03*
X166834000Y-66630000D03*
X165564000Y-66630000D03*
X164294000Y-66630000D03*
D45*
X182854000Y-82340000D03*
D46*
X190474000Y-82340000D03*
D26*
X161954000Y-126746000D03*
D27*
X161954000Y-129286000D03*
X161954000Y-131826000D03*
D45*
X145102000Y-82340000D03*
D46*
X152722000Y-82340000D03*
D24*
X127254000Y-83566000D03*
X127254000Y-84526000D03*
D20*
X170674000Y-104990000D03*
X169654000Y-104990000D03*
D47*
X124968000Y-107442000D03*
X124968000Y-110392000D03*
D18*
X185674000Y-122682000D03*
D44*
X102264000Y-50800000D03*
D43*
X102264000Y-50800000D03*
D33*
X114619000Y-82685000D03*
X114619000Y-87685000D03*
X114619000Y-104185000D03*
X114619000Y-106685000D03*
D24*
X141920000Y-66384000D03*
X141920000Y-67344000D03*
D48*
X124968000Y-104042000D03*
X124968000Y-101092000D03*
D18*
X168032000Y-128293000D03*
X172832000Y-128293000D03*
D19*
X167632000Y-131593000D03*
X173232000Y-131593000D03*
X168232000Y-124293000D03*
X172632000Y-124293000D03*
D28*
X142720000Y-130048000D03*
X141760000Y-130048000D03*
D44*
X102264000Y-108300000D03*
D43*
X102264000Y-108300000D03*
D32*
X163814000Y-89090000D03*
D33*
X176514000Y-89090000D03*
X176514000Y-99090000D03*
X163814000Y-99090000D03*
D20*
X132394000Y-114990000D03*
X131374000Y-114990000D03*
D26*
X157304000Y-126746000D03*
D27*
X157304000Y-129286000D03*
X157304000Y-131826000D03*
D49*
X102694000Y-115636000D03*
X102694000Y-116336000D03*
X103994000Y-116336000D03*
X103994000Y-115636000D03*
D23*
X105916000Y-117850000D03*
X106936000Y-117850000D03*
D34*
X103400000Y-120850000D03*
X102430000Y-120850000D03*
D35*
X170688000Y-115064000D03*
X170688000Y-114044000D03*
D18*
X145796000Y-106172000D03*
D20*
X135030000Y-88777000D03*
X134010000Y-88777000D03*
D50*
X106229000Y-131400000D03*
X107189000Y-131400000D03*
D24*
X127608000Y-56050000D03*
X127608000Y-57010000D03*
D51*
X105514000Y-58990000D03*
D52*
X105514000Y-63990000D03*
X105514000Y-68990000D03*
X105514000Y-73990000D03*
D24*
X177292000Y-115880000D03*
X177292000Y-116840000D03*
D37*
X180631500Y-113805000D03*
X180631500Y-114455000D03*
X180631500Y-115105000D03*
X180631500Y-115755000D03*
X180631500Y-116405000D03*
X180631500Y-117055000D03*
X180631500Y-117705000D03*
X186356500Y-117705000D03*
X186356500Y-117055000D03*
X186356500Y-116405000D03*
X186356500Y-115755000D03*
X186356500Y-115105000D03*
X186356500Y-114455000D03*
X186356500Y-113805000D03*
D20*
X126648000Y-80772000D03*
X125628000Y-80772000D03*
D45*
X163978000Y-82340000D03*
D46*
X171598000Y-82340000D03*
D24*
X129132000Y-56050000D03*
X129132000Y-57010000D03*
X162240000Y-71238000D03*
X162240000Y-72198000D03*
D53*
X136090000Y-130444000D03*
X136090000Y-129794000D03*
X136090000Y-129144000D03*
X136090000Y-128494000D03*
X136090000Y-127844000D03*
X136090000Y-127194000D03*
X136090000Y-126544000D03*
X136090000Y-125894000D03*
X136090000Y-125244000D03*
X136090000Y-124594000D03*
X136090000Y-123944000D03*
X136090000Y-123294000D03*
X136090000Y-122644000D03*
X136090000Y-121994000D03*
X136090000Y-121344000D03*
X136090000Y-120694000D03*
X136090000Y-120044000D03*
D54*
X135690000Y-118844000D03*
X135040000Y-118844000D03*
X134390000Y-118844000D03*
X133740000Y-118844000D03*
X133090000Y-118844000D03*
X132440000Y-118844000D03*
X131790000Y-118844000D03*
X131140000Y-118844000D03*
X130490000Y-118844000D03*
X129840000Y-118844000D03*
X129190000Y-118844000D03*
X128540000Y-118844000D03*
X127890000Y-118844000D03*
X127240000Y-118844000D03*
X126590000Y-118844000D03*
X125940000Y-118844000D03*
X125290000Y-118844000D03*
D53*
X124890000Y-120044000D03*
X124890000Y-120694000D03*
X124890000Y-121344000D03*
X124890000Y-121994000D03*
X124890000Y-122644000D03*
X124890000Y-123294000D03*
X124890000Y-123944000D03*
X124890000Y-124594000D03*
X124890000Y-125244000D03*
X124890000Y-125894000D03*
X124890000Y-126544000D03*
X124890000Y-127194000D03*
X124890000Y-127844000D03*
X124890000Y-128494000D03*
X124890000Y-129144000D03*
X124890000Y-129794000D03*
X124890000Y-130444000D03*
D54*
X125940000Y-130444000D03*
X126590000Y-130444000D03*
X127240000Y-130444000D03*
X127890000Y-130444000D03*
X128540000Y-130444000D03*
D53*
X126590000Y-129144000D03*
X126590000Y-128494000D03*
X126590000Y-127844000D03*
X126590000Y-127194000D03*
D55*
X129240000Y-126944000D03*
X129240000Y-124094000D03*
X132040000Y-124094000D03*
X132040000Y-126944000D03*
D56*
X135165000Y-93222000D03*
X132625000Y-93222000D03*
X130085000Y-93222000D03*
D32*
X145064000Y-89090000D03*
D33*
X157764000Y-89090000D03*
X157764000Y-99090000D03*
X145064000Y-99090000D03*
D20*
X181102000Y-122174000D03*
X180082000Y-122174000D03*
D18*
X182626000Y-106172000D03*
D24*
X120076000Y-61360000D03*
X120076000Y-62320000D03*
D23*
X125628000Y-82042000D03*
X126648000Y-82042000D03*
D18*
X144780000Y-132334000D03*
D43*
X194339000Y-50800000D03*
D44*
X194339000Y-50800000D03*
D50*
X144300000Y-130048000D03*
X145260000Y-130048000D03*
D18*
X142240000Y-132334000D03*
D35*
X176964000Y-114400000D03*
X176964000Y-113380000D03*
D23*
X137794000Y-85495000D03*
X138814000Y-85495000D03*
D51*
X191014000Y-74015000D03*
D52*
X191014000Y-69015000D03*
X191014000Y-64015000D03*
X191014000Y-59015000D03*
D24*
X172212000Y-110236000D03*
X172212000Y-111196000D03*
D35*
X172314000Y-108838000D03*
X172314000Y-107818000D03*
D28*
X132394000Y-116490000D03*
X131434000Y-116490000D03*
M02*
