M48
; DRILL file {KiCad 6.0.4-6f826c9f35~116~ubuntu20.04.1} date jue 05 may 2022 18:34:31
; FORMAT={-:-/ absolute / metric / decimal}
; #@! TF.CreationDate,2022-05-05T18:34:31+02:00
; #@! TF.GenerationSoftware,Kicad,Pcbnew,6.0.4-6f826c9f35~116~ubuntu20.04.1
; #@! TF.FileFunction,Plated,1,2,PTH
FMAT,2
METRIC
; #@! TA.AperFunction,Plated,PTH,ViaDrill
T1C0.400
; #@! TA.AperFunction,Plated,PTH,ComponentDrill
T2C0.762
; #@! TA.AperFunction,Plated,PTH,ComponentDrill
T3C0.800
; #@! TA.AperFunction,Plated,PTH,ComponentDrill
T4C1.000
; #@! TA.AperFunction,Plated,PTH,ComponentDrill
T5C1.320
; #@! TA.AperFunction,Plated,PTH,ComponentDrill
T6C3.200
%
G90
G05
T1
X102.214Y-78.232
X102.552Y-133.384
X102.614Y-132.09
X103.026Y-134.874
X104.296Y-134.112
X104.296Y-135.636
X105.214Y-86.59
X105.664Y-112.776
X108.373Y-112.776
X108.514Y-131.39
X108.868Y-135.636
X110.646Y-135.636
X111.083Y-112.776
X112.424Y-135.636
X113.792Y-112.776
X114.046Y-124.968
X115.714Y-129.79
X122.682Y-120.396
X122.838Y-129.54
X123.444Y-115.062
X124.206Y-79.248
X124.206Y-80.518
X124.46Y-89.323
X124.46Y-91.779
X124.46Y-94.234
X124.46Y-96.689
X124.968Y-85.852
X127.89Y-115.824
X128.172Y-81.026
X129.95Y-80.264
X130.12Y-114.99
X130.302Y-111.506
X131.728Y-78.994
X132.334Y-111.506
X134.014Y-84.582
X135.792Y-80.772
X137.316Y-79.756
X138.078Y-96.266
X138.176Y-128.524
X138.586Y-86.868
X138.84Y-122.936
X138.84Y-124.968
X139.602Y-123.952
X139.856Y-80.264
X140.208Y-130.302
X140.716Y-125.984
X141.732Y-80.518
X141.732Y-82.973
X141.732Y-85.429
X141.732Y-87.884
X141.986Y-125.984
X146.972Y-127.25
X149.762Y-130.556
X153.416Y-121.92
X154.94Y-126.746
X155.194Y-121.92
X159.766Y-124.968
X160.176Y-106.68
X167.542Y-114.046
X169.066Y-106.426
X170.688Y-106.426
X174.908Y-114.046
X175.924Y-118.11
X176.022Y-111.76
X176.022Y-116.078
X176.178Y-108.204
X177.038Y-105.664
X178.435Y-105.664
X178.562Y-121.158
X178.718Y-112.522
X179.832Y-105.664
X181.102Y-112.268
X183.29Y-112.268
X187.354Y-119.126
X189.484Y-119.634
T2
X114.619Y-82.685
X114.619Y-87.685
X114.619Y-104.185
X114.619Y-106.685
X145.064Y-89.09
X145.064Y-99.09
X157.764Y-89.09
X157.764Y-99.09
X163.814Y-89.09
X163.814Y-99.09
X176.514Y-89.09
X176.514Y-99.09
X182.564Y-89.09
X182.564Y-99.09
X195.264Y-89.09
X195.264Y-99.09
T3
X101.596Y-98.836
X102.996Y-91.336
X130.085Y-93.222
X132.625Y-93.222
X135.165Y-93.222
X145.102Y-82.34
X152.722Y-82.34
X163.978Y-82.34
X171.598Y-82.34
X182.854Y-82.34
X190.474Y-82.34
T4
X137.424Y-112.776
X139.964Y-112.776
X142.24Y-135.382
X142.504Y-112.776
X144.78Y-135.382
X145.044Y-112.776
X152.654Y-126.746
X152.654Y-129.286
X152.654Y-131.826
X157.304Y-126.746
X157.304Y-129.286
X157.304Y-131.826
X161.954Y-126.746
X161.954Y-129.286
X161.954Y-131.826
T5
X105.514Y-58.99
X105.514Y-63.99
X105.514Y-68.99
X105.514Y-73.99
X191.014Y-59.015
X191.014Y-64.015
X191.014Y-69.015
X191.014Y-74.015
T6
X102.264Y-50.8
X102.264Y-108.3
X194.339Y-50.8
X194.339Y-107.665
T3
X168.232Y-124.043G85X168.232Y-124.543
G05
X172.632Y-124.043G85X172.632Y-124.543
G05
X178.392Y-124.043G85X178.392Y-124.543
G05
X182.792Y-124.043G85X182.792Y-124.543
G05
X188.552Y-124.043G85X188.552Y-124.543
G05
X192.952Y-124.043G85X192.952Y-124.543
G05
T4
X167.632Y-131.443G85X167.632Y-131.743
G05
X173.232Y-131.443G85X173.232Y-131.743
G05
X177.792Y-131.443G85X177.792Y-131.743
G05
X183.392Y-131.443G85X183.392Y-131.743
G05
X187.952Y-131.443G85X187.952Y-131.743
G05
X193.552Y-131.443G85X193.552Y-131.743
G05
T0
M30
