%FSLAX45Y45*%
G04 Gerber Fmt 4.5, Leading zero omitted, Abs format (unit mm)*
G04 Created by KiCad (PCBNEW 6.0.4-6f826c9f35~116~ubuntu20.04.1) date 2022-05-05 18:34:53*
%MOMM*%
%LPD*%
G01*
G04 APERTURE LIST*
%TA.AperFunction,Profile*%
%ADD10C,0.100000*%
%TD*%
%ADD11C,0.200000*%
%ADD12C,0.110000*%
%ADD13C,0.150000*%
G04 APERTURE END LIST*
D10*
X17627600Y-9499600D02*
X16408400Y-9499600D01*
X19464592Y-13699592D02*
G75*
G03*
X19845592Y-13318592I-2J381002D01*
G01*
X15748000Y-9347200D02*
X14528800Y-9347200D01*
X12065000Y-9931400D02*
X10845800Y-9931400D01*
X10947400Y-12877800D02*
G75*
G03*
X10947400Y-12623800I0J127000D01*
G01*
X10845800Y-9931400D02*
G75*
G03*
X10845800Y-10083800I0J-76200D01*
G01*
X17627600Y-9499600D02*
G75*
G03*
X17627600Y-9347200I0J76200D01*
G01*
X17627600Y-9347200D02*
X16408400Y-9347200D01*
X19845592Y-13318592D02*
X19844852Y-5080000D01*
X19507200Y-9499600D02*
X18288000Y-9499600D01*
X16408400Y-9347200D02*
G75*
G03*
X16408400Y-9499600I0J-76200D01*
G01*
X10226408Y-12623592D02*
X10947400Y-12623800D01*
X9844408Y-13259408D02*
X9845408Y-13317592D01*
X14528800Y-9347200D02*
G75*
G03*
X14528800Y-9499600I0J-76200D01*
G01*
X12065000Y-10083800D02*
X10845800Y-10083800D01*
X15748000Y-9499600D02*
X14528800Y-9499600D01*
X15748000Y-9499600D02*
G75*
G03*
X15748000Y-9347200I0J76200D01*
G01*
X9842500Y-5080000D02*
X9845408Y-12242592D01*
X18288000Y-9347200D02*
G75*
G03*
X18288000Y-9499600I0J-76200D01*
G01*
X10223500Y-4699000D02*
G75*
G03*
X9842500Y-5080000I0J-381000D01*
G01*
X10225408Y-12878408D02*
G75*
G03*
X9844408Y-13259408I2J-381002D01*
G01*
X10226408Y-13698592D02*
X19464592Y-13699592D01*
X12065000Y-10083800D02*
G75*
G03*
X12065000Y-9931400I0J76200D01*
G01*
X19463852Y-4699000D02*
X10223500Y-4699000D01*
X10947400Y-12877800D02*
X10225408Y-12878408D01*
X19507200Y-9499600D02*
G75*
G03*
X19507200Y-9347200I0J76200D01*
G01*
X19507200Y-9347200D02*
X18288000Y-9347200D01*
X9845408Y-13317592D02*
G75*
G03*
X10226408Y-13698592I381002J2D01*
G01*
X9845408Y-12242592D02*
G75*
G03*
X10226408Y-12623592I381002J2D01*
G01*
X19844850Y-5080000D02*
G75*
G03*
X19463852Y-4699000I-381000J0D01*
G01*
D11*
D12*
X16748200Y-12774300D02*
X16858200Y-12884300D01*
X16858200Y-12774300D02*
X16748200Y-12884300D01*
X17228200Y-12774300D02*
X17338200Y-12884300D01*
X17338200Y-12774300D02*
X17228200Y-12884300D01*
X17764200Y-12774300D02*
X17874200Y-12884300D01*
X17874200Y-12774300D02*
X17764200Y-12884300D01*
X18244200Y-12774300D02*
X18354200Y-12884300D01*
X18354200Y-12774300D02*
X18244200Y-12884300D01*
X18780200Y-12774300D02*
X18890200Y-12884300D01*
X18890200Y-12774300D02*
X18780200Y-12884300D01*
X19260200Y-12774300D02*
X19370200Y-12884300D01*
X19370200Y-12774300D02*
X19260200Y-12884300D01*
D13*
X12444900Y-5299500D02*
G75*
G03*
X12444900Y-5299500I-75000J0D01*
G01*
D11*
X11694900Y-5364500D02*
X13044900Y-5364500D01*
X11694900Y-5234500D02*
X13044900Y-5234500D01*
X13044900Y-5364500D02*
G75*
G03*
X13044900Y-5234500I0J65000D01*
G01*
X11694900Y-5234500D02*
G75*
G03*
X11694900Y-5364500I0J-65000D01*
G01*
D13*
X12444900Y-6499500D02*
G75*
G03*
X12444900Y-6499500I-75000J0D01*
G01*
D11*
X11694900Y-6564500D02*
X13044900Y-6564500D01*
X11694900Y-6434500D02*
X13044900Y-6434500D01*
X13044900Y-6564500D02*
G75*
G03*
X13044900Y-6434500I0J65000D01*
G01*
X11694900Y-6434500D02*
G75*
G03*
X11694900Y-6564500I0J-65000D01*
G01*
D13*
X14646400Y-5809000D02*
G75*
G03*
X14646400Y-5809000I-75000J0D01*
G01*
D11*
X13896400Y-5874000D02*
X15246400Y-5874000D01*
X13896400Y-5744000D02*
X15246400Y-5744000D01*
X15246400Y-5874000D02*
G75*
G03*
X15246400Y-5744000I0J65000D01*
G01*
X13896400Y-5744000D02*
G75*
G03*
X13896400Y-5874000I0J-65000D01*
G01*
D13*
X14646400Y-7009000D02*
G75*
G03*
X14646400Y-7009000I-75000J0D01*
G01*
D11*
X13896400Y-7074000D02*
X15246400Y-7074000D01*
X13896400Y-6944000D02*
X15246400Y-6944000D01*
X15246400Y-7074000D02*
G75*
G03*
X15246400Y-6944000I0J65000D01*
G01*
X13896400Y-6944000D02*
G75*
G03*
X13896400Y-7074000I0J-65000D01*
G01*
D13*
X16694900Y-6299500D02*
G75*
G03*
X16694900Y-6299500I-75000J0D01*
G01*
D11*
X15944900Y-6364500D02*
X17294900Y-6364500D01*
X15944900Y-6234500D02*
X17294900Y-6234500D01*
X17294900Y-6364500D02*
G75*
G03*
X17294900Y-6234500I0J65000D01*
G01*
X15944900Y-6234500D02*
G75*
G03*
X15944900Y-6364500I0J-65000D01*
G01*
D13*
X16694900Y-7499500D02*
G75*
G03*
X16694900Y-7499500I-75000J0D01*
G01*
D11*
X15944900Y-7564500D02*
X17294900Y-7564500D01*
X15944900Y-7434500D02*
X17294900Y-7434500D01*
X17294900Y-7564500D02*
G75*
G03*
X17294900Y-7434500I0J65000D01*
G01*
X15944900Y-7434500D02*
G75*
G03*
X15944900Y-7564500I0J-65000D01*
G01*
X10095119Y-14015068D02*
X10095119Y-13815068D01*
X10142738Y-13815068D01*
X10171310Y-13824592D01*
X10190357Y-13843640D01*
X10199881Y-13862687D01*
X10209405Y-13900783D01*
X10209405Y-13929354D01*
X10199881Y-13967449D01*
X10190357Y-13986497D01*
X10171310Y-14005545D01*
X10142738Y-14015068D01*
X10095119Y-14015068D01*
X10295119Y-14015068D02*
X10295119Y-13881735D01*
X10295119Y-13919830D02*
X10304643Y-13900783D01*
X10314167Y-13891259D01*
X10333214Y-13881735D01*
X10352262Y-13881735D01*
X10418929Y-14015068D02*
X10418929Y-13881735D01*
X10418929Y-13815068D02*
X10409405Y-13824592D01*
X10418929Y-13834116D01*
X10428452Y-13824592D01*
X10418929Y-13815068D01*
X10418929Y-13834116D01*
X10542738Y-14015068D02*
X10523690Y-14005545D01*
X10514167Y-13986497D01*
X10514167Y-13815068D01*
X10647500Y-14015068D02*
X10628452Y-14005545D01*
X10618929Y-13986497D01*
X10618929Y-13815068D01*
X10876071Y-14015068D02*
X10876071Y-13815068D01*
X10942738Y-13957926D01*
X11009405Y-13815068D01*
X11009405Y-14015068D01*
X11190357Y-14015068D02*
X11190357Y-13910306D01*
X11180833Y-13891259D01*
X11161786Y-13881735D01*
X11123690Y-13881735D01*
X11104643Y-13891259D01*
X11190357Y-14005545D02*
X11171310Y-14015068D01*
X11123690Y-14015068D01*
X11104643Y-14005545D01*
X11095119Y-13986497D01*
X11095119Y-13967449D01*
X11104643Y-13948402D01*
X11123690Y-13938878D01*
X11171310Y-13938878D01*
X11190357Y-13929354D01*
X11285595Y-13881735D02*
X11285595Y-14081735D01*
X11285595Y-13891259D02*
X11304643Y-13881735D01*
X11342738Y-13881735D01*
X11361786Y-13891259D01*
X11371309Y-13900783D01*
X11380833Y-13919830D01*
X11380833Y-13976973D01*
X11371309Y-13996021D01*
X11361786Y-14005545D01*
X11342738Y-14015068D01*
X11304643Y-14015068D01*
X11285595Y-14005545D01*
X11466548Y-13996021D02*
X11476071Y-14005545D01*
X11466548Y-14015068D01*
X11457024Y-14005545D01*
X11466548Y-13996021D01*
X11466548Y-14015068D01*
X11466548Y-13891259D02*
X11476071Y-13900783D01*
X11466548Y-13910306D01*
X11457024Y-13900783D01*
X11466548Y-13891259D01*
X11466548Y-13910306D01*
D12*
X9727500Y-14289592D02*
X9837500Y-14399592D01*
X9837500Y-14289592D02*
X9727500Y-14399592D01*
D11*
X10199881Y-14435068D02*
X10085595Y-14435068D01*
X10142738Y-14435068D02*
X10142738Y-14235068D01*
X10123690Y-14263640D01*
X10104643Y-14282687D01*
X10085595Y-14292211D01*
X10285595Y-14416021D02*
X10295119Y-14425545D01*
X10285595Y-14435068D01*
X10276071Y-14425545D01*
X10285595Y-14416021D01*
X10285595Y-14435068D01*
X10485595Y-14435068D02*
X10371310Y-14435068D01*
X10428452Y-14435068D02*
X10428452Y-14235068D01*
X10409405Y-14263640D01*
X10390357Y-14282687D01*
X10371310Y-14292211D01*
X10609405Y-14235068D02*
X10628452Y-14235068D01*
X10647500Y-14244592D01*
X10657024Y-14254116D01*
X10666548Y-14273164D01*
X10676071Y-14311259D01*
X10676071Y-14358878D01*
X10666548Y-14396973D01*
X10657024Y-14416021D01*
X10647500Y-14425545D01*
X10628452Y-14435068D01*
X10609405Y-14435068D01*
X10590357Y-14425545D01*
X10580833Y-14416021D01*
X10571310Y-14396973D01*
X10561786Y-14358878D01*
X10561786Y-14311259D01*
X10571310Y-14273164D01*
X10580833Y-14254116D01*
X10590357Y-14244592D01*
X10609405Y-14235068D01*
X10799881Y-14235068D02*
X10818929Y-14235068D01*
X10837976Y-14244592D01*
X10847500Y-14254116D01*
X10857024Y-14273164D01*
X10866548Y-14311259D01*
X10866548Y-14358878D01*
X10857024Y-14396973D01*
X10847500Y-14416021D01*
X10837976Y-14425545D01*
X10818929Y-14435068D01*
X10799881Y-14435068D01*
X10780833Y-14425545D01*
X10771310Y-14416021D01*
X10761786Y-14396973D01*
X10752262Y-14358878D01*
X10752262Y-14311259D01*
X10761786Y-14273164D01*
X10771310Y-14254116D01*
X10780833Y-14244592D01*
X10799881Y-14235068D01*
X10952262Y-14435068D02*
X10952262Y-14301735D01*
X10952262Y-14320783D02*
X10961786Y-14311259D01*
X10980833Y-14301735D01*
X11009405Y-14301735D01*
X11028452Y-14311259D01*
X11037976Y-14330306D01*
X11037976Y-14435068D01*
X11037976Y-14330306D02*
X11047500Y-14311259D01*
X11066548Y-14301735D01*
X11095119Y-14301735D01*
X11114167Y-14311259D01*
X11123690Y-14330306D01*
X11123690Y-14435068D01*
X11218928Y-14435068D02*
X11218928Y-14301735D01*
X11218928Y-14320783D02*
X11228452Y-14311259D01*
X11247500Y-14301735D01*
X11276071Y-14301735D01*
X11295119Y-14311259D01*
X11304643Y-14330306D01*
X11304643Y-14435068D01*
X11304643Y-14330306D02*
X11314167Y-14311259D01*
X11333214Y-14301735D01*
X11361786Y-14301735D01*
X11380833Y-14311259D01*
X11390357Y-14330306D01*
X11390357Y-14435068D01*
X11780833Y-14225545D02*
X11609405Y-14482687D01*
X12037976Y-14235068D02*
X12057024Y-14235068D01*
X12076071Y-14244592D01*
X12085595Y-14254116D01*
X12095119Y-14273164D01*
X12104643Y-14311259D01*
X12104643Y-14358878D01*
X12095119Y-14396973D01*
X12085595Y-14416021D01*
X12076071Y-14425545D01*
X12057024Y-14435068D01*
X12037976Y-14435068D01*
X12018928Y-14425545D01*
X12009405Y-14416021D01*
X11999881Y-14396973D01*
X11990357Y-14358878D01*
X11990357Y-14311259D01*
X11999881Y-14273164D01*
X12009405Y-14254116D01*
X12018928Y-14244592D01*
X12037976Y-14235068D01*
X12190357Y-14416021D02*
X12199881Y-14425545D01*
X12190357Y-14435068D01*
X12180833Y-14425545D01*
X12190357Y-14416021D01*
X12190357Y-14435068D01*
X12323690Y-14235068D02*
X12342738Y-14235068D01*
X12361786Y-14244592D01*
X12371309Y-14254116D01*
X12380833Y-14273164D01*
X12390357Y-14311259D01*
X12390357Y-14358878D01*
X12380833Y-14396973D01*
X12371309Y-14416021D01*
X12361786Y-14425545D01*
X12342738Y-14435068D01*
X12323690Y-14435068D01*
X12304643Y-14425545D01*
X12295119Y-14416021D01*
X12285595Y-14396973D01*
X12276071Y-14358878D01*
X12276071Y-14311259D01*
X12285595Y-14273164D01*
X12295119Y-14254116D01*
X12304643Y-14244592D01*
X12323690Y-14235068D01*
X12561786Y-14301735D02*
X12561786Y-14435068D01*
X12514167Y-14225545D02*
X12466548Y-14368402D01*
X12590357Y-14368402D01*
X12647500Y-14235068D02*
X12771309Y-14235068D01*
X12704643Y-14311259D01*
X12733214Y-14311259D01*
X12752262Y-14320783D01*
X12761786Y-14330306D01*
X12771309Y-14349354D01*
X12771309Y-14396973D01*
X12761786Y-14416021D01*
X12752262Y-14425545D01*
X12733214Y-14435068D01*
X12676071Y-14435068D01*
X12657024Y-14425545D01*
X12647500Y-14416021D01*
X12837976Y-14235068D02*
X12961786Y-14235068D01*
X12895119Y-14311259D01*
X12923690Y-14311259D01*
X12942738Y-14320783D01*
X12952262Y-14330306D01*
X12961786Y-14349354D01*
X12961786Y-14396973D01*
X12952262Y-14416021D01*
X12942738Y-14425545D01*
X12923690Y-14435068D01*
X12866548Y-14435068D01*
X12847500Y-14425545D01*
X12837976Y-14416021D01*
X13037976Y-14235068D02*
X13037976Y-14273164D01*
X13114167Y-14235068D02*
X13114167Y-14273164D01*
X13409405Y-14511259D02*
X13399881Y-14501735D01*
X13380833Y-14473164D01*
X13371309Y-14454116D01*
X13361786Y-14425545D01*
X13352262Y-14377926D01*
X13352262Y-14339830D01*
X13361786Y-14292211D01*
X13371309Y-14263640D01*
X13380833Y-14244592D01*
X13399881Y-14216021D01*
X13409405Y-14206497D01*
X13571309Y-14235068D02*
X13533214Y-14235068D01*
X13514167Y-14244592D01*
X13504643Y-14254116D01*
X13485595Y-14282687D01*
X13476071Y-14320783D01*
X13476071Y-14396973D01*
X13485595Y-14416021D01*
X13495119Y-14425545D01*
X13514167Y-14435068D01*
X13552262Y-14435068D01*
X13571309Y-14425545D01*
X13580833Y-14416021D01*
X13590357Y-14396973D01*
X13590357Y-14349354D01*
X13580833Y-14330306D01*
X13571309Y-14320783D01*
X13552262Y-14311259D01*
X13514167Y-14311259D01*
X13495119Y-14320783D01*
X13485595Y-14330306D01*
X13476071Y-14349354D01*
X13828452Y-14435068D02*
X13828452Y-14235068D01*
X13914167Y-14435068D02*
X13914167Y-14330306D01*
X13904643Y-14311259D01*
X13885595Y-14301735D01*
X13857024Y-14301735D01*
X13837976Y-14311259D01*
X13828452Y-14320783D01*
X14037976Y-14435068D02*
X14018928Y-14425545D01*
X14009405Y-14416021D01*
X13999881Y-14396973D01*
X13999881Y-14339830D01*
X14009405Y-14320783D01*
X14018928Y-14311259D01*
X14037976Y-14301735D01*
X14066548Y-14301735D01*
X14085595Y-14311259D01*
X14095119Y-14320783D01*
X14104643Y-14339830D01*
X14104643Y-14396973D01*
X14095119Y-14416021D01*
X14085595Y-14425545D01*
X14066548Y-14435068D01*
X14037976Y-14435068D01*
X14218928Y-14435068D02*
X14199881Y-14425545D01*
X14190357Y-14406497D01*
X14190357Y-14235068D01*
X14371309Y-14425545D02*
X14352262Y-14435068D01*
X14314167Y-14435068D01*
X14295119Y-14425545D01*
X14285595Y-14406497D01*
X14285595Y-14330306D01*
X14295119Y-14311259D01*
X14314167Y-14301735D01*
X14352262Y-14301735D01*
X14371309Y-14311259D01*
X14380833Y-14330306D01*
X14380833Y-14349354D01*
X14285595Y-14368402D01*
X14457024Y-14425545D02*
X14476071Y-14435068D01*
X14514167Y-14435068D01*
X14533214Y-14425545D01*
X14542738Y-14406497D01*
X14542738Y-14396973D01*
X14533214Y-14377926D01*
X14514167Y-14368402D01*
X14485595Y-14368402D01*
X14466548Y-14358878D01*
X14457024Y-14339830D01*
X14457024Y-14330306D01*
X14466548Y-14311259D01*
X14485595Y-14301735D01*
X14514167Y-14301735D01*
X14533214Y-14311259D01*
X14609405Y-14511259D02*
X14618928Y-14501735D01*
X14637976Y-14473164D01*
X14647500Y-14454116D01*
X14657024Y-14425545D01*
X14666548Y-14377926D01*
X14666548Y-14339830D01*
X14657024Y-14292211D01*
X14647500Y-14263640D01*
X14637976Y-14244592D01*
X14618928Y-14216021D01*
X14609405Y-14206497D01*
X14971309Y-14511259D02*
X14961786Y-14501735D01*
X14942738Y-14473164D01*
X14933214Y-14454116D01*
X14923690Y-14425545D01*
X14914167Y-14377926D01*
X14914167Y-14339830D01*
X14923690Y-14292211D01*
X14933214Y-14263640D01*
X14942738Y-14244592D01*
X14961786Y-14216021D01*
X14971309Y-14206497D01*
X15047500Y-14301735D02*
X15047500Y-14435068D01*
X15047500Y-14320783D02*
X15057024Y-14311259D01*
X15076071Y-14301735D01*
X15104643Y-14301735D01*
X15123690Y-14311259D01*
X15133214Y-14330306D01*
X15133214Y-14435068D01*
X15257024Y-14435068D02*
X15237976Y-14425545D01*
X15228452Y-14416021D01*
X15218928Y-14396973D01*
X15218928Y-14339830D01*
X15228452Y-14320783D01*
X15237976Y-14311259D01*
X15257024Y-14301735D01*
X15285595Y-14301735D01*
X15304643Y-14311259D01*
X15314167Y-14320783D01*
X15323690Y-14339830D01*
X15323690Y-14396973D01*
X15314167Y-14416021D01*
X15304643Y-14425545D01*
X15285595Y-14435068D01*
X15257024Y-14435068D01*
X15380833Y-14301735D02*
X15457024Y-14301735D01*
X15409405Y-14235068D02*
X15409405Y-14406497D01*
X15418928Y-14425545D01*
X15437976Y-14435068D01*
X15457024Y-14435068D01*
X15676071Y-14301735D02*
X15676071Y-14501735D01*
X15676071Y-14311259D02*
X15695119Y-14301735D01*
X15733214Y-14301735D01*
X15752262Y-14311259D01*
X15761786Y-14320783D01*
X15771309Y-14339830D01*
X15771309Y-14396973D01*
X15761786Y-14416021D01*
X15752262Y-14425545D01*
X15733214Y-14435068D01*
X15695119Y-14435068D01*
X15676071Y-14425545D01*
X15885595Y-14435068D02*
X15866548Y-14425545D01*
X15857024Y-14406497D01*
X15857024Y-14235068D01*
X16047500Y-14435068D02*
X16047500Y-14330306D01*
X16037976Y-14311259D01*
X16018928Y-14301735D01*
X15980833Y-14301735D01*
X15961786Y-14311259D01*
X16047500Y-14425545D02*
X16028452Y-14435068D01*
X15980833Y-14435068D01*
X15961786Y-14425545D01*
X15952262Y-14406497D01*
X15952262Y-14387449D01*
X15961786Y-14368402D01*
X15980833Y-14358878D01*
X16028452Y-14358878D01*
X16047500Y-14349354D01*
X16114167Y-14301735D02*
X16190357Y-14301735D01*
X16142738Y-14235068D02*
X16142738Y-14406497D01*
X16152262Y-14425545D01*
X16171309Y-14435068D01*
X16190357Y-14435068D01*
X16333214Y-14425545D02*
X16314167Y-14435068D01*
X16276071Y-14435068D01*
X16257024Y-14425545D01*
X16247500Y-14406497D01*
X16247500Y-14330306D01*
X16257024Y-14311259D01*
X16276071Y-14301735D01*
X16314167Y-14301735D01*
X16333214Y-14311259D01*
X16342738Y-14330306D01*
X16342738Y-14349354D01*
X16247500Y-14368402D01*
X16514167Y-14435068D02*
X16514167Y-14235068D01*
X16514167Y-14425545D02*
X16495119Y-14435068D01*
X16457024Y-14435068D01*
X16437976Y-14425545D01*
X16428452Y-14416021D01*
X16418928Y-14396973D01*
X16418928Y-14339830D01*
X16428452Y-14320783D01*
X16437976Y-14311259D01*
X16457024Y-14301735D01*
X16495119Y-14301735D01*
X16514167Y-14311259D01*
X16590357Y-14511259D02*
X16599881Y-14501735D01*
X16618928Y-14473164D01*
X16628452Y-14454116D01*
X16637976Y-14425545D01*
X16647500Y-14377926D01*
X16647500Y-14339830D01*
X16637976Y-14292211D01*
X16628452Y-14263640D01*
X16618928Y-14244592D01*
X16599881Y-14216021D01*
X16590357Y-14206497D01*
D13*
X9837500Y-14608592D02*
G75*
G03*
X9837500Y-14608592I-75000J0D01*
G01*
D11*
X10199881Y-14699068D02*
X10085595Y-14699068D01*
X10142738Y-14699068D02*
X10142738Y-14499068D01*
X10123690Y-14527640D01*
X10104643Y-14546687D01*
X10085595Y-14556211D01*
X10285595Y-14680021D02*
X10295119Y-14689545D01*
X10285595Y-14699068D01*
X10276071Y-14689545D01*
X10285595Y-14680021D01*
X10285595Y-14699068D01*
X10476071Y-14499068D02*
X10380833Y-14499068D01*
X10371310Y-14594306D01*
X10380833Y-14584783D01*
X10399881Y-14575259D01*
X10447500Y-14575259D01*
X10466548Y-14584783D01*
X10476071Y-14594306D01*
X10485595Y-14613354D01*
X10485595Y-14660973D01*
X10476071Y-14680021D01*
X10466548Y-14689545D01*
X10447500Y-14699068D01*
X10399881Y-14699068D01*
X10380833Y-14689545D01*
X10371310Y-14680021D01*
X10609405Y-14499068D02*
X10628452Y-14499068D01*
X10647500Y-14508592D01*
X10657024Y-14518116D01*
X10666548Y-14537164D01*
X10676071Y-14575259D01*
X10676071Y-14622878D01*
X10666548Y-14660973D01*
X10657024Y-14680021D01*
X10647500Y-14689545D01*
X10628452Y-14699068D01*
X10609405Y-14699068D01*
X10590357Y-14689545D01*
X10580833Y-14680021D01*
X10571310Y-14660973D01*
X10561786Y-14622878D01*
X10561786Y-14575259D01*
X10571310Y-14537164D01*
X10580833Y-14518116D01*
X10590357Y-14508592D01*
X10609405Y-14499068D01*
X10799881Y-14499068D02*
X10818929Y-14499068D01*
X10837976Y-14508592D01*
X10847500Y-14518116D01*
X10857024Y-14537164D01*
X10866548Y-14575259D01*
X10866548Y-14622878D01*
X10857024Y-14660973D01*
X10847500Y-14680021D01*
X10837976Y-14689545D01*
X10818929Y-14699068D01*
X10799881Y-14699068D01*
X10780833Y-14689545D01*
X10771310Y-14680021D01*
X10761786Y-14660973D01*
X10752262Y-14622878D01*
X10752262Y-14575259D01*
X10761786Y-14537164D01*
X10771310Y-14518116D01*
X10780833Y-14508592D01*
X10799881Y-14499068D01*
X10952262Y-14699068D02*
X10952262Y-14565735D01*
X10952262Y-14584783D02*
X10961786Y-14575259D01*
X10980833Y-14565735D01*
X11009405Y-14565735D01*
X11028452Y-14575259D01*
X11037976Y-14594306D01*
X11037976Y-14699068D01*
X11037976Y-14594306D02*
X11047500Y-14575259D01*
X11066548Y-14565735D01*
X11095119Y-14565735D01*
X11114167Y-14575259D01*
X11123690Y-14594306D01*
X11123690Y-14699068D01*
X11218928Y-14699068D02*
X11218928Y-14565735D01*
X11218928Y-14584783D02*
X11228452Y-14575259D01*
X11247500Y-14565735D01*
X11276071Y-14565735D01*
X11295119Y-14575259D01*
X11304643Y-14594306D01*
X11304643Y-14699068D01*
X11304643Y-14594306D02*
X11314167Y-14575259D01*
X11333214Y-14565735D01*
X11361786Y-14565735D01*
X11380833Y-14575259D01*
X11390357Y-14594306D01*
X11390357Y-14699068D01*
X11780833Y-14489545D02*
X11609405Y-14746687D01*
X12037976Y-14499068D02*
X12057024Y-14499068D01*
X12076071Y-14508592D01*
X12085595Y-14518116D01*
X12095119Y-14537164D01*
X12104643Y-14575259D01*
X12104643Y-14622878D01*
X12095119Y-14660973D01*
X12085595Y-14680021D01*
X12076071Y-14689545D01*
X12057024Y-14699068D01*
X12037976Y-14699068D01*
X12018928Y-14689545D01*
X12009405Y-14680021D01*
X11999881Y-14660973D01*
X11990357Y-14622878D01*
X11990357Y-14575259D01*
X11999881Y-14537164D01*
X12009405Y-14518116D01*
X12018928Y-14508592D01*
X12037976Y-14499068D01*
X12190357Y-14680021D02*
X12199881Y-14689545D01*
X12190357Y-14699068D01*
X12180833Y-14689545D01*
X12190357Y-14680021D01*
X12190357Y-14699068D01*
X12323690Y-14499068D02*
X12342738Y-14499068D01*
X12361786Y-14508592D01*
X12371309Y-14518116D01*
X12380833Y-14537164D01*
X12390357Y-14575259D01*
X12390357Y-14622878D01*
X12380833Y-14660973D01*
X12371309Y-14680021D01*
X12361786Y-14689545D01*
X12342738Y-14699068D01*
X12323690Y-14699068D01*
X12304643Y-14689545D01*
X12295119Y-14680021D01*
X12285595Y-14660973D01*
X12276071Y-14622878D01*
X12276071Y-14575259D01*
X12285595Y-14537164D01*
X12295119Y-14518116D01*
X12304643Y-14508592D01*
X12323690Y-14499068D01*
X12571309Y-14499068D02*
X12476071Y-14499068D01*
X12466548Y-14594306D01*
X12476071Y-14584783D01*
X12495119Y-14575259D01*
X12542738Y-14575259D01*
X12561786Y-14584783D01*
X12571309Y-14594306D01*
X12580833Y-14613354D01*
X12580833Y-14660973D01*
X12571309Y-14680021D01*
X12561786Y-14689545D01*
X12542738Y-14699068D01*
X12495119Y-14699068D01*
X12476071Y-14689545D01*
X12466548Y-14680021D01*
X12676071Y-14699068D02*
X12714167Y-14699068D01*
X12733214Y-14689545D01*
X12742738Y-14680021D01*
X12761786Y-14651449D01*
X12771309Y-14613354D01*
X12771309Y-14537164D01*
X12761786Y-14518116D01*
X12752262Y-14508592D01*
X12733214Y-14499068D01*
X12695119Y-14499068D01*
X12676071Y-14508592D01*
X12666548Y-14518116D01*
X12657024Y-14537164D01*
X12657024Y-14584783D01*
X12666548Y-14603830D01*
X12676071Y-14613354D01*
X12695119Y-14622878D01*
X12733214Y-14622878D01*
X12752262Y-14613354D01*
X12761786Y-14603830D01*
X12771309Y-14584783D01*
X12961786Y-14699068D02*
X12847500Y-14699068D01*
X12904643Y-14699068D02*
X12904643Y-14499068D01*
X12885595Y-14527640D01*
X12866548Y-14546687D01*
X12847500Y-14556211D01*
X13037976Y-14499068D02*
X13037976Y-14537164D01*
X13114167Y-14499068D02*
X13114167Y-14537164D01*
X13409405Y-14775259D02*
X13399881Y-14765735D01*
X13380833Y-14737164D01*
X13371309Y-14718116D01*
X13361786Y-14689545D01*
X13352262Y-14641926D01*
X13352262Y-14603830D01*
X13361786Y-14556211D01*
X13371309Y-14527640D01*
X13380833Y-14508592D01*
X13399881Y-14480021D01*
X13409405Y-14470497D01*
X13523690Y-14499068D02*
X13542738Y-14499068D01*
X13561786Y-14508592D01*
X13571309Y-14518116D01*
X13580833Y-14537164D01*
X13590357Y-14575259D01*
X13590357Y-14622878D01*
X13580833Y-14660973D01*
X13571309Y-14680021D01*
X13561786Y-14689545D01*
X13542738Y-14699068D01*
X13523690Y-14699068D01*
X13504643Y-14689545D01*
X13495119Y-14680021D01*
X13485595Y-14660973D01*
X13476071Y-14622878D01*
X13476071Y-14575259D01*
X13485595Y-14537164D01*
X13495119Y-14518116D01*
X13504643Y-14508592D01*
X13523690Y-14499068D01*
X13828452Y-14699068D02*
X13828452Y-14499068D01*
X13914167Y-14699068D02*
X13914167Y-14594306D01*
X13904643Y-14575259D01*
X13885595Y-14565735D01*
X13857024Y-14565735D01*
X13837976Y-14575259D01*
X13828452Y-14584783D01*
X14037976Y-14699068D02*
X14018928Y-14689545D01*
X14009405Y-14680021D01*
X13999881Y-14660973D01*
X13999881Y-14603830D01*
X14009405Y-14584783D01*
X14018928Y-14575259D01*
X14037976Y-14565735D01*
X14066548Y-14565735D01*
X14085595Y-14575259D01*
X14095119Y-14584783D01*
X14104643Y-14603830D01*
X14104643Y-14660973D01*
X14095119Y-14680021D01*
X14085595Y-14689545D01*
X14066548Y-14699068D01*
X14037976Y-14699068D01*
X14218928Y-14699068D02*
X14199881Y-14689545D01*
X14190357Y-14670497D01*
X14190357Y-14499068D01*
X14371309Y-14689545D02*
X14352262Y-14699068D01*
X14314167Y-14699068D01*
X14295119Y-14689545D01*
X14285595Y-14670497D01*
X14285595Y-14594306D01*
X14295119Y-14575259D01*
X14314167Y-14565735D01*
X14352262Y-14565735D01*
X14371309Y-14575259D01*
X14380833Y-14594306D01*
X14380833Y-14613354D01*
X14285595Y-14632402D01*
X14457024Y-14689545D02*
X14476071Y-14699068D01*
X14514167Y-14699068D01*
X14533214Y-14689545D01*
X14542738Y-14670497D01*
X14542738Y-14660973D01*
X14533214Y-14641926D01*
X14514167Y-14632402D01*
X14485595Y-14632402D01*
X14466548Y-14622878D01*
X14457024Y-14603830D01*
X14457024Y-14594306D01*
X14466548Y-14575259D01*
X14485595Y-14565735D01*
X14514167Y-14565735D01*
X14533214Y-14575259D01*
X14780833Y-14622878D02*
X14933214Y-14622878D01*
X14857024Y-14699068D02*
X14857024Y-14546687D01*
X15266548Y-14499068D02*
X15228452Y-14499068D01*
X15209405Y-14508592D01*
X15199881Y-14518116D01*
X15180833Y-14546687D01*
X15171309Y-14584783D01*
X15171309Y-14660973D01*
X15180833Y-14680021D01*
X15190357Y-14689545D01*
X15209405Y-14699068D01*
X15247500Y-14699068D01*
X15266548Y-14689545D01*
X15276071Y-14680021D01*
X15285595Y-14660973D01*
X15285595Y-14613354D01*
X15276071Y-14594306D01*
X15266548Y-14584783D01*
X15247500Y-14575259D01*
X15209405Y-14575259D01*
X15190357Y-14584783D01*
X15180833Y-14594306D01*
X15171309Y-14613354D01*
X15514167Y-14689545D02*
X15533214Y-14699068D01*
X15571309Y-14699068D01*
X15590357Y-14689545D01*
X15599881Y-14670497D01*
X15599881Y-14660973D01*
X15590357Y-14641926D01*
X15571309Y-14632402D01*
X15542738Y-14632402D01*
X15523690Y-14622878D01*
X15514167Y-14603830D01*
X15514167Y-14594306D01*
X15523690Y-14575259D01*
X15542738Y-14565735D01*
X15571309Y-14565735D01*
X15590357Y-14575259D01*
X15714167Y-14699068D02*
X15695119Y-14689545D01*
X15685595Y-14670497D01*
X15685595Y-14499068D01*
X15818928Y-14699068D02*
X15799881Y-14689545D01*
X15790357Y-14680021D01*
X15780833Y-14660973D01*
X15780833Y-14603830D01*
X15790357Y-14584783D01*
X15799881Y-14575259D01*
X15818928Y-14565735D01*
X15847500Y-14565735D01*
X15866548Y-14575259D01*
X15876071Y-14584783D01*
X15885595Y-14603830D01*
X15885595Y-14660973D01*
X15876071Y-14680021D01*
X15866548Y-14689545D01*
X15847500Y-14699068D01*
X15818928Y-14699068D01*
X15942738Y-14565735D02*
X16018928Y-14565735D01*
X15971309Y-14499068D02*
X15971309Y-14670497D01*
X15980833Y-14689545D01*
X15999881Y-14699068D01*
X16018928Y-14699068D01*
X16076071Y-14689545D02*
X16095119Y-14699068D01*
X16133214Y-14699068D01*
X16152262Y-14689545D01*
X16161786Y-14670497D01*
X16161786Y-14660973D01*
X16152262Y-14641926D01*
X16133214Y-14632402D01*
X16104643Y-14632402D01*
X16085595Y-14622878D01*
X16076071Y-14603830D01*
X16076071Y-14594306D01*
X16085595Y-14575259D01*
X16104643Y-14565735D01*
X16133214Y-14565735D01*
X16152262Y-14575259D01*
X16228452Y-14775259D02*
X16237976Y-14765735D01*
X16257024Y-14737164D01*
X16266548Y-14718116D01*
X16276071Y-14689545D01*
X16285595Y-14641926D01*
X16285595Y-14603830D01*
X16276071Y-14556211D01*
X16266548Y-14527640D01*
X16257024Y-14508592D01*
X16237976Y-14480021D01*
X16228452Y-14470497D01*
X16590357Y-14775259D02*
X16580833Y-14765735D01*
X16561786Y-14737164D01*
X16552262Y-14718116D01*
X16542738Y-14689545D01*
X16533214Y-14641926D01*
X16533214Y-14603830D01*
X16542738Y-14556211D01*
X16552262Y-14527640D01*
X16561786Y-14508592D01*
X16580833Y-14480021D01*
X16590357Y-14470497D01*
X16666548Y-14565735D02*
X16666548Y-14699068D01*
X16666548Y-14584783D02*
X16676071Y-14575259D01*
X16695119Y-14565735D01*
X16723690Y-14565735D01*
X16742738Y-14575259D01*
X16752262Y-14594306D01*
X16752262Y-14699068D01*
X16876071Y-14699068D02*
X16857024Y-14689545D01*
X16847500Y-14680021D01*
X16837976Y-14660973D01*
X16837976Y-14603830D01*
X16847500Y-14584783D01*
X16857024Y-14575259D01*
X16876071Y-14565735D01*
X16904643Y-14565735D01*
X16923690Y-14575259D01*
X16933214Y-14584783D01*
X16942738Y-14603830D01*
X16942738Y-14660973D01*
X16933214Y-14680021D01*
X16923690Y-14689545D01*
X16904643Y-14699068D01*
X16876071Y-14699068D01*
X16999881Y-14565735D02*
X17076071Y-14565735D01*
X17028452Y-14499068D02*
X17028452Y-14670497D01*
X17037976Y-14689545D01*
X17057024Y-14699068D01*
X17076071Y-14699068D01*
X17295119Y-14565735D02*
X17295119Y-14765735D01*
X17295119Y-14575259D02*
X17314167Y-14565735D01*
X17352262Y-14565735D01*
X17371310Y-14575259D01*
X17380833Y-14584783D01*
X17390357Y-14603830D01*
X17390357Y-14660973D01*
X17380833Y-14680021D01*
X17371310Y-14689545D01*
X17352262Y-14699068D01*
X17314167Y-14699068D01*
X17295119Y-14689545D01*
X17504643Y-14699068D02*
X17485595Y-14689545D01*
X17476071Y-14670497D01*
X17476071Y-14499068D01*
X17666548Y-14699068D02*
X17666548Y-14594306D01*
X17657024Y-14575259D01*
X17637976Y-14565735D01*
X17599881Y-14565735D01*
X17580833Y-14575259D01*
X17666548Y-14689545D02*
X17647500Y-14699068D01*
X17599881Y-14699068D01*
X17580833Y-14689545D01*
X17571310Y-14670497D01*
X17571310Y-14651449D01*
X17580833Y-14632402D01*
X17599881Y-14622878D01*
X17647500Y-14622878D01*
X17666548Y-14613354D01*
X17733214Y-14565735D02*
X17809405Y-14565735D01*
X17761786Y-14499068D02*
X17761786Y-14670497D01*
X17771310Y-14689545D01*
X17790357Y-14699068D01*
X17809405Y-14699068D01*
X17952262Y-14689545D02*
X17933214Y-14699068D01*
X17895119Y-14699068D01*
X17876071Y-14689545D01*
X17866548Y-14670497D01*
X17866548Y-14594306D01*
X17876071Y-14575259D01*
X17895119Y-14565735D01*
X17933214Y-14565735D01*
X17952262Y-14575259D01*
X17961786Y-14594306D01*
X17961786Y-14613354D01*
X17866548Y-14632402D01*
X18133214Y-14699068D02*
X18133214Y-14499068D01*
X18133214Y-14689545D02*
X18114167Y-14699068D01*
X18076071Y-14699068D01*
X18057024Y-14689545D01*
X18047500Y-14680021D01*
X18037976Y-14660973D01*
X18037976Y-14603830D01*
X18047500Y-14584783D01*
X18057024Y-14575259D01*
X18076071Y-14565735D01*
X18114167Y-14565735D01*
X18133214Y-14575259D01*
X18209405Y-14775259D02*
X18218929Y-14765735D01*
X18237976Y-14737164D01*
X18247500Y-14718116D01*
X18257024Y-14689545D01*
X18266548Y-14641926D01*
X18266548Y-14603830D01*
X18257024Y-14556211D01*
X18247500Y-14527640D01*
X18237976Y-14508592D01*
X18218929Y-14480021D01*
X18209405Y-14470497D01*
M02*
