%TF.GenerationSoftware,KiCad,Pcbnew,6.0.4-6f826c9f35~116~ubuntu20.04.1*%
%TF.CreationDate,2022-05-05T18:32:33+02:00*%
%TF.ProjectId,tfm,74666d2e-6b69-4636-9164-5f7063625858,1.0*%
%TF.SameCoordinates,Original*%
%TF.FileFunction,Legend,Bot*%
%TF.FilePolarity,Positive*%
%FSLAX46Y46*%
G04 Gerber Fmt 4.6, Leading zero omitted, Abs format (unit mm)*
G04 Created by KiCad (PCBNEW 6.0.4-6f826c9f35~116~ubuntu20.04.1) date 2022-05-05 18:32:33*
%MOMM*%
%LPD*%
G01*
G04 APERTURE LIST*
G04 Aperture macros list*
%AMRoundRect*
0 Rectangle with rounded corners*
0 $1 Rounding radius*
0 $2 $3 $4 $5 $6 $7 $8 $9 X,Y pos of 4 corners*
0 Add a 4 corners polygon primitive as box body*
4,1,4,$2,$3,$4,$5,$6,$7,$8,$9,$2,$3,0*
0 Add four circle primitives for the rounded corners*
1,1,$1+$1,$2,$3*
1,1,$1+$1,$4,$5*
1,1,$1+$1,$6,$7*
1,1,$1+$1,$8,$9*
0 Add four rect primitives between the rounded corners*
20,1,$1+$1,$2,$3,$4,$5,0*
20,1,$1+$1,$4,$5,$6,$7,0*
20,1,$1+$1,$6,$7,$8,$9,0*
20,1,$1+$1,$8,$9,$2,$3,0*%
G04 Aperture macros list end*
%ADD10C,0.300000*%
%ADD11C,0.200000*%
%ADD12C,0.500000*%
%ADD13C,1.500000*%
%ADD14C,2.000000*%
%ADD15R,1.700000X1.700000*%
%ADD16O,1.700000X1.700000*%
%ADD17RoundRect,0.750000X6.750000X0.000000X6.750000X0.000000X-6.750000X0.000000X-6.750000X0.000000X0*%
%ADD18R,1.524000X1.524000*%
%ADD19C,1.524000*%
%ADD20C,1.800000*%
%ADD21C,6.400000*%
%ADD22C,3.600000*%
%ADD23C,1.600000*%
%ADD24O,1.600000X1.600000*%
%ADD25R,3.960000X1.980000*%
%ADD26O,3.960000X1.980000*%
%ADD27C,1.440000*%
G04 APERTURE END LIST*
D10*
X142650000Y-78232000D02*
X142650000Y-95758000D01*
X142650000Y-95758000D02*
X198276000Y-95758000D01*
X123346000Y-102362000D02*
X123346000Y-78232000D01*
X98708000Y-102362000D02*
X123346000Y-102362000D01*
X123346000Y-78232000D02*
X142650000Y-78232000D01*
X183781047Y-64170666D02*
X183781047Y-65361142D01*
X186281047Y-65361142D01*
X183781047Y-62027809D02*
X183781047Y-63456380D01*
X183781047Y-62742095D02*
X186281047Y-62742095D01*
X185923904Y-62980190D01*
X185685809Y-63218285D01*
X185566761Y-63456380D01*
X183781047Y-69250666D02*
X183781047Y-70441142D01*
X186281047Y-70441142D01*
X186042952Y-68536380D02*
X186162000Y-68417333D01*
X186281047Y-68179238D01*
X186281047Y-67584000D01*
X186162000Y-67345904D01*
X186042952Y-67226857D01*
X185804857Y-67107809D01*
X185566761Y-67107809D01*
X185209619Y-67226857D01*
X183781047Y-68655428D01*
X183781047Y-67107809D01*
D11*
X116267523Y-123332761D02*
X116267523Y-121332761D01*
X115600857Y-122761333D01*
X114934190Y-121332761D01*
X114934190Y-123332761D01*
X113124666Y-123332761D02*
X113124666Y-122285142D01*
X113219904Y-122094666D01*
X113410380Y-121999428D01*
X113791333Y-121999428D01*
X113981809Y-122094666D01*
X113124666Y-123237523D02*
X113315142Y-123332761D01*
X113791333Y-123332761D01*
X113981809Y-123237523D01*
X114077047Y-123047047D01*
X114077047Y-122856571D01*
X113981809Y-122666095D01*
X113791333Y-122570857D01*
X113315142Y-122570857D01*
X113124666Y-122475619D01*
X112362761Y-121999428D02*
X111886571Y-123332761D01*
X111410380Y-121999428D02*
X111886571Y-123332761D01*
X112077047Y-123808952D01*
X112172285Y-123904190D01*
X112362761Y-123999428D01*
X110362761Y-123332761D02*
X110553238Y-123237523D01*
X110648476Y-123142285D01*
X110743714Y-122951809D01*
X110743714Y-122380380D01*
X110648476Y-122189904D01*
X110553238Y-122094666D01*
X110362761Y-121999428D01*
X110077047Y-121999428D01*
X109886571Y-122094666D01*
X109791333Y-122189904D01*
X109696095Y-122380380D01*
X109696095Y-122951809D01*
X109791333Y-123142285D01*
X109886571Y-123237523D01*
X110077047Y-123332761D01*
X110362761Y-123332761D01*
X107410380Y-121523238D02*
X107315142Y-121428000D01*
X107124666Y-121332761D01*
X106648476Y-121332761D01*
X106458000Y-121428000D01*
X106362761Y-121523238D01*
X106267523Y-121713714D01*
X106267523Y-121904190D01*
X106362761Y-122189904D01*
X107505619Y-123332761D01*
X106267523Y-123332761D01*
X105029428Y-121332761D02*
X104838952Y-121332761D01*
X104648476Y-121428000D01*
X104553238Y-121523238D01*
X104458000Y-121713714D01*
X104362761Y-122094666D01*
X104362761Y-122570857D01*
X104458000Y-122951809D01*
X104553238Y-123142285D01*
X104648476Y-123237523D01*
X104838952Y-123332761D01*
X105029428Y-123332761D01*
X105219904Y-123237523D01*
X105315142Y-123142285D01*
X105410380Y-122951809D01*
X105505619Y-122570857D01*
X105505619Y-122094666D01*
X105410380Y-121713714D01*
X105315142Y-121523238D01*
X105219904Y-121428000D01*
X105029428Y-121332761D01*
X103600857Y-121523238D02*
X103505619Y-121428000D01*
X103315142Y-121332761D01*
X102838952Y-121332761D01*
X102648476Y-121428000D01*
X102553238Y-121523238D01*
X102458000Y-121713714D01*
X102458000Y-121904190D01*
X102553238Y-122189904D01*
X103696095Y-123332761D01*
X102458000Y-123332761D01*
X101696095Y-121523238D02*
X101600857Y-121428000D01*
X101410380Y-121332761D01*
X100934190Y-121332761D01*
X100743714Y-121428000D01*
X100648476Y-121523238D01*
X100553238Y-121713714D01*
X100553238Y-121904190D01*
X100648476Y-122189904D01*
X101791333Y-123332761D01*
X100553238Y-123332761D01*
D12*
X186798857Y-110069142D02*
X186798857Y-107069142D01*
X185656000Y-107069142D01*
X185370285Y-107212000D01*
X185227428Y-107354857D01*
X185084571Y-107640571D01*
X185084571Y-108069142D01*
X185227428Y-108354857D01*
X185370285Y-108497714D01*
X185656000Y-108640571D01*
X186798857Y-108640571D01*
X183370285Y-110069142D02*
X183656000Y-109926285D01*
X183798857Y-109783428D01*
X183941714Y-109497714D01*
X183941714Y-108640571D01*
X183798857Y-108354857D01*
X183656000Y-108212000D01*
X183370285Y-108069142D01*
X182941714Y-108069142D01*
X182656000Y-108212000D01*
X182513142Y-108354857D01*
X182370285Y-108640571D01*
X182370285Y-109497714D01*
X182513142Y-109783428D01*
X182656000Y-109926285D01*
X182941714Y-110069142D01*
X183370285Y-110069142D01*
X181370285Y-108069142D02*
X180798857Y-110069142D01*
X180227428Y-108640571D01*
X179656000Y-110069142D01*
X179084571Y-108069142D01*
X176798857Y-109926285D02*
X177084571Y-110069142D01*
X177656000Y-110069142D01*
X177941714Y-109926285D01*
X178084571Y-109640571D01*
X178084571Y-108497714D01*
X177941714Y-108212000D01*
X177656000Y-108069142D01*
X177084571Y-108069142D01*
X176798857Y-108212000D01*
X176656000Y-108497714D01*
X176656000Y-108783428D01*
X178084571Y-109069142D01*
X175370285Y-110069142D02*
X175370285Y-108069142D01*
X175370285Y-108640571D02*
X175227428Y-108354857D01*
X175084571Y-108212000D01*
X174798857Y-108069142D01*
X174513142Y-108069142D01*
X171227428Y-110069142D02*
X171227428Y-108069142D01*
X171227428Y-108354857D02*
X171084571Y-108212000D01*
X170798857Y-108069142D01*
X170370285Y-108069142D01*
X170084571Y-108212000D01*
X169941714Y-108497714D01*
X169941714Y-110069142D01*
X169941714Y-108497714D02*
X169798857Y-108212000D01*
X169513142Y-108069142D01*
X169084571Y-108069142D01*
X168798857Y-108212000D01*
X168656000Y-108497714D01*
X168656000Y-110069142D01*
X166084571Y-109926285D02*
X166370285Y-110069142D01*
X166941714Y-110069142D01*
X167227428Y-109926285D01*
X167370285Y-109640571D01*
X167370285Y-108497714D01*
X167227428Y-108212000D01*
X166941714Y-108069142D01*
X166370285Y-108069142D01*
X166084571Y-108212000D01*
X165941714Y-108497714D01*
X165941714Y-108783428D01*
X167370285Y-109069142D01*
X165084571Y-108069142D02*
X163941714Y-108069142D01*
X164656000Y-107069142D02*
X164656000Y-109640571D01*
X164513142Y-109926285D01*
X164227428Y-110069142D01*
X163941714Y-110069142D01*
X161798857Y-109926285D02*
X162084571Y-110069142D01*
X162656000Y-110069142D01*
X162941714Y-109926285D01*
X163084571Y-109640571D01*
X163084571Y-108497714D01*
X162941714Y-108212000D01*
X162656000Y-108069142D01*
X162084571Y-108069142D01*
X161798857Y-108212000D01*
X161656000Y-108497714D01*
X161656000Y-108783428D01*
X163084571Y-109069142D01*
X160370285Y-110069142D02*
X160370285Y-108069142D01*
X160370285Y-108640571D02*
X160227428Y-108354857D01*
X160084571Y-108212000D01*
X159798857Y-108069142D01*
X159513142Y-108069142D01*
X154656000Y-110069142D02*
X156370285Y-110069142D01*
X155513142Y-110069142D02*
X155513142Y-107069142D01*
X155798857Y-107497714D01*
X156084571Y-107783428D01*
X156370285Y-107926285D01*
X153370285Y-109783428D02*
X153227428Y-109926285D01*
X153370285Y-110069142D01*
X153513142Y-109926285D01*
X153370285Y-109783428D01*
X153370285Y-110069142D01*
X151370285Y-107069142D02*
X151084571Y-107069142D01*
X150798857Y-107212000D01*
X150656000Y-107354857D01*
X150513142Y-107640571D01*
X150370285Y-108212000D01*
X150370285Y-108926285D01*
X150513142Y-109497714D01*
X150656000Y-109783428D01*
X150798857Y-109926285D01*
X151084571Y-110069142D01*
X151370285Y-110069142D01*
X151656000Y-109926285D01*
X151798857Y-109783428D01*
X151941714Y-109497714D01*
X152084571Y-108926285D01*
X152084571Y-108212000D01*
X151941714Y-107640571D01*
X151798857Y-107354857D01*
X151656000Y-107212000D01*
X151370285Y-107069142D01*
D10*
X109867047Y-59642285D02*
X112367047Y-59642285D01*
X109867047Y-58213714D01*
X112367047Y-58213714D01*
X109867047Y-69504666D02*
X109867047Y-70695142D01*
X112367047Y-70695142D01*
X112128952Y-68790380D02*
X112248000Y-68671333D01*
X112367047Y-68433238D01*
X112367047Y-67838000D01*
X112248000Y-67599904D01*
X112128952Y-67480857D01*
X111890857Y-67361809D01*
X111652761Y-67361809D01*
X111295619Y-67480857D01*
X109867047Y-68909428D01*
X109867047Y-67361809D01*
X109867047Y-74584666D02*
X109867047Y-75775142D01*
X112367047Y-75775142D01*
X112367047Y-73989428D02*
X112367047Y-72441809D01*
X111414666Y-73275142D01*
X111414666Y-72918000D01*
X111295619Y-72679904D01*
X111176571Y-72560857D01*
X110938476Y-72441809D01*
X110343238Y-72441809D01*
X110105142Y-72560857D01*
X109986095Y-72679904D01*
X109867047Y-72918000D01*
X109867047Y-73632285D01*
X109986095Y-73870380D01*
X110105142Y-73989428D01*
X182005238Y-112030000D02*
X182195714Y-111934761D01*
X182481428Y-111934761D01*
X182767142Y-112030000D01*
X182957619Y-112220476D01*
X183052857Y-112410952D01*
X183148095Y-112791904D01*
X183148095Y-113077619D01*
X183052857Y-113458571D01*
X182957619Y-113649047D01*
X182767142Y-113839523D01*
X182481428Y-113934761D01*
X182290952Y-113934761D01*
X182005238Y-113839523D01*
X181910000Y-113744285D01*
X181910000Y-113077619D01*
X182290952Y-113077619D01*
X180195714Y-112601428D02*
X180195714Y-113934761D01*
X181052857Y-112601428D02*
X181052857Y-113649047D01*
X180957619Y-113839523D01*
X180767142Y-113934761D01*
X180481428Y-113934761D01*
X180290952Y-113839523D01*
X180195714Y-113744285D01*
X179243333Y-113934761D02*
X179243333Y-112601428D01*
X179243333Y-111934761D02*
X179338571Y-112030000D01*
X179243333Y-112125238D01*
X179148095Y-112030000D01*
X179243333Y-111934761D01*
X179243333Y-112125238D01*
X178005238Y-113934761D02*
X178195714Y-113839523D01*
X178290952Y-113649047D01*
X178290952Y-111934761D01*
X176957619Y-113934761D02*
X177148095Y-113839523D01*
X177243333Y-113649047D01*
X177243333Y-111934761D01*
X175433809Y-113839523D02*
X175624285Y-113934761D01*
X176005238Y-113934761D01*
X176195714Y-113839523D01*
X176290952Y-113649047D01*
X176290952Y-112887142D01*
X176195714Y-112696666D01*
X176005238Y-112601428D01*
X175624285Y-112601428D01*
X175433809Y-112696666D01*
X175338571Y-112887142D01*
X175338571Y-113077619D01*
X176290952Y-113268095D01*
X174481428Y-113934761D02*
X174481428Y-112601428D01*
X174481428Y-112982380D02*
X174386190Y-112791904D01*
X174290952Y-112696666D01*
X174100476Y-112601428D01*
X173910000Y-112601428D01*
X173243333Y-113934761D02*
X173243333Y-112601428D01*
X173243333Y-112791904D02*
X173148095Y-112696666D01*
X172957619Y-112601428D01*
X172671904Y-112601428D01*
X172481428Y-112696666D01*
X172386190Y-112887142D01*
X172386190Y-113934761D01*
X172386190Y-112887142D02*
X172290952Y-112696666D01*
X172100476Y-112601428D01*
X171814761Y-112601428D01*
X171624285Y-112696666D01*
X171529047Y-112887142D01*
X171529047Y-113934761D01*
X170290952Y-113934761D02*
X170481428Y-113839523D01*
X170576666Y-113744285D01*
X170671904Y-113553809D01*
X170671904Y-112982380D01*
X170576666Y-112791904D01*
X170481428Y-112696666D01*
X170290952Y-112601428D01*
X170005238Y-112601428D01*
X169814761Y-112696666D01*
X169719523Y-112791904D01*
X169624285Y-112982380D01*
X169624285Y-113553809D01*
X169719523Y-113744285D01*
X169814761Y-113839523D01*
X170005238Y-113934761D01*
X170290952Y-113934761D01*
X166195714Y-112030000D02*
X166386190Y-111934761D01*
X166671904Y-111934761D01*
X166957619Y-112030000D01*
X167148095Y-112220476D01*
X167243333Y-112410952D01*
X167338571Y-112791904D01*
X167338571Y-113077619D01*
X167243333Y-113458571D01*
X167148095Y-113649047D01*
X166957619Y-113839523D01*
X166671904Y-113934761D01*
X166481428Y-113934761D01*
X166195714Y-113839523D01*
X166100476Y-113744285D01*
X166100476Y-113077619D01*
X166481428Y-113077619D01*
X164957619Y-113934761D02*
X165148095Y-113839523D01*
X165243333Y-113744285D01*
X165338571Y-113553809D01*
X165338571Y-112982380D01*
X165243333Y-112791904D01*
X165148095Y-112696666D01*
X164957619Y-112601428D01*
X164671904Y-112601428D01*
X164481428Y-112696666D01*
X164386190Y-112791904D01*
X164290952Y-112982380D01*
X164290952Y-113553809D01*
X164386190Y-113744285D01*
X164481428Y-113839523D01*
X164671904Y-113934761D01*
X164957619Y-113934761D01*
X163433809Y-112601428D02*
X163433809Y-113934761D01*
X163433809Y-112791904D02*
X163338571Y-112696666D01*
X163148095Y-112601428D01*
X162862380Y-112601428D01*
X162671904Y-112696666D01*
X162576666Y-112887142D01*
X162576666Y-113934761D01*
X161814761Y-112601428D02*
X160767142Y-112601428D01*
X161814761Y-113934761D01*
X160767142Y-113934761D01*
X159148095Y-113934761D02*
X159148095Y-112887142D01*
X159243333Y-112696666D01*
X159433809Y-112601428D01*
X159814761Y-112601428D01*
X160005238Y-112696666D01*
X159148095Y-113839523D02*
X159338571Y-113934761D01*
X159814761Y-113934761D01*
X160005238Y-113839523D01*
X160100476Y-113649047D01*
X160100476Y-113458571D01*
X160005238Y-113268095D01*
X159814761Y-113172857D01*
X159338571Y-113172857D01*
X159148095Y-113077619D01*
X159433809Y-111839523D02*
X159719523Y-112125238D01*
X157910000Y-113934761D02*
X158100476Y-113839523D01*
X158195714Y-113649047D01*
X158195714Y-111934761D01*
X156386190Y-113839523D02*
X156576666Y-113934761D01*
X156957619Y-113934761D01*
X157148095Y-113839523D01*
X157243333Y-113649047D01*
X157243333Y-112887142D01*
X157148095Y-112696666D01*
X156957619Y-112601428D01*
X156576666Y-112601428D01*
X156386190Y-112696666D01*
X156290952Y-112887142D01*
X156290952Y-113077619D01*
X157243333Y-113268095D01*
X155624285Y-112601428D02*
X154576666Y-112601428D01*
X155624285Y-113934761D01*
X154576666Y-113934761D01*
D11*
X116363428Y-117268761D02*
X115220571Y-117268761D01*
X115792000Y-119268761D02*
X115792000Y-117268761D01*
X113887238Y-118221142D02*
X114553904Y-118221142D01*
X114553904Y-119268761D02*
X114553904Y-117268761D01*
X113601523Y-117268761D01*
X112839619Y-119268761D02*
X112839619Y-117268761D01*
X112172952Y-118697333D01*
X111506285Y-117268761D01*
X111506285Y-119268761D01*
D10*
X109867047Y-64424666D02*
X109867047Y-65615142D01*
X112367047Y-65615142D01*
X109867047Y-62281809D02*
X109867047Y-63710380D01*
X109867047Y-62996095D02*
X112367047Y-62996095D01*
X112009904Y-63234190D01*
X111771809Y-63472285D01*
X111652761Y-63710380D01*
X183781047Y-74330666D02*
X183781047Y-75521142D01*
X186281047Y-75521142D01*
X186281047Y-73735428D02*
X186281047Y-72187809D01*
X185328666Y-73021142D01*
X185328666Y-72664000D01*
X185209619Y-72425904D01*
X185090571Y-72306857D01*
X184852476Y-72187809D01*
X184257238Y-72187809D01*
X184019142Y-72306857D01*
X183900095Y-72425904D01*
X183781047Y-72664000D01*
X183781047Y-73378285D01*
X183900095Y-73616380D01*
X184019142Y-73735428D01*
X183781047Y-59388285D02*
X186281047Y-59388285D01*
X183781047Y-57959714D01*
X186281047Y-57959714D01*
G36*
X171399099Y-57423343D02*
G01*
X171439015Y-57495335D01*
X171468335Y-57550237D01*
X171488728Y-57591039D01*
X171501862Y-57620726D01*
X171509405Y-57642286D01*
X171522762Y-57703177D01*
X171524810Y-57832941D01*
X171492755Y-57955093D01*
X171429723Y-58063395D01*
X171338838Y-58151610D01*
X171223228Y-58213499D01*
X171216064Y-58215520D01*
X171198376Y-58218445D01*
X171171389Y-58221140D01*
X171133686Y-58223612D01*
X171083847Y-58225869D01*
X171020455Y-58227917D01*
X170942092Y-58229764D01*
X170847341Y-58231417D01*
X170734782Y-58232885D01*
X170602999Y-58234173D01*
X170450572Y-58235289D01*
X170276085Y-58236242D01*
X170078119Y-58237037D01*
X169855256Y-58237683D01*
X169606078Y-58238187D01*
X169329167Y-58238556D01*
X169023105Y-58238797D01*
X168686475Y-58238918D01*
X168317857Y-58238926D01*
X167915835Y-58238828D01*
X167478990Y-58238633D01*
X167005904Y-58238346D01*
X166495159Y-58237976D01*
X161843471Y-58234384D01*
X161747829Y-58175252D01*
X161668968Y-58113238D01*
X161593055Y-58020387D01*
X161562219Y-57965907D01*
X161544053Y-57916368D01*
X161535844Y-57858162D01*
X161533923Y-57776127D01*
X161533923Y-57627601D01*
X161698124Y-57344839D01*
X161718395Y-57309938D01*
X161720505Y-57306307D01*
X162793664Y-57306307D01*
X166528148Y-57306307D01*
X166784837Y-57306294D01*
X167227803Y-57306200D01*
X167633839Y-57306006D01*
X168004336Y-57305703D01*
X168340685Y-57305282D01*
X168644277Y-57304734D01*
X168916504Y-57304049D01*
X169158756Y-57303220D01*
X169372424Y-57302236D01*
X169558899Y-57301088D01*
X169719573Y-57299767D01*
X169855837Y-57298265D01*
X169969081Y-57296571D01*
X170060696Y-57294677D01*
X170132074Y-57292574D01*
X170184605Y-57290252D01*
X170219681Y-57287703D01*
X170238693Y-57284917D01*
X170243032Y-57281884D01*
X170242897Y-57281715D01*
X170226994Y-57257040D01*
X170195214Y-57204283D01*
X170150950Y-57129200D01*
X170097597Y-57037545D01*
X170038549Y-56935077D01*
X169997575Y-56863670D01*
X169920138Y-56728881D01*
X169840041Y-56589633D01*
X169764644Y-56458717D01*
X169701305Y-56348923D01*
X169695768Y-56339338D01*
X169626066Y-56218603D01*
X169548918Y-56084886D01*
X169473326Y-55953791D01*
X169408290Y-55840923D01*
X169342466Y-55726705D01*
X169266083Y-55594291D01*
X169189027Y-55460809D01*
X169120778Y-55342692D01*
X169053832Y-55226835D01*
X168975227Y-55090687D01*
X168896536Y-54954295D01*
X168827589Y-54834692D01*
X168823135Y-54826962D01*
X168765369Y-54726838D01*
X168694361Y-54603950D01*
X168615955Y-54468397D01*
X168535990Y-54330278D01*
X168460308Y-54199692D01*
X168453663Y-54188232D01*
X168377345Y-54056529D01*
X168297286Y-53918225D01*
X168219328Y-53783418D01*
X168149311Y-53662208D01*
X168093074Y-53564692D01*
X168026307Y-53448835D01*
X167947776Y-53312687D01*
X167869046Y-53176295D01*
X167799944Y-53056692D01*
X167732225Y-52939427D01*
X167655297Y-52806005D01*
X167579022Y-52673540D01*
X167512866Y-52558461D01*
X167473440Y-52489865D01*
X167405790Y-52372348D01*
X167329979Y-52240823D01*
X167252686Y-52106871D01*
X167180588Y-51982077D01*
X167085354Y-51817343D01*
X166959650Y-51599821D01*
X166848167Y-51406810D01*
X166752249Y-51240634D01*
X166673238Y-51103618D01*
X166612476Y-50998088D01*
X166612376Y-50997914D01*
X166572109Y-50928758D01*
X166546033Y-50888975D01*
X166528962Y-50874018D01*
X166515713Y-50879341D01*
X166501101Y-50900396D01*
X166479328Y-50936500D01*
X166437207Y-51008021D01*
X166377892Y-51109780D01*
X166302534Y-51239795D01*
X166212285Y-51396080D01*
X166108298Y-51576654D01*
X165911837Y-51917844D01*
X165709146Y-52269135D01*
X165516418Y-52602423D01*
X165505033Y-52622091D01*
X165440813Y-52733125D01*
X165374691Y-52847588D01*
X165313833Y-52953068D01*
X165265405Y-53037154D01*
X165254016Y-53056952D01*
X165205257Y-53141626D01*
X165144147Y-53247623D01*
X165069482Y-53377027D01*
X164980061Y-53531922D01*
X164874681Y-53714391D01*
X164752139Y-53926517D01*
X164611231Y-54170384D01*
X164576022Y-54231327D01*
X164498826Y-54364992D01*
X164414394Y-54511238D01*
X164330754Y-54656158D01*
X164255934Y-54785846D01*
X164213400Y-54859584D01*
X164136628Y-54992657D01*
X164057928Y-55129050D01*
X163984449Y-55256371D01*
X163923341Y-55362230D01*
X163919341Y-55369158D01*
X163850664Y-55488128D01*
X163772418Y-55623704D01*
X163693932Y-55759718D01*
X163624539Y-55880000D01*
X163620405Y-55887165D01*
X163550099Y-56008997D01*
X163471292Y-56145489D01*
X163393322Y-56280470D01*
X163325530Y-56397769D01*
X163258239Y-56514265D01*
X163180392Y-56649215D01*
X163102799Y-56783878D01*
X163035123Y-56901489D01*
X163018479Y-56930395D01*
X162963250Y-57025653D01*
X162912143Y-57112894D01*
X162870238Y-57183475D01*
X162842619Y-57228758D01*
X162793664Y-57306307D01*
X161720505Y-57306307D01*
X161789499Y-57187600D01*
X161864184Y-57059204D01*
X161934720Y-56938037D01*
X161993376Y-56837384D01*
X162047903Y-56743643D01*
X162107158Y-56641299D01*
X162160956Y-56547936D01*
X162202153Y-56475923D01*
X162239638Y-56410188D01*
X162311836Y-56284312D01*
X162403529Y-56125124D01*
X162514576Y-55932869D01*
X162644832Y-55707796D01*
X162794154Y-55450154D01*
X162927285Y-55220451D01*
X163103022Y-54916740D01*
X163274785Y-54619269D01*
X163451818Y-54312038D01*
X163481790Y-54259984D01*
X163596487Y-54060913D01*
X163725016Y-53838004D01*
X163862913Y-53598992D01*
X164005712Y-53351612D01*
X164148950Y-53103599D01*
X164288161Y-52862688D01*
X164418880Y-52636615D01*
X164444199Y-52592833D01*
X164516207Y-52468240D01*
X164599490Y-52324055D01*
X164688236Y-52170345D01*
X164776632Y-52017177D01*
X164858867Y-51874615D01*
X164890874Y-51819119D01*
X164976992Y-51669869D01*
X165067362Y-51513330D01*
X165156044Y-51359789D01*
X165237095Y-51219532D01*
X165304577Y-51102846D01*
X165308833Y-51095490D01*
X165448595Y-50853803D01*
X165570662Y-50642383D01*
X165676982Y-50457845D01*
X165769498Y-50296800D01*
X165850156Y-50155864D01*
X165920904Y-50031649D01*
X165983685Y-49920769D01*
X166041949Y-49820823D01*
X166121599Y-49698429D01*
X166194987Y-49606220D01*
X166266011Y-49540138D01*
X166338570Y-49496123D01*
X166416561Y-49470119D01*
X166482482Y-49458173D01*
X166555013Y-49456612D01*
X166638346Y-49470314D01*
X166663741Y-49476745D01*
X166733135Y-49504903D01*
X166799580Y-49550315D01*
X166866564Y-49616790D01*
X166937573Y-49708136D01*
X167016093Y-49828160D01*
X167105611Y-49980670D01*
X167122746Y-50010935D01*
X167193119Y-50134797D01*
X167268210Y-50266411D01*
X167340058Y-50391841D01*
X167400700Y-50497154D01*
X167431864Y-50551061D01*
X167475124Y-50625914D01*
X167520756Y-50704903D01*
X167571213Y-50792272D01*
X167628943Y-50892266D01*
X167696398Y-51009130D01*
X167776028Y-51147107D01*
X167870284Y-51310444D01*
X167981616Y-51503384D01*
X167986712Y-51512217D01*
X168053148Y-51627343D01*
X168129315Y-51759321D01*
X168206204Y-51892539D01*
X168274804Y-52011384D01*
X168304918Y-52063572D01*
X168376063Y-52186974D01*
X168455194Y-52324336D01*
X168534654Y-52462366D01*
X168606785Y-52587769D01*
X168674099Y-52704695D01*
X168754972Y-52844906D01*
X168841999Y-52995577D01*
X168928406Y-53144979D01*
X169007419Y-53281384D01*
X169030887Y-53321862D01*
X169186933Y-53591129D01*
X169323758Y-53827475D01*
X169441780Y-54031624D01*
X169541419Y-54204301D01*
X169623094Y-54346230D01*
X169628999Y-54356507D01*
X169679983Y-54445125D01*
X169742171Y-54553061D01*
X169808242Y-54667613D01*
X169870871Y-54776077D01*
X169891483Y-54811762D01*
X169942362Y-54899913D01*
X170008270Y-55014161D01*
X170086326Y-55149506D01*
X170173645Y-55300947D01*
X170267345Y-55463485D01*
X170364542Y-55632117D01*
X170462352Y-55801846D01*
X170519221Y-55900516D01*
X170615837Y-56068059D01*
X170709571Y-56230494D01*
X170797653Y-56383029D01*
X170877315Y-56520871D01*
X170945787Y-56639227D01*
X171000300Y-56733303D01*
X171038084Y-56798307D01*
X171100109Y-56904736D01*
X171199092Y-57074958D01*
X171280806Y-57216142D01*
X171318557Y-57281884D01*
X171346918Y-57331274D01*
X171399099Y-57423343D01*
G37*
G36*
X166256156Y-53242323D02*
G01*
X166425724Y-53242575D01*
X166561657Y-53243278D01*
X166667883Y-53244619D01*
X166748330Y-53246784D01*
X166806927Y-53249960D01*
X166847601Y-53254333D01*
X166874282Y-53260089D01*
X166890896Y-53267416D01*
X166901373Y-53276500D01*
X166911863Y-53290544D01*
X166942369Y-53336147D01*
X166986231Y-53404638D01*
X167039302Y-53489503D01*
X167097432Y-53584230D01*
X167120431Y-53622016D01*
X167197448Y-53748173D01*
X167283097Y-53888029D01*
X167368493Y-54027086D01*
X167444746Y-54150846D01*
X167480529Y-54208877D01*
X167552408Y-54325879D01*
X167623582Y-54442223D01*
X167687419Y-54547059D01*
X167737289Y-54629538D01*
X167767679Y-54679792D01*
X167826981Y-54776519D01*
X167884471Y-54868842D01*
X167931095Y-54942154D01*
X168013348Y-55069154D01*
X167533443Y-55074379D01*
X167500669Y-55074753D01*
X167349910Y-55077067D01*
X167234191Y-55080107D01*
X167150117Y-55084083D01*
X167094298Y-55089199D01*
X167063341Y-55095665D01*
X167053853Y-55103687D01*
X167053877Y-55104577D01*
X167055332Y-55113940D01*
X167060063Y-55129285D01*
X167069529Y-55153886D01*
X167085190Y-55191019D01*
X167108504Y-55243961D01*
X167140931Y-55315988D01*
X167183930Y-55410375D01*
X167238961Y-55530399D01*
X167307483Y-55679336D01*
X167390954Y-55860461D01*
X167425255Y-55934862D01*
X167517170Y-56134301D01*
X167594437Y-56302107D01*
X167658360Y-56441156D01*
X167710243Y-56554324D01*
X167751391Y-56644487D01*
X167783110Y-56714523D01*
X167806704Y-56767305D01*
X167823477Y-56805712D01*
X167834734Y-56832620D01*
X167841780Y-56850904D01*
X167845920Y-56863440D01*
X167843913Y-56863599D01*
X167820358Y-56844617D01*
X167772186Y-56800816D01*
X167701420Y-56734162D01*
X167610082Y-56646616D01*
X167500192Y-56540144D01*
X167373774Y-56416707D01*
X167232849Y-56278271D01*
X167079439Y-56126798D01*
X166915566Y-55964252D01*
X166743252Y-55792597D01*
X166667362Y-55716771D01*
X166498079Y-55547120D01*
X166338226Y-55386226D01*
X166189838Y-55236174D01*
X166054948Y-55099050D01*
X165935592Y-54976940D01*
X165833803Y-54871928D01*
X165751615Y-54786099D01*
X165691061Y-54721541D01*
X165654177Y-54680337D01*
X165642997Y-54664573D01*
X165643175Y-54664421D01*
X165667261Y-54660322D01*
X165725022Y-54656280D01*
X165811251Y-54652486D01*
X165920740Y-54649133D01*
X166048282Y-54646412D01*
X166188669Y-54644514D01*
X166719488Y-54639307D01*
X166104975Y-53955787D01*
X165985913Y-53823071D01*
X165869828Y-53693087D01*
X165764578Y-53574639D01*
X165672723Y-53470637D01*
X165596824Y-53383991D01*
X165539441Y-53317610D01*
X165503133Y-53274406D01*
X165490462Y-53257287D01*
X165506011Y-53254129D01*
X165556477Y-53250914D01*
X165637625Y-53248070D01*
X165745056Y-53245692D01*
X165874370Y-53243875D01*
X166021168Y-53242715D01*
X166181049Y-53242307D01*
X166256156Y-53242323D01*
G37*
G36*
X128219099Y-74441343D02*
G01*
X128259015Y-74513335D01*
X128288335Y-74568237D01*
X128308728Y-74609039D01*
X128321862Y-74638726D01*
X128329405Y-74660286D01*
X128342762Y-74721177D01*
X128344810Y-74850941D01*
X128312755Y-74973093D01*
X128249723Y-75081395D01*
X128158838Y-75169610D01*
X128043228Y-75231499D01*
X128036064Y-75233520D01*
X128018376Y-75236445D01*
X127991389Y-75239140D01*
X127953686Y-75241612D01*
X127903847Y-75243869D01*
X127840455Y-75245917D01*
X127762092Y-75247764D01*
X127667341Y-75249417D01*
X127554782Y-75250885D01*
X127422999Y-75252173D01*
X127270572Y-75253289D01*
X127096085Y-75254242D01*
X126898119Y-75255037D01*
X126675256Y-75255683D01*
X126426078Y-75256187D01*
X126149167Y-75256556D01*
X125843105Y-75256797D01*
X125506475Y-75256918D01*
X125137857Y-75256926D01*
X124735835Y-75256828D01*
X124298990Y-75256633D01*
X123825904Y-75256346D01*
X123315159Y-75255976D01*
X118663471Y-75252384D01*
X118567829Y-75193252D01*
X118488968Y-75131238D01*
X118413055Y-75038387D01*
X118382219Y-74983907D01*
X118364053Y-74934368D01*
X118355844Y-74876162D01*
X118353923Y-74794127D01*
X118353923Y-74645601D01*
X118518124Y-74362839D01*
X118538395Y-74327938D01*
X118540505Y-74324307D01*
X119613664Y-74324307D01*
X123348148Y-74324307D01*
X123604837Y-74324294D01*
X124047803Y-74324200D01*
X124453839Y-74324006D01*
X124824336Y-74323703D01*
X125160685Y-74323282D01*
X125464277Y-74322734D01*
X125736504Y-74322049D01*
X125978756Y-74321220D01*
X126192424Y-74320236D01*
X126378899Y-74319088D01*
X126539573Y-74317767D01*
X126675837Y-74316265D01*
X126789081Y-74314571D01*
X126880696Y-74312677D01*
X126952074Y-74310574D01*
X127004605Y-74308252D01*
X127039681Y-74305703D01*
X127058693Y-74302917D01*
X127063032Y-74299884D01*
X127062897Y-74299715D01*
X127046994Y-74275040D01*
X127015214Y-74222283D01*
X126970950Y-74147200D01*
X126917597Y-74055545D01*
X126858549Y-73953077D01*
X126817575Y-73881670D01*
X126740138Y-73746881D01*
X126660041Y-73607633D01*
X126584644Y-73476717D01*
X126521305Y-73366923D01*
X126515768Y-73357338D01*
X126446066Y-73236603D01*
X126368918Y-73102886D01*
X126293326Y-72971791D01*
X126228290Y-72858923D01*
X126162466Y-72744705D01*
X126086083Y-72612291D01*
X126009027Y-72478809D01*
X125940778Y-72360692D01*
X125873832Y-72244835D01*
X125795227Y-72108687D01*
X125716536Y-71972295D01*
X125647589Y-71852692D01*
X125643135Y-71844962D01*
X125585369Y-71744838D01*
X125514361Y-71621950D01*
X125435955Y-71486397D01*
X125355990Y-71348278D01*
X125280308Y-71217692D01*
X125273663Y-71206232D01*
X125197345Y-71074529D01*
X125117286Y-70936225D01*
X125039328Y-70801418D01*
X124969311Y-70680208D01*
X124913074Y-70582692D01*
X124846307Y-70466835D01*
X124767776Y-70330687D01*
X124689046Y-70194295D01*
X124619944Y-70074692D01*
X124552225Y-69957427D01*
X124475297Y-69824005D01*
X124399022Y-69691540D01*
X124332866Y-69576461D01*
X124293440Y-69507865D01*
X124225790Y-69390348D01*
X124149979Y-69258823D01*
X124072686Y-69124871D01*
X124000588Y-69000077D01*
X123905354Y-68835343D01*
X123779650Y-68617821D01*
X123668167Y-68424810D01*
X123572249Y-68258634D01*
X123493238Y-68121618D01*
X123432476Y-68016088D01*
X123432376Y-68015914D01*
X123392109Y-67946758D01*
X123366033Y-67906975D01*
X123348962Y-67892018D01*
X123335713Y-67897341D01*
X123321101Y-67918396D01*
X123299328Y-67954500D01*
X123257207Y-68026021D01*
X123197892Y-68127780D01*
X123122534Y-68257795D01*
X123032285Y-68414080D01*
X122928298Y-68594654D01*
X122731837Y-68935844D01*
X122529146Y-69287135D01*
X122336418Y-69620423D01*
X122325033Y-69640091D01*
X122260813Y-69751125D01*
X122194691Y-69865588D01*
X122133833Y-69971068D01*
X122085405Y-70055154D01*
X122074016Y-70074952D01*
X122025257Y-70159626D01*
X121964147Y-70265623D01*
X121889482Y-70395027D01*
X121800061Y-70549922D01*
X121694681Y-70732391D01*
X121572139Y-70944517D01*
X121431231Y-71188384D01*
X121396022Y-71249327D01*
X121318826Y-71382992D01*
X121234394Y-71529238D01*
X121150754Y-71674158D01*
X121075934Y-71803846D01*
X121033400Y-71877584D01*
X120956628Y-72010657D01*
X120877928Y-72147050D01*
X120804449Y-72274371D01*
X120743341Y-72380230D01*
X120739341Y-72387158D01*
X120670664Y-72506128D01*
X120592418Y-72641704D01*
X120513932Y-72777718D01*
X120444539Y-72898000D01*
X120440405Y-72905165D01*
X120370099Y-73026997D01*
X120291292Y-73163489D01*
X120213322Y-73298470D01*
X120145530Y-73415769D01*
X120078239Y-73532265D01*
X120000392Y-73667215D01*
X119922799Y-73801878D01*
X119855123Y-73919489D01*
X119838479Y-73948395D01*
X119783250Y-74043653D01*
X119732143Y-74130894D01*
X119690238Y-74201475D01*
X119662619Y-74246758D01*
X119613664Y-74324307D01*
X118540505Y-74324307D01*
X118609499Y-74205600D01*
X118684184Y-74077204D01*
X118754720Y-73956037D01*
X118813376Y-73855384D01*
X118867903Y-73761643D01*
X118927158Y-73659299D01*
X118980956Y-73565936D01*
X119022153Y-73493923D01*
X119059638Y-73428188D01*
X119131836Y-73302312D01*
X119223529Y-73143124D01*
X119334576Y-72950869D01*
X119464832Y-72725796D01*
X119614154Y-72468154D01*
X119747285Y-72238451D01*
X119923022Y-71934740D01*
X120094785Y-71637269D01*
X120271818Y-71330038D01*
X120301790Y-71277984D01*
X120416487Y-71078913D01*
X120545016Y-70856004D01*
X120682913Y-70616992D01*
X120825712Y-70369612D01*
X120968950Y-70121599D01*
X121108161Y-69880688D01*
X121238880Y-69654615D01*
X121264199Y-69610833D01*
X121336207Y-69486240D01*
X121419490Y-69342055D01*
X121508236Y-69188345D01*
X121596632Y-69035177D01*
X121678867Y-68892615D01*
X121710874Y-68837119D01*
X121796992Y-68687869D01*
X121887362Y-68531330D01*
X121976044Y-68377789D01*
X122057095Y-68237532D01*
X122124577Y-68120846D01*
X122128833Y-68113490D01*
X122268595Y-67871803D01*
X122390662Y-67660383D01*
X122496982Y-67475845D01*
X122589498Y-67314800D01*
X122670156Y-67173864D01*
X122740904Y-67049649D01*
X122803685Y-66938769D01*
X122861949Y-66838823D01*
X122941599Y-66716429D01*
X123014987Y-66624220D01*
X123086011Y-66558138D01*
X123158570Y-66514123D01*
X123236561Y-66488119D01*
X123302482Y-66476173D01*
X123375013Y-66474612D01*
X123458346Y-66488314D01*
X123483741Y-66494745D01*
X123553135Y-66522903D01*
X123619580Y-66568315D01*
X123686564Y-66634790D01*
X123757573Y-66726136D01*
X123836093Y-66846160D01*
X123925611Y-66998670D01*
X123942746Y-67028935D01*
X124013119Y-67152797D01*
X124088210Y-67284411D01*
X124160058Y-67409841D01*
X124220700Y-67515154D01*
X124251864Y-67569061D01*
X124295124Y-67643914D01*
X124340756Y-67722903D01*
X124391213Y-67810272D01*
X124448943Y-67910266D01*
X124516398Y-68027130D01*
X124596028Y-68165107D01*
X124690284Y-68328444D01*
X124801616Y-68521384D01*
X124806712Y-68530217D01*
X124873148Y-68645343D01*
X124949315Y-68777321D01*
X125026204Y-68910539D01*
X125094804Y-69029384D01*
X125124918Y-69081572D01*
X125196063Y-69204974D01*
X125275194Y-69342336D01*
X125354654Y-69480366D01*
X125426785Y-69605769D01*
X125494099Y-69722695D01*
X125574972Y-69862906D01*
X125661999Y-70013577D01*
X125748406Y-70162979D01*
X125827419Y-70299384D01*
X125850887Y-70339862D01*
X126006933Y-70609129D01*
X126143758Y-70845475D01*
X126261780Y-71049624D01*
X126361419Y-71222301D01*
X126443094Y-71364230D01*
X126448999Y-71374507D01*
X126499983Y-71463125D01*
X126562171Y-71571061D01*
X126628242Y-71685613D01*
X126690871Y-71794077D01*
X126711483Y-71829762D01*
X126762362Y-71917913D01*
X126828270Y-72032161D01*
X126906326Y-72167506D01*
X126993645Y-72318947D01*
X127087345Y-72481485D01*
X127184542Y-72650117D01*
X127282352Y-72819846D01*
X127339221Y-72918516D01*
X127435837Y-73086059D01*
X127529571Y-73248494D01*
X127617653Y-73401029D01*
X127697315Y-73538871D01*
X127765787Y-73657227D01*
X127820300Y-73751303D01*
X127858084Y-73816307D01*
X127920109Y-73922736D01*
X128019092Y-74092958D01*
X128100806Y-74234142D01*
X128138557Y-74299884D01*
X128166918Y-74349274D01*
X128219099Y-74441343D01*
G37*
G36*
X123076156Y-70260323D02*
G01*
X123245724Y-70260575D01*
X123381657Y-70261278D01*
X123487883Y-70262619D01*
X123568330Y-70264784D01*
X123626927Y-70267960D01*
X123667601Y-70272333D01*
X123694282Y-70278089D01*
X123710896Y-70285416D01*
X123721373Y-70294500D01*
X123731863Y-70308544D01*
X123762369Y-70354147D01*
X123806231Y-70422638D01*
X123859302Y-70507503D01*
X123917432Y-70602230D01*
X123940431Y-70640016D01*
X124017448Y-70766173D01*
X124103097Y-70906029D01*
X124188493Y-71045086D01*
X124264746Y-71168846D01*
X124300529Y-71226877D01*
X124372408Y-71343879D01*
X124443582Y-71460223D01*
X124507419Y-71565059D01*
X124557289Y-71647538D01*
X124587679Y-71697792D01*
X124646981Y-71794519D01*
X124704471Y-71886842D01*
X124751095Y-71960154D01*
X124833348Y-72087154D01*
X124353443Y-72092379D01*
X124320669Y-72092753D01*
X124169910Y-72095067D01*
X124054191Y-72098107D01*
X123970117Y-72102083D01*
X123914298Y-72107199D01*
X123883341Y-72113665D01*
X123873853Y-72121687D01*
X123873877Y-72122577D01*
X123875332Y-72131940D01*
X123880063Y-72147285D01*
X123889529Y-72171886D01*
X123905190Y-72209019D01*
X123928504Y-72261961D01*
X123960931Y-72333988D01*
X124003930Y-72428375D01*
X124058961Y-72548399D01*
X124127483Y-72697336D01*
X124210954Y-72878461D01*
X124245255Y-72952862D01*
X124337170Y-73152301D01*
X124414437Y-73320107D01*
X124478360Y-73459156D01*
X124530243Y-73572324D01*
X124571391Y-73662487D01*
X124603110Y-73732523D01*
X124626704Y-73785305D01*
X124643477Y-73823712D01*
X124654734Y-73850620D01*
X124661780Y-73868904D01*
X124665920Y-73881440D01*
X124663913Y-73881599D01*
X124640358Y-73862617D01*
X124592186Y-73818816D01*
X124521420Y-73752162D01*
X124430082Y-73664616D01*
X124320192Y-73558144D01*
X124193774Y-73434707D01*
X124052849Y-73296271D01*
X123899439Y-73144798D01*
X123735566Y-72982252D01*
X123563252Y-72810597D01*
X123487362Y-72734771D01*
X123318079Y-72565120D01*
X123158226Y-72404226D01*
X123009838Y-72254174D01*
X122874948Y-72117050D01*
X122755592Y-71994940D01*
X122653803Y-71889928D01*
X122571615Y-71804099D01*
X122511061Y-71739541D01*
X122474177Y-71698337D01*
X122462997Y-71682573D01*
X122463175Y-71682421D01*
X122487261Y-71678322D01*
X122545022Y-71674280D01*
X122631251Y-71670486D01*
X122740740Y-71667133D01*
X122868282Y-71664412D01*
X123008669Y-71662514D01*
X123539488Y-71657307D01*
X122924975Y-70973787D01*
X122805913Y-70841071D01*
X122689828Y-70711087D01*
X122584578Y-70592639D01*
X122492723Y-70488637D01*
X122416824Y-70401991D01*
X122359441Y-70335610D01*
X122323133Y-70292406D01*
X122310462Y-70275287D01*
X122326011Y-70272129D01*
X122376477Y-70268914D01*
X122457625Y-70266070D01*
X122565056Y-70263692D01*
X122694370Y-70261875D01*
X122841168Y-70260715D01*
X123001049Y-70260307D01*
X123076156Y-70260323D01*
G37*
%LPC*%
D13*
X182992000Y-128293000D03*
X178192000Y-128293000D03*
D14*
X183392000Y-131593000D03*
X177792000Y-131593000D03*
X178392000Y-124293000D03*
X182792000Y-124293000D03*
D15*
X137424000Y-112776000D03*
D16*
X139964000Y-112776000D03*
X142504000Y-112776000D03*
X145044000Y-112776000D03*
D15*
X152654000Y-126746000D03*
D16*
X152654000Y-129286000D03*
X152654000Y-131826000D03*
D17*
X145714000Y-70090000D03*
X145714000Y-58090000D03*
D15*
X142240000Y-135382000D03*
D16*
X144780000Y-135382000D03*
D18*
X182564000Y-89090000D03*
D19*
X195264000Y-89090000D03*
X195264000Y-99090000D03*
X182564000Y-99090000D03*
D13*
X193152000Y-128293000D03*
X188352000Y-128293000D03*
D14*
X193552000Y-131593000D03*
X187952000Y-131593000D03*
X188552000Y-124293000D03*
X192952000Y-124293000D03*
D20*
X102996000Y-91336000D03*
X101596000Y-98836000D03*
D17*
X123699000Y-52995000D03*
X123699000Y-64995000D03*
D21*
X194339000Y-107665000D03*
D22*
X194339000Y-107665000D03*
D17*
X166199000Y-62995000D03*
X166199000Y-74995000D03*
D23*
X182854000Y-82340000D03*
D24*
X190474000Y-82340000D03*
D15*
X161954000Y-126746000D03*
D16*
X161954000Y-129286000D03*
X161954000Y-131826000D03*
D23*
X145102000Y-82340000D03*
D24*
X152722000Y-82340000D03*
D21*
X102264000Y-50800000D03*
D22*
X102264000Y-50800000D03*
D19*
X114619000Y-82685000D03*
X114619000Y-87685000D03*
X114619000Y-104185000D03*
X114619000Y-106685000D03*
D13*
X168032000Y-128293000D03*
X172832000Y-128293000D03*
D14*
X167632000Y-131593000D03*
X173232000Y-131593000D03*
X168232000Y-124293000D03*
X172632000Y-124293000D03*
D21*
X102264000Y-108300000D03*
D22*
X102264000Y-108300000D03*
D18*
X163814000Y-89090000D03*
D19*
X176514000Y-89090000D03*
X176514000Y-99090000D03*
X163814000Y-99090000D03*
D15*
X157304000Y-126746000D03*
D16*
X157304000Y-129286000D03*
X157304000Y-131826000D03*
D25*
X105514000Y-58990000D03*
D26*
X105514000Y-63990000D03*
X105514000Y-68990000D03*
X105514000Y-73990000D03*
D23*
X163978000Y-82340000D03*
D24*
X171598000Y-82340000D03*
D27*
X135165000Y-93222000D03*
X132625000Y-93222000D03*
X130085000Y-93222000D03*
D18*
X145064000Y-89090000D03*
D19*
X157764000Y-89090000D03*
X157764000Y-99090000D03*
X145064000Y-99090000D03*
D21*
X194339000Y-50800000D03*
D22*
X194339000Y-50800000D03*
D25*
X191014000Y-74015000D03*
D26*
X191014000Y-69015000D03*
X191014000Y-64015000D03*
X191014000Y-59015000D03*
M02*
