%TF.GenerationSoftware,KiCad,Pcbnew,6.0.4-6f826c9f35~116~ubuntu20.04.1*%
%TF.CreationDate,2022-05-05T18:32:33+02:00*%
%TF.ProjectId,tfm,74666d2e-6b69-4636-9164-5f7063625858,1.0*%
%TF.SameCoordinates,Original*%
%TF.FileFunction,Soldermask,Top*%
%TF.FilePolarity,Negative*%
%FSLAX46Y46*%
G04 Gerber Fmt 4.6, Leading zero omitted, Abs format (unit mm)*
G04 Created by KiCad (PCBNEW 6.0.4-6f826c9f35~116~ubuntu20.04.1) date 2022-05-05 18:32:33*
%MOMM*%
%LPD*%
G01*
G04 APERTURE LIST*
G04 Aperture macros list*
%AMRoundRect*
0 Rectangle with rounded corners*
0 $1 Rounding radius*
0 $2 $3 $4 $5 $6 $7 $8 $9 X,Y pos of 4 corners*
0 Add a 4 corners polygon primitive as box body*
4,1,4,$2,$3,$4,$5,$6,$7,$8,$9,$2,$3,0*
0 Add four circle primitives for the rounded corners*
1,1,$1+$1,$2,$3*
1,1,$1+$1,$4,$5*
1,1,$1+$1,$6,$7*
1,1,$1+$1,$8,$9*
0 Add four rect primitives between the rounded corners*
20,1,$1+$1,$2,$3,$4,$5,0*
20,1,$1+$1,$4,$5,$6,$7,0*
20,1,$1+$1,$6,$7,$8,$9,0*
20,1,$1+$1,$8,$9,$2,$3,0*%
G04 Aperture macros list end*
%ADD10C,1.500000*%
%ADD11C,2.000000*%
%ADD12RoundRect,0.135000X0.135000X0.185000X-0.135000X0.185000X-0.135000X-0.185000X0.135000X-0.185000X0*%
%ADD13R,2.000000X1.500000*%
%ADD14R,2.000000X3.800000*%
%ADD15RoundRect,0.135000X-0.135000X-0.185000X0.135000X-0.185000X0.135000X0.185000X-0.135000X0.185000X0*%
%ADD16RoundRect,0.140000X-0.170000X0.140000X-0.170000X-0.140000X0.170000X-0.140000X0.170000X0.140000X0*%
%ADD17RoundRect,0.135000X-0.185000X0.135000X-0.185000X-0.135000X0.185000X-0.135000X0.185000X0.135000X0*%
%ADD18R,1.700000X1.700000*%
%ADD19O,1.700000X1.700000*%
%ADD20RoundRect,0.140000X0.140000X0.170000X-0.140000X0.170000X-0.140000X-0.170000X0.140000X-0.170000X0*%
%ADD21R,0.750000X2.100000*%
%ADD22RoundRect,0.750000X6.750000X0.000000X6.750000X0.000000X-6.750000X0.000000X-6.750000X0.000000X0*%
%ADD23RoundRect,0.150000X0.150000X-0.825000X0.150000X0.825000X-0.150000X0.825000X-0.150000X-0.825000X0*%
%ADD24R,1.524000X1.524000*%
%ADD25C,1.524000*%
%ADD26RoundRect,0.147500X0.147500X0.172500X-0.147500X0.172500X-0.147500X-0.172500X0.147500X-0.172500X0*%
%ADD27RoundRect,0.135000X0.185000X-0.135000X0.185000X0.135000X-0.185000X0.135000X-0.185000X-0.135000X0*%
%ADD28R,0.500000X0.300000*%
%ADD29RoundRect,0.100000X-0.637500X-0.100000X0.637500X-0.100000X0.637500X0.100000X-0.637500X0.100000X0*%
%ADD30RoundRect,0.100000X0.637500X0.100000X-0.637500X0.100000X-0.637500X-0.100000X0.637500X-0.100000X0*%
%ADD31RoundRect,0.250000X-1.425000X0.425000X-1.425000X-0.425000X1.425000X-0.425000X1.425000X0.425000X0*%
%ADD32RoundRect,0.100000X-0.100000X0.175000X-0.100000X-0.175000X0.100000X-0.175000X0.100000X0.175000X0*%
%ADD33RoundRect,0.100000X-0.175000X0.100000X-0.175000X-0.100000X0.175000X-0.100000X0.175000X0.100000X0*%
%ADD34C,1.800000*%
%ADD35C,6.400000*%
%ADD36C,3.600000*%
%ADD37C,1.600000*%
%ADD38O,1.600000X1.600000*%
%ADD39RoundRect,0.250000X-0.650000X0.325000X-0.650000X-0.325000X0.650000X-0.325000X0.650000X0.325000X0*%
%ADD40RoundRect,0.250000X0.650000X-0.325000X0.650000X0.325000X-0.650000X0.325000X-0.650000X-0.325000X0*%
%ADD41R,0.500000X0.400000*%
%ADD42RoundRect,0.140000X-0.140000X-0.170000X0.140000X-0.170000X0.140000X0.170000X-0.140000X0.170000X0*%
%ADD43R,3.960000X1.980000*%
%ADD44O,3.960000X1.980000*%
%ADD45RoundRect,0.087500X0.312500X0.087500X-0.312500X0.087500X-0.312500X-0.087500X0.312500X-0.087500X0*%
%ADD46RoundRect,0.087500X0.087500X0.312500X-0.087500X0.312500X-0.087500X-0.312500X0.087500X-0.312500X0*%
%ADD47RoundRect,0.100000X0.400000X0.650000X-0.400000X0.650000X-0.400000X-0.650000X0.400000X-0.650000X0*%
%ADD48C,1.440000*%
G04 APERTURE END LIST*
D10*
X182992000Y-128293000D03*
X178192000Y-128293000D03*
D11*
X183392000Y-131593000D03*
X177792000Y-131593000D03*
X178392000Y-124293000D03*
X182792000Y-124293000D03*
D12*
X191262000Y-122174000D03*
X190242000Y-122174000D03*
D13*
X128102000Y-102946000D03*
D14*
X134402000Y-105246000D03*
D13*
X128102000Y-105246000D03*
X128102000Y-107546000D03*
D10*
X120650000Y-114554000D03*
D15*
X126294000Y-87122000D03*
X127314000Y-87122000D03*
D16*
X178816000Y-115880000D03*
X178816000Y-116840000D03*
D17*
X170544000Y-107818000D03*
X170544000Y-108838000D03*
D12*
X170942000Y-122174000D03*
X169922000Y-122174000D03*
D16*
X171308000Y-65889000D03*
X171308000Y-66849000D03*
D12*
X151924000Y-104990000D03*
X150904000Y-104990000D03*
D16*
X151088000Y-61110000D03*
X151088000Y-62070000D03*
D10*
X164084000Y-106172000D03*
D18*
X137424000Y-112776000D03*
D19*
X139964000Y-112776000D03*
X142504000Y-112776000D03*
X145044000Y-112776000D03*
D16*
X149564000Y-61110000D03*
X149564000Y-62070000D03*
D12*
X131345000Y-88777000D03*
X130325000Y-88777000D03*
D16*
X170688000Y-110236000D03*
X170688000Y-111196000D03*
D10*
X188468000Y-110236000D03*
D20*
X101474000Y-132035000D03*
X100514000Y-132035000D03*
D18*
X152654000Y-126746000D03*
D19*
X152654000Y-129286000D03*
X152654000Y-131826000D03*
D17*
X178564000Y-113380000D03*
X178564000Y-114400000D03*
D21*
X117309000Y-129790000D03*
X117309000Y-133390000D03*
X118579000Y-129790000D03*
X118579000Y-133390000D03*
X119849000Y-129790000D03*
X119849000Y-133390000D03*
X121119000Y-129790000D03*
X121119000Y-133390000D03*
D12*
X138814000Y-84225000D03*
X137794000Y-84225000D03*
D22*
X145714000Y-70090000D03*
X145714000Y-58090000D03*
D23*
X143809000Y-66675000D03*
X145079000Y-66675000D03*
X146349000Y-66675000D03*
X147619000Y-66675000D03*
X147619000Y-61725000D03*
X146349000Y-61725000D03*
X145079000Y-61725000D03*
X143809000Y-61725000D03*
D18*
X142240000Y-135382000D03*
D19*
X144780000Y-135382000D03*
D17*
X160314000Y-107900000D03*
X160314000Y-108920000D03*
D24*
X182564000Y-89090000D03*
D25*
X195264000Y-89090000D03*
X195264000Y-99090000D03*
X182564000Y-99090000D03*
D10*
X193152000Y-128293000D03*
X188352000Y-128293000D03*
D11*
X193552000Y-131593000D03*
X187952000Y-131593000D03*
X188552000Y-124293000D03*
X192952000Y-124293000D03*
D26*
X103435000Y-119550000D03*
X102465000Y-119550000D03*
D17*
X172458000Y-114044000D03*
X172458000Y-115064000D03*
D15*
X105916000Y-119550000D03*
X106936000Y-119550000D03*
D27*
X178562000Y-119888000D03*
X178562000Y-118868000D03*
D17*
X176962000Y-118868000D03*
X176962000Y-119888000D03*
D10*
X116840000Y-114554000D03*
D15*
X105916000Y-120904000D03*
X106936000Y-120904000D03*
D28*
X101694000Y-134975000D03*
X101694000Y-134175000D03*
X100294000Y-134175000D03*
X100294000Y-134975000D03*
D29*
X129851500Y-81640000D03*
X129851500Y-82290000D03*
X129851500Y-82940000D03*
X129851500Y-83590000D03*
X129851500Y-84240000D03*
X129851500Y-84890000D03*
X129851500Y-85540000D03*
X135576500Y-85540000D03*
X135576500Y-84890000D03*
X135576500Y-84240000D03*
X135576500Y-83590000D03*
X135576500Y-82940000D03*
X135576500Y-82290000D03*
X135576500Y-81640000D03*
D10*
X165100000Y-122428000D03*
D12*
X132404000Y-113590000D03*
X131384000Y-113590000D03*
D16*
X169844000Y-65916000D03*
X169844000Y-66876000D03*
D10*
X175514000Y-122428000D03*
D30*
X168326500Y-112140000D03*
X168326500Y-111490000D03*
X168326500Y-110840000D03*
X168326500Y-110190000D03*
X168326500Y-109540000D03*
X168326500Y-108890000D03*
X168326500Y-108240000D03*
X162601500Y-108240000D03*
X162601500Y-108890000D03*
X162601500Y-109540000D03*
X162601500Y-110190000D03*
X162601500Y-110840000D03*
X162601500Y-111490000D03*
X162601500Y-112140000D03*
D12*
X127314000Y-85852000D03*
X126294000Y-85852000D03*
D31*
X102296000Y-80756000D03*
X102296000Y-86556000D03*
D15*
X105916000Y-115316000D03*
X106936000Y-115316000D03*
D32*
X107009000Y-133650000D03*
X106409000Y-133650000D03*
D33*
X105784000Y-133975000D03*
X105784000Y-134575000D03*
X105784000Y-135175000D03*
D32*
X106409000Y-135500000D03*
X107009000Y-135500000D03*
D33*
X107634000Y-135175000D03*
X107634000Y-134575000D03*
X107634000Y-133975000D03*
D27*
X188464000Y-118100000D03*
X188464000Y-117080000D03*
D12*
X189424000Y-104990000D03*
X188404000Y-104990000D03*
D34*
X102996000Y-91336000D03*
X101596000Y-98836000D03*
D15*
X105916000Y-116586000D03*
X106936000Y-116586000D03*
D22*
X123699000Y-52995000D03*
X123699000Y-64995000D03*
D23*
X121794000Y-61580000D03*
X123064000Y-61580000D03*
X124334000Y-61580000D03*
X125604000Y-61580000D03*
X125604000Y-56630000D03*
X124334000Y-56630000D03*
X123064000Y-56630000D03*
X121794000Y-56630000D03*
D27*
X158514000Y-108920000D03*
X158514000Y-107900000D03*
D35*
X194339000Y-107665000D03*
D36*
X194339000Y-107665000D03*
D17*
X189964000Y-117080000D03*
X189964000Y-118100000D03*
D16*
X125730000Y-83566000D03*
X125730000Y-84526000D03*
D22*
X166199000Y-62995000D03*
X166199000Y-74995000D03*
D23*
X164294000Y-71580000D03*
X165564000Y-71580000D03*
X166834000Y-71580000D03*
X168104000Y-71580000D03*
X168104000Y-66630000D03*
X166834000Y-66630000D03*
X165564000Y-66630000D03*
X164294000Y-66630000D03*
D37*
X182854000Y-82340000D03*
D38*
X190474000Y-82340000D03*
D18*
X161954000Y-126746000D03*
D19*
X161954000Y-129286000D03*
X161954000Y-131826000D03*
D37*
X145102000Y-82340000D03*
D38*
X152722000Y-82340000D03*
D16*
X127254000Y-83566000D03*
X127254000Y-84526000D03*
D12*
X170674000Y-104990000D03*
X169654000Y-104990000D03*
D39*
X124968000Y-107442000D03*
X124968000Y-110392000D03*
D10*
X185674000Y-122682000D03*
D36*
X102264000Y-50800000D03*
D35*
X102264000Y-50800000D03*
D25*
X114619000Y-82685000D03*
X114619000Y-87685000D03*
X114619000Y-104185000D03*
X114619000Y-106685000D03*
D16*
X141920000Y-66384000D03*
X141920000Y-67344000D03*
D40*
X124968000Y-104042000D03*
X124968000Y-101092000D03*
D10*
X168032000Y-128293000D03*
X172832000Y-128293000D03*
D11*
X167632000Y-131593000D03*
X173232000Y-131593000D03*
X168232000Y-124293000D03*
X172632000Y-124293000D03*
D20*
X142720000Y-130048000D03*
X141760000Y-130048000D03*
D36*
X102264000Y-108300000D03*
D35*
X102264000Y-108300000D03*
D24*
X163814000Y-89090000D03*
D25*
X176514000Y-89090000D03*
X176514000Y-99090000D03*
X163814000Y-99090000D03*
D12*
X132394000Y-114990000D03*
X131374000Y-114990000D03*
D18*
X157304000Y-126746000D03*
D19*
X157304000Y-129286000D03*
X157304000Y-131826000D03*
D41*
X102694000Y-115636000D03*
X102694000Y-116336000D03*
X103994000Y-116336000D03*
X103994000Y-115636000D03*
D15*
X105916000Y-117850000D03*
X106936000Y-117850000D03*
D26*
X103400000Y-120850000D03*
X102430000Y-120850000D03*
D27*
X170688000Y-115064000D03*
X170688000Y-114044000D03*
D10*
X145796000Y-106172000D03*
D12*
X135030000Y-88777000D03*
X134010000Y-88777000D03*
D42*
X106229000Y-131400000D03*
X107189000Y-131400000D03*
D16*
X127608000Y-56050000D03*
X127608000Y-57010000D03*
D43*
X105514000Y-58990000D03*
D44*
X105514000Y-63990000D03*
X105514000Y-68990000D03*
X105514000Y-73990000D03*
D16*
X177292000Y-115880000D03*
X177292000Y-116840000D03*
D29*
X180631500Y-113805000D03*
X180631500Y-114455000D03*
X180631500Y-115105000D03*
X180631500Y-115755000D03*
X180631500Y-116405000D03*
X180631500Y-117055000D03*
X180631500Y-117705000D03*
X186356500Y-117705000D03*
X186356500Y-117055000D03*
X186356500Y-116405000D03*
X186356500Y-115755000D03*
X186356500Y-115105000D03*
X186356500Y-114455000D03*
X186356500Y-113805000D03*
D12*
X126648000Y-80772000D03*
X125628000Y-80772000D03*
D37*
X163978000Y-82340000D03*
D38*
X171598000Y-82340000D03*
D16*
X129132000Y-56050000D03*
X129132000Y-57010000D03*
X162240000Y-71238000D03*
X162240000Y-72198000D03*
D45*
X136090000Y-130444000D03*
X136090000Y-129794000D03*
X136090000Y-129144000D03*
X136090000Y-128494000D03*
X136090000Y-127844000D03*
X136090000Y-127194000D03*
X136090000Y-126544000D03*
X136090000Y-125894000D03*
X136090000Y-125244000D03*
X136090000Y-124594000D03*
X136090000Y-123944000D03*
X136090000Y-123294000D03*
X136090000Y-122644000D03*
X136090000Y-121994000D03*
X136090000Y-121344000D03*
X136090000Y-120694000D03*
X136090000Y-120044000D03*
D46*
X135690000Y-118844000D03*
X135040000Y-118844000D03*
X134390000Y-118844000D03*
X133740000Y-118844000D03*
X133090000Y-118844000D03*
X132440000Y-118844000D03*
X131790000Y-118844000D03*
X131140000Y-118844000D03*
X130490000Y-118844000D03*
X129840000Y-118844000D03*
X129190000Y-118844000D03*
X128540000Y-118844000D03*
X127890000Y-118844000D03*
X127240000Y-118844000D03*
X126590000Y-118844000D03*
X125940000Y-118844000D03*
X125290000Y-118844000D03*
D45*
X124890000Y-120044000D03*
X124890000Y-120694000D03*
X124890000Y-121344000D03*
X124890000Y-121994000D03*
X124890000Y-122644000D03*
X124890000Y-123294000D03*
X124890000Y-123944000D03*
X124890000Y-124594000D03*
X124890000Y-125244000D03*
X124890000Y-125894000D03*
X124890000Y-126544000D03*
X124890000Y-127194000D03*
X124890000Y-127844000D03*
X124890000Y-128494000D03*
X124890000Y-129144000D03*
X124890000Y-129794000D03*
X124890000Y-130444000D03*
D46*
X125940000Y-130444000D03*
X126590000Y-130444000D03*
X127240000Y-130444000D03*
X127890000Y-130444000D03*
X128540000Y-130444000D03*
D45*
X126590000Y-129144000D03*
X126590000Y-128494000D03*
X126590000Y-127844000D03*
X126590000Y-127194000D03*
D47*
X129240000Y-126944000D03*
X129240000Y-124094000D03*
X132040000Y-124094000D03*
X132040000Y-126944000D03*
D48*
X135165000Y-93222000D03*
X132625000Y-93222000D03*
X130085000Y-93222000D03*
D24*
X145064000Y-89090000D03*
D25*
X157764000Y-89090000D03*
X157764000Y-99090000D03*
X145064000Y-99090000D03*
D12*
X181102000Y-122174000D03*
X180082000Y-122174000D03*
D10*
X182626000Y-106172000D03*
D16*
X120076000Y-61360000D03*
X120076000Y-62320000D03*
D15*
X125628000Y-82042000D03*
X126648000Y-82042000D03*
D10*
X144780000Y-132334000D03*
D35*
X194339000Y-50800000D03*
D36*
X194339000Y-50800000D03*
D42*
X144300000Y-130048000D03*
X145260000Y-130048000D03*
D10*
X142240000Y-132334000D03*
D27*
X176964000Y-114400000D03*
X176964000Y-113380000D03*
D15*
X137794000Y-85495000D03*
X138814000Y-85495000D03*
D43*
X191014000Y-74015000D03*
D44*
X191014000Y-69015000D03*
X191014000Y-64015000D03*
X191014000Y-59015000D03*
D16*
X172212000Y-110236000D03*
X172212000Y-111196000D03*
D27*
X172314000Y-108838000D03*
X172314000Y-107818000D03*
D20*
X132394000Y-116490000D03*
X131434000Y-116490000D03*
M02*
