%TF.GenerationSoftware,KiCad,Pcbnew,6.0.4-6f826c9f35~116~ubuntu20.04.1*%
%TF.CreationDate,2022-05-05T18:32:33+02:00*%
%TF.ProjectId,tfm,74666d2e-6b69-4636-9164-5f7063625858,1.0*%
%TF.SameCoordinates,Original*%
%TF.FileFunction,Soldermask,Bot*%
%TF.FilePolarity,Negative*%
%FSLAX46Y46*%
G04 Gerber Fmt 4.6, Leading zero omitted, Abs format (unit mm)*
G04 Created by KiCad (PCBNEW 6.0.4-6f826c9f35~116~ubuntu20.04.1) date 2022-05-05 18:32:33*
%MOMM*%
%LPD*%
G01*
G04 APERTURE LIST*
G04 Aperture macros list*
%AMRoundRect*
0 Rectangle with rounded corners*
0 $1 Rounding radius*
0 $2 $3 $4 $5 $6 $7 $8 $9 X,Y pos of 4 corners*
0 Add a 4 corners polygon primitive as box body*
4,1,4,$2,$3,$4,$5,$6,$7,$8,$9,$2,$3,0*
0 Add four circle primitives for the rounded corners*
1,1,$1+$1,$2,$3*
1,1,$1+$1,$4,$5*
1,1,$1+$1,$6,$7*
1,1,$1+$1,$8,$9*
0 Add four rect primitives between the rounded corners*
20,1,$1+$1,$2,$3,$4,$5,0*
20,1,$1+$1,$4,$5,$6,$7,0*
20,1,$1+$1,$6,$7,$8,$9,0*
20,1,$1+$1,$8,$9,$2,$3,0*%
G04 Aperture macros list end*
%ADD10C,1.500000*%
%ADD11C,2.000000*%
%ADD12R,1.700000X1.700000*%
%ADD13O,1.700000X1.700000*%
%ADD14RoundRect,0.750000X6.750000X0.000000X6.750000X0.000000X-6.750000X0.000000X-6.750000X0.000000X0*%
%ADD15R,1.524000X1.524000*%
%ADD16C,1.524000*%
%ADD17C,1.800000*%
%ADD18C,6.400000*%
%ADD19C,3.600000*%
%ADD20C,1.600000*%
%ADD21O,1.600000X1.600000*%
%ADD22R,3.960000X1.980000*%
%ADD23O,3.960000X1.980000*%
%ADD24C,1.440000*%
G04 APERTURE END LIST*
D10*
X182992000Y-128293000D03*
X178192000Y-128293000D03*
D11*
X183392000Y-131593000D03*
X177792000Y-131593000D03*
X178392000Y-124293000D03*
X182792000Y-124293000D03*
D12*
X137424000Y-112776000D03*
D13*
X139964000Y-112776000D03*
X142504000Y-112776000D03*
X145044000Y-112776000D03*
D12*
X152654000Y-126746000D03*
D13*
X152654000Y-129286000D03*
X152654000Y-131826000D03*
D14*
X145714000Y-70090000D03*
X145714000Y-58090000D03*
D12*
X142240000Y-135382000D03*
D13*
X144780000Y-135382000D03*
D15*
X182564000Y-89090000D03*
D16*
X195264000Y-89090000D03*
X195264000Y-99090000D03*
X182564000Y-99090000D03*
D10*
X193152000Y-128293000D03*
X188352000Y-128293000D03*
D11*
X193552000Y-131593000D03*
X187952000Y-131593000D03*
X188552000Y-124293000D03*
X192952000Y-124293000D03*
D17*
X102996000Y-91336000D03*
X101596000Y-98836000D03*
D14*
X123699000Y-52995000D03*
X123699000Y-64995000D03*
D18*
X194339000Y-107665000D03*
D19*
X194339000Y-107665000D03*
D14*
X166199000Y-62995000D03*
X166199000Y-74995000D03*
D20*
X182854000Y-82340000D03*
D21*
X190474000Y-82340000D03*
D12*
X161954000Y-126746000D03*
D13*
X161954000Y-129286000D03*
X161954000Y-131826000D03*
D20*
X145102000Y-82340000D03*
D21*
X152722000Y-82340000D03*
D18*
X102264000Y-50800000D03*
D19*
X102264000Y-50800000D03*
D16*
X114619000Y-82685000D03*
X114619000Y-87685000D03*
X114619000Y-104185000D03*
X114619000Y-106685000D03*
D10*
X168032000Y-128293000D03*
X172832000Y-128293000D03*
D11*
X167632000Y-131593000D03*
X173232000Y-131593000D03*
X168232000Y-124293000D03*
X172632000Y-124293000D03*
D18*
X102264000Y-108300000D03*
D19*
X102264000Y-108300000D03*
D15*
X163814000Y-89090000D03*
D16*
X176514000Y-89090000D03*
X176514000Y-99090000D03*
X163814000Y-99090000D03*
D12*
X157304000Y-126746000D03*
D13*
X157304000Y-129286000D03*
X157304000Y-131826000D03*
D22*
X105514000Y-58990000D03*
D23*
X105514000Y-63990000D03*
X105514000Y-68990000D03*
X105514000Y-73990000D03*
D20*
X163978000Y-82340000D03*
D21*
X171598000Y-82340000D03*
D24*
X135165000Y-93222000D03*
X132625000Y-93222000D03*
X130085000Y-93222000D03*
D15*
X145064000Y-89090000D03*
D16*
X157764000Y-89090000D03*
X157764000Y-99090000D03*
X145064000Y-99090000D03*
D18*
X194339000Y-50800000D03*
D19*
X194339000Y-50800000D03*
D22*
X191014000Y-74015000D03*
D23*
X191014000Y-69015000D03*
X191014000Y-64015000D03*
X191014000Y-59015000D03*
M02*
